G04 #@! TF.FileFunction,Legend,Top*
%FSLAX46Y46*%
G04 Gerber Fmt 4.6, Leading zero omitted, Abs format (unit mm)*
G04 Created by KiCad (PCBNEW 4.0.7) date Monday, 21 May 2018 'PMt' 08:13:31 PM*
%MOMM*%
%LPD*%
G01*
G04 APERTURE LIST*
%ADD10C,0.100000*%
%ADD11C,0.250000*%
%ADD12C,0.120000*%
%ADD13C,0.127000*%
%ADD14C,0.200000*%
%ADD15C,0.010000*%
%ADD16C,0.150000*%
%ADD17C,0.254000*%
G04 APERTURE END LIST*
D10*
D11*
X87166666Y-103166667D02*
X87642857Y-103166667D01*
X87071428Y-103452381D02*
X87404761Y-102452381D01*
X87738095Y-103452381D01*
X89500000Y-102452381D02*
X89738095Y-103452381D01*
X89928572Y-102738095D01*
X90119048Y-103452381D01*
X90357143Y-102452381D01*
X92595239Y-102928571D02*
X92738096Y-102976190D01*
X92785715Y-103023810D01*
X92833334Y-103119048D01*
X92833334Y-103261905D01*
X92785715Y-103357143D01*
X92738096Y-103404762D01*
X92642858Y-103452381D01*
X92261905Y-103452381D01*
X92261905Y-102452381D01*
X92595239Y-102452381D01*
X92690477Y-102500000D01*
X92738096Y-102547619D01*
X92785715Y-102642857D01*
X92785715Y-102738095D01*
X92738096Y-102833333D01*
X92690477Y-102880952D01*
X92595239Y-102928571D01*
X92261905Y-102928571D01*
X47166666Y-103166667D02*
X47642857Y-103166667D01*
X47071428Y-103452381D02*
X47404761Y-102452381D01*
X47738095Y-103452381D01*
X49500000Y-102452381D02*
X49738095Y-103452381D01*
X49928572Y-102738095D01*
X50119048Y-103452381D01*
X50357143Y-102452381D01*
X52595239Y-102928571D02*
X52738096Y-102976190D01*
X52785715Y-103023810D01*
X52833334Y-103119048D01*
X52833334Y-103261905D01*
X52785715Y-103357143D01*
X52738096Y-103404762D01*
X52642858Y-103452381D01*
X52261905Y-103452381D01*
X52261905Y-102452381D01*
X52595239Y-102452381D01*
X52690477Y-102500000D01*
X52738096Y-102547619D01*
X52785715Y-102642857D01*
X52785715Y-102738095D01*
X52738096Y-102833333D01*
X52690477Y-102880952D01*
X52595239Y-102928571D01*
X52261905Y-102928571D01*
X34500000Y-104142857D02*
X34452381Y-104238095D01*
X34452381Y-104380952D01*
X34500000Y-104523810D01*
X34595238Y-104619048D01*
X34690476Y-104666667D01*
X34880952Y-104714286D01*
X35023810Y-104714286D01*
X35214286Y-104666667D01*
X35309524Y-104619048D01*
X35404762Y-104523810D01*
X35452381Y-104380952D01*
X35452381Y-104285714D01*
X35404762Y-104142857D01*
X35357143Y-104095238D01*
X35023810Y-104095238D01*
X35023810Y-104285714D01*
X34785714Y-103666667D02*
X35452381Y-103666667D01*
X34880952Y-103666667D02*
X34833333Y-103619048D01*
X34785714Y-103523810D01*
X34785714Y-103380952D01*
X34833333Y-103285714D01*
X34928571Y-103238095D01*
X35452381Y-103238095D01*
X35452381Y-102333333D02*
X34452381Y-102333333D01*
X35404762Y-102333333D02*
X35452381Y-102428571D01*
X35452381Y-102619048D01*
X35404762Y-102714286D01*
X35357143Y-102761905D01*
X35261905Y-102809524D01*
X34976190Y-102809524D01*
X34880952Y-102761905D01*
X34833333Y-102714286D01*
X34785714Y-102619048D01*
X34785714Y-102428571D01*
X34833333Y-102333333D01*
X36952381Y-104690476D02*
X37952381Y-104357143D01*
X36952381Y-104023809D01*
X37904762Y-103261904D02*
X37952381Y-103357142D01*
X37952381Y-103547619D01*
X37904762Y-103642857D01*
X37857143Y-103690476D01*
X37761905Y-103738095D01*
X37476190Y-103738095D01*
X37380952Y-103690476D01*
X37333333Y-103642857D01*
X37285714Y-103547619D01*
X37285714Y-103357142D01*
X37333333Y-103261904D01*
X37904762Y-102404761D02*
X37952381Y-102499999D01*
X37952381Y-102690476D01*
X37904762Y-102785714D01*
X37857143Y-102833333D01*
X37761905Y-102880952D01*
X37476190Y-102880952D01*
X37380952Y-102833333D01*
X37333333Y-102785714D01*
X37285714Y-102690476D01*
X37285714Y-102499999D01*
X37333333Y-102404761D01*
X67166666Y-103166667D02*
X67642857Y-103166667D01*
X67071428Y-103452381D02*
X67404761Y-102452381D01*
X67738095Y-103452381D01*
X69500000Y-102452381D02*
X69738095Y-103452381D01*
X69928572Y-102738095D01*
X70119048Y-103452381D01*
X70357143Y-102452381D01*
X72595239Y-102928571D02*
X72738096Y-102976190D01*
X72785715Y-103023810D01*
X72833334Y-103119048D01*
X72833334Y-103261905D01*
X72785715Y-103357143D01*
X72738096Y-103404762D01*
X72642858Y-103452381D01*
X72261905Y-103452381D01*
X72261905Y-102452381D01*
X72595239Y-102452381D01*
X72690477Y-102500000D01*
X72738096Y-102547619D01*
X72785715Y-102642857D01*
X72785715Y-102738095D01*
X72738096Y-102833333D01*
X72690477Y-102880952D01*
X72595239Y-102928571D01*
X72261905Y-102928571D01*
X107166666Y-103166667D02*
X107642857Y-103166667D01*
X107071428Y-103452381D02*
X107404761Y-102452381D01*
X107738095Y-103452381D01*
X109500000Y-102452381D02*
X109738095Y-103452381D01*
X109928572Y-102738095D01*
X110119048Y-103452381D01*
X110357143Y-102452381D01*
X112595239Y-102928571D02*
X112738096Y-102976190D01*
X112785715Y-103023810D01*
X112833334Y-103119048D01*
X112833334Y-103261905D01*
X112785715Y-103357143D01*
X112738096Y-103404762D01*
X112642858Y-103452381D01*
X112261905Y-103452381D01*
X112261905Y-102452381D01*
X112595239Y-102452381D01*
X112690477Y-102500000D01*
X112738096Y-102547619D01*
X112785715Y-102642857D01*
X112785715Y-102738095D01*
X112738096Y-102833333D01*
X112690477Y-102880952D01*
X112595239Y-102928571D01*
X112261905Y-102928571D01*
X127166666Y-103166667D02*
X127642857Y-103166667D01*
X127071428Y-103452381D02*
X127404761Y-102452381D01*
X127738095Y-103452381D01*
X129500000Y-102452381D02*
X129738095Y-103452381D01*
X129928572Y-102738095D01*
X130119048Y-103452381D01*
X130357143Y-102452381D01*
X132595239Y-102928571D02*
X132738096Y-102976190D01*
X132785715Y-103023810D01*
X132833334Y-103119048D01*
X132833334Y-103261905D01*
X132785715Y-103357143D01*
X132738096Y-103404762D01*
X132642858Y-103452381D01*
X132261905Y-103452381D01*
X132261905Y-102452381D01*
X132595239Y-102452381D01*
X132690477Y-102500000D01*
X132738096Y-102547619D01*
X132785715Y-102642857D01*
X132785715Y-102738095D01*
X132738096Y-102833333D01*
X132690477Y-102880952D01*
X132595239Y-102928571D01*
X132261905Y-102928571D01*
X147166666Y-103166667D02*
X147642857Y-103166667D01*
X147071428Y-103452381D02*
X147404761Y-102452381D01*
X147738095Y-103452381D01*
X149500000Y-102452381D02*
X149738095Y-103452381D01*
X149928572Y-102738095D01*
X150119048Y-103452381D01*
X150357143Y-102452381D01*
X152595239Y-102928571D02*
X152738096Y-102976190D01*
X152785715Y-103023810D01*
X152833334Y-103119048D01*
X152833334Y-103261905D01*
X152785715Y-103357143D01*
X152738096Y-103404762D01*
X152642858Y-103452381D01*
X152261905Y-103452381D01*
X152261905Y-102452381D01*
X152595239Y-102452381D01*
X152690477Y-102500000D01*
X152738096Y-102547619D01*
X152785715Y-102642857D01*
X152785715Y-102738095D01*
X152738096Y-102833333D01*
X152690477Y-102880952D01*
X152595239Y-102928571D01*
X152261905Y-102928571D01*
X167166666Y-103166667D02*
X167642857Y-103166667D01*
X167071428Y-103452381D02*
X167404761Y-102452381D01*
X167738095Y-103452381D01*
X169500000Y-102452381D02*
X169738095Y-103452381D01*
X169928572Y-102738095D01*
X170119048Y-103452381D01*
X170357143Y-102452381D01*
X172595239Y-102928571D02*
X172738096Y-102976190D01*
X172785715Y-103023810D01*
X172833334Y-103119048D01*
X172833334Y-103261905D01*
X172785715Y-103357143D01*
X172738096Y-103404762D01*
X172642858Y-103452381D01*
X172261905Y-103452381D01*
X172261905Y-102452381D01*
X172595239Y-102452381D01*
X172690477Y-102500000D01*
X172738096Y-102547619D01*
X172785715Y-102642857D01*
X172785715Y-102738095D01*
X172738096Y-102833333D01*
X172690477Y-102880952D01*
X172595239Y-102928571D01*
X172261905Y-102928571D01*
X187166666Y-103166667D02*
X187642857Y-103166667D01*
X187071428Y-103452381D02*
X187404761Y-102452381D01*
X187738095Y-103452381D01*
X189500000Y-102452381D02*
X189738095Y-103452381D01*
X189928572Y-102738095D01*
X190119048Y-103452381D01*
X190357143Y-102452381D01*
X192595239Y-102928571D02*
X192738096Y-102976190D01*
X192785715Y-103023810D01*
X192833334Y-103119048D01*
X192833334Y-103261905D01*
X192785715Y-103357143D01*
X192738096Y-103404762D01*
X192642858Y-103452381D01*
X192261905Y-103452381D01*
X192261905Y-102452381D01*
X192595239Y-102452381D01*
X192690477Y-102500000D01*
X192738096Y-102547619D01*
X192785715Y-102642857D01*
X192785715Y-102738095D01*
X192738096Y-102833333D01*
X192690477Y-102880952D01*
X192595239Y-102928571D01*
X192261905Y-102928571D01*
X182785714Y-118928571D02*
X183071429Y-119690476D01*
X183357143Y-118928571D01*
X183071429Y-118452381D02*
X183071429Y-117690476D01*
X182452381Y-116595238D02*
X183452381Y-116261905D01*
X182452381Y-115928571D01*
X183404762Y-115166666D02*
X183452381Y-115261904D01*
X183452381Y-115452381D01*
X183404762Y-115547619D01*
X183357143Y-115595238D01*
X183261905Y-115642857D01*
X182976190Y-115642857D01*
X182880952Y-115595238D01*
X182833333Y-115547619D01*
X182785714Y-115452381D01*
X182785714Y-115261904D01*
X182833333Y-115166666D01*
X183404762Y-114309523D02*
X183452381Y-114404761D01*
X183452381Y-114595238D01*
X183404762Y-114690476D01*
X183357143Y-114738095D01*
X183261905Y-114785714D01*
X182976190Y-114785714D01*
X182880952Y-114738095D01*
X182833333Y-114690476D01*
X182785714Y-114595238D01*
X182785714Y-114404761D01*
X182833333Y-114309523D01*
X183785714Y-112880952D02*
X182357143Y-112880952D01*
X183404762Y-111452380D02*
X183452381Y-111309523D01*
X183452381Y-111071427D01*
X183404762Y-110976189D01*
X183357143Y-110928570D01*
X183261905Y-110880951D01*
X183166667Y-110880951D01*
X183071429Y-110928570D01*
X183023810Y-110976189D01*
X182976190Y-111071427D01*
X182928571Y-111261904D01*
X182880952Y-111357142D01*
X182833333Y-111404761D01*
X182738095Y-111452380D01*
X182642857Y-111452380D01*
X182547619Y-111404761D01*
X182500000Y-111357142D01*
X182452381Y-111261904D01*
X182452381Y-111023808D01*
X182500000Y-110880951D01*
X183452381Y-110452380D02*
X182785714Y-110452380D01*
X182452381Y-110452380D02*
X182500000Y-110499999D01*
X182547619Y-110452380D01*
X182500000Y-110404761D01*
X182452381Y-110452380D01*
X182547619Y-110452380D01*
X182785714Y-109547618D02*
X183595238Y-109547618D01*
X183690476Y-109595237D01*
X183738095Y-109642856D01*
X183785714Y-109738095D01*
X183785714Y-109880952D01*
X183738095Y-109976190D01*
X183404762Y-109547618D02*
X183452381Y-109642856D01*
X183452381Y-109833333D01*
X183404762Y-109928571D01*
X183357143Y-109976190D01*
X183261905Y-110023809D01*
X182976190Y-110023809D01*
X182880952Y-109976190D01*
X182833333Y-109928571D01*
X182785714Y-109833333D01*
X182785714Y-109642856D01*
X182833333Y-109547618D01*
X183071429Y-108309523D02*
X183071429Y-107547618D01*
X182785714Y-107071428D02*
X183071429Y-106309523D01*
X183357143Y-107071428D01*
X162785714Y-118928571D02*
X163071429Y-119690476D01*
X163357143Y-118928571D01*
X163071429Y-118452381D02*
X163071429Y-117690476D01*
X162452381Y-116595238D02*
X163452381Y-116261905D01*
X162452381Y-115928571D01*
X163404762Y-115166666D02*
X163452381Y-115261904D01*
X163452381Y-115452381D01*
X163404762Y-115547619D01*
X163357143Y-115595238D01*
X163261905Y-115642857D01*
X162976190Y-115642857D01*
X162880952Y-115595238D01*
X162833333Y-115547619D01*
X162785714Y-115452381D01*
X162785714Y-115261904D01*
X162833333Y-115166666D01*
X163404762Y-114309523D02*
X163452381Y-114404761D01*
X163452381Y-114595238D01*
X163404762Y-114690476D01*
X163357143Y-114738095D01*
X163261905Y-114785714D01*
X162976190Y-114785714D01*
X162880952Y-114738095D01*
X162833333Y-114690476D01*
X162785714Y-114595238D01*
X162785714Y-114404761D01*
X162833333Y-114309523D01*
X163785714Y-112880952D02*
X162357143Y-112880952D01*
X163404762Y-111452380D02*
X163452381Y-111309523D01*
X163452381Y-111071427D01*
X163404762Y-110976189D01*
X163357143Y-110928570D01*
X163261905Y-110880951D01*
X163166667Y-110880951D01*
X163071429Y-110928570D01*
X163023810Y-110976189D01*
X162976190Y-111071427D01*
X162928571Y-111261904D01*
X162880952Y-111357142D01*
X162833333Y-111404761D01*
X162738095Y-111452380D01*
X162642857Y-111452380D01*
X162547619Y-111404761D01*
X162500000Y-111357142D01*
X162452381Y-111261904D01*
X162452381Y-111023808D01*
X162500000Y-110880951D01*
X163452381Y-110452380D02*
X162785714Y-110452380D01*
X162452381Y-110452380D02*
X162500000Y-110499999D01*
X162547619Y-110452380D01*
X162500000Y-110404761D01*
X162452381Y-110452380D01*
X162547619Y-110452380D01*
X162785714Y-109547618D02*
X163595238Y-109547618D01*
X163690476Y-109595237D01*
X163738095Y-109642856D01*
X163785714Y-109738095D01*
X163785714Y-109880952D01*
X163738095Y-109976190D01*
X163404762Y-109547618D02*
X163452381Y-109642856D01*
X163452381Y-109833333D01*
X163404762Y-109928571D01*
X163357143Y-109976190D01*
X163261905Y-110023809D01*
X162976190Y-110023809D01*
X162880952Y-109976190D01*
X162833333Y-109928571D01*
X162785714Y-109833333D01*
X162785714Y-109642856D01*
X162833333Y-109547618D01*
X163071429Y-108309523D02*
X163071429Y-107547618D01*
X162785714Y-107071428D02*
X163071429Y-106309523D01*
X163357143Y-107071428D01*
X142785714Y-118928571D02*
X143071429Y-119690476D01*
X143357143Y-118928571D01*
X143071429Y-118452381D02*
X143071429Y-117690476D01*
X142452381Y-116595238D02*
X143452381Y-116261905D01*
X142452381Y-115928571D01*
X143404762Y-115166666D02*
X143452381Y-115261904D01*
X143452381Y-115452381D01*
X143404762Y-115547619D01*
X143357143Y-115595238D01*
X143261905Y-115642857D01*
X142976190Y-115642857D01*
X142880952Y-115595238D01*
X142833333Y-115547619D01*
X142785714Y-115452381D01*
X142785714Y-115261904D01*
X142833333Y-115166666D01*
X143404762Y-114309523D02*
X143452381Y-114404761D01*
X143452381Y-114595238D01*
X143404762Y-114690476D01*
X143357143Y-114738095D01*
X143261905Y-114785714D01*
X142976190Y-114785714D01*
X142880952Y-114738095D01*
X142833333Y-114690476D01*
X142785714Y-114595238D01*
X142785714Y-114404761D01*
X142833333Y-114309523D01*
X143785714Y-112880952D02*
X142357143Y-112880952D01*
X143404762Y-111452380D02*
X143452381Y-111309523D01*
X143452381Y-111071427D01*
X143404762Y-110976189D01*
X143357143Y-110928570D01*
X143261905Y-110880951D01*
X143166667Y-110880951D01*
X143071429Y-110928570D01*
X143023810Y-110976189D01*
X142976190Y-111071427D01*
X142928571Y-111261904D01*
X142880952Y-111357142D01*
X142833333Y-111404761D01*
X142738095Y-111452380D01*
X142642857Y-111452380D01*
X142547619Y-111404761D01*
X142500000Y-111357142D01*
X142452381Y-111261904D01*
X142452381Y-111023808D01*
X142500000Y-110880951D01*
X143452381Y-110452380D02*
X142785714Y-110452380D01*
X142452381Y-110452380D02*
X142500000Y-110499999D01*
X142547619Y-110452380D01*
X142500000Y-110404761D01*
X142452381Y-110452380D01*
X142547619Y-110452380D01*
X142785714Y-109547618D02*
X143595238Y-109547618D01*
X143690476Y-109595237D01*
X143738095Y-109642856D01*
X143785714Y-109738095D01*
X143785714Y-109880952D01*
X143738095Y-109976190D01*
X143404762Y-109547618D02*
X143452381Y-109642856D01*
X143452381Y-109833333D01*
X143404762Y-109928571D01*
X143357143Y-109976190D01*
X143261905Y-110023809D01*
X142976190Y-110023809D01*
X142880952Y-109976190D01*
X142833333Y-109928571D01*
X142785714Y-109833333D01*
X142785714Y-109642856D01*
X142833333Y-109547618D01*
X143071429Y-108309523D02*
X143071429Y-107547618D01*
X142785714Y-107071428D02*
X143071429Y-106309523D01*
X143357143Y-107071428D01*
X196785714Y-119047619D02*
X197071429Y-119809524D01*
X197357143Y-119047619D01*
X197071429Y-118571429D02*
X197071429Y-117809524D01*
X196500000Y-116047619D02*
X196452381Y-116142857D01*
X196452381Y-116285714D01*
X196500000Y-116428572D01*
X196595238Y-116523810D01*
X196690476Y-116571429D01*
X196880952Y-116619048D01*
X197023810Y-116619048D01*
X197214286Y-116571429D01*
X197309524Y-116523810D01*
X197404762Y-116428572D01*
X197452381Y-116285714D01*
X197452381Y-116190476D01*
X197404762Y-116047619D01*
X197357143Y-116000000D01*
X197023810Y-116000000D01*
X197023810Y-116190476D01*
X196785714Y-115571429D02*
X197452381Y-115571429D01*
X196880952Y-115571429D02*
X196833333Y-115523810D01*
X196785714Y-115428572D01*
X196785714Y-115285714D01*
X196833333Y-115190476D01*
X196928571Y-115142857D01*
X197452381Y-115142857D01*
X197452381Y-114238095D02*
X196452381Y-114238095D01*
X197404762Y-114238095D02*
X197452381Y-114333333D01*
X197452381Y-114523810D01*
X197404762Y-114619048D01*
X197357143Y-114666667D01*
X197261905Y-114714286D01*
X196976190Y-114714286D01*
X196880952Y-114666667D01*
X196833333Y-114619048D01*
X196785714Y-114523810D01*
X196785714Y-114333333D01*
X196833333Y-114238095D01*
X197785714Y-112761905D02*
X196357143Y-112761905D01*
X197404762Y-111333333D02*
X197452381Y-111190476D01*
X197452381Y-110952380D01*
X197404762Y-110857142D01*
X197357143Y-110809523D01*
X197261905Y-110761904D01*
X197166667Y-110761904D01*
X197071429Y-110809523D01*
X197023810Y-110857142D01*
X196976190Y-110952380D01*
X196928571Y-111142857D01*
X196880952Y-111238095D01*
X196833333Y-111285714D01*
X196738095Y-111333333D01*
X196642857Y-111333333D01*
X196547619Y-111285714D01*
X196500000Y-111238095D01*
X196452381Y-111142857D01*
X196452381Y-110904761D01*
X196500000Y-110761904D01*
X197452381Y-110333333D02*
X196785714Y-110333333D01*
X196452381Y-110333333D02*
X196500000Y-110380952D01*
X196547619Y-110333333D01*
X196500000Y-110285714D01*
X196452381Y-110333333D01*
X196547619Y-110333333D01*
X196785714Y-109428571D02*
X197595238Y-109428571D01*
X197690476Y-109476190D01*
X197738095Y-109523809D01*
X197785714Y-109619048D01*
X197785714Y-109761905D01*
X197738095Y-109857143D01*
X197404762Y-109428571D02*
X197452381Y-109523809D01*
X197452381Y-109714286D01*
X197404762Y-109809524D01*
X197357143Y-109857143D01*
X197261905Y-109904762D01*
X196976190Y-109904762D01*
X196880952Y-109857143D01*
X196833333Y-109809524D01*
X196785714Y-109714286D01*
X196785714Y-109523809D01*
X196833333Y-109428571D01*
X197071429Y-108190476D02*
X197071429Y-107428571D01*
X196785714Y-106952381D02*
X197071429Y-106190476D01*
X197357143Y-106952381D01*
X176785714Y-119047619D02*
X177071429Y-119809524D01*
X177357143Y-119047619D01*
X177071429Y-118571429D02*
X177071429Y-117809524D01*
X176500000Y-116047619D02*
X176452381Y-116142857D01*
X176452381Y-116285714D01*
X176500000Y-116428572D01*
X176595238Y-116523810D01*
X176690476Y-116571429D01*
X176880952Y-116619048D01*
X177023810Y-116619048D01*
X177214286Y-116571429D01*
X177309524Y-116523810D01*
X177404762Y-116428572D01*
X177452381Y-116285714D01*
X177452381Y-116190476D01*
X177404762Y-116047619D01*
X177357143Y-116000000D01*
X177023810Y-116000000D01*
X177023810Y-116190476D01*
X176785714Y-115571429D02*
X177452381Y-115571429D01*
X176880952Y-115571429D02*
X176833333Y-115523810D01*
X176785714Y-115428572D01*
X176785714Y-115285714D01*
X176833333Y-115190476D01*
X176928571Y-115142857D01*
X177452381Y-115142857D01*
X177452381Y-114238095D02*
X176452381Y-114238095D01*
X177404762Y-114238095D02*
X177452381Y-114333333D01*
X177452381Y-114523810D01*
X177404762Y-114619048D01*
X177357143Y-114666667D01*
X177261905Y-114714286D01*
X176976190Y-114714286D01*
X176880952Y-114666667D01*
X176833333Y-114619048D01*
X176785714Y-114523810D01*
X176785714Y-114333333D01*
X176833333Y-114238095D01*
X177785714Y-112761905D02*
X176357143Y-112761905D01*
X177404762Y-111333333D02*
X177452381Y-111190476D01*
X177452381Y-110952380D01*
X177404762Y-110857142D01*
X177357143Y-110809523D01*
X177261905Y-110761904D01*
X177166667Y-110761904D01*
X177071429Y-110809523D01*
X177023810Y-110857142D01*
X176976190Y-110952380D01*
X176928571Y-111142857D01*
X176880952Y-111238095D01*
X176833333Y-111285714D01*
X176738095Y-111333333D01*
X176642857Y-111333333D01*
X176547619Y-111285714D01*
X176500000Y-111238095D01*
X176452381Y-111142857D01*
X176452381Y-110904761D01*
X176500000Y-110761904D01*
X177452381Y-110333333D02*
X176785714Y-110333333D01*
X176452381Y-110333333D02*
X176500000Y-110380952D01*
X176547619Y-110333333D01*
X176500000Y-110285714D01*
X176452381Y-110333333D01*
X176547619Y-110333333D01*
X176785714Y-109428571D02*
X177595238Y-109428571D01*
X177690476Y-109476190D01*
X177738095Y-109523809D01*
X177785714Y-109619048D01*
X177785714Y-109761905D01*
X177738095Y-109857143D01*
X177404762Y-109428571D02*
X177452381Y-109523809D01*
X177452381Y-109714286D01*
X177404762Y-109809524D01*
X177357143Y-109857143D01*
X177261905Y-109904762D01*
X176976190Y-109904762D01*
X176880952Y-109857143D01*
X176833333Y-109809524D01*
X176785714Y-109714286D01*
X176785714Y-109523809D01*
X176833333Y-109428571D01*
X177071429Y-108190476D02*
X177071429Y-107428571D01*
X176785714Y-106952381D02*
X177071429Y-106190476D01*
X177357143Y-106952381D01*
X156785714Y-119047619D02*
X157071429Y-119809524D01*
X157357143Y-119047619D01*
X157071429Y-118571429D02*
X157071429Y-117809524D01*
X156500000Y-116047619D02*
X156452381Y-116142857D01*
X156452381Y-116285714D01*
X156500000Y-116428572D01*
X156595238Y-116523810D01*
X156690476Y-116571429D01*
X156880952Y-116619048D01*
X157023810Y-116619048D01*
X157214286Y-116571429D01*
X157309524Y-116523810D01*
X157404762Y-116428572D01*
X157452381Y-116285714D01*
X157452381Y-116190476D01*
X157404762Y-116047619D01*
X157357143Y-116000000D01*
X157023810Y-116000000D01*
X157023810Y-116190476D01*
X156785714Y-115571429D02*
X157452381Y-115571429D01*
X156880952Y-115571429D02*
X156833333Y-115523810D01*
X156785714Y-115428572D01*
X156785714Y-115285714D01*
X156833333Y-115190476D01*
X156928571Y-115142857D01*
X157452381Y-115142857D01*
X157452381Y-114238095D02*
X156452381Y-114238095D01*
X157404762Y-114238095D02*
X157452381Y-114333333D01*
X157452381Y-114523810D01*
X157404762Y-114619048D01*
X157357143Y-114666667D01*
X157261905Y-114714286D01*
X156976190Y-114714286D01*
X156880952Y-114666667D01*
X156833333Y-114619048D01*
X156785714Y-114523810D01*
X156785714Y-114333333D01*
X156833333Y-114238095D01*
X157785714Y-112761905D02*
X156357143Y-112761905D01*
X157404762Y-111333333D02*
X157452381Y-111190476D01*
X157452381Y-110952380D01*
X157404762Y-110857142D01*
X157357143Y-110809523D01*
X157261905Y-110761904D01*
X157166667Y-110761904D01*
X157071429Y-110809523D01*
X157023810Y-110857142D01*
X156976190Y-110952380D01*
X156928571Y-111142857D01*
X156880952Y-111238095D01*
X156833333Y-111285714D01*
X156738095Y-111333333D01*
X156642857Y-111333333D01*
X156547619Y-111285714D01*
X156500000Y-111238095D01*
X156452381Y-111142857D01*
X156452381Y-110904761D01*
X156500000Y-110761904D01*
X157452381Y-110333333D02*
X156785714Y-110333333D01*
X156452381Y-110333333D02*
X156500000Y-110380952D01*
X156547619Y-110333333D01*
X156500000Y-110285714D01*
X156452381Y-110333333D01*
X156547619Y-110333333D01*
X156785714Y-109428571D02*
X157595238Y-109428571D01*
X157690476Y-109476190D01*
X157738095Y-109523809D01*
X157785714Y-109619048D01*
X157785714Y-109761905D01*
X157738095Y-109857143D01*
X157404762Y-109428571D02*
X157452381Y-109523809D01*
X157452381Y-109714286D01*
X157404762Y-109809524D01*
X157357143Y-109857143D01*
X157261905Y-109904762D01*
X156976190Y-109904762D01*
X156880952Y-109857143D01*
X156833333Y-109809524D01*
X156785714Y-109714286D01*
X156785714Y-109523809D01*
X156833333Y-109428571D01*
X157071429Y-108190476D02*
X157071429Y-107428571D01*
X156785714Y-106952381D02*
X157071429Y-106190476D01*
X157357143Y-106952381D01*
X122785714Y-118928571D02*
X123071429Y-119690476D01*
X123357143Y-118928571D01*
X123071429Y-118452381D02*
X123071429Y-117690476D01*
X122452381Y-116595238D02*
X123452381Y-116261905D01*
X122452381Y-115928571D01*
X123404762Y-115166666D02*
X123452381Y-115261904D01*
X123452381Y-115452381D01*
X123404762Y-115547619D01*
X123357143Y-115595238D01*
X123261905Y-115642857D01*
X122976190Y-115642857D01*
X122880952Y-115595238D01*
X122833333Y-115547619D01*
X122785714Y-115452381D01*
X122785714Y-115261904D01*
X122833333Y-115166666D01*
X123404762Y-114309523D02*
X123452381Y-114404761D01*
X123452381Y-114595238D01*
X123404762Y-114690476D01*
X123357143Y-114738095D01*
X123261905Y-114785714D01*
X122976190Y-114785714D01*
X122880952Y-114738095D01*
X122833333Y-114690476D01*
X122785714Y-114595238D01*
X122785714Y-114404761D01*
X122833333Y-114309523D01*
X123785714Y-112880952D02*
X122357143Y-112880952D01*
X123404762Y-111452380D02*
X123452381Y-111309523D01*
X123452381Y-111071427D01*
X123404762Y-110976189D01*
X123357143Y-110928570D01*
X123261905Y-110880951D01*
X123166667Y-110880951D01*
X123071429Y-110928570D01*
X123023810Y-110976189D01*
X122976190Y-111071427D01*
X122928571Y-111261904D01*
X122880952Y-111357142D01*
X122833333Y-111404761D01*
X122738095Y-111452380D01*
X122642857Y-111452380D01*
X122547619Y-111404761D01*
X122500000Y-111357142D01*
X122452381Y-111261904D01*
X122452381Y-111023808D01*
X122500000Y-110880951D01*
X123452381Y-110452380D02*
X122785714Y-110452380D01*
X122452381Y-110452380D02*
X122500000Y-110499999D01*
X122547619Y-110452380D01*
X122500000Y-110404761D01*
X122452381Y-110452380D01*
X122547619Y-110452380D01*
X122785714Y-109547618D02*
X123595238Y-109547618D01*
X123690476Y-109595237D01*
X123738095Y-109642856D01*
X123785714Y-109738095D01*
X123785714Y-109880952D01*
X123738095Y-109976190D01*
X123404762Y-109547618D02*
X123452381Y-109642856D01*
X123452381Y-109833333D01*
X123404762Y-109928571D01*
X123357143Y-109976190D01*
X123261905Y-110023809D01*
X122976190Y-110023809D01*
X122880952Y-109976190D01*
X122833333Y-109928571D01*
X122785714Y-109833333D01*
X122785714Y-109642856D01*
X122833333Y-109547618D01*
X123071429Y-108309523D02*
X123071429Y-107547618D01*
X122785714Y-107071428D02*
X123071429Y-106309523D01*
X123357143Y-107071428D01*
X136785714Y-119047619D02*
X137071429Y-119809524D01*
X137357143Y-119047619D01*
X137071429Y-118571429D02*
X137071429Y-117809524D01*
X136500000Y-116047619D02*
X136452381Y-116142857D01*
X136452381Y-116285714D01*
X136500000Y-116428572D01*
X136595238Y-116523810D01*
X136690476Y-116571429D01*
X136880952Y-116619048D01*
X137023810Y-116619048D01*
X137214286Y-116571429D01*
X137309524Y-116523810D01*
X137404762Y-116428572D01*
X137452381Y-116285714D01*
X137452381Y-116190476D01*
X137404762Y-116047619D01*
X137357143Y-116000000D01*
X137023810Y-116000000D01*
X137023810Y-116190476D01*
X136785714Y-115571429D02*
X137452381Y-115571429D01*
X136880952Y-115571429D02*
X136833333Y-115523810D01*
X136785714Y-115428572D01*
X136785714Y-115285714D01*
X136833333Y-115190476D01*
X136928571Y-115142857D01*
X137452381Y-115142857D01*
X137452381Y-114238095D02*
X136452381Y-114238095D01*
X137404762Y-114238095D02*
X137452381Y-114333333D01*
X137452381Y-114523810D01*
X137404762Y-114619048D01*
X137357143Y-114666667D01*
X137261905Y-114714286D01*
X136976190Y-114714286D01*
X136880952Y-114666667D01*
X136833333Y-114619048D01*
X136785714Y-114523810D01*
X136785714Y-114333333D01*
X136833333Y-114238095D01*
X137785714Y-112761905D02*
X136357143Y-112761905D01*
X137404762Y-111333333D02*
X137452381Y-111190476D01*
X137452381Y-110952380D01*
X137404762Y-110857142D01*
X137357143Y-110809523D01*
X137261905Y-110761904D01*
X137166667Y-110761904D01*
X137071429Y-110809523D01*
X137023810Y-110857142D01*
X136976190Y-110952380D01*
X136928571Y-111142857D01*
X136880952Y-111238095D01*
X136833333Y-111285714D01*
X136738095Y-111333333D01*
X136642857Y-111333333D01*
X136547619Y-111285714D01*
X136500000Y-111238095D01*
X136452381Y-111142857D01*
X136452381Y-110904761D01*
X136500000Y-110761904D01*
X137452381Y-110333333D02*
X136785714Y-110333333D01*
X136452381Y-110333333D02*
X136500000Y-110380952D01*
X136547619Y-110333333D01*
X136500000Y-110285714D01*
X136452381Y-110333333D01*
X136547619Y-110333333D01*
X136785714Y-109428571D02*
X137595238Y-109428571D01*
X137690476Y-109476190D01*
X137738095Y-109523809D01*
X137785714Y-109619048D01*
X137785714Y-109761905D01*
X137738095Y-109857143D01*
X137404762Y-109428571D02*
X137452381Y-109523809D01*
X137452381Y-109714286D01*
X137404762Y-109809524D01*
X137357143Y-109857143D01*
X137261905Y-109904762D01*
X136976190Y-109904762D01*
X136880952Y-109857143D01*
X136833333Y-109809524D01*
X136785714Y-109714286D01*
X136785714Y-109523809D01*
X136833333Y-109428571D01*
X137071429Y-108190476D02*
X137071429Y-107428571D01*
X136785714Y-106952381D02*
X137071429Y-106190476D01*
X137357143Y-106952381D01*
X116785714Y-119047619D02*
X117071429Y-119809524D01*
X117357143Y-119047619D01*
X117071429Y-118571429D02*
X117071429Y-117809524D01*
X116500000Y-116047619D02*
X116452381Y-116142857D01*
X116452381Y-116285714D01*
X116500000Y-116428572D01*
X116595238Y-116523810D01*
X116690476Y-116571429D01*
X116880952Y-116619048D01*
X117023810Y-116619048D01*
X117214286Y-116571429D01*
X117309524Y-116523810D01*
X117404762Y-116428572D01*
X117452381Y-116285714D01*
X117452381Y-116190476D01*
X117404762Y-116047619D01*
X117357143Y-116000000D01*
X117023810Y-116000000D01*
X117023810Y-116190476D01*
X116785714Y-115571429D02*
X117452381Y-115571429D01*
X116880952Y-115571429D02*
X116833333Y-115523810D01*
X116785714Y-115428572D01*
X116785714Y-115285714D01*
X116833333Y-115190476D01*
X116928571Y-115142857D01*
X117452381Y-115142857D01*
X117452381Y-114238095D02*
X116452381Y-114238095D01*
X117404762Y-114238095D02*
X117452381Y-114333333D01*
X117452381Y-114523810D01*
X117404762Y-114619048D01*
X117357143Y-114666667D01*
X117261905Y-114714286D01*
X116976190Y-114714286D01*
X116880952Y-114666667D01*
X116833333Y-114619048D01*
X116785714Y-114523810D01*
X116785714Y-114333333D01*
X116833333Y-114238095D01*
X117785714Y-112761905D02*
X116357143Y-112761905D01*
X117404762Y-111333333D02*
X117452381Y-111190476D01*
X117452381Y-110952380D01*
X117404762Y-110857142D01*
X117357143Y-110809523D01*
X117261905Y-110761904D01*
X117166667Y-110761904D01*
X117071429Y-110809523D01*
X117023810Y-110857142D01*
X116976190Y-110952380D01*
X116928571Y-111142857D01*
X116880952Y-111238095D01*
X116833333Y-111285714D01*
X116738095Y-111333333D01*
X116642857Y-111333333D01*
X116547619Y-111285714D01*
X116500000Y-111238095D01*
X116452381Y-111142857D01*
X116452381Y-110904761D01*
X116500000Y-110761904D01*
X117452381Y-110333333D02*
X116785714Y-110333333D01*
X116452381Y-110333333D02*
X116500000Y-110380952D01*
X116547619Y-110333333D01*
X116500000Y-110285714D01*
X116452381Y-110333333D01*
X116547619Y-110333333D01*
X116785714Y-109428571D02*
X117595238Y-109428571D01*
X117690476Y-109476190D01*
X117738095Y-109523809D01*
X117785714Y-109619048D01*
X117785714Y-109761905D01*
X117738095Y-109857143D01*
X117404762Y-109428571D02*
X117452381Y-109523809D01*
X117452381Y-109714286D01*
X117404762Y-109809524D01*
X117357143Y-109857143D01*
X117261905Y-109904762D01*
X116976190Y-109904762D01*
X116880952Y-109857143D01*
X116833333Y-109809524D01*
X116785714Y-109714286D01*
X116785714Y-109523809D01*
X116833333Y-109428571D01*
X117071429Y-108190476D02*
X117071429Y-107428571D01*
X116785714Y-106952381D02*
X117071429Y-106190476D01*
X117357143Y-106952381D01*
X102785714Y-118928571D02*
X103071429Y-119690476D01*
X103357143Y-118928571D01*
X103071429Y-118452381D02*
X103071429Y-117690476D01*
X102452381Y-116595238D02*
X103452381Y-116261905D01*
X102452381Y-115928571D01*
X103404762Y-115166666D02*
X103452381Y-115261904D01*
X103452381Y-115452381D01*
X103404762Y-115547619D01*
X103357143Y-115595238D01*
X103261905Y-115642857D01*
X102976190Y-115642857D01*
X102880952Y-115595238D01*
X102833333Y-115547619D01*
X102785714Y-115452381D01*
X102785714Y-115261904D01*
X102833333Y-115166666D01*
X103404762Y-114309523D02*
X103452381Y-114404761D01*
X103452381Y-114595238D01*
X103404762Y-114690476D01*
X103357143Y-114738095D01*
X103261905Y-114785714D01*
X102976190Y-114785714D01*
X102880952Y-114738095D01*
X102833333Y-114690476D01*
X102785714Y-114595238D01*
X102785714Y-114404761D01*
X102833333Y-114309523D01*
X103785714Y-112880952D02*
X102357143Y-112880952D01*
X103404762Y-111452380D02*
X103452381Y-111309523D01*
X103452381Y-111071427D01*
X103404762Y-110976189D01*
X103357143Y-110928570D01*
X103261905Y-110880951D01*
X103166667Y-110880951D01*
X103071429Y-110928570D01*
X103023810Y-110976189D01*
X102976190Y-111071427D01*
X102928571Y-111261904D01*
X102880952Y-111357142D01*
X102833333Y-111404761D01*
X102738095Y-111452380D01*
X102642857Y-111452380D01*
X102547619Y-111404761D01*
X102500000Y-111357142D01*
X102452381Y-111261904D01*
X102452381Y-111023808D01*
X102500000Y-110880951D01*
X103452381Y-110452380D02*
X102785714Y-110452380D01*
X102452381Y-110452380D02*
X102500000Y-110499999D01*
X102547619Y-110452380D01*
X102500000Y-110404761D01*
X102452381Y-110452380D01*
X102547619Y-110452380D01*
X102785714Y-109547618D02*
X103595238Y-109547618D01*
X103690476Y-109595237D01*
X103738095Y-109642856D01*
X103785714Y-109738095D01*
X103785714Y-109880952D01*
X103738095Y-109976190D01*
X103404762Y-109547618D02*
X103452381Y-109642856D01*
X103452381Y-109833333D01*
X103404762Y-109928571D01*
X103357143Y-109976190D01*
X103261905Y-110023809D01*
X102976190Y-110023809D01*
X102880952Y-109976190D01*
X102833333Y-109928571D01*
X102785714Y-109833333D01*
X102785714Y-109642856D01*
X102833333Y-109547618D01*
X103071429Y-108309523D02*
X103071429Y-107547618D01*
X102785714Y-107071428D02*
X103071429Y-106309523D01*
X103357143Y-107071428D01*
X82785714Y-118928571D02*
X83071429Y-119690476D01*
X83357143Y-118928571D01*
X83071429Y-118452381D02*
X83071429Y-117690476D01*
X82452381Y-116595238D02*
X83452381Y-116261905D01*
X82452381Y-115928571D01*
X83404762Y-115166666D02*
X83452381Y-115261904D01*
X83452381Y-115452381D01*
X83404762Y-115547619D01*
X83357143Y-115595238D01*
X83261905Y-115642857D01*
X82976190Y-115642857D01*
X82880952Y-115595238D01*
X82833333Y-115547619D01*
X82785714Y-115452381D01*
X82785714Y-115261904D01*
X82833333Y-115166666D01*
X83404762Y-114309523D02*
X83452381Y-114404761D01*
X83452381Y-114595238D01*
X83404762Y-114690476D01*
X83357143Y-114738095D01*
X83261905Y-114785714D01*
X82976190Y-114785714D01*
X82880952Y-114738095D01*
X82833333Y-114690476D01*
X82785714Y-114595238D01*
X82785714Y-114404761D01*
X82833333Y-114309523D01*
X83785714Y-112880952D02*
X82357143Y-112880952D01*
X83404762Y-111452380D02*
X83452381Y-111309523D01*
X83452381Y-111071427D01*
X83404762Y-110976189D01*
X83357143Y-110928570D01*
X83261905Y-110880951D01*
X83166667Y-110880951D01*
X83071429Y-110928570D01*
X83023810Y-110976189D01*
X82976190Y-111071427D01*
X82928571Y-111261904D01*
X82880952Y-111357142D01*
X82833333Y-111404761D01*
X82738095Y-111452380D01*
X82642857Y-111452380D01*
X82547619Y-111404761D01*
X82500000Y-111357142D01*
X82452381Y-111261904D01*
X82452381Y-111023808D01*
X82500000Y-110880951D01*
X83452381Y-110452380D02*
X82785714Y-110452380D01*
X82452381Y-110452380D02*
X82500000Y-110499999D01*
X82547619Y-110452380D01*
X82500000Y-110404761D01*
X82452381Y-110452380D01*
X82547619Y-110452380D01*
X82785714Y-109547618D02*
X83595238Y-109547618D01*
X83690476Y-109595237D01*
X83738095Y-109642856D01*
X83785714Y-109738095D01*
X83785714Y-109880952D01*
X83738095Y-109976190D01*
X83404762Y-109547618D02*
X83452381Y-109642856D01*
X83452381Y-109833333D01*
X83404762Y-109928571D01*
X83357143Y-109976190D01*
X83261905Y-110023809D01*
X82976190Y-110023809D01*
X82880952Y-109976190D01*
X82833333Y-109928571D01*
X82785714Y-109833333D01*
X82785714Y-109642856D01*
X82833333Y-109547618D01*
X83071429Y-108309523D02*
X83071429Y-107547618D01*
X82785714Y-107071428D02*
X83071429Y-106309523D01*
X83357143Y-107071428D01*
X96785714Y-119047619D02*
X97071429Y-119809524D01*
X97357143Y-119047619D01*
X97071429Y-118571429D02*
X97071429Y-117809524D01*
X96500000Y-116047619D02*
X96452381Y-116142857D01*
X96452381Y-116285714D01*
X96500000Y-116428572D01*
X96595238Y-116523810D01*
X96690476Y-116571429D01*
X96880952Y-116619048D01*
X97023810Y-116619048D01*
X97214286Y-116571429D01*
X97309524Y-116523810D01*
X97404762Y-116428572D01*
X97452381Y-116285714D01*
X97452381Y-116190476D01*
X97404762Y-116047619D01*
X97357143Y-116000000D01*
X97023810Y-116000000D01*
X97023810Y-116190476D01*
X96785714Y-115571429D02*
X97452381Y-115571429D01*
X96880952Y-115571429D02*
X96833333Y-115523810D01*
X96785714Y-115428572D01*
X96785714Y-115285714D01*
X96833333Y-115190476D01*
X96928571Y-115142857D01*
X97452381Y-115142857D01*
X97452381Y-114238095D02*
X96452381Y-114238095D01*
X97404762Y-114238095D02*
X97452381Y-114333333D01*
X97452381Y-114523810D01*
X97404762Y-114619048D01*
X97357143Y-114666667D01*
X97261905Y-114714286D01*
X96976190Y-114714286D01*
X96880952Y-114666667D01*
X96833333Y-114619048D01*
X96785714Y-114523810D01*
X96785714Y-114333333D01*
X96833333Y-114238095D01*
X97785714Y-112761905D02*
X96357143Y-112761905D01*
X97404762Y-111333333D02*
X97452381Y-111190476D01*
X97452381Y-110952380D01*
X97404762Y-110857142D01*
X97357143Y-110809523D01*
X97261905Y-110761904D01*
X97166667Y-110761904D01*
X97071429Y-110809523D01*
X97023810Y-110857142D01*
X96976190Y-110952380D01*
X96928571Y-111142857D01*
X96880952Y-111238095D01*
X96833333Y-111285714D01*
X96738095Y-111333333D01*
X96642857Y-111333333D01*
X96547619Y-111285714D01*
X96500000Y-111238095D01*
X96452381Y-111142857D01*
X96452381Y-110904761D01*
X96500000Y-110761904D01*
X97452381Y-110333333D02*
X96785714Y-110333333D01*
X96452381Y-110333333D02*
X96500000Y-110380952D01*
X96547619Y-110333333D01*
X96500000Y-110285714D01*
X96452381Y-110333333D01*
X96547619Y-110333333D01*
X96785714Y-109428571D02*
X97595238Y-109428571D01*
X97690476Y-109476190D01*
X97738095Y-109523809D01*
X97785714Y-109619048D01*
X97785714Y-109761905D01*
X97738095Y-109857143D01*
X97404762Y-109428571D02*
X97452381Y-109523809D01*
X97452381Y-109714286D01*
X97404762Y-109809524D01*
X97357143Y-109857143D01*
X97261905Y-109904762D01*
X96976190Y-109904762D01*
X96880952Y-109857143D01*
X96833333Y-109809524D01*
X96785714Y-109714286D01*
X96785714Y-109523809D01*
X96833333Y-109428571D01*
X97071429Y-108190476D02*
X97071429Y-107428571D01*
X96785714Y-106952381D02*
X97071429Y-106190476D01*
X97357143Y-106952381D01*
X62785714Y-118928571D02*
X63071429Y-119690476D01*
X63357143Y-118928571D01*
X63071429Y-118452381D02*
X63071429Y-117690476D01*
X62452381Y-116595238D02*
X63452381Y-116261905D01*
X62452381Y-115928571D01*
X63404762Y-115166666D02*
X63452381Y-115261904D01*
X63452381Y-115452381D01*
X63404762Y-115547619D01*
X63357143Y-115595238D01*
X63261905Y-115642857D01*
X62976190Y-115642857D01*
X62880952Y-115595238D01*
X62833333Y-115547619D01*
X62785714Y-115452381D01*
X62785714Y-115261904D01*
X62833333Y-115166666D01*
X63404762Y-114309523D02*
X63452381Y-114404761D01*
X63452381Y-114595238D01*
X63404762Y-114690476D01*
X63357143Y-114738095D01*
X63261905Y-114785714D01*
X62976190Y-114785714D01*
X62880952Y-114738095D01*
X62833333Y-114690476D01*
X62785714Y-114595238D01*
X62785714Y-114404761D01*
X62833333Y-114309523D01*
X63785714Y-112880952D02*
X62357143Y-112880952D01*
X63404762Y-111452380D02*
X63452381Y-111309523D01*
X63452381Y-111071427D01*
X63404762Y-110976189D01*
X63357143Y-110928570D01*
X63261905Y-110880951D01*
X63166667Y-110880951D01*
X63071429Y-110928570D01*
X63023810Y-110976189D01*
X62976190Y-111071427D01*
X62928571Y-111261904D01*
X62880952Y-111357142D01*
X62833333Y-111404761D01*
X62738095Y-111452380D01*
X62642857Y-111452380D01*
X62547619Y-111404761D01*
X62500000Y-111357142D01*
X62452381Y-111261904D01*
X62452381Y-111023808D01*
X62500000Y-110880951D01*
X63452381Y-110452380D02*
X62785714Y-110452380D01*
X62452381Y-110452380D02*
X62500000Y-110499999D01*
X62547619Y-110452380D01*
X62500000Y-110404761D01*
X62452381Y-110452380D01*
X62547619Y-110452380D01*
X62785714Y-109547618D02*
X63595238Y-109547618D01*
X63690476Y-109595237D01*
X63738095Y-109642856D01*
X63785714Y-109738095D01*
X63785714Y-109880952D01*
X63738095Y-109976190D01*
X63404762Y-109547618D02*
X63452381Y-109642856D01*
X63452381Y-109833333D01*
X63404762Y-109928571D01*
X63357143Y-109976190D01*
X63261905Y-110023809D01*
X62976190Y-110023809D01*
X62880952Y-109976190D01*
X62833333Y-109928571D01*
X62785714Y-109833333D01*
X62785714Y-109642856D01*
X62833333Y-109547618D01*
X63071429Y-108309523D02*
X63071429Y-107547618D01*
X62785714Y-107071428D02*
X63071429Y-106309523D01*
X63357143Y-107071428D01*
X76785714Y-119047619D02*
X77071429Y-119809524D01*
X77357143Y-119047619D01*
X77071429Y-118571429D02*
X77071429Y-117809524D01*
X76500000Y-116047619D02*
X76452381Y-116142857D01*
X76452381Y-116285714D01*
X76500000Y-116428572D01*
X76595238Y-116523810D01*
X76690476Y-116571429D01*
X76880952Y-116619048D01*
X77023810Y-116619048D01*
X77214286Y-116571429D01*
X77309524Y-116523810D01*
X77404762Y-116428572D01*
X77452381Y-116285714D01*
X77452381Y-116190476D01*
X77404762Y-116047619D01*
X77357143Y-116000000D01*
X77023810Y-116000000D01*
X77023810Y-116190476D01*
X76785714Y-115571429D02*
X77452381Y-115571429D01*
X76880952Y-115571429D02*
X76833333Y-115523810D01*
X76785714Y-115428572D01*
X76785714Y-115285714D01*
X76833333Y-115190476D01*
X76928571Y-115142857D01*
X77452381Y-115142857D01*
X77452381Y-114238095D02*
X76452381Y-114238095D01*
X77404762Y-114238095D02*
X77452381Y-114333333D01*
X77452381Y-114523810D01*
X77404762Y-114619048D01*
X77357143Y-114666667D01*
X77261905Y-114714286D01*
X76976190Y-114714286D01*
X76880952Y-114666667D01*
X76833333Y-114619048D01*
X76785714Y-114523810D01*
X76785714Y-114333333D01*
X76833333Y-114238095D01*
X77785714Y-112761905D02*
X76357143Y-112761905D01*
X77404762Y-111333333D02*
X77452381Y-111190476D01*
X77452381Y-110952380D01*
X77404762Y-110857142D01*
X77357143Y-110809523D01*
X77261905Y-110761904D01*
X77166667Y-110761904D01*
X77071429Y-110809523D01*
X77023810Y-110857142D01*
X76976190Y-110952380D01*
X76928571Y-111142857D01*
X76880952Y-111238095D01*
X76833333Y-111285714D01*
X76738095Y-111333333D01*
X76642857Y-111333333D01*
X76547619Y-111285714D01*
X76500000Y-111238095D01*
X76452381Y-111142857D01*
X76452381Y-110904761D01*
X76500000Y-110761904D01*
X77452381Y-110333333D02*
X76785714Y-110333333D01*
X76452381Y-110333333D02*
X76500000Y-110380952D01*
X76547619Y-110333333D01*
X76500000Y-110285714D01*
X76452381Y-110333333D01*
X76547619Y-110333333D01*
X76785714Y-109428571D02*
X77595238Y-109428571D01*
X77690476Y-109476190D01*
X77738095Y-109523809D01*
X77785714Y-109619048D01*
X77785714Y-109761905D01*
X77738095Y-109857143D01*
X77404762Y-109428571D02*
X77452381Y-109523809D01*
X77452381Y-109714286D01*
X77404762Y-109809524D01*
X77357143Y-109857143D01*
X77261905Y-109904762D01*
X76976190Y-109904762D01*
X76880952Y-109857143D01*
X76833333Y-109809524D01*
X76785714Y-109714286D01*
X76785714Y-109523809D01*
X76833333Y-109428571D01*
X77071429Y-108190476D02*
X77071429Y-107428571D01*
X76785714Y-106952381D02*
X77071429Y-106190476D01*
X77357143Y-106952381D01*
X56785714Y-119047619D02*
X57071429Y-119809524D01*
X57357143Y-119047619D01*
X57071429Y-118571429D02*
X57071429Y-117809524D01*
X56500000Y-116047619D02*
X56452381Y-116142857D01*
X56452381Y-116285714D01*
X56500000Y-116428572D01*
X56595238Y-116523810D01*
X56690476Y-116571429D01*
X56880952Y-116619048D01*
X57023810Y-116619048D01*
X57214286Y-116571429D01*
X57309524Y-116523810D01*
X57404762Y-116428572D01*
X57452381Y-116285714D01*
X57452381Y-116190476D01*
X57404762Y-116047619D01*
X57357143Y-116000000D01*
X57023810Y-116000000D01*
X57023810Y-116190476D01*
X56785714Y-115571429D02*
X57452381Y-115571429D01*
X56880952Y-115571429D02*
X56833333Y-115523810D01*
X56785714Y-115428572D01*
X56785714Y-115285714D01*
X56833333Y-115190476D01*
X56928571Y-115142857D01*
X57452381Y-115142857D01*
X57452381Y-114238095D02*
X56452381Y-114238095D01*
X57404762Y-114238095D02*
X57452381Y-114333333D01*
X57452381Y-114523810D01*
X57404762Y-114619048D01*
X57357143Y-114666667D01*
X57261905Y-114714286D01*
X56976190Y-114714286D01*
X56880952Y-114666667D01*
X56833333Y-114619048D01*
X56785714Y-114523810D01*
X56785714Y-114333333D01*
X56833333Y-114238095D01*
X57785714Y-112761905D02*
X56357143Y-112761905D01*
X57404762Y-111333333D02*
X57452381Y-111190476D01*
X57452381Y-110952380D01*
X57404762Y-110857142D01*
X57357143Y-110809523D01*
X57261905Y-110761904D01*
X57166667Y-110761904D01*
X57071429Y-110809523D01*
X57023810Y-110857142D01*
X56976190Y-110952380D01*
X56928571Y-111142857D01*
X56880952Y-111238095D01*
X56833333Y-111285714D01*
X56738095Y-111333333D01*
X56642857Y-111333333D01*
X56547619Y-111285714D01*
X56500000Y-111238095D01*
X56452381Y-111142857D01*
X56452381Y-110904761D01*
X56500000Y-110761904D01*
X57452381Y-110333333D02*
X56785714Y-110333333D01*
X56452381Y-110333333D02*
X56500000Y-110380952D01*
X56547619Y-110333333D01*
X56500000Y-110285714D01*
X56452381Y-110333333D01*
X56547619Y-110333333D01*
X56785714Y-109428571D02*
X57595238Y-109428571D01*
X57690476Y-109476190D01*
X57738095Y-109523809D01*
X57785714Y-109619048D01*
X57785714Y-109761905D01*
X57738095Y-109857143D01*
X57404762Y-109428571D02*
X57452381Y-109523809D01*
X57452381Y-109714286D01*
X57404762Y-109809524D01*
X57357143Y-109857143D01*
X57261905Y-109904762D01*
X56976190Y-109904762D01*
X56880952Y-109857143D01*
X56833333Y-109809524D01*
X56785714Y-109714286D01*
X56785714Y-109523809D01*
X56833333Y-109428571D01*
X57071429Y-108190476D02*
X57071429Y-107428571D01*
X56785714Y-106952381D02*
X57071429Y-106190476D01*
X57357143Y-106952381D01*
X42785714Y-118928571D02*
X43071429Y-119690476D01*
X43357143Y-118928571D01*
X43071429Y-118452381D02*
X43071429Y-117690476D01*
X42452381Y-116595238D02*
X43452381Y-116261905D01*
X42452381Y-115928571D01*
X43404762Y-115166666D02*
X43452381Y-115261904D01*
X43452381Y-115452381D01*
X43404762Y-115547619D01*
X43357143Y-115595238D01*
X43261905Y-115642857D01*
X42976190Y-115642857D01*
X42880952Y-115595238D01*
X42833333Y-115547619D01*
X42785714Y-115452381D01*
X42785714Y-115261904D01*
X42833333Y-115166666D01*
X43404762Y-114309523D02*
X43452381Y-114404761D01*
X43452381Y-114595238D01*
X43404762Y-114690476D01*
X43357143Y-114738095D01*
X43261905Y-114785714D01*
X42976190Y-114785714D01*
X42880952Y-114738095D01*
X42833333Y-114690476D01*
X42785714Y-114595238D01*
X42785714Y-114404761D01*
X42833333Y-114309523D01*
X43785714Y-112880952D02*
X42357143Y-112880952D01*
X43404762Y-111452380D02*
X43452381Y-111309523D01*
X43452381Y-111071427D01*
X43404762Y-110976189D01*
X43357143Y-110928570D01*
X43261905Y-110880951D01*
X43166667Y-110880951D01*
X43071429Y-110928570D01*
X43023810Y-110976189D01*
X42976190Y-111071427D01*
X42928571Y-111261904D01*
X42880952Y-111357142D01*
X42833333Y-111404761D01*
X42738095Y-111452380D01*
X42642857Y-111452380D01*
X42547619Y-111404761D01*
X42500000Y-111357142D01*
X42452381Y-111261904D01*
X42452381Y-111023808D01*
X42500000Y-110880951D01*
X43452381Y-110452380D02*
X42785714Y-110452380D01*
X42452381Y-110452380D02*
X42500000Y-110499999D01*
X42547619Y-110452380D01*
X42500000Y-110404761D01*
X42452381Y-110452380D01*
X42547619Y-110452380D01*
X42785714Y-109547618D02*
X43595238Y-109547618D01*
X43690476Y-109595237D01*
X43738095Y-109642856D01*
X43785714Y-109738095D01*
X43785714Y-109880952D01*
X43738095Y-109976190D01*
X43404762Y-109547618D02*
X43452381Y-109642856D01*
X43452381Y-109833333D01*
X43404762Y-109928571D01*
X43357143Y-109976190D01*
X43261905Y-110023809D01*
X42976190Y-110023809D01*
X42880952Y-109976190D01*
X42833333Y-109928571D01*
X42785714Y-109833333D01*
X42785714Y-109642856D01*
X42833333Y-109547618D01*
X43071429Y-108309523D02*
X43071429Y-107547618D01*
X42785714Y-107071428D02*
X43071429Y-106309523D01*
X43357143Y-107071428D01*
D12*
X36230000Y-98670000D02*
X33630000Y-98670000D01*
X33630000Y-98670000D02*
X33630000Y-101330000D01*
X33630000Y-101330000D02*
X36230000Y-101330000D01*
X36230000Y-101330000D02*
X36230000Y-98670000D01*
X37500000Y-98670000D02*
X38830000Y-98670000D01*
X38830000Y-98670000D02*
X38830000Y-100000000D01*
X48770000Y-101330000D02*
X53910000Y-101330000D01*
X53910000Y-101330000D02*
X53910000Y-98670000D01*
X53910000Y-98670000D02*
X48770000Y-98670000D01*
X48770000Y-98670000D02*
X48770000Y-101330000D01*
X47500000Y-101330000D02*
X46170000Y-101330000D01*
X46170000Y-101330000D02*
X46170000Y-100000000D01*
X68770000Y-101330000D02*
X73910000Y-101330000D01*
X73910000Y-101330000D02*
X73910000Y-98670000D01*
X73910000Y-98670000D02*
X68770000Y-98670000D01*
X68770000Y-98670000D02*
X68770000Y-101330000D01*
X67500000Y-101330000D02*
X66170000Y-101330000D01*
X66170000Y-101330000D02*
X66170000Y-100000000D01*
X88770000Y-101330000D02*
X93910000Y-101330000D01*
X93910000Y-101330000D02*
X93910000Y-98670000D01*
X93910000Y-98670000D02*
X88770000Y-98670000D01*
X88770000Y-98670000D02*
X88770000Y-101330000D01*
X87500000Y-101330000D02*
X86170000Y-101330000D01*
X86170000Y-101330000D02*
X86170000Y-100000000D01*
X108770000Y-101330000D02*
X113910000Y-101330000D01*
X113910000Y-101330000D02*
X113910000Y-98670000D01*
X113910000Y-98670000D02*
X108770000Y-98670000D01*
X108770000Y-98670000D02*
X108770000Y-101330000D01*
X107500000Y-101330000D02*
X106170000Y-101330000D01*
X106170000Y-101330000D02*
X106170000Y-100000000D01*
X128770000Y-101330000D02*
X133910000Y-101330000D01*
X133910000Y-101330000D02*
X133910000Y-98670000D01*
X133910000Y-98670000D02*
X128770000Y-98670000D01*
X128770000Y-98670000D02*
X128770000Y-101330000D01*
X127500000Y-101330000D02*
X126170000Y-101330000D01*
X126170000Y-101330000D02*
X126170000Y-100000000D01*
X148770000Y-101330000D02*
X153910000Y-101330000D01*
X153910000Y-101330000D02*
X153910000Y-98670000D01*
X153910000Y-98670000D02*
X148770000Y-98670000D01*
X148770000Y-98670000D02*
X148770000Y-101330000D01*
X147500000Y-101330000D02*
X146170000Y-101330000D01*
X146170000Y-101330000D02*
X146170000Y-100000000D01*
X168770000Y-101330000D02*
X173910000Y-101330000D01*
X173910000Y-101330000D02*
X173910000Y-98670000D01*
X173910000Y-98670000D02*
X168770000Y-98670000D01*
X168770000Y-98670000D02*
X168770000Y-101330000D01*
X167500000Y-101330000D02*
X166170000Y-101330000D01*
X166170000Y-101330000D02*
X166170000Y-100000000D01*
X188770000Y-101330000D02*
X193910000Y-101330000D01*
X193910000Y-101330000D02*
X193910000Y-98670000D01*
X193910000Y-98670000D02*
X188770000Y-98670000D01*
X188770000Y-98670000D02*
X188770000Y-101330000D01*
X187500000Y-101330000D02*
X186170000Y-101330000D01*
X186170000Y-101330000D02*
X186170000Y-100000000D01*
X52762432Y-131171982D02*
G75*
G02X47238000Y-131173000I-2762432J1171982D01*
G01*
X47702247Y-128071705D02*
G75*
G02X52298000Y-128072000I2297753J-1928295D01*
G01*
X54910000Y-123440000D02*
X54910000Y-127306000D01*
X54910000Y-131695000D02*
X54910000Y-135560000D01*
X45090000Y-123440000D02*
X45090000Y-127306000D01*
X45090000Y-131695000D02*
X45090000Y-135560000D01*
X54910000Y-123440000D02*
X53325000Y-123440000D01*
X51675000Y-123440000D02*
X50825000Y-123440000D01*
X49175000Y-123440000D02*
X48325000Y-123440000D01*
X46675000Y-123440000D02*
X45090000Y-123440000D01*
X54910000Y-135560000D02*
X45090000Y-135560000D01*
X72762432Y-131171982D02*
G75*
G02X67238000Y-131173000I-2762432J1171982D01*
G01*
X67702247Y-128071705D02*
G75*
G02X72298000Y-128072000I2297753J-1928295D01*
G01*
X74910000Y-123440000D02*
X74910000Y-127306000D01*
X74910000Y-131695000D02*
X74910000Y-135560000D01*
X65090000Y-123440000D02*
X65090000Y-127306000D01*
X65090000Y-131695000D02*
X65090000Y-135560000D01*
X74910000Y-123440000D02*
X73325000Y-123440000D01*
X71675000Y-123440000D02*
X70825000Y-123440000D01*
X69175000Y-123440000D02*
X68325000Y-123440000D01*
X66675000Y-123440000D02*
X65090000Y-123440000D01*
X74910000Y-135560000D02*
X65090000Y-135560000D01*
X92762432Y-131171982D02*
G75*
G02X87238000Y-131173000I-2762432J1171982D01*
G01*
X87702247Y-128071705D02*
G75*
G02X92298000Y-128072000I2297753J-1928295D01*
G01*
X94910000Y-123440000D02*
X94910000Y-127306000D01*
X94910000Y-131695000D02*
X94910000Y-135560000D01*
X85090000Y-123440000D02*
X85090000Y-127306000D01*
X85090000Y-131695000D02*
X85090000Y-135560000D01*
X94910000Y-123440000D02*
X93325000Y-123440000D01*
X91675000Y-123440000D02*
X90825000Y-123440000D01*
X89175000Y-123440000D02*
X88325000Y-123440000D01*
X86675000Y-123440000D02*
X85090000Y-123440000D01*
X94910000Y-135560000D02*
X85090000Y-135560000D01*
X112762432Y-131171982D02*
G75*
G02X107238000Y-131173000I-2762432J1171982D01*
G01*
X107702247Y-128071705D02*
G75*
G02X112298000Y-128072000I2297753J-1928295D01*
G01*
X114910000Y-123440000D02*
X114910000Y-127306000D01*
X114910000Y-131695000D02*
X114910000Y-135560000D01*
X105090000Y-123440000D02*
X105090000Y-127306000D01*
X105090000Y-131695000D02*
X105090000Y-135560000D01*
X114910000Y-123440000D02*
X113325000Y-123440000D01*
X111675000Y-123440000D02*
X110825000Y-123440000D01*
X109175000Y-123440000D02*
X108325000Y-123440000D01*
X106675000Y-123440000D02*
X105090000Y-123440000D01*
X114910000Y-135560000D02*
X105090000Y-135560000D01*
X132762432Y-131171982D02*
G75*
G02X127238000Y-131173000I-2762432J1171982D01*
G01*
X127702247Y-128071705D02*
G75*
G02X132298000Y-128072000I2297753J-1928295D01*
G01*
X134910000Y-123440000D02*
X134910000Y-127306000D01*
X134910000Y-131695000D02*
X134910000Y-135560000D01*
X125090000Y-123440000D02*
X125090000Y-127306000D01*
X125090000Y-131695000D02*
X125090000Y-135560000D01*
X134910000Y-123440000D02*
X133325000Y-123440000D01*
X131675000Y-123440000D02*
X130825000Y-123440000D01*
X129175000Y-123440000D02*
X128325000Y-123440000D01*
X126675000Y-123440000D02*
X125090000Y-123440000D01*
X134910000Y-135560000D02*
X125090000Y-135560000D01*
X152762432Y-131171982D02*
G75*
G02X147238000Y-131173000I-2762432J1171982D01*
G01*
X147702247Y-128071705D02*
G75*
G02X152298000Y-128072000I2297753J-1928295D01*
G01*
X154910000Y-123440000D02*
X154910000Y-127306000D01*
X154910000Y-131695000D02*
X154910000Y-135560000D01*
X145090000Y-123440000D02*
X145090000Y-127306000D01*
X145090000Y-131695000D02*
X145090000Y-135560000D01*
X154910000Y-123440000D02*
X153325000Y-123440000D01*
X151675000Y-123440000D02*
X150825000Y-123440000D01*
X149175000Y-123440000D02*
X148325000Y-123440000D01*
X146675000Y-123440000D02*
X145090000Y-123440000D01*
X154910000Y-135560000D02*
X145090000Y-135560000D01*
X172762432Y-131171982D02*
G75*
G02X167238000Y-131173000I-2762432J1171982D01*
G01*
X167702247Y-128071705D02*
G75*
G02X172298000Y-128072000I2297753J-1928295D01*
G01*
X174910000Y-123440000D02*
X174910000Y-127306000D01*
X174910000Y-131695000D02*
X174910000Y-135560000D01*
X165090000Y-123440000D02*
X165090000Y-127306000D01*
X165090000Y-131695000D02*
X165090000Y-135560000D01*
X174910000Y-123440000D02*
X173325000Y-123440000D01*
X171675000Y-123440000D02*
X170825000Y-123440000D01*
X169175000Y-123440000D02*
X168325000Y-123440000D01*
X166675000Y-123440000D02*
X165090000Y-123440000D01*
X174910000Y-135560000D02*
X165090000Y-135560000D01*
X192762432Y-131171982D02*
G75*
G02X187238000Y-131173000I-2762432J1171982D01*
G01*
X187702247Y-128071705D02*
G75*
G02X192298000Y-128072000I2297753J-1928295D01*
G01*
X194910000Y-123440000D02*
X194910000Y-127306000D01*
X194910000Y-131695000D02*
X194910000Y-135560000D01*
X185090000Y-123440000D02*
X185090000Y-127306000D01*
X185090000Y-131695000D02*
X185090000Y-135560000D01*
X194910000Y-123440000D02*
X193325000Y-123440000D01*
X191675000Y-123440000D02*
X190825000Y-123440000D01*
X189175000Y-123440000D02*
X188325000Y-123440000D01*
X186675000Y-123440000D02*
X185090000Y-123440000D01*
X194910000Y-135560000D02*
X185090000Y-135560000D01*
D13*
X51700000Y-108700000D02*
X50850000Y-108700000D01*
X50850000Y-108700000D02*
X50850000Y-117300000D01*
X50850000Y-117300000D02*
X51600000Y-117300000D01*
X54400000Y-117300000D02*
X55150000Y-117300000D01*
X55150000Y-117300000D02*
X55150000Y-108700000D01*
X55150000Y-108700000D02*
X54400000Y-108700000D01*
D14*
X53150000Y-107150000D02*
G75*
G03X53150000Y-107150000I-100000J0D01*
G01*
D13*
X45700000Y-108700000D02*
X44850000Y-108700000D01*
X44850000Y-108700000D02*
X44850000Y-117300000D01*
X44850000Y-117300000D02*
X45600000Y-117300000D01*
X48400000Y-117300000D02*
X49150000Y-117300000D01*
X49150000Y-117300000D02*
X49150000Y-108700000D01*
X49150000Y-108700000D02*
X48400000Y-108700000D01*
D14*
X47150000Y-107150000D02*
G75*
G03X47150000Y-107150000I-100000J0D01*
G01*
D13*
X65700000Y-108700000D02*
X64850000Y-108700000D01*
X64850000Y-108700000D02*
X64850000Y-117300000D01*
X64850000Y-117300000D02*
X65600000Y-117300000D01*
X68400000Y-117300000D02*
X69150000Y-117300000D01*
X69150000Y-117300000D02*
X69150000Y-108700000D01*
X69150000Y-108700000D02*
X68400000Y-108700000D01*
D14*
X67150000Y-107150000D02*
G75*
G03X67150000Y-107150000I-100000J0D01*
G01*
D13*
X91700000Y-108700000D02*
X90850000Y-108700000D01*
X90850000Y-108700000D02*
X90850000Y-117300000D01*
X90850000Y-117300000D02*
X91600000Y-117300000D01*
X94400000Y-117300000D02*
X95150000Y-117300000D01*
X95150000Y-117300000D02*
X95150000Y-108700000D01*
X95150000Y-108700000D02*
X94400000Y-108700000D01*
D14*
X93150000Y-107150000D02*
G75*
G03X93150000Y-107150000I-100000J0D01*
G01*
D13*
X111700000Y-108700000D02*
X110850000Y-108700000D01*
X110850000Y-108700000D02*
X110850000Y-117300000D01*
X110850000Y-117300000D02*
X111600000Y-117300000D01*
X114400000Y-117300000D02*
X115150000Y-117300000D01*
X115150000Y-117300000D02*
X115150000Y-108700000D01*
X115150000Y-108700000D02*
X114400000Y-108700000D01*
D14*
X113150000Y-107150000D02*
G75*
G03X113150000Y-107150000I-100000J0D01*
G01*
D13*
X85700000Y-108700000D02*
X84850000Y-108700000D01*
X84850000Y-108700000D02*
X84850000Y-117300000D01*
X84850000Y-117300000D02*
X85600000Y-117300000D01*
X88400000Y-117300000D02*
X89150000Y-117300000D01*
X89150000Y-117300000D02*
X89150000Y-108700000D01*
X89150000Y-108700000D02*
X88400000Y-108700000D01*
D14*
X87150000Y-107150000D02*
G75*
G03X87150000Y-107150000I-100000J0D01*
G01*
D13*
X105700000Y-108700000D02*
X104850000Y-108700000D01*
X104850000Y-108700000D02*
X104850000Y-117300000D01*
X104850000Y-117300000D02*
X105600000Y-117300000D01*
X108400000Y-117300000D02*
X109150000Y-117300000D01*
X109150000Y-117300000D02*
X109150000Y-108700000D01*
X109150000Y-108700000D02*
X108400000Y-108700000D01*
D14*
X107150000Y-107150000D02*
G75*
G03X107150000Y-107150000I-100000J0D01*
G01*
D13*
X131700000Y-108700000D02*
X130850000Y-108700000D01*
X130850000Y-108700000D02*
X130850000Y-117300000D01*
X130850000Y-117300000D02*
X131600000Y-117300000D01*
X134400000Y-117300000D02*
X135150000Y-117300000D01*
X135150000Y-117300000D02*
X135150000Y-108700000D01*
X135150000Y-108700000D02*
X134400000Y-108700000D01*
D14*
X133150000Y-107150000D02*
G75*
G03X133150000Y-107150000I-100000J0D01*
G01*
D13*
X151700000Y-108700000D02*
X150850000Y-108700000D01*
X150850000Y-108700000D02*
X150850000Y-117300000D01*
X150850000Y-117300000D02*
X151600000Y-117300000D01*
X154400000Y-117300000D02*
X155150000Y-117300000D01*
X155150000Y-117300000D02*
X155150000Y-108700000D01*
X155150000Y-108700000D02*
X154400000Y-108700000D01*
D14*
X153150000Y-107150000D02*
G75*
G03X153150000Y-107150000I-100000J0D01*
G01*
D13*
X125700000Y-108700000D02*
X124850000Y-108700000D01*
X124850000Y-108700000D02*
X124850000Y-117300000D01*
X124850000Y-117300000D02*
X125600000Y-117300000D01*
X128400000Y-117300000D02*
X129150000Y-117300000D01*
X129150000Y-117300000D02*
X129150000Y-108700000D01*
X129150000Y-108700000D02*
X128400000Y-108700000D01*
D14*
X127150000Y-107150000D02*
G75*
G03X127150000Y-107150000I-100000J0D01*
G01*
D13*
X145700000Y-108700000D02*
X144850000Y-108700000D01*
X144850000Y-108700000D02*
X144850000Y-117300000D01*
X144850000Y-117300000D02*
X145600000Y-117300000D01*
X148400000Y-117300000D02*
X149150000Y-117300000D01*
X149150000Y-117300000D02*
X149150000Y-108700000D01*
X149150000Y-108700000D02*
X148400000Y-108700000D01*
D14*
X147150000Y-107150000D02*
G75*
G03X147150000Y-107150000I-100000J0D01*
G01*
D13*
X171700000Y-108700000D02*
X170850000Y-108700000D01*
X170850000Y-108700000D02*
X170850000Y-117300000D01*
X170850000Y-117300000D02*
X171600000Y-117300000D01*
X174400000Y-117300000D02*
X175150000Y-117300000D01*
X175150000Y-117300000D02*
X175150000Y-108700000D01*
X175150000Y-108700000D02*
X174400000Y-108700000D01*
D14*
X173150000Y-107150000D02*
G75*
G03X173150000Y-107150000I-100000J0D01*
G01*
D13*
X191700000Y-108700000D02*
X190850000Y-108700000D01*
X190850000Y-108700000D02*
X190850000Y-117300000D01*
X190850000Y-117300000D02*
X191600000Y-117300000D01*
X194400000Y-117300000D02*
X195150000Y-117300000D01*
X195150000Y-117300000D02*
X195150000Y-108700000D01*
X195150000Y-108700000D02*
X194400000Y-108700000D01*
D14*
X193150000Y-107150000D02*
G75*
G03X193150000Y-107150000I-100000J0D01*
G01*
D13*
X165700000Y-108700000D02*
X164850000Y-108700000D01*
X164850000Y-108700000D02*
X164850000Y-117300000D01*
X164850000Y-117300000D02*
X165600000Y-117300000D01*
X168400000Y-117300000D02*
X169150000Y-117300000D01*
X169150000Y-117300000D02*
X169150000Y-108700000D01*
X169150000Y-108700000D02*
X168400000Y-108700000D01*
D14*
X167150000Y-107150000D02*
G75*
G03X167150000Y-107150000I-100000J0D01*
G01*
D13*
X185700000Y-108700000D02*
X184850000Y-108700000D01*
X184850000Y-108700000D02*
X184850000Y-117300000D01*
X184850000Y-117300000D02*
X185600000Y-117300000D01*
X188400000Y-117300000D02*
X189150000Y-117300000D01*
X189150000Y-117300000D02*
X189150000Y-108700000D01*
X189150000Y-108700000D02*
X188400000Y-108700000D01*
D14*
X187150000Y-107150000D02*
G75*
G03X187150000Y-107150000I-100000J0D01*
G01*
D13*
X71700000Y-108700000D02*
X70850000Y-108700000D01*
X70850000Y-108700000D02*
X70850000Y-117300000D01*
X70850000Y-117300000D02*
X71600000Y-117300000D01*
X74400000Y-117300000D02*
X75150000Y-117300000D01*
X75150000Y-117300000D02*
X75150000Y-108700000D01*
X75150000Y-108700000D02*
X74400000Y-108700000D01*
D14*
X73150000Y-107150000D02*
G75*
G03X73150000Y-107150000I-100000J0D01*
G01*
D12*
X33944278Y-109929723D02*
G75*
G03X38555580Y-109930000I2305722J1179723D01*
G01*
X33944278Y-107570277D02*
G75*
G02X38555580Y-107570000I2305722J-1179723D01*
G01*
X33944278Y-107570277D02*
G75*
G03X33944420Y-109930000I2305722J-1179723D01*
G01*
X36250000Y-111300000D02*
X36250000Y-106200000D01*
X36210000Y-111300000D02*
X36210000Y-109730000D01*
X36210000Y-107770000D02*
X36210000Y-106200000D01*
X36170000Y-111299000D02*
X36170000Y-109730000D01*
X36170000Y-107770000D02*
X36170000Y-106201000D01*
X36130000Y-111298000D02*
X36130000Y-109730000D01*
X36130000Y-107770000D02*
X36130000Y-106202000D01*
X36090000Y-111296000D02*
X36090000Y-109730000D01*
X36090000Y-107770000D02*
X36090000Y-106204000D01*
X36050000Y-111293000D02*
X36050000Y-109730000D01*
X36050000Y-107770000D02*
X36050000Y-106207000D01*
X36010000Y-111289000D02*
X36010000Y-109730000D01*
X36010000Y-107770000D02*
X36010000Y-106211000D01*
X35970000Y-111285000D02*
X35970000Y-109730000D01*
X35970000Y-107770000D02*
X35970000Y-106215000D01*
X35930000Y-111281000D02*
X35930000Y-109730000D01*
X35930000Y-107770000D02*
X35930000Y-106219000D01*
X35890000Y-111275000D02*
X35890000Y-109730000D01*
X35890000Y-107770000D02*
X35890000Y-106225000D01*
X35850000Y-111269000D02*
X35850000Y-109730000D01*
X35850000Y-107770000D02*
X35850000Y-106231000D01*
X35810000Y-111263000D02*
X35810000Y-109730000D01*
X35810000Y-107770000D02*
X35810000Y-106237000D01*
X35770000Y-111256000D02*
X35770000Y-109730000D01*
X35770000Y-107770000D02*
X35770000Y-106244000D01*
X35730000Y-111248000D02*
X35730000Y-109730000D01*
X35730000Y-107770000D02*
X35730000Y-106252000D01*
X35690000Y-111239000D02*
X35690000Y-109730000D01*
X35690000Y-107770000D02*
X35690000Y-106261000D01*
X35650000Y-111230000D02*
X35650000Y-109730000D01*
X35650000Y-107770000D02*
X35650000Y-106270000D01*
X35610000Y-111220000D02*
X35610000Y-109730000D01*
X35610000Y-107770000D02*
X35610000Y-106280000D01*
X35570000Y-111210000D02*
X35570000Y-109730000D01*
X35570000Y-107770000D02*
X35570000Y-106290000D01*
X35529000Y-111198000D02*
X35529000Y-109730000D01*
X35529000Y-107770000D02*
X35529000Y-106302000D01*
X35489000Y-111186000D02*
X35489000Y-109730000D01*
X35489000Y-107770000D02*
X35489000Y-106314000D01*
X35449000Y-111174000D02*
X35449000Y-109730000D01*
X35449000Y-107770000D02*
X35449000Y-106326000D01*
X35409000Y-111160000D02*
X35409000Y-109730000D01*
X35409000Y-107770000D02*
X35409000Y-106340000D01*
X35369000Y-111146000D02*
X35369000Y-109730000D01*
X35369000Y-107770000D02*
X35369000Y-106354000D01*
X35329000Y-111132000D02*
X35329000Y-109730000D01*
X35329000Y-107770000D02*
X35329000Y-106368000D01*
X35289000Y-111116000D02*
X35289000Y-109730000D01*
X35289000Y-107770000D02*
X35289000Y-106384000D01*
X35249000Y-111100000D02*
X35249000Y-109730000D01*
X35249000Y-107770000D02*
X35249000Y-106400000D01*
X35209000Y-111083000D02*
X35209000Y-109730000D01*
X35209000Y-107770000D02*
X35209000Y-106417000D01*
X35169000Y-111065000D02*
X35169000Y-109730000D01*
X35169000Y-107770000D02*
X35169000Y-106435000D01*
X35129000Y-111046000D02*
X35129000Y-109730000D01*
X35129000Y-107770000D02*
X35129000Y-106454000D01*
X35089000Y-111026000D02*
X35089000Y-109730000D01*
X35089000Y-107770000D02*
X35089000Y-106474000D01*
X35049000Y-111006000D02*
X35049000Y-109730000D01*
X35049000Y-107770000D02*
X35049000Y-106494000D01*
X35009000Y-110984000D02*
X35009000Y-109730000D01*
X35009000Y-107770000D02*
X35009000Y-106516000D01*
X34969000Y-110962000D02*
X34969000Y-109730000D01*
X34969000Y-107770000D02*
X34969000Y-106538000D01*
X34929000Y-110939000D02*
X34929000Y-109730000D01*
X34929000Y-107770000D02*
X34929000Y-106561000D01*
X34889000Y-110915000D02*
X34889000Y-109730000D01*
X34889000Y-107770000D02*
X34889000Y-106585000D01*
X34849000Y-110890000D02*
X34849000Y-109730000D01*
X34849000Y-107770000D02*
X34849000Y-106610000D01*
X34809000Y-110863000D02*
X34809000Y-109730000D01*
X34809000Y-107770000D02*
X34809000Y-106637000D01*
X34769000Y-110836000D02*
X34769000Y-109730000D01*
X34769000Y-107770000D02*
X34769000Y-106664000D01*
X34729000Y-110808000D02*
X34729000Y-109730000D01*
X34729000Y-107770000D02*
X34729000Y-106692000D01*
X34689000Y-110778000D02*
X34689000Y-109730000D01*
X34689000Y-107770000D02*
X34689000Y-106722000D01*
X34649000Y-110747000D02*
X34649000Y-109730000D01*
X34649000Y-107770000D02*
X34649000Y-106753000D01*
X34609000Y-110715000D02*
X34609000Y-109730000D01*
X34609000Y-107770000D02*
X34609000Y-106785000D01*
X34569000Y-110682000D02*
X34569000Y-109730000D01*
X34569000Y-107770000D02*
X34569000Y-106818000D01*
X34529000Y-110647000D02*
X34529000Y-109730000D01*
X34529000Y-107770000D02*
X34529000Y-106853000D01*
X34489000Y-110611000D02*
X34489000Y-109730000D01*
X34489000Y-107770000D02*
X34489000Y-106889000D01*
X34449000Y-110573000D02*
X34449000Y-109730000D01*
X34449000Y-107770000D02*
X34449000Y-106927000D01*
X34409000Y-110533000D02*
X34409000Y-109730000D01*
X34409000Y-107770000D02*
X34409000Y-106967000D01*
X34369000Y-110492000D02*
X34369000Y-109730000D01*
X34369000Y-107770000D02*
X34369000Y-107008000D01*
X34329000Y-110449000D02*
X34329000Y-109730000D01*
X34329000Y-107770000D02*
X34329000Y-107051000D01*
X34289000Y-110404000D02*
X34289000Y-109730000D01*
X34289000Y-107770000D02*
X34289000Y-107096000D01*
X34249000Y-110356000D02*
X34249000Y-107144000D01*
X34209000Y-110306000D02*
X34209000Y-107194000D01*
X34169000Y-110254000D02*
X34169000Y-107246000D01*
X34129000Y-110198000D02*
X34129000Y-107302000D01*
X34089000Y-110140000D02*
X34089000Y-107360000D01*
X34049000Y-110077000D02*
X34049000Y-107423000D01*
X34009000Y-110011000D02*
X34009000Y-107489000D01*
X33969000Y-109939000D02*
X33969000Y-107561000D01*
X33929000Y-109862000D02*
X33929000Y-107638000D01*
X33889000Y-109778000D02*
X33889000Y-107722000D01*
X33849000Y-109684000D02*
X33849000Y-107816000D01*
X33809000Y-109579000D02*
X33809000Y-107921000D01*
X33769000Y-109457000D02*
X33769000Y-108043000D01*
X33729000Y-109309000D02*
X33729000Y-108191000D01*
X33689000Y-109104000D02*
X33689000Y-108396000D01*
X39450000Y-108750000D02*
X38250000Y-108750000D01*
X38850000Y-109400000D02*
X38850000Y-108100000D01*
D15*
G36*
X203541312Y-110897519D02*
X203785797Y-110892546D01*
X203975598Y-110885365D01*
X204119531Y-110874092D01*
X204226411Y-110856844D01*
X204305054Y-110831737D01*
X204364275Y-110796888D01*
X204412890Y-110750412D01*
X204450289Y-110703298D01*
X204498607Y-110598170D01*
X204526101Y-110455888D01*
X204531555Y-110299693D01*
X204513755Y-110152829D01*
X204483838Y-110061569D01*
X204445709Y-109988568D01*
X204403627Y-109932190D01*
X204349286Y-109890298D01*
X204274378Y-109860757D01*
X204170595Y-109841433D01*
X204029629Y-109830188D01*
X203843173Y-109824888D01*
X203602920Y-109823397D01*
X203557187Y-109823369D01*
X202882500Y-109823250D01*
X202882500Y-109537500D01*
X203511737Y-109537500D01*
X203764942Y-109539147D01*
X203962870Y-109544408D01*
X204113668Y-109553770D01*
X204225482Y-109567714D01*
X204298415Y-109584255D01*
X204469930Y-109667480D01*
X204615857Y-109804382D01*
X204709931Y-109950250D01*
X204749690Y-110071346D01*
X204772524Y-110230940D01*
X204777557Y-110406091D01*
X204763913Y-110573859D01*
X204738184Y-110689794D01*
X204661819Y-110845146D01*
X204545540Y-110982011D01*
X204406287Y-111082935D01*
X204322679Y-111117825D01*
X204231968Y-111133709D01*
X204081049Y-111145572D01*
X203873098Y-111153258D01*
X203611290Y-111156609D01*
X203537628Y-111156750D01*
X202882500Y-111156750D01*
X202882500Y-110908300D01*
X203541312Y-110897519D01*
X203541312Y-110897519D01*
G37*
X203541312Y-110897519D02*
X203785797Y-110892546D01*
X203975598Y-110885365D01*
X204119531Y-110874092D01*
X204226411Y-110856844D01*
X204305054Y-110831737D01*
X204364275Y-110796888D01*
X204412890Y-110750412D01*
X204450289Y-110703298D01*
X204498607Y-110598170D01*
X204526101Y-110455888D01*
X204531555Y-110299693D01*
X204513755Y-110152829D01*
X204483838Y-110061569D01*
X204445709Y-109988568D01*
X204403627Y-109932190D01*
X204349286Y-109890298D01*
X204274378Y-109860757D01*
X204170595Y-109841433D01*
X204029629Y-109830188D01*
X203843173Y-109824888D01*
X203602920Y-109823397D01*
X203557187Y-109823369D01*
X202882500Y-109823250D01*
X202882500Y-109537500D01*
X203511737Y-109537500D01*
X203764942Y-109539147D01*
X203962870Y-109544408D01*
X204113668Y-109553770D01*
X204225482Y-109567714D01*
X204298415Y-109584255D01*
X204469930Y-109667480D01*
X204615857Y-109804382D01*
X204709931Y-109950250D01*
X204749690Y-110071346D01*
X204772524Y-110230940D01*
X204777557Y-110406091D01*
X204763913Y-110573859D01*
X204738184Y-110689794D01*
X204661819Y-110845146D01*
X204545540Y-110982011D01*
X204406287Y-111082935D01*
X204322679Y-111117825D01*
X204231968Y-111133709D01*
X204081049Y-111145572D01*
X203873098Y-111153258D01*
X203611290Y-111156609D01*
X203537628Y-111156750D01*
X202882500Y-111156750D01*
X202882500Y-110908300D01*
X203541312Y-110897519D01*
G36*
X204755750Y-111537750D02*
X204755750Y-111823500D01*
X202882500Y-111823500D01*
X202882500Y-111537750D01*
X204755750Y-111537750D01*
X204755750Y-111537750D01*
G37*
X204755750Y-111537750D02*
X204755750Y-111823500D01*
X202882500Y-111823500D01*
X202882500Y-111537750D01*
X204755750Y-111537750D01*
G36*
X202884511Y-108983213D02*
X202895411Y-108940916D01*
X202922500Y-108896956D01*
X202973077Y-108843044D01*
X203054444Y-108770892D01*
X203173900Y-108672214D01*
X203263500Y-108599570D01*
X203394446Y-108493244D01*
X203505965Y-108401927D01*
X203589621Y-108332589D01*
X203636979Y-108292197D01*
X203644500Y-108284818D01*
X203620944Y-108263991D01*
X203556001Y-108210893D01*
X203458251Y-108132435D01*
X203336277Y-108035527D01*
X203264930Y-107979195D01*
X203120044Y-107864546D01*
X203017669Y-107780674D01*
X202950384Y-107719124D01*
X202910768Y-107671443D01*
X202891400Y-107629177D01*
X202884858Y-107583873D01*
X202883930Y-107545188D01*
X202882500Y-107410250D01*
X204755750Y-107410250D01*
X204755750Y-107696000D01*
X203318695Y-107696000D01*
X203670535Y-107973813D01*
X203797247Y-108076092D01*
X203903916Y-108166433D01*
X203981475Y-108236828D01*
X204020855Y-108279269D01*
X204023937Y-108285930D01*
X204000888Y-108316957D01*
X203936481Y-108378872D01*
X203839596Y-108463722D01*
X203719112Y-108563555D01*
X203669410Y-108603430D01*
X203313320Y-108886625D01*
X204755750Y-108903693D01*
X204755750Y-109156500D01*
X202882500Y-109156500D01*
X202882500Y-109032134D01*
X202884511Y-108983213D01*
X202884511Y-108983213D01*
G37*
X202884511Y-108983213D02*
X202895411Y-108940916D01*
X202922500Y-108896956D01*
X202973077Y-108843044D01*
X203054444Y-108770892D01*
X203173900Y-108672214D01*
X203263500Y-108599570D01*
X203394446Y-108493244D01*
X203505965Y-108401927D01*
X203589621Y-108332589D01*
X203636979Y-108292197D01*
X203644500Y-108284818D01*
X203620944Y-108263991D01*
X203556001Y-108210893D01*
X203458251Y-108132435D01*
X203336277Y-108035527D01*
X203264930Y-107979195D01*
X203120044Y-107864546D01*
X203017669Y-107780674D01*
X202950384Y-107719124D01*
X202910768Y-107671443D01*
X202891400Y-107629177D01*
X202884858Y-107583873D01*
X202883930Y-107545188D01*
X202882500Y-107410250D01*
X204755750Y-107410250D01*
X204755750Y-107696000D01*
X203318695Y-107696000D01*
X203670535Y-107973813D01*
X203797247Y-108076092D01*
X203903916Y-108166433D01*
X203981475Y-108236828D01*
X204020855Y-108279269D01*
X204023937Y-108285930D01*
X204000888Y-108316957D01*
X203936481Y-108378872D01*
X203839596Y-108463722D01*
X203719112Y-108563555D01*
X203669410Y-108603430D01*
X203313320Y-108886625D01*
X204755750Y-108903693D01*
X204755750Y-109156500D01*
X202882500Y-109156500D01*
X202882500Y-109032134D01*
X202884511Y-108983213D01*
G36*
X30199299Y-121606891D02*
X30388278Y-121840557D01*
X30570781Y-122065911D01*
X30745410Y-122281239D01*
X30910768Y-122484833D01*
X31065456Y-122674980D01*
X31208076Y-122849969D01*
X31337230Y-123008091D01*
X31451520Y-123147633D01*
X31549549Y-123266886D01*
X31629919Y-123364137D01*
X31691231Y-123437676D01*
X31732087Y-123485793D01*
X31751090Y-123506775D01*
X31752283Y-123507573D01*
X31765294Y-123492402D01*
X31800475Y-123449630D01*
X31856427Y-123380990D01*
X31931752Y-123288215D01*
X32025048Y-123173037D01*
X32134917Y-123037188D01*
X32259959Y-122882402D01*
X32398775Y-122710410D01*
X32549965Y-122522946D01*
X32712130Y-122321742D01*
X32883870Y-122108530D01*
X33063786Y-121885044D01*
X33250478Y-121653015D01*
X33292691Y-121600534D01*
X34821408Y-119699852D01*
X36077408Y-119699852D01*
X36077408Y-129013185D01*
X34741556Y-129013185D01*
X34741556Y-125399173D01*
X34741464Y-124953173D01*
X34741193Y-124532737D01*
X34740746Y-124138743D01*
X34740127Y-123772069D01*
X34739342Y-123433593D01*
X34738393Y-123124193D01*
X34737286Y-122844747D01*
X34736026Y-122596134D01*
X34734615Y-122379231D01*
X34733059Y-122194916D01*
X34731361Y-122044069D01*
X34729527Y-121927566D01*
X34727560Y-121846286D01*
X34725465Y-121801106D01*
X34723833Y-121791432D01*
X34710084Y-121806679D01*
X34674389Y-121849595D01*
X34618195Y-121918374D01*
X34542951Y-122011212D01*
X34450105Y-122126305D01*
X34341104Y-122261848D01*
X34217398Y-122416036D01*
X34080434Y-122587065D01*
X33931661Y-122773130D01*
X33772527Y-122972426D01*
X33604481Y-123183149D01*
X33428969Y-123403495D01*
X33291939Y-123575704D01*
X31877769Y-125353704D01*
X31611987Y-125353704D01*
X30171105Y-123563192D01*
X28730222Y-121772680D01*
X28725471Y-125392933D01*
X28720719Y-129013185D01*
X27384963Y-129013185D01*
X27384963Y-119699852D01*
X28658004Y-119699852D01*
X30199299Y-121606891D01*
X30199299Y-121606891D01*
G37*
X30199299Y-121606891D02*
X30388278Y-121840557D01*
X30570781Y-122065911D01*
X30745410Y-122281239D01*
X30910768Y-122484833D01*
X31065456Y-122674980D01*
X31208076Y-122849969D01*
X31337230Y-123008091D01*
X31451520Y-123147633D01*
X31549549Y-123266886D01*
X31629919Y-123364137D01*
X31691231Y-123437676D01*
X31732087Y-123485793D01*
X31751090Y-123506775D01*
X31752283Y-123507573D01*
X31765294Y-123492402D01*
X31800475Y-123449630D01*
X31856427Y-123380990D01*
X31931752Y-123288215D01*
X32025048Y-123173037D01*
X32134917Y-123037188D01*
X32259959Y-122882402D01*
X32398775Y-122710410D01*
X32549965Y-122522946D01*
X32712130Y-122321742D01*
X32883870Y-122108530D01*
X33063786Y-121885044D01*
X33250478Y-121653015D01*
X33292691Y-121600534D01*
X34821408Y-119699852D01*
X36077408Y-119699852D01*
X36077408Y-129013185D01*
X34741556Y-129013185D01*
X34741556Y-125399173D01*
X34741464Y-124953173D01*
X34741193Y-124532737D01*
X34740746Y-124138743D01*
X34740127Y-123772069D01*
X34739342Y-123433593D01*
X34738393Y-123124193D01*
X34737286Y-122844747D01*
X34736026Y-122596134D01*
X34734615Y-122379231D01*
X34733059Y-122194916D01*
X34731361Y-122044069D01*
X34729527Y-121927566D01*
X34727560Y-121846286D01*
X34725465Y-121801106D01*
X34723833Y-121791432D01*
X34710084Y-121806679D01*
X34674389Y-121849595D01*
X34618195Y-121918374D01*
X34542951Y-122011212D01*
X34450105Y-122126305D01*
X34341104Y-122261848D01*
X34217398Y-122416036D01*
X34080434Y-122587065D01*
X33931661Y-122773130D01*
X33772527Y-122972426D01*
X33604481Y-123183149D01*
X33428969Y-123403495D01*
X33291939Y-123575704D01*
X31877769Y-125353704D01*
X31611987Y-125353704D01*
X30171105Y-123563192D01*
X28730222Y-121772680D01*
X28725471Y-125392933D01*
X28720719Y-129013185D01*
X27384963Y-129013185D01*
X27384963Y-119699852D01*
X28658004Y-119699852D01*
X30199299Y-121606891D01*
D16*
X39282381Y-100333333D02*
X39996667Y-100333333D01*
X40139524Y-100380953D01*
X40234762Y-100476191D01*
X40282381Y-100619048D01*
X40282381Y-100714286D01*
X40282381Y-99333333D02*
X40282381Y-99904762D01*
X40282381Y-99619048D02*
X39282381Y-99619048D01*
X39425238Y-99714286D01*
X39520476Y-99809524D01*
X39568095Y-99904762D01*
X44622381Y-100333333D02*
X45336667Y-100333333D01*
X45479524Y-100380953D01*
X45574762Y-100476191D01*
X45622381Y-100619048D01*
X45622381Y-100714286D01*
X44717619Y-99904762D02*
X44670000Y-99857143D01*
X44622381Y-99761905D01*
X44622381Y-99523809D01*
X44670000Y-99428571D01*
X44717619Y-99380952D01*
X44812857Y-99333333D01*
X44908095Y-99333333D01*
X45050952Y-99380952D01*
X45622381Y-99952381D01*
X45622381Y-99333333D01*
X64622381Y-100333333D02*
X65336667Y-100333333D01*
X65479524Y-100380953D01*
X65574762Y-100476191D01*
X65622381Y-100619048D01*
X65622381Y-100714286D01*
X64622381Y-99952381D02*
X64622381Y-99333333D01*
X65003333Y-99666667D01*
X65003333Y-99523809D01*
X65050952Y-99428571D01*
X65098571Y-99380952D01*
X65193810Y-99333333D01*
X65431905Y-99333333D01*
X65527143Y-99380952D01*
X65574762Y-99428571D01*
X65622381Y-99523809D01*
X65622381Y-99809524D01*
X65574762Y-99904762D01*
X65527143Y-99952381D01*
X84622381Y-100333333D02*
X85336667Y-100333333D01*
X85479524Y-100380953D01*
X85574762Y-100476191D01*
X85622381Y-100619048D01*
X85622381Y-100714286D01*
X84955714Y-99428571D02*
X85622381Y-99428571D01*
X84574762Y-99666667D02*
X85289048Y-99904762D01*
X85289048Y-99285714D01*
X104622381Y-100333333D02*
X105336667Y-100333333D01*
X105479524Y-100380953D01*
X105574762Y-100476191D01*
X105622381Y-100619048D01*
X105622381Y-100714286D01*
X104622381Y-99380952D02*
X104622381Y-99857143D01*
X105098571Y-99904762D01*
X105050952Y-99857143D01*
X105003333Y-99761905D01*
X105003333Y-99523809D01*
X105050952Y-99428571D01*
X105098571Y-99380952D01*
X105193810Y-99333333D01*
X105431905Y-99333333D01*
X105527143Y-99380952D01*
X105574762Y-99428571D01*
X105622381Y-99523809D01*
X105622381Y-99761905D01*
X105574762Y-99857143D01*
X105527143Y-99904762D01*
X124622381Y-100333333D02*
X125336667Y-100333333D01*
X125479524Y-100380953D01*
X125574762Y-100476191D01*
X125622381Y-100619048D01*
X125622381Y-100714286D01*
X124622381Y-99428571D02*
X124622381Y-99619048D01*
X124670000Y-99714286D01*
X124717619Y-99761905D01*
X124860476Y-99857143D01*
X125050952Y-99904762D01*
X125431905Y-99904762D01*
X125527143Y-99857143D01*
X125574762Y-99809524D01*
X125622381Y-99714286D01*
X125622381Y-99523809D01*
X125574762Y-99428571D01*
X125527143Y-99380952D01*
X125431905Y-99333333D01*
X125193810Y-99333333D01*
X125098571Y-99380952D01*
X125050952Y-99428571D01*
X125003333Y-99523809D01*
X125003333Y-99714286D01*
X125050952Y-99809524D01*
X125098571Y-99857143D01*
X125193810Y-99904762D01*
X144622381Y-100333333D02*
X145336667Y-100333333D01*
X145479524Y-100380953D01*
X145574762Y-100476191D01*
X145622381Y-100619048D01*
X145622381Y-100714286D01*
X144622381Y-99952381D02*
X144622381Y-99285714D01*
X145622381Y-99714286D01*
X164622381Y-100333333D02*
X165336667Y-100333333D01*
X165479524Y-100380953D01*
X165574762Y-100476191D01*
X165622381Y-100619048D01*
X165622381Y-100714286D01*
X165050952Y-99714286D02*
X165003333Y-99809524D01*
X164955714Y-99857143D01*
X164860476Y-99904762D01*
X164812857Y-99904762D01*
X164717619Y-99857143D01*
X164670000Y-99809524D01*
X164622381Y-99714286D01*
X164622381Y-99523809D01*
X164670000Y-99428571D01*
X164717619Y-99380952D01*
X164812857Y-99333333D01*
X164860476Y-99333333D01*
X164955714Y-99380952D01*
X165003333Y-99428571D01*
X165050952Y-99523809D01*
X165050952Y-99714286D01*
X165098571Y-99809524D01*
X165146190Y-99857143D01*
X165241429Y-99904762D01*
X165431905Y-99904762D01*
X165527143Y-99857143D01*
X165574762Y-99809524D01*
X165622381Y-99714286D01*
X165622381Y-99523809D01*
X165574762Y-99428571D01*
X165527143Y-99380952D01*
X165431905Y-99333333D01*
X165241429Y-99333333D01*
X165146190Y-99380952D01*
X165098571Y-99428571D01*
X165050952Y-99523809D01*
X184622381Y-100333333D02*
X185336667Y-100333333D01*
X185479524Y-100380953D01*
X185574762Y-100476191D01*
X185622381Y-100619048D01*
X185622381Y-100714286D01*
X185622381Y-99809524D02*
X185622381Y-99619048D01*
X185574762Y-99523809D01*
X185527143Y-99476190D01*
X185384286Y-99380952D01*
X185193810Y-99333333D01*
X184812857Y-99333333D01*
X184717619Y-99380952D01*
X184670000Y-99428571D01*
X184622381Y-99523809D01*
X184622381Y-99714286D01*
X184670000Y-99809524D01*
X184717619Y-99857143D01*
X184812857Y-99904762D01*
X185050952Y-99904762D01*
X185146190Y-99857143D01*
X185193810Y-99809524D01*
X185241429Y-99714286D01*
X185241429Y-99523809D01*
X185193810Y-99428571D01*
X185146190Y-99380952D01*
X185050952Y-99333333D01*
X58102381Y-129145238D02*
X57626190Y-129478572D01*
X58102381Y-129716667D02*
X57102381Y-129716667D01*
X57102381Y-129335714D01*
X57150000Y-129240476D01*
X57197619Y-129192857D01*
X57292857Y-129145238D01*
X57435714Y-129145238D01*
X57530952Y-129192857D01*
X57578571Y-129240476D01*
X57626190Y-129335714D01*
X57626190Y-129716667D01*
X57102381Y-128859524D02*
X58102381Y-128526191D01*
X57102381Y-128192857D01*
X58102381Y-127335714D02*
X58102381Y-127907143D01*
X58102381Y-127621429D02*
X57102381Y-127621429D01*
X57245238Y-127716667D01*
X57340476Y-127811905D01*
X57388095Y-127907143D01*
X78102381Y-129145238D02*
X77626190Y-129478572D01*
X78102381Y-129716667D02*
X77102381Y-129716667D01*
X77102381Y-129335714D01*
X77150000Y-129240476D01*
X77197619Y-129192857D01*
X77292857Y-129145238D01*
X77435714Y-129145238D01*
X77530952Y-129192857D01*
X77578571Y-129240476D01*
X77626190Y-129335714D01*
X77626190Y-129716667D01*
X77102381Y-128859524D02*
X78102381Y-128526191D01*
X77102381Y-128192857D01*
X77197619Y-127907143D02*
X77150000Y-127859524D01*
X77102381Y-127764286D01*
X77102381Y-127526190D01*
X77150000Y-127430952D01*
X77197619Y-127383333D01*
X77292857Y-127335714D01*
X77388095Y-127335714D01*
X77530952Y-127383333D01*
X78102381Y-127954762D01*
X78102381Y-127335714D01*
X98102381Y-129145238D02*
X97626190Y-129478572D01*
X98102381Y-129716667D02*
X97102381Y-129716667D01*
X97102381Y-129335714D01*
X97150000Y-129240476D01*
X97197619Y-129192857D01*
X97292857Y-129145238D01*
X97435714Y-129145238D01*
X97530952Y-129192857D01*
X97578571Y-129240476D01*
X97626190Y-129335714D01*
X97626190Y-129716667D01*
X97102381Y-128859524D02*
X98102381Y-128526191D01*
X97102381Y-128192857D01*
X97102381Y-127954762D02*
X97102381Y-127335714D01*
X97483333Y-127669048D01*
X97483333Y-127526190D01*
X97530952Y-127430952D01*
X97578571Y-127383333D01*
X97673810Y-127335714D01*
X97911905Y-127335714D01*
X98007143Y-127383333D01*
X98054762Y-127430952D01*
X98102381Y-127526190D01*
X98102381Y-127811905D01*
X98054762Y-127907143D01*
X98007143Y-127954762D01*
X118102381Y-129145238D02*
X117626190Y-129478572D01*
X118102381Y-129716667D02*
X117102381Y-129716667D01*
X117102381Y-129335714D01*
X117150000Y-129240476D01*
X117197619Y-129192857D01*
X117292857Y-129145238D01*
X117435714Y-129145238D01*
X117530952Y-129192857D01*
X117578571Y-129240476D01*
X117626190Y-129335714D01*
X117626190Y-129716667D01*
X117102381Y-128859524D02*
X118102381Y-128526191D01*
X117102381Y-128192857D01*
X117435714Y-127430952D02*
X118102381Y-127430952D01*
X117054762Y-127669048D02*
X117769048Y-127907143D01*
X117769048Y-127288095D01*
X138102381Y-129145238D02*
X137626190Y-129478572D01*
X138102381Y-129716667D02*
X137102381Y-129716667D01*
X137102381Y-129335714D01*
X137150000Y-129240476D01*
X137197619Y-129192857D01*
X137292857Y-129145238D01*
X137435714Y-129145238D01*
X137530952Y-129192857D01*
X137578571Y-129240476D01*
X137626190Y-129335714D01*
X137626190Y-129716667D01*
X137102381Y-128859524D02*
X138102381Y-128526191D01*
X137102381Y-128192857D01*
X137102381Y-127383333D02*
X137102381Y-127859524D01*
X137578571Y-127907143D01*
X137530952Y-127859524D01*
X137483333Y-127764286D01*
X137483333Y-127526190D01*
X137530952Y-127430952D01*
X137578571Y-127383333D01*
X137673810Y-127335714D01*
X137911905Y-127335714D01*
X138007143Y-127383333D01*
X138054762Y-127430952D01*
X138102381Y-127526190D01*
X138102381Y-127764286D01*
X138054762Y-127859524D01*
X138007143Y-127907143D01*
X158102381Y-129145238D02*
X157626190Y-129478572D01*
X158102381Y-129716667D02*
X157102381Y-129716667D01*
X157102381Y-129335714D01*
X157150000Y-129240476D01*
X157197619Y-129192857D01*
X157292857Y-129145238D01*
X157435714Y-129145238D01*
X157530952Y-129192857D01*
X157578571Y-129240476D01*
X157626190Y-129335714D01*
X157626190Y-129716667D01*
X157102381Y-128859524D02*
X158102381Y-128526191D01*
X157102381Y-128192857D01*
X157102381Y-127430952D02*
X157102381Y-127621429D01*
X157150000Y-127716667D01*
X157197619Y-127764286D01*
X157340476Y-127859524D01*
X157530952Y-127907143D01*
X157911905Y-127907143D01*
X158007143Y-127859524D01*
X158054762Y-127811905D01*
X158102381Y-127716667D01*
X158102381Y-127526190D01*
X158054762Y-127430952D01*
X158007143Y-127383333D01*
X157911905Y-127335714D01*
X157673810Y-127335714D01*
X157578571Y-127383333D01*
X157530952Y-127430952D01*
X157483333Y-127526190D01*
X157483333Y-127716667D01*
X157530952Y-127811905D01*
X157578571Y-127859524D01*
X157673810Y-127907143D01*
X178102381Y-129145238D02*
X177626190Y-129478572D01*
X178102381Y-129716667D02*
X177102381Y-129716667D01*
X177102381Y-129335714D01*
X177150000Y-129240476D01*
X177197619Y-129192857D01*
X177292857Y-129145238D01*
X177435714Y-129145238D01*
X177530952Y-129192857D01*
X177578571Y-129240476D01*
X177626190Y-129335714D01*
X177626190Y-129716667D01*
X177102381Y-128859524D02*
X178102381Y-128526191D01*
X177102381Y-128192857D01*
X177102381Y-127954762D02*
X177102381Y-127288095D01*
X178102381Y-127716667D01*
X198102381Y-129145238D02*
X197626190Y-129478572D01*
X198102381Y-129716667D02*
X197102381Y-129716667D01*
X197102381Y-129335714D01*
X197150000Y-129240476D01*
X197197619Y-129192857D01*
X197292857Y-129145238D01*
X197435714Y-129145238D01*
X197530952Y-129192857D01*
X197578571Y-129240476D01*
X197626190Y-129335714D01*
X197626190Y-129716667D01*
X197102381Y-128859524D02*
X198102381Y-128526191D01*
X197102381Y-128192857D01*
X197530952Y-127716667D02*
X197483333Y-127811905D01*
X197435714Y-127859524D01*
X197340476Y-127907143D01*
X197292857Y-127907143D01*
X197197619Y-127859524D01*
X197150000Y-127811905D01*
X197102381Y-127716667D01*
X197102381Y-127526190D01*
X197150000Y-127430952D01*
X197197619Y-127383333D01*
X197292857Y-127335714D01*
X197340476Y-127335714D01*
X197435714Y-127383333D01*
X197483333Y-127430952D01*
X197530952Y-127526190D01*
X197530952Y-127716667D01*
X197578571Y-127811905D01*
X197626190Y-127859524D01*
X197721429Y-127907143D01*
X197911905Y-127907143D01*
X198007143Y-127859524D01*
X198054762Y-127811905D01*
X198102381Y-127716667D01*
X198102381Y-127526190D01*
X198054762Y-127430952D01*
X198007143Y-127383333D01*
X197911905Y-127335714D01*
X197721429Y-127335714D01*
X197626190Y-127383333D01*
X197578571Y-127430952D01*
X197530952Y-127526190D01*
X36083334Y-112917143D02*
X36035715Y-112964762D01*
X35892858Y-113012381D01*
X35797620Y-113012381D01*
X35654762Y-112964762D01*
X35559524Y-112869524D01*
X35511905Y-112774286D01*
X35464286Y-112583810D01*
X35464286Y-112440952D01*
X35511905Y-112250476D01*
X35559524Y-112155238D01*
X35654762Y-112060000D01*
X35797620Y-112012381D01*
X35892858Y-112012381D01*
X36035715Y-112060000D01*
X36083334Y-112107619D01*
X37035715Y-113012381D02*
X36464286Y-113012381D01*
X36750000Y-113012381D02*
X36750000Y-112012381D01*
X36654762Y-112155238D01*
X36559524Y-112250476D01*
X36464286Y-112298095D01*
D17*
G36*
X58873000Y-140873000D02*
X41127000Y-140873000D01*
X41127000Y-136127000D01*
X58873000Y-136127000D01*
X58873000Y-140873000D01*
X58873000Y-140873000D01*
G37*
X58873000Y-140873000D02*
X41127000Y-140873000D01*
X41127000Y-136127000D01*
X58873000Y-136127000D01*
X58873000Y-140873000D01*
G36*
X78873000Y-140873000D02*
X61127000Y-140873000D01*
X61127000Y-136127000D01*
X78873000Y-136127000D01*
X78873000Y-140873000D01*
X78873000Y-140873000D01*
G37*
X78873000Y-140873000D02*
X61127000Y-140873000D01*
X61127000Y-136127000D01*
X78873000Y-136127000D01*
X78873000Y-140873000D01*
G36*
X98873000Y-140873000D02*
X81127000Y-140873000D01*
X81127000Y-136127000D01*
X98873000Y-136127000D01*
X98873000Y-140873000D01*
X98873000Y-140873000D01*
G37*
X98873000Y-140873000D02*
X81127000Y-140873000D01*
X81127000Y-136127000D01*
X98873000Y-136127000D01*
X98873000Y-140873000D01*
G36*
X138873000Y-140873000D02*
X121127000Y-140873000D01*
X121127000Y-136127000D01*
X138873000Y-136127000D01*
X138873000Y-140873000D01*
X138873000Y-140873000D01*
G37*
X138873000Y-140873000D02*
X121127000Y-140873000D01*
X121127000Y-136127000D01*
X138873000Y-136127000D01*
X138873000Y-140873000D01*
G36*
X118873000Y-140873000D02*
X101127000Y-140873000D01*
X101127000Y-136127000D01*
X118873000Y-136127000D01*
X118873000Y-140873000D01*
X118873000Y-140873000D01*
G37*
X118873000Y-140873000D02*
X101127000Y-140873000D01*
X101127000Y-136127000D01*
X118873000Y-136127000D01*
X118873000Y-140873000D01*
G36*
X158873000Y-140873000D02*
X141127000Y-140873000D01*
X141127000Y-136127000D01*
X158873000Y-136127000D01*
X158873000Y-140873000D01*
X158873000Y-140873000D01*
G37*
X158873000Y-140873000D02*
X141127000Y-140873000D01*
X141127000Y-136127000D01*
X158873000Y-136127000D01*
X158873000Y-140873000D01*
G36*
X178873000Y-140873000D02*
X161127000Y-140873000D01*
X161127000Y-136127000D01*
X178873000Y-136127000D01*
X178873000Y-140873000D01*
X178873000Y-140873000D01*
G37*
X178873000Y-140873000D02*
X161127000Y-140873000D01*
X161127000Y-136127000D01*
X178873000Y-136127000D01*
X178873000Y-140873000D01*
G36*
X198873000Y-140873000D02*
X181127000Y-140873000D01*
X181127000Y-136127000D01*
X198873000Y-136127000D01*
X198873000Y-140873000D01*
X198873000Y-140873000D01*
G37*
X198873000Y-140873000D02*
X181127000Y-140873000D01*
X181127000Y-136127000D01*
X198873000Y-136127000D01*
X198873000Y-140873000D01*
M02*
