G04 #@! TF.FileFunction,Soldermask,Bot*
%FSLAX46Y46*%
G04 Gerber Fmt 4.6, Leading zero omitted, Abs format (unit mm)*
G04 Created by KiCad (PCBNEW 4.0.7) date Monday, 21 May 2018 'PMt' 08:13:31 PM*
%MOMM*%
%LPD*%
G01*
G04 APERTURE LIST*
%ADD10C,0.100000*%
%ADD11R,1.700000X1.700000*%
%ADD12O,1.700000X1.700000*%
%ADD13C,1.800000*%
%ADD14C,4.000000*%
%ADD15R,1.308000X1.308000*%
%ADD16C,1.308000*%
%ADD17C,3.200000*%
%ADD18R,1.600000X1.600000*%
%ADD19C,1.600000*%
G04 APERTURE END LIST*
D10*
D11*
X37500000Y-100000000D03*
D12*
X34960000Y-100000000D03*
D11*
X47500000Y-100000000D03*
D12*
X50040000Y-100000000D03*
X52580000Y-100000000D03*
D11*
X67500000Y-100000000D03*
D12*
X70040000Y-100000000D03*
X72580000Y-100000000D03*
D11*
X87500000Y-100000000D03*
D12*
X90040000Y-100000000D03*
X92580000Y-100000000D03*
D11*
X107500000Y-100000000D03*
D12*
X110040000Y-100000000D03*
X112580000Y-100000000D03*
D11*
X127500000Y-100000000D03*
D12*
X130040000Y-100000000D03*
X132580000Y-100000000D03*
D11*
X147500000Y-100000000D03*
D12*
X150040000Y-100000000D03*
X152580000Y-100000000D03*
D11*
X167500000Y-100000000D03*
D12*
X170040000Y-100000000D03*
X172580000Y-100000000D03*
D11*
X187500000Y-100000000D03*
D12*
X190040000Y-100000000D03*
X192580000Y-100000000D03*
D13*
X52500000Y-122500000D03*
X50000000Y-122500000D03*
X47500000Y-122500000D03*
D14*
X54400000Y-129500000D03*
X45600000Y-129500000D03*
D13*
X72500000Y-122500000D03*
X70000000Y-122500000D03*
X67500000Y-122500000D03*
D14*
X74400000Y-129500000D03*
X65600000Y-129500000D03*
D13*
X92500000Y-122500000D03*
X90000000Y-122500000D03*
X87500000Y-122500000D03*
D14*
X94400000Y-129500000D03*
X85600000Y-129500000D03*
D13*
X112500000Y-122500000D03*
X110000000Y-122500000D03*
X107500000Y-122500000D03*
D14*
X114400000Y-129500000D03*
X105600000Y-129500000D03*
D13*
X132500000Y-122500000D03*
X130000000Y-122500000D03*
X127500000Y-122500000D03*
D14*
X134400000Y-129500000D03*
X125600000Y-129500000D03*
D13*
X152500000Y-122500000D03*
X150000000Y-122500000D03*
X147500000Y-122500000D03*
D14*
X154400000Y-129500000D03*
X145600000Y-129500000D03*
D13*
X172500000Y-122500000D03*
X170000000Y-122500000D03*
X167500000Y-122500000D03*
D14*
X174400000Y-129500000D03*
X165600000Y-129500000D03*
D13*
X192500000Y-122500000D03*
X190000000Y-122500000D03*
X187500000Y-122500000D03*
D14*
X194400000Y-129500000D03*
X185600000Y-129500000D03*
D15*
X53000000Y-111000000D03*
D16*
X53000000Y-113000000D03*
X53000000Y-115000000D03*
D15*
X47000000Y-111000000D03*
D16*
X47000000Y-113000000D03*
X47000000Y-115000000D03*
D15*
X67000000Y-111000000D03*
D16*
X67000000Y-113000000D03*
X67000000Y-115000000D03*
D15*
X93000000Y-111000000D03*
D16*
X93000000Y-113000000D03*
X93000000Y-115000000D03*
D15*
X113000000Y-111000000D03*
D16*
X113000000Y-113000000D03*
X113000000Y-115000000D03*
D15*
X87000000Y-111000000D03*
D16*
X87000000Y-113000000D03*
X87000000Y-115000000D03*
D15*
X107000000Y-111000000D03*
D16*
X107000000Y-113000000D03*
X107000000Y-115000000D03*
D15*
X133000000Y-111000000D03*
D16*
X133000000Y-113000000D03*
X133000000Y-115000000D03*
D15*
X153000000Y-111000000D03*
D16*
X153000000Y-113000000D03*
X153000000Y-115000000D03*
D15*
X127000000Y-111000000D03*
D16*
X127000000Y-113000000D03*
X127000000Y-115000000D03*
D15*
X147000000Y-111000000D03*
D16*
X147000000Y-113000000D03*
X147000000Y-115000000D03*
D15*
X173000000Y-111000000D03*
D16*
X173000000Y-113000000D03*
X173000000Y-115000000D03*
D15*
X193000000Y-111000000D03*
D16*
X193000000Y-113000000D03*
X193000000Y-115000000D03*
D15*
X167000000Y-111000000D03*
D16*
X167000000Y-113000000D03*
X167000000Y-115000000D03*
D15*
X187000000Y-111000000D03*
D16*
X187000000Y-113000000D03*
X187000000Y-115000000D03*
D17*
X26000000Y-138000000D03*
X202000000Y-101000000D03*
X26670000Y-101346000D03*
X202000000Y-138000000D03*
X120000000Y-101000000D03*
X120000000Y-138000000D03*
D15*
X73000000Y-111000000D03*
D16*
X73000000Y-113000000D03*
X73000000Y-115000000D03*
D18*
X37250000Y-108750000D03*
D19*
X35250000Y-108750000D03*
M02*
