G04 #@! TF.FileFunction,Drawing*
%FSLAX46Y46*%
G04 Gerber Fmt 4.6, Leading zero omitted, Abs format (unit mm)*
G04 Created by KiCad (PCBNEW 4.0.7) date Monday, 21 May 2018 'PMt' 08:13:31 PM*
%MOMM*%
%LPD*%
G01*
G04 APERTURE LIST*
%ADD10C,0.100000*%
%ADD11C,0.127000*%
%ADD12C,0.200000*%
%ADD13C,0.050000*%
G04 APERTURE END LIST*
D10*
D11*
X55150000Y-108700000D02*
X55150000Y-117300000D01*
X55150000Y-117300000D02*
X50850000Y-117300000D01*
X50850000Y-117300000D02*
X50850000Y-108700000D01*
X50850000Y-108700000D02*
X55150000Y-108700000D01*
D12*
X53150000Y-110900000D02*
G75*
G03X53150000Y-110900000I-100000J0D01*
G01*
D13*
X54250000Y-108450000D02*
X55400000Y-108450000D01*
X55400000Y-108450000D02*
X55400000Y-117550000D01*
X55400000Y-117550000D02*
X54250000Y-117550000D01*
X54250000Y-117550000D02*
X54250000Y-118250000D01*
X54250000Y-118250000D02*
X51750000Y-118250000D01*
X51750000Y-118250000D02*
X51750000Y-117550000D01*
X51750000Y-117550000D02*
X50600000Y-117550000D01*
X50600000Y-117550000D02*
X50600000Y-108450000D01*
X50600000Y-108450000D02*
X51750000Y-108450000D01*
X51750000Y-108450000D02*
X51750000Y-107750000D01*
X51750000Y-107750000D02*
X54250000Y-107750000D01*
X54250000Y-107750000D02*
X54250000Y-108450000D01*
D11*
X49150000Y-108700000D02*
X49150000Y-117300000D01*
X49150000Y-117300000D02*
X44850000Y-117300000D01*
X44850000Y-117300000D02*
X44850000Y-108700000D01*
X44850000Y-108700000D02*
X49150000Y-108700000D01*
D12*
X47150000Y-110900000D02*
G75*
G03X47150000Y-110900000I-100000J0D01*
G01*
D13*
X48250000Y-108450000D02*
X49400000Y-108450000D01*
X49400000Y-108450000D02*
X49400000Y-117550000D01*
X49400000Y-117550000D02*
X48250000Y-117550000D01*
X48250000Y-117550000D02*
X48250000Y-118250000D01*
X48250000Y-118250000D02*
X45750000Y-118250000D01*
X45750000Y-118250000D02*
X45750000Y-117550000D01*
X45750000Y-117550000D02*
X44600000Y-117550000D01*
X44600000Y-117550000D02*
X44600000Y-108450000D01*
X44600000Y-108450000D02*
X45750000Y-108450000D01*
X45750000Y-108450000D02*
X45750000Y-107750000D01*
X45750000Y-107750000D02*
X48250000Y-107750000D01*
X48250000Y-107750000D02*
X48250000Y-108450000D01*
D11*
X69150000Y-108700000D02*
X69150000Y-117300000D01*
X69150000Y-117300000D02*
X64850000Y-117300000D01*
X64850000Y-117300000D02*
X64850000Y-108700000D01*
X64850000Y-108700000D02*
X69150000Y-108700000D01*
D12*
X67150000Y-110900000D02*
G75*
G03X67150000Y-110900000I-100000J0D01*
G01*
D13*
X68250000Y-108450000D02*
X69400000Y-108450000D01*
X69400000Y-108450000D02*
X69400000Y-117550000D01*
X69400000Y-117550000D02*
X68250000Y-117550000D01*
X68250000Y-117550000D02*
X68250000Y-118250000D01*
X68250000Y-118250000D02*
X65750000Y-118250000D01*
X65750000Y-118250000D02*
X65750000Y-117550000D01*
X65750000Y-117550000D02*
X64600000Y-117550000D01*
X64600000Y-117550000D02*
X64600000Y-108450000D01*
X64600000Y-108450000D02*
X65750000Y-108450000D01*
X65750000Y-108450000D02*
X65750000Y-107750000D01*
X65750000Y-107750000D02*
X68250000Y-107750000D01*
X68250000Y-107750000D02*
X68250000Y-108450000D01*
D11*
X95150000Y-108700000D02*
X95150000Y-117300000D01*
X95150000Y-117300000D02*
X90850000Y-117300000D01*
X90850000Y-117300000D02*
X90850000Y-108700000D01*
X90850000Y-108700000D02*
X95150000Y-108700000D01*
D12*
X93150000Y-110900000D02*
G75*
G03X93150000Y-110900000I-100000J0D01*
G01*
D13*
X94250000Y-108450000D02*
X95400000Y-108450000D01*
X95400000Y-108450000D02*
X95400000Y-117550000D01*
X95400000Y-117550000D02*
X94250000Y-117550000D01*
X94250000Y-117550000D02*
X94250000Y-118250000D01*
X94250000Y-118250000D02*
X91750000Y-118250000D01*
X91750000Y-118250000D02*
X91750000Y-117550000D01*
X91750000Y-117550000D02*
X90600000Y-117550000D01*
X90600000Y-117550000D02*
X90600000Y-108450000D01*
X90600000Y-108450000D02*
X91750000Y-108450000D01*
X91750000Y-108450000D02*
X91750000Y-107750000D01*
X91750000Y-107750000D02*
X94250000Y-107750000D01*
X94250000Y-107750000D02*
X94250000Y-108450000D01*
D11*
X115150000Y-108700000D02*
X115150000Y-117300000D01*
X115150000Y-117300000D02*
X110850000Y-117300000D01*
X110850000Y-117300000D02*
X110850000Y-108700000D01*
X110850000Y-108700000D02*
X115150000Y-108700000D01*
D12*
X113150000Y-110900000D02*
G75*
G03X113150000Y-110900000I-100000J0D01*
G01*
D13*
X114250000Y-108450000D02*
X115400000Y-108450000D01*
X115400000Y-108450000D02*
X115400000Y-117550000D01*
X115400000Y-117550000D02*
X114250000Y-117550000D01*
X114250000Y-117550000D02*
X114250000Y-118250000D01*
X114250000Y-118250000D02*
X111750000Y-118250000D01*
X111750000Y-118250000D02*
X111750000Y-117550000D01*
X111750000Y-117550000D02*
X110600000Y-117550000D01*
X110600000Y-117550000D02*
X110600000Y-108450000D01*
X110600000Y-108450000D02*
X111750000Y-108450000D01*
X111750000Y-108450000D02*
X111750000Y-107750000D01*
X111750000Y-107750000D02*
X114250000Y-107750000D01*
X114250000Y-107750000D02*
X114250000Y-108450000D01*
D11*
X89150000Y-108700000D02*
X89150000Y-117300000D01*
X89150000Y-117300000D02*
X84850000Y-117300000D01*
X84850000Y-117300000D02*
X84850000Y-108700000D01*
X84850000Y-108700000D02*
X89150000Y-108700000D01*
D12*
X87150000Y-110900000D02*
G75*
G03X87150000Y-110900000I-100000J0D01*
G01*
D13*
X88250000Y-108450000D02*
X89400000Y-108450000D01*
X89400000Y-108450000D02*
X89400000Y-117550000D01*
X89400000Y-117550000D02*
X88250000Y-117550000D01*
X88250000Y-117550000D02*
X88250000Y-118250000D01*
X88250000Y-118250000D02*
X85750000Y-118250000D01*
X85750000Y-118250000D02*
X85750000Y-117550000D01*
X85750000Y-117550000D02*
X84600000Y-117550000D01*
X84600000Y-117550000D02*
X84600000Y-108450000D01*
X84600000Y-108450000D02*
X85750000Y-108450000D01*
X85750000Y-108450000D02*
X85750000Y-107750000D01*
X85750000Y-107750000D02*
X88250000Y-107750000D01*
X88250000Y-107750000D02*
X88250000Y-108450000D01*
D11*
X109150000Y-108700000D02*
X109150000Y-117300000D01*
X109150000Y-117300000D02*
X104850000Y-117300000D01*
X104850000Y-117300000D02*
X104850000Y-108700000D01*
X104850000Y-108700000D02*
X109150000Y-108700000D01*
D12*
X107150000Y-110900000D02*
G75*
G03X107150000Y-110900000I-100000J0D01*
G01*
D13*
X108250000Y-108450000D02*
X109400000Y-108450000D01*
X109400000Y-108450000D02*
X109400000Y-117550000D01*
X109400000Y-117550000D02*
X108250000Y-117550000D01*
X108250000Y-117550000D02*
X108250000Y-118250000D01*
X108250000Y-118250000D02*
X105750000Y-118250000D01*
X105750000Y-118250000D02*
X105750000Y-117550000D01*
X105750000Y-117550000D02*
X104600000Y-117550000D01*
X104600000Y-117550000D02*
X104600000Y-108450000D01*
X104600000Y-108450000D02*
X105750000Y-108450000D01*
X105750000Y-108450000D02*
X105750000Y-107750000D01*
X105750000Y-107750000D02*
X108250000Y-107750000D01*
X108250000Y-107750000D02*
X108250000Y-108450000D01*
D11*
X135150000Y-108700000D02*
X135150000Y-117300000D01*
X135150000Y-117300000D02*
X130850000Y-117300000D01*
X130850000Y-117300000D02*
X130850000Y-108700000D01*
X130850000Y-108700000D02*
X135150000Y-108700000D01*
D12*
X133150000Y-110900000D02*
G75*
G03X133150000Y-110900000I-100000J0D01*
G01*
D13*
X134250000Y-108450000D02*
X135400000Y-108450000D01*
X135400000Y-108450000D02*
X135400000Y-117550000D01*
X135400000Y-117550000D02*
X134250000Y-117550000D01*
X134250000Y-117550000D02*
X134250000Y-118250000D01*
X134250000Y-118250000D02*
X131750000Y-118250000D01*
X131750000Y-118250000D02*
X131750000Y-117550000D01*
X131750000Y-117550000D02*
X130600000Y-117550000D01*
X130600000Y-117550000D02*
X130600000Y-108450000D01*
X130600000Y-108450000D02*
X131750000Y-108450000D01*
X131750000Y-108450000D02*
X131750000Y-107750000D01*
X131750000Y-107750000D02*
X134250000Y-107750000D01*
X134250000Y-107750000D02*
X134250000Y-108450000D01*
D11*
X155150000Y-108700000D02*
X155150000Y-117300000D01*
X155150000Y-117300000D02*
X150850000Y-117300000D01*
X150850000Y-117300000D02*
X150850000Y-108700000D01*
X150850000Y-108700000D02*
X155150000Y-108700000D01*
D12*
X153150000Y-110900000D02*
G75*
G03X153150000Y-110900000I-100000J0D01*
G01*
D13*
X154250000Y-108450000D02*
X155400000Y-108450000D01*
X155400000Y-108450000D02*
X155400000Y-117550000D01*
X155400000Y-117550000D02*
X154250000Y-117550000D01*
X154250000Y-117550000D02*
X154250000Y-118250000D01*
X154250000Y-118250000D02*
X151750000Y-118250000D01*
X151750000Y-118250000D02*
X151750000Y-117550000D01*
X151750000Y-117550000D02*
X150600000Y-117550000D01*
X150600000Y-117550000D02*
X150600000Y-108450000D01*
X150600000Y-108450000D02*
X151750000Y-108450000D01*
X151750000Y-108450000D02*
X151750000Y-107750000D01*
X151750000Y-107750000D02*
X154250000Y-107750000D01*
X154250000Y-107750000D02*
X154250000Y-108450000D01*
D11*
X129150000Y-108700000D02*
X129150000Y-117300000D01*
X129150000Y-117300000D02*
X124850000Y-117300000D01*
X124850000Y-117300000D02*
X124850000Y-108700000D01*
X124850000Y-108700000D02*
X129150000Y-108700000D01*
D12*
X127150000Y-110900000D02*
G75*
G03X127150000Y-110900000I-100000J0D01*
G01*
D13*
X128250000Y-108450000D02*
X129400000Y-108450000D01*
X129400000Y-108450000D02*
X129400000Y-117550000D01*
X129400000Y-117550000D02*
X128250000Y-117550000D01*
X128250000Y-117550000D02*
X128250000Y-118250000D01*
X128250000Y-118250000D02*
X125750000Y-118250000D01*
X125750000Y-118250000D02*
X125750000Y-117550000D01*
X125750000Y-117550000D02*
X124600000Y-117550000D01*
X124600000Y-117550000D02*
X124600000Y-108450000D01*
X124600000Y-108450000D02*
X125750000Y-108450000D01*
X125750000Y-108450000D02*
X125750000Y-107750000D01*
X125750000Y-107750000D02*
X128250000Y-107750000D01*
X128250000Y-107750000D02*
X128250000Y-108450000D01*
D11*
X149150000Y-108700000D02*
X149150000Y-117300000D01*
X149150000Y-117300000D02*
X144850000Y-117300000D01*
X144850000Y-117300000D02*
X144850000Y-108700000D01*
X144850000Y-108700000D02*
X149150000Y-108700000D01*
D12*
X147150000Y-110900000D02*
G75*
G03X147150000Y-110900000I-100000J0D01*
G01*
D13*
X148250000Y-108450000D02*
X149400000Y-108450000D01*
X149400000Y-108450000D02*
X149400000Y-117550000D01*
X149400000Y-117550000D02*
X148250000Y-117550000D01*
X148250000Y-117550000D02*
X148250000Y-118250000D01*
X148250000Y-118250000D02*
X145750000Y-118250000D01*
X145750000Y-118250000D02*
X145750000Y-117550000D01*
X145750000Y-117550000D02*
X144600000Y-117550000D01*
X144600000Y-117550000D02*
X144600000Y-108450000D01*
X144600000Y-108450000D02*
X145750000Y-108450000D01*
X145750000Y-108450000D02*
X145750000Y-107750000D01*
X145750000Y-107750000D02*
X148250000Y-107750000D01*
X148250000Y-107750000D02*
X148250000Y-108450000D01*
D11*
X175150000Y-108700000D02*
X175150000Y-117300000D01*
X175150000Y-117300000D02*
X170850000Y-117300000D01*
X170850000Y-117300000D02*
X170850000Y-108700000D01*
X170850000Y-108700000D02*
X175150000Y-108700000D01*
D12*
X173150000Y-110900000D02*
G75*
G03X173150000Y-110900000I-100000J0D01*
G01*
D13*
X174250000Y-108450000D02*
X175400000Y-108450000D01*
X175400000Y-108450000D02*
X175400000Y-117550000D01*
X175400000Y-117550000D02*
X174250000Y-117550000D01*
X174250000Y-117550000D02*
X174250000Y-118250000D01*
X174250000Y-118250000D02*
X171750000Y-118250000D01*
X171750000Y-118250000D02*
X171750000Y-117550000D01*
X171750000Y-117550000D02*
X170600000Y-117550000D01*
X170600000Y-117550000D02*
X170600000Y-108450000D01*
X170600000Y-108450000D02*
X171750000Y-108450000D01*
X171750000Y-108450000D02*
X171750000Y-107750000D01*
X171750000Y-107750000D02*
X174250000Y-107750000D01*
X174250000Y-107750000D02*
X174250000Y-108450000D01*
D11*
X195150000Y-108700000D02*
X195150000Y-117300000D01*
X195150000Y-117300000D02*
X190850000Y-117300000D01*
X190850000Y-117300000D02*
X190850000Y-108700000D01*
X190850000Y-108700000D02*
X195150000Y-108700000D01*
D12*
X193150000Y-110900000D02*
G75*
G03X193150000Y-110900000I-100000J0D01*
G01*
D13*
X194250000Y-108450000D02*
X195400000Y-108450000D01*
X195400000Y-108450000D02*
X195400000Y-117550000D01*
X195400000Y-117550000D02*
X194250000Y-117550000D01*
X194250000Y-117550000D02*
X194250000Y-118250000D01*
X194250000Y-118250000D02*
X191750000Y-118250000D01*
X191750000Y-118250000D02*
X191750000Y-117550000D01*
X191750000Y-117550000D02*
X190600000Y-117550000D01*
X190600000Y-117550000D02*
X190600000Y-108450000D01*
X190600000Y-108450000D02*
X191750000Y-108450000D01*
X191750000Y-108450000D02*
X191750000Y-107750000D01*
X191750000Y-107750000D02*
X194250000Y-107750000D01*
X194250000Y-107750000D02*
X194250000Y-108450000D01*
D11*
X169150000Y-108700000D02*
X169150000Y-117300000D01*
X169150000Y-117300000D02*
X164850000Y-117300000D01*
X164850000Y-117300000D02*
X164850000Y-108700000D01*
X164850000Y-108700000D02*
X169150000Y-108700000D01*
D12*
X167150000Y-110900000D02*
G75*
G03X167150000Y-110900000I-100000J0D01*
G01*
D13*
X168250000Y-108450000D02*
X169400000Y-108450000D01*
X169400000Y-108450000D02*
X169400000Y-117550000D01*
X169400000Y-117550000D02*
X168250000Y-117550000D01*
X168250000Y-117550000D02*
X168250000Y-118250000D01*
X168250000Y-118250000D02*
X165750000Y-118250000D01*
X165750000Y-118250000D02*
X165750000Y-117550000D01*
X165750000Y-117550000D02*
X164600000Y-117550000D01*
X164600000Y-117550000D02*
X164600000Y-108450000D01*
X164600000Y-108450000D02*
X165750000Y-108450000D01*
X165750000Y-108450000D02*
X165750000Y-107750000D01*
X165750000Y-107750000D02*
X168250000Y-107750000D01*
X168250000Y-107750000D02*
X168250000Y-108450000D01*
D11*
X189150000Y-108700000D02*
X189150000Y-117300000D01*
X189150000Y-117300000D02*
X184850000Y-117300000D01*
X184850000Y-117300000D02*
X184850000Y-108700000D01*
X184850000Y-108700000D02*
X189150000Y-108700000D01*
D12*
X187150000Y-110900000D02*
G75*
G03X187150000Y-110900000I-100000J0D01*
G01*
D13*
X188250000Y-108450000D02*
X189400000Y-108450000D01*
X189400000Y-108450000D02*
X189400000Y-117550000D01*
X189400000Y-117550000D02*
X188250000Y-117550000D01*
X188250000Y-117550000D02*
X188250000Y-118250000D01*
X188250000Y-118250000D02*
X185750000Y-118250000D01*
X185750000Y-118250000D02*
X185750000Y-117550000D01*
X185750000Y-117550000D02*
X184600000Y-117550000D01*
X184600000Y-117550000D02*
X184600000Y-108450000D01*
X184600000Y-108450000D02*
X185750000Y-108450000D01*
X185750000Y-108450000D02*
X185750000Y-107750000D01*
X185750000Y-107750000D02*
X188250000Y-107750000D01*
X188250000Y-107750000D02*
X188250000Y-108450000D01*
D11*
X75150000Y-108700000D02*
X75150000Y-117300000D01*
X75150000Y-117300000D02*
X70850000Y-117300000D01*
X70850000Y-117300000D02*
X70850000Y-108700000D01*
X70850000Y-108700000D02*
X75150000Y-108700000D01*
D12*
X73150000Y-110900000D02*
G75*
G03X73150000Y-110900000I-100000J0D01*
G01*
D13*
X74250000Y-108450000D02*
X75400000Y-108450000D01*
X75400000Y-108450000D02*
X75400000Y-117550000D01*
X75400000Y-117550000D02*
X74250000Y-117550000D01*
X74250000Y-117550000D02*
X74250000Y-118250000D01*
X74250000Y-118250000D02*
X71750000Y-118250000D01*
X71750000Y-118250000D02*
X71750000Y-117550000D01*
X71750000Y-117550000D02*
X70600000Y-117550000D01*
X70600000Y-117550000D02*
X70600000Y-108450000D01*
X70600000Y-108450000D02*
X71750000Y-108450000D01*
X71750000Y-108450000D02*
X71750000Y-107750000D01*
X71750000Y-107750000D02*
X74250000Y-107750000D01*
X74250000Y-107750000D02*
X74250000Y-108450000D01*
M02*
