G04 #@! TF.FileFunction,Other,User*
%FSLAX46Y46*%
G04 Gerber Fmt 4.6, Leading zero omitted, Abs format (unit mm)*
G04 Created by KiCad (PCBNEW 4.0.7) date Monday, 21 May 2018 'PMt' 08:13:31 PM*
%MOMM*%
%LPD*%
G01*
G04 APERTURE LIST*
%ADD10C,0.100000*%
%ADD11C,0.050000*%
G04 APERTURE END LIST*
D10*
D11*
X39300000Y-98200000D02*
X33150000Y-98200000D01*
X33150000Y-98200000D02*
X33150000Y-101800000D01*
X33150000Y-101800000D02*
X39300000Y-101800000D01*
X39300000Y-101800000D02*
X39300000Y-98200000D01*
X45700000Y-101800000D02*
X54350000Y-101800000D01*
X54350000Y-101800000D02*
X54350000Y-98200000D01*
X54350000Y-98200000D02*
X45700000Y-98200000D01*
X45700000Y-98200000D02*
X45700000Y-101800000D01*
X65700000Y-101800000D02*
X74350000Y-101800000D01*
X74350000Y-101800000D02*
X74350000Y-98200000D01*
X74350000Y-98200000D02*
X65700000Y-98200000D01*
X65700000Y-98200000D02*
X65700000Y-101800000D01*
X85700000Y-101800000D02*
X94350000Y-101800000D01*
X94350000Y-101800000D02*
X94350000Y-98200000D01*
X94350000Y-98200000D02*
X85700000Y-98200000D01*
X85700000Y-98200000D02*
X85700000Y-101800000D01*
X105700000Y-101800000D02*
X114350000Y-101800000D01*
X114350000Y-101800000D02*
X114350000Y-98200000D01*
X114350000Y-98200000D02*
X105700000Y-98200000D01*
X105700000Y-98200000D02*
X105700000Y-101800000D01*
X125700000Y-101800000D02*
X134350000Y-101800000D01*
X134350000Y-101800000D02*
X134350000Y-98200000D01*
X134350000Y-98200000D02*
X125700000Y-98200000D01*
X125700000Y-98200000D02*
X125700000Y-101800000D01*
X145700000Y-101800000D02*
X154350000Y-101800000D01*
X154350000Y-101800000D02*
X154350000Y-98200000D01*
X154350000Y-98200000D02*
X145700000Y-98200000D01*
X145700000Y-98200000D02*
X145700000Y-101800000D01*
X165700000Y-101800000D02*
X174350000Y-101800000D01*
X174350000Y-101800000D02*
X174350000Y-98200000D01*
X174350000Y-98200000D02*
X165700000Y-98200000D01*
X165700000Y-98200000D02*
X165700000Y-101800000D01*
X185700000Y-101800000D02*
X194350000Y-101800000D01*
X194350000Y-101800000D02*
X194350000Y-98200000D01*
X194350000Y-98200000D02*
X185700000Y-98200000D01*
X185700000Y-98200000D02*
X185700000Y-101800000D01*
X56650000Y-121350000D02*
X43350000Y-121350000D01*
X43350000Y-121350000D02*
X43350000Y-135750000D01*
X43350000Y-135750000D02*
X56650000Y-135750000D01*
X56650000Y-135750000D02*
X56650000Y-121350000D01*
X76650000Y-121350000D02*
X63350000Y-121350000D01*
X63350000Y-121350000D02*
X63350000Y-135750000D01*
X63350000Y-135750000D02*
X76650000Y-135750000D01*
X76650000Y-135750000D02*
X76650000Y-121350000D01*
X96650000Y-121350000D02*
X83350000Y-121350000D01*
X83350000Y-121350000D02*
X83350000Y-135750000D01*
X83350000Y-135750000D02*
X96650000Y-135750000D01*
X96650000Y-135750000D02*
X96650000Y-121350000D01*
X116650000Y-121350000D02*
X103350000Y-121350000D01*
X103350000Y-121350000D02*
X103350000Y-135750000D01*
X103350000Y-135750000D02*
X116650000Y-135750000D01*
X116650000Y-135750000D02*
X116650000Y-121350000D01*
X136650000Y-121350000D02*
X123350000Y-121350000D01*
X123350000Y-121350000D02*
X123350000Y-135750000D01*
X123350000Y-135750000D02*
X136650000Y-135750000D01*
X136650000Y-135750000D02*
X136650000Y-121350000D01*
X156650000Y-121350000D02*
X143350000Y-121350000D01*
X143350000Y-121350000D02*
X143350000Y-135750000D01*
X143350000Y-135750000D02*
X156650000Y-135750000D01*
X156650000Y-135750000D02*
X156650000Y-121350000D01*
X176650000Y-121350000D02*
X163350000Y-121350000D01*
X163350000Y-121350000D02*
X163350000Y-135750000D01*
X163350000Y-135750000D02*
X176650000Y-135750000D01*
X176650000Y-135750000D02*
X176650000Y-121350000D01*
X196650000Y-121350000D02*
X183350000Y-121350000D01*
X183350000Y-121350000D02*
X183350000Y-135750000D01*
X183350000Y-135750000D02*
X196650000Y-135750000D01*
X196650000Y-135750000D02*
X196650000Y-121350000D01*
X29450000Y-138000000D02*
G75*
G03X29450000Y-138000000I-3450000J0D01*
G01*
X205450000Y-101000000D02*
G75*
G03X205450000Y-101000000I-3450000J0D01*
G01*
X30120000Y-101346000D02*
G75*
G03X30120000Y-101346000I-3450000J0D01*
G01*
X205450000Y-138000000D02*
G75*
G03X205450000Y-138000000I-3450000J0D01*
G01*
X123450000Y-101000000D02*
G75*
G03X123450000Y-101000000I-3450000J0D01*
G01*
X123450000Y-138000000D02*
G75*
G03X123450000Y-138000000I-3450000J0D01*
G01*
X39100000Y-111600000D02*
X39100000Y-105900000D01*
X39100000Y-105900000D02*
X33400000Y-105900000D01*
X33400000Y-105900000D02*
X33400000Y-111600000D01*
X33400000Y-111600000D02*
X39100000Y-111600000D01*
M02*
