G04 #@! TF.FileFunction,Other,Fab,Top*
%FSLAX46Y46*%
G04 Gerber Fmt 4.6, Leading zero omitted, Abs format (unit mm)*
G04 Created by KiCad (PCBNEW 4.0.7) date Monday, 21 May 2018 'PMt' 08:13:31 PM*
%MOMM*%
%LPD*%
G01*
G04 APERTURE LIST*
%ADD10C,0.100000*%
%ADD11C,0.150000*%
G04 APERTURE END LIST*
D10*
X38770000Y-98730000D02*
X33690000Y-98730000D01*
X33690000Y-98730000D02*
X33690000Y-101270000D01*
X33690000Y-101270000D02*
X38770000Y-101270000D01*
X38770000Y-101270000D02*
X38770000Y-98730000D01*
X46230000Y-101270000D02*
X53850000Y-101270000D01*
X53850000Y-101270000D02*
X53850000Y-98730000D01*
X53850000Y-98730000D02*
X46230000Y-98730000D01*
X46230000Y-98730000D02*
X46230000Y-101270000D01*
X66230000Y-101270000D02*
X73850000Y-101270000D01*
X73850000Y-101270000D02*
X73850000Y-98730000D01*
X73850000Y-98730000D02*
X66230000Y-98730000D01*
X66230000Y-98730000D02*
X66230000Y-101270000D01*
X86230000Y-101270000D02*
X93850000Y-101270000D01*
X93850000Y-101270000D02*
X93850000Y-98730000D01*
X93850000Y-98730000D02*
X86230000Y-98730000D01*
X86230000Y-98730000D02*
X86230000Y-101270000D01*
X106230000Y-101270000D02*
X113850000Y-101270000D01*
X113850000Y-101270000D02*
X113850000Y-98730000D01*
X113850000Y-98730000D02*
X106230000Y-98730000D01*
X106230000Y-98730000D02*
X106230000Y-101270000D01*
X126230000Y-101270000D02*
X133850000Y-101270000D01*
X133850000Y-101270000D02*
X133850000Y-98730000D01*
X133850000Y-98730000D02*
X126230000Y-98730000D01*
X126230000Y-98730000D02*
X126230000Y-101270000D01*
X146230000Y-101270000D02*
X153850000Y-101270000D01*
X153850000Y-101270000D02*
X153850000Y-98730000D01*
X153850000Y-98730000D02*
X146230000Y-98730000D01*
X146230000Y-98730000D02*
X146230000Y-101270000D01*
X166230000Y-101270000D02*
X173850000Y-101270000D01*
X173850000Y-101270000D02*
X173850000Y-98730000D01*
X173850000Y-98730000D02*
X166230000Y-98730000D01*
X166230000Y-98730000D02*
X166230000Y-101270000D01*
X186230000Y-101270000D02*
X193850000Y-101270000D01*
X193850000Y-101270000D02*
X193850000Y-98730000D01*
X193850000Y-98730000D02*
X186230000Y-98730000D01*
X186230000Y-98730000D02*
X186230000Y-101270000D01*
X53400000Y-130000000D02*
G75*
G03X53400000Y-130000000I-3400000J0D01*
G01*
X53000000Y-130000000D02*
G75*
G03X53000000Y-130000000I-3000000J0D01*
G01*
X54850000Y-123500000D02*
X45150000Y-123500000D01*
X45150000Y-123500000D02*
X45150000Y-135500000D01*
X45150000Y-135500000D02*
X54850000Y-135500000D01*
X54850000Y-135500000D02*
X54850000Y-123500000D01*
X73400000Y-130000000D02*
G75*
G03X73400000Y-130000000I-3400000J0D01*
G01*
X73000000Y-130000000D02*
G75*
G03X73000000Y-130000000I-3000000J0D01*
G01*
X74850000Y-123500000D02*
X65150000Y-123500000D01*
X65150000Y-123500000D02*
X65150000Y-135500000D01*
X65150000Y-135500000D02*
X74850000Y-135500000D01*
X74850000Y-135500000D02*
X74850000Y-123500000D01*
X93400000Y-130000000D02*
G75*
G03X93400000Y-130000000I-3400000J0D01*
G01*
X93000000Y-130000000D02*
G75*
G03X93000000Y-130000000I-3000000J0D01*
G01*
X94850000Y-123500000D02*
X85150000Y-123500000D01*
X85150000Y-123500000D02*
X85150000Y-135500000D01*
X85150000Y-135500000D02*
X94850000Y-135500000D01*
X94850000Y-135500000D02*
X94850000Y-123500000D01*
X113400000Y-130000000D02*
G75*
G03X113400000Y-130000000I-3400000J0D01*
G01*
X113000000Y-130000000D02*
G75*
G03X113000000Y-130000000I-3000000J0D01*
G01*
X114850000Y-123500000D02*
X105150000Y-123500000D01*
X105150000Y-123500000D02*
X105150000Y-135500000D01*
X105150000Y-135500000D02*
X114850000Y-135500000D01*
X114850000Y-135500000D02*
X114850000Y-123500000D01*
X133400000Y-130000000D02*
G75*
G03X133400000Y-130000000I-3400000J0D01*
G01*
X133000000Y-130000000D02*
G75*
G03X133000000Y-130000000I-3000000J0D01*
G01*
X134850000Y-123500000D02*
X125150000Y-123500000D01*
X125150000Y-123500000D02*
X125150000Y-135500000D01*
X125150000Y-135500000D02*
X134850000Y-135500000D01*
X134850000Y-135500000D02*
X134850000Y-123500000D01*
X153400000Y-130000000D02*
G75*
G03X153400000Y-130000000I-3400000J0D01*
G01*
X153000000Y-130000000D02*
G75*
G03X153000000Y-130000000I-3000000J0D01*
G01*
X154850000Y-123500000D02*
X145150000Y-123500000D01*
X145150000Y-123500000D02*
X145150000Y-135500000D01*
X145150000Y-135500000D02*
X154850000Y-135500000D01*
X154850000Y-135500000D02*
X154850000Y-123500000D01*
X173400000Y-130000000D02*
G75*
G03X173400000Y-130000000I-3400000J0D01*
G01*
X173000000Y-130000000D02*
G75*
G03X173000000Y-130000000I-3000000J0D01*
G01*
X174850000Y-123500000D02*
X165150000Y-123500000D01*
X165150000Y-123500000D02*
X165150000Y-135500000D01*
X165150000Y-135500000D02*
X174850000Y-135500000D01*
X174850000Y-135500000D02*
X174850000Y-123500000D01*
X193400000Y-130000000D02*
G75*
G03X193400000Y-130000000I-3400000J0D01*
G01*
X193000000Y-130000000D02*
G75*
G03X193000000Y-130000000I-3000000J0D01*
G01*
X194850000Y-123500000D02*
X185150000Y-123500000D01*
X185150000Y-123500000D02*
X185150000Y-135500000D01*
X185150000Y-135500000D02*
X194850000Y-135500000D01*
X194850000Y-135500000D02*
X194850000Y-123500000D01*
X38750000Y-108750000D02*
G75*
G03X38750000Y-108750000I-2500000J0D01*
G01*
X39450000Y-108750000D02*
X38250000Y-108750000D01*
X38850000Y-109400000D02*
X38850000Y-108100000D01*
D11*
X33082381Y-101976191D02*
X32082381Y-101976191D01*
X32082381Y-101595238D01*
X32130000Y-101500000D01*
X32177619Y-101452381D01*
X32272857Y-101404762D01*
X32415714Y-101404762D01*
X32510952Y-101452381D01*
X32558571Y-101500000D01*
X32606190Y-101595238D01*
X32606190Y-101976191D01*
X33082381Y-100833334D02*
X33034762Y-100928572D01*
X32987143Y-100976191D01*
X32891905Y-101023810D01*
X32606190Y-101023810D01*
X32510952Y-100976191D01*
X32463333Y-100928572D01*
X32415714Y-100833334D01*
X32415714Y-100690476D01*
X32463333Y-100595238D01*
X32510952Y-100547619D01*
X32606190Y-100500000D01*
X32891905Y-100500000D01*
X32987143Y-100547619D01*
X33034762Y-100595238D01*
X33082381Y-100690476D01*
X33082381Y-100833334D01*
X32415714Y-100166667D02*
X33082381Y-99976191D01*
X32606190Y-99785714D01*
X33082381Y-99595238D01*
X32415714Y-99404762D01*
X33034762Y-98642857D02*
X33082381Y-98738095D01*
X33082381Y-98928572D01*
X33034762Y-99023810D01*
X32939524Y-99071429D01*
X32558571Y-99071429D01*
X32463333Y-99023810D01*
X32415714Y-98928572D01*
X32415714Y-98738095D01*
X32463333Y-98642857D01*
X32558571Y-98595238D01*
X32653810Y-98595238D01*
X32749048Y-99071429D01*
X33082381Y-98166667D02*
X32415714Y-98166667D01*
X32606190Y-98166667D02*
X32510952Y-98119048D01*
X32463333Y-98071429D01*
X32415714Y-97976191D01*
X32415714Y-97880952D01*
X39282381Y-100333333D02*
X39996667Y-100333333D01*
X40139524Y-100380953D01*
X40234762Y-100476191D01*
X40282381Y-100619048D01*
X40282381Y-100714286D01*
X40282381Y-99333333D02*
X40282381Y-99904762D01*
X40282381Y-99619048D02*
X39282381Y-99619048D01*
X39425238Y-99714286D01*
X39520476Y-99809524D01*
X39568095Y-99904762D01*
X55267143Y-102785714D02*
X55314762Y-102833333D01*
X55362381Y-102976190D01*
X55362381Y-103071428D01*
X55314762Y-103214286D01*
X55219524Y-103309524D01*
X55124286Y-103357143D01*
X54933810Y-103404762D01*
X54790952Y-103404762D01*
X54600476Y-103357143D01*
X54505238Y-103309524D01*
X54410000Y-103214286D01*
X54362381Y-103071428D01*
X54362381Y-102976190D01*
X54410000Y-102833333D01*
X54457619Y-102785714D01*
X55362381Y-102214286D02*
X55314762Y-102309524D01*
X55267143Y-102357143D01*
X55171905Y-102404762D01*
X54886190Y-102404762D01*
X54790952Y-102357143D01*
X54743333Y-102309524D01*
X54695714Y-102214286D01*
X54695714Y-102071428D01*
X54743333Y-101976190D01*
X54790952Y-101928571D01*
X54886190Y-101880952D01*
X55171905Y-101880952D01*
X55267143Y-101928571D01*
X55314762Y-101976190D01*
X55362381Y-102071428D01*
X55362381Y-102214286D01*
X54695714Y-101452381D02*
X55362381Y-101452381D01*
X54790952Y-101452381D02*
X54743333Y-101404762D01*
X54695714Y-101309524D01*
X54695714Y-101166666D01*
X54743333Y-101071428D01*
X54838571Y-101023809D01*
X55362381Y-101023809D01*
X54695714Y-100547619D02*
X55362381Y-100547619D01*
X54790952Y-100547619D02*
X54743333Y-100500000D01*
X54695714Y-100404762D01*
X54695714Y-100261904D01*
X54743333Y-100166666D01*
X54838571Y-100119047D01*
X55362381Y-100119047D01*
X55362381Y-98357142D02*
X55362381Y-98928571D01*
X55362381Y-98642857D02*
X54362381Y-98642857D01*
X54505238Y-98738095D01*
X54600476Y-98833333D01*
X54648095Y-98928571D01*
X55362381Y-98023809D02*
X54695714Y-97499999D01*
X54695714Y-98023809D02*
X55362381Y-97499999D01*
X54362381Y-97214285D02*
X54362381Y-96595237D01*
X54743333Y-96928571D01*
X54743333Y-96785713D01*
X54790952Y-96690475D01*
X54838571Y-96642856D01*
X54933810Y-96595237D01*
X55171905Y-96595237D01*
X55267143Y-96642856D01*
X55314762Y-96690475D01*
X55362381Y-96785713D01*
X55362381Y-97071428D01*
X55314762Y-97166666D01*
X55267143Y-97214285D01*
X44622381Y-100333333D02*
X45336667Y-100333333D01*
X45479524Y-100380953D01*
X45574762Y-100476191D01*
X45622381Y-100619048D01*
X45622381Y-100714286D01*
X44717619Y-99904762D02*
X44670000Y-99857143D01*
X44622381Y-99761905D01*
X44622381Y-99523809D01*
X44670000Y-99428571D01*
X44717619Y-99380952D01*
X44812857Y-99333333D01*
X44908095Y-99333333D01*
X45050952Y-99380952D01*
X45622381Y-99952381D01*
X45622381Y-99333333D01*
X75267143Y-102785714D02*
X75314762Y-102833333D01*
X75362381Y-102976190D01*
X75362381Y-103071428D01*
X75314762Y-103214286D01*
X75219524Y-103309524D01*
X75124286Y-103357143D01*
X74933810Y-103404762D01*
X74790952Y-103404762D01*
X74600476Y-103357143D01*
X74505238Y-103309524D01*
X74410000Y-103214286D01*
X74362381Y-103071428D01*
X74362381Y-102976190D01*
X74410000Y-102833333D01*
X74457619Y-102785714D01*
X75362381Y-102214286D02*
X75314762Y-102309524D01*
X75267143Y-102357143D01*
X75171905Y-102404762D01*
X74886190Y-102404762D01*
X74790952Y-102357143D01*
X74743333Y-102309524D01*
X74695714Y-102214286D01*
X74695714Y-102071428D01*
X74743333Y-101976190D01*
X74790952Y-101928571D01*
X74886190Y-101880952D01*
X75171905Y-101880952D01*
X75267143Y-101928571D01*
X75314762Y-101976190D01*
X75362381Y-102071428D01*
X75362381Y-102214286D01*
X74695714Y-101452381D02*
X75362381Y-101452381D01*
X74790952Y-101452381D02*
X74743333Y-101404762D01*
X74695714Y-101309524D01*
X74695714Y-101166666D01*
X74743333Y-101071428D01*
X74838571Y-101023809D01*
X75362381Y-101023809D01*
X74695714Y-100547619D02*
X75362381Y-100547619D01*
X74790952Y-100547619D02*
X74743333Y-100500000D01*
X74695714Y-100404762D01*
X74695714Y-100261904D01*
X74743333Y-100166666D01*
X74838571Y-100119047D01*
X75362381Y-100119047D01*
X75362381Y-98357142D02*
X75362381Y-98928571D01*
X75362381Y-98642857D02*
X74362381Y-98642857D01*
X74505238Y-98738095D01*
X74600476Y-98833333D01*
X74648095Y-98928571D01*
X75362381Y-98023809D02*
X74695714Y-97499999D01*
X74695714Y-98023809D02*
X75362381Y-97499999D01*
X74362381Y-97214285D02*
X74362381Y-96595237D01*
X74743333Y-96928571D01*
X74743333Y-96785713D01*
X74790952Y-96690475D01*
X74838571Y-96642856D01*
X74933810Y-96595237D01*
X75171905Y-96595237D01*
X75267143Y-96642856D01*
X75314762Y-96690475D01*
X75362381Y-96785713D01*
X75362381Y-97071428D01*
X75314762Y-97166666D01*
X75267143Y-97214285D01*
X64622381Y-100333333D02*
X65336667Y-100333333D01*
X65479524Y-100380953D01*
X65574762Y-100476191D01*
X65622381Y-100619048D01*
X65622381Y-100714286D01*
X64622381Y-99952381D02*
X64622381Y-99333333D01*
X65003333Y-99666667D01*
X65003333Y-99523809D01*
X65050952Y-99428571D01*
X65098571Y-99380952D01*
X65193810Y-99333333D01*
X65431905Y-99333333D01*
X65527143Y-99380952D01*
X65574762Y-99428571D01*
X65622381Y-99523809D01*
X65622381Y-99809524D01*
X65574762Y-99904762D01*
X65527143Y-99952381D01*
X95267143Y-102785714D02*
X95314762Y-102833333D01*
X95362381Y-102976190D01*
X95362381Y-103071428D01*
X95314762Y-103214286D01*
X95219524Y-103309524D01*
X95124286Y-103357143D01*
X94933810Y-103404762D01*
X94790952Y-103404762D01*
X94600476Y-103357143D01*
X94505238Y-103309524D01*
X94410000Y-103214286D01*
X94362381Y-103071428D01*
X94362381Y-102976190D01*
X94410000Y-102833333D01*
X94457619Y-102785714D01*
X95362381Y-102214286D02*
X95314762Y-102309524D01*
X95267143Y-102357143D01*
X95171905Y-102404762D01*
X94886190Y-102404762D01*
X94790952Y-102357143D01*
X94743333Y-102309524D01*
X94695714Y-102214286D01*
X94695714Y-102071428D01*
X94743333Y-101976190D01*
X94790952Y-101928571D01*
X94886190Y-101880952D01*
X95171905Y-101880952D01*
X95267143Y-101928571D01*
X95314762Y-101976190D01*
X95362381Y-102071428D01*
X95362381Y-102214286D01*
X94695714Y-101452381D02*
X95362381Y-101452381D01*
X94790952Y-101452381D02*
X94743333Y-101404762D01*
X94695714Y-101309524D01*
X94695714Y-101166666D01*
X94743333Y-101071428D01*
X94838571Y-101023809D01*
X95362381Y-101023809D01*
X94695714Y-100547619D02*
X95362381Y-100547619D01*
X94790952Y-100547619D02*
X94743333Y-100500000D01*
X94695714Y-100404762D01*
X94695714Y-100261904D01*
X94743333Y-100166666D01*
X94838571Y-100119047D01*
X95362381Y-100119047D01*
X95362381Y-98357142D02*
X95362381Y-98928571D01*
X95362381Y-98642857D02*
X94362381Y-98642857D01*
X94505238Y-98738095D01*
X94600476Y-98833333D01*
X94648095Y-98928571D01*
X95362381Y-98023809D02*
X94695714Y-97499999D01*
X94695714Y-98023809D02*
X95362381Y-97499999D01*
X94362381Y-97214285D02*
X94362381Y-96595237D01*
X94743333Y-96928571D01*
X94743333Y-96785713D01*
X94790952Y-96690475D01*
X94838571Y-96642856D01*
X94933810Y-96595237D01*
X95171905Y-96595237D01*
X95267143Y-96642856D01*
X95314762Y-96690475D01*
X95362381Y-96785713D01*
X95362381Y-97071428D01*
X95314762Y-97166666D01*
X95267143Y-97214285D01*
X84622381Y-100333333D02*
X85336667Y-100333333D01*
X85479524Y-100380953D01*
X85574762Y-100476191D01*
X85622381Y-100619048D01*
X85622381Y-100714286D01*
X84955714Y-99428571D02*
X85622381Y-99428571D01*
X84574762Y-99666667D02*
X85289048Y-99904762D01*
X85289048Y-99285714D01*
X115267143Y-102785714D02*
X115314762Y-102833333D01*
X115362381Y-102976190D01*
X115362381Y-103071428D01*
X115314762Y-103214286D01*
X115219524Y-103309524D01*
X115124286Y-103357143D01*
X114933810Y-103404762D01*
X114790952Y-103404762D01*
X114600476Y-103357143D01*
X114505238Y-103309524D01*
X114410000Y-103214286D01*
X114362381Y-103071428D01*
X114362381Y-102976190D01*
X114410000Y-102833333D01*
X114457619Y-102785714D01*
X115362381Y-102214286D02*
X115314762Y-102309524D01*
X115267143Y-102357143D01*
X115171905Y-102404762D01*
X114886190Y-102404762D01*
X114790952Y-102357143D01*
X114743333Y-102309524D01*
X114695714Y-102214286D01*
X114695714Y-102071428D01*
X114743333Y-101976190D01*
X114790952Y-101928571D01*
X114886190Y-101880952D01*
X115171905Y-101880952D01*
X115267143Y-101928571D01*
X115314762Y-101976190D01*
X115362381Y-102071428D01*
X115362381Y-102214286D01*
X114695714Y-101452381D02*
X115362381Y-101452381D01*
X114790952Y-101452381D02*
X114743333Y-101404762D01*
X114695714Y-101309524D01*
X114695714Y-101166666D01*
X114743333Y-101071428D01*
X114838571Y-101023809D01*
X115362381Y-101023809D01*
X114695714Y-100547619D02*
X115362381Y-100547619D01*
X114790952Y-100547619D02*
X114743333Y-100500000D01*
X114695714Y-100404762D01*
X114695714Y-100261904D01*
X114743333Y-100166666D01*
X114838571Y-100119047D01*
X115362381Y-100119047D01*
X115362381Y-98357142D02*
X115362381Y-98928571D01*
X115362381Y-98642857D02*
X114362381Y-98642857D01*
X114505238Y-98738095D01*
X114600476Y-98833333D01*
X114648095Y-98928571D01*
X115362381Y-98023809D02*
X114695714Y-97499999D01*
X114695714Y-98023809D02*
X115362381Y-97499999D01*
X114362381Y-97214285D02*
X114362381Y-96595237D01*
X114743333Y-96928571D01*
X114743333Y-96785713D01*
X114790952Y-96690475D01*
X114838571Y-96642856D01*
X114933810Y-96595237D01*
X115171905Y-96595237D01*
X115267143Y-96642856D01*
X115314762Y-96690475D01*
X115362381Y-96785713D01*
X115362381Y-97071428D01*
X115314762Y-97166666D01*
X115267143Y-97214285D01*
X104622381Y-100333333D02*
X105336667Y-100333333D01*
X105479524Y-100380953D01*
X105574762Y-100476191D01*
X105622381Y-100619048D01*
X105622381Y-100714286D01*
X104622381Y-99380952D02*
X104622381Y-99857143D01*
X105098571Y-99904762D01*
X105050952Y-99857143D01*
X105003333Y-99761905D01*
X105003333Y-99523809D01*
X105050952Y-99428571D01*
X105098571Y-99380952D01*
X105193810Y-99333333D01*
X105431905Y-99333333D01*
X105527143Y-99380952D01*
X105574762Y-99428571D01*
X105622381Y-99523809D01*
X105622381Y-99761905D01*
X105574762Y-99857143D01*
X105527143Y-99904762D01*
X135267143Y-102785714D02*
X135314762Y-102833333D01*
X135362381Y-102976190D01*
X135362381Y-103071428D01*
X135314762Y-103214286D01*
X135219524Y-103309524D01*
X135124286Y-103357143D01*
X134933810Y-103404762D01*
X134790952Y-103404762D01*
X134600476Y-103357143D01*
X134505238Y-103309524D01*
X134410000Y-103214286D01*
X134362381Y-103071428D01*
X134362381Y-102976190D01*
X134410000Y-102833333D01*
X134457619Y-102785714D01*
X135362381Y-102214286D02*
X135314762Y-102309524D01*
X135267143Y-102357143D01*
X135171905Y-102404762D01*
X134886190Y-102404762D01*
X134790952Y-102357143D01*
X134743333Y-102309524D01*
X134695714Y-102214286D01*
X134695714Y-102071428D01*
X134743333Y-101976190D01*
X134790952Y-101928571D01*
X134886190Y-101880952D01*
X135171905Y-101880952D01*
X135267143Y-101928571D01*
X135314762Y-101976190D01*
X135362381Y-102071428D01*
X135362381Y-102214286D01*
X134695714Y-101452381D02*
X135362381Y-101452381D01*
X134790952Y-101452381D02*
X134743333Y-101404762D01*
X134695714Y-101309524D01*
X134695714Y-101166666D01*
X134743333Y-101071428D01*
X134838571Y-101023809D01*
X135362381Y-101023809D01*
X134695714Y-100547619D02*
X135362381Y-100547619D01*
X134790952Y-100547619D02*
X134743333Y-100500000D01*
X134695714Y-100404762D01*
X134695714Y-100261904D01*
X134743333Y-100166666D01*
X134838571Y-100119047D01*
X135362381Y-100119047D01*
X135362381Y-98357142D02*
X135362381Y-98928571D01*
X135362381Y-98642857D02*
X134362381Y-98642857D01*
X134505238Y-98738095D01*
X134600476Y-98833333D01*
X134648095Y-98928571D01*
X135362381Y-98023809D02*
X134695714Y-97499999D01*
X134695714Y-98023809D02*
X135362381Y-97499999D01*
X134362381Y-97214285D02*
X134362381Y-96595237D01*
X134743333Y-96928571D01*
X134743333Y-96785713D01*
X134790952Y-96690475D01*
X134838571Y-96642856D01*
X134933810Y-96595237D01*
X135171905Y-96595237D01*
X135267143Y-96642856D01*
X135314762Y-96690475D01*
X135362381Y-96785713D01*
X135362381Y-97071428D01*
X135314762Y-97166666D01*
X135267143Y-97214285D01*
X124622381Y-100333333D02*
X125336667Y-100333333D01*
X125479524Y-100380953D01*
X125574762Y-100476191D01*
X125622381Y-100619048D01*
X125622381Y-100714286D01*
X124622381Y-99428571D02*
X124622381Y-99619048D01*
X124670000Y-99714286D01*
X124717619Y-99761905D01*
X124860476Y-99857143D01*
X125050952Y-99904762D01*
X125431905Y-99904762D01*
X125527143Y-99857143D01*
X125574762Y-99809524D01*
X125622381Y-99714286D01*
X125622381Y-99523809D01*
X125574762Y-99428571D01*
X125527143Y-99380952D01*
X125431905Y-99333333D01*
X125193810Y-99333333D01*
X125098571Y-99380952D01*
X125050952Y-99428571D01*
X125003333Y-99523809D01*
X125003333Y-99714286D01*
X125050952Y-99809524D01*
X125098571Y-99857143D01*
X125193810Y-99904762D01*
X155267143Y-102785714D02*
X155314762Y-102833333D01*
X155362381Y-102976190D01*
X155362381Y-103071428D01*
X155314762Y-103214286D01*
X155219524Y-103309524D01*
X155124286Y-103357143D01*
X154933810Y-103404762D01*
X154790952Y-103404762D01*
X154600476Y-103357143D01*
X154505238Y-103309524D01*
X154410000Y-103214286D01*
X154362381Y-103071428D01*
X154362381Y-102976190D01*
X154410000Y-102833333D01*
X154457619Y-102785714D01*
X155362381Y-102214286D02*
X155314762Y-102309524D01*
X155267143Y-102357143D01*
X155171905Y-102404762D01*
X154886190Y-102404762D01*
X154790952Y-102357143D01*
X154743333Y-102309524D01*
X154695714Y-102214286D01*
X154695714Y-102071428D01*
X154743333Y-101976190D01*
X154790952Y-101928571D01*
X154886190Y-101880952D01*
X155171905Y-101880952D01*
X155267143Y-101928571D01*
X155314762Y-101976190D01*
X155362381Y-102071428D01*
X155362381Y-102214286D01*
X154695714Y-101452381D02*
X155362381Y-101452381D01*
X154790952Y-101452381D02*
X154743333Y-101404762D01*
X154695714Y-101309524D01*
X154695714Y-101166666D01*
X154743333Y-101071428D01*
X154838571Y-101023809D01*
X155362381Y-101023809D01*
X154695714Y-100547619D02*
X155362381Y-100547619D01*
X154790952Y-100547619D02*
X154743333Y-100500000D01*
X154695714Y-100404762D01*
X154695714Y-100261904D01*
X154743333Y-100166666D01*
X154838571Y-100119047D01*
X155362381Y-100119047D01*
X155362381Y-98357142D02*
X155362381Y-98928571D01*
X155362381Y-98642857D02*
X154362381Y-98642857D01*
X154505238Y-98738095D01*
X154600476Y-98833333D01*
X154648095Y-98928571D01*
X155362381Y-98023809D02*
X154695714Y-97499999D01*
X154695714Y-98023809D02*
X155362381Y-97499999D01*
X154362381Y-97214285D02*
X154362381Y-96595237D01*
X154743333Y-96928571D01*
X154743333Y-96785713D01*
X154790952Y-96690475D01*
X154838571Y-96642856D01*
X154933810Y-96595237D01*
X155171905Y-96595237D01*
X155267143Y-96642856D01*
X155314762Y-96690475D01*
X155362381Y-96785713D01*
X155362381Y-97071428D01*
X155314762Y-97166666D01*
X155267143Y-97214285D01*
X144622381Y-100333333D02*
X145336667Y-100333333D01*
X145479524Y-100380953D01*
X145574762Y-100476191D01*
X145622381Y-100619048D01*
X145622381Y-100714286D01*
X144622381Y-99952381D02*
X144622381Y-99285714D01*
X145622381Y-99714286D01*
X175267143Y-102785714D02*
X175314762Y-102833333D01*
X175362381Y-102976190D01*
X175362381Y-103071428D01*
X175314762Y-103214286D01*
X175219524Y-103309524D01*
X175124286Y-103357143D01*
X174933810Y-103404762D01*
X174790952Y-103404762D01*
X174600476Y-103357143D01*
X174505238Y-103309524D01*
X174410000Y-103214286D01*
X174362381Y-103071428D01*
X174362381Y-102976190D01*
X174410000Y-102833333D01*
X174457619Y-102785714D01*
X175362381Y-102214286D02*
X175314762Y-102309524D01*
X175267143Y-102357143D01*
X175171905Y-102404762D01*
X174886190Y-102404762D01*
X174790952Y-102357143D01*
X174743333Y-102309524D01*
X174695714Y-102214286D01*
X174695714Y-102071428D01*
X174743333Y-101976190D01*
X174790952Y-101928571D01*
X174886190Y-101880952D01*
X175171905Y-101880952D01*
X175267143Y-101928571D01*
X175314762Y-101976190D01*
X175362381Y-102071428D01*
X175362381Y-102214286D01*
X174695714Y-101452381D02*
X175362381Y-101452381D01*
X174790952Y-101452381D02*
X174743333Y-101404762D01*
X174695714Y-101309524D01*
X174695714Y-101166666D01*
X174743333Y-101071428D01*
X174838571Y-101023809D01*
X175362381Y-101023809D01*
X174695714Y-100547619D02*
X175362381Y-100547619D01*
X174790952Y-100547619D02*
X174743333Y-100500000D01*
X174695714Y-100404762D01*
X174695714Y-100261904D01*
X174743333Y-100166666D01*
X174838571Y-100119047D01*
X175362381Y-100119047D01*
X175362381Y-98357142D02*
X175362381Y-98928571D01*
X175362381Y-98642857D02*
X174362381Y-98642857D01*
X174505238Y-98738095D01*
X174600476Y-98833333D01*
X174648095Y-98928571D01*
X175362381Y-98023809D02*
X174695714Y-97499999D01*
X174695714Y-98023809D02*
X175362381Y-97499999D01*
X174362381Y-97214285D02*
X174362381Y-96595237D01*
X174743333Y-96928571D01*
X174743333Y-96785713D01*
X174790952Y-96690475D01*
X174838571Y-96642856D01*
X174933810Y-96595237D01*
X175171905Y-96595237D01*
X175267143Y-96642856D01*
X175314762Y-96690475D01*
X175362381Y-96785713D01*
X175362381Y-97071428D01*
X175314762Y-97166666D01*
X175267143Y-97214285D01*
X164622381Y-100333333D02*
X165336667Y-100333333D01*
X165479524Y-100380953D01*
X165574762Y-100476191D01*
X165622381Y-100619048D01*
X165622381Y-100714286D01*
X165050952Y-99714286D02*
X165003333Y-99809524D01*
X164955714Y-99857143D01*
X164860476Y-99904762D01*
X164812857Y-99904762D01*
X164717619Y-99857143D01*
X164670000Y-99809524D01*
X164622381Y-99714286D01*
X164622381Y-99523809D01*
X164670000Y-99428571D01*
X164717619Y-99380952D01*
X164812857Y-99333333D01*
X164860476Y-99333333D01*
X164955714Y-99380952D01*
X165003333Y-99428571D01*
X165050952Y-99523809D01*
X165050952Y-99714286D01*
X165098571Y-99809524D01*
X165146190Y-99857143D01*
X165241429Y-99904762D01*
X165431905Y-99904762D01*
X165527143Y-99857143D01*
X165574762Y-99809524D01*
X165622381Y-99714286D01*
X165622381Y-99523809D01*
X165574762Y-99428571D01*
X165527143Y-99380952D01*
X165431905Y-99333333D01*
X165241429Y-99333333D01*
X165146190Y-99380952D01*
X165098571Y-99428571D01*
X165050952Y-99523809D01*
X195267143Y-102785714D02*
X195314762Y-102833333D01*
X195362381Y-102976190D01*
X195362381Y-103071428D01*
X195314762Y-103214286D01*
X195219524Y-103309524D01*
X195124286Y-103357143D01*
X194933810Y-103404762D01*
X194790952Y-103404762D01*
X194600476Y-103357143D01*
X194505238Y-103309524D01*
X194410000Y-103214286D01*
X194362381Y-103071428D01*
X194362381Y-102976190D01*
X194410000Y-102833333D01*
X194457619Y-102785714D01*
X195362381Y-102214286D02*
X195314762Y-102309524D01*
X195267143Y-102357143D01*
X195171905Y-102404762D01*
X194886190Y-102404762D01*
X194790952Y-102357143D01*
X194743333Y-102309524D01*
X194695714Y-102214286D01*
X194695714Y-102071428D01*
X194743333Y-101976190D01*
X194790952Y-101928571D01*
X194886190Y-101880952D01*
X195171905Y-101880952D01*
X195267143Y-101928571D01*
X195314762Y-101976190D01*
X195362381Y-102071428D01*
X195362381Y-102214286D01*
X194695714Y-101452381D02*
X195362381Y-101452381D01*
X194790952Y-101452381D02*
X194743333Y-101404762D01*
X194695714Y-101309524D01*
X194695714Y-101166666D01*
X194743333Y-101071428D01*
X194838571Y-101023809D01*
X195362381Y-101023809D01*
X194695714Y-100547619D02*
X195362381Y-100547619D01*
X194790952Y-100547619D02*
X194743333Y-100500000D01*
X194695714Y-100404762D01*
X194695714Y-100261904D01*
X194743333Y-100166666D01*
X194838571Y-100119047D01*
X195362381Y-100119047D01*
X195362381Y-98357142D02*
X195362381Y-98928571D01*
X195362381Y-98642857D02*
X194362381Y-98642857D01*
X194505238Y-98738095D01*
X194600476Y-98833333D01*
X194648095Y-98928571D01*
X195362381Y-98023809D02*
X194695714Y-97499999D01*
X194695714Y-98023809D02*
X195362381Y-97499999D01*
X194362381Y-97214285D02*
X194362381Y-96595237D01*
X194743333Y-96928571D01*
X194743333Y-96785713D01*
X194790952Y-96690475D01*
X194838571Y-96642856D01*
X194933810Y-96595237D01*
X195171905Y-96595237D01*
X195267143Y-96642856D01*
X195314762Y-96690475D01*
X195362381Y-96785713D01*
X195362381Y-97071428D01*
X195314762Y-97166666D01*
X195267143Y-97214285D01*
X184622381Y-100333333D02*
X185336667Y-100333333D01*
X185479524Y-100380953D01*
X185574762Y-100476191D01*
X185622381Y-100619048D01*
X185622381Y-100714286D01*
X185622381Y-99809524D02*
X185622381Y-99619048D01*
X185574762Y-99523809D01*
X185527143Y-99476190D01*
X185384286Y-99380952D01*
X185193810Y-99333333D01*
X184812857Y-99333333D01*
X184717619Y-99380952D01*
X184670000Y-99428571D01*
X184622381Y-99523809D01*
X184622381Y-99714286D01*
X184670000Y-99809524D01*
X184717619Y-99857143D01*
X184812857Y-99904762D01*
X185050952Y-99904762D01*
X185146190Y-99857143D01*
X185193810Y-99809524D01*
X185241429Y-99714286D01*
X185241429Y-99523809D01*
X185193810Y-99428571D01*
X185146190Y-99380952D01*
X185050952Y-99333333D01*
X42802381Y-129716667D02*
X41802381Y-129716667D01*
X41802381Y-129335714D01*
X41850000Y-129240476D01*
X41897619Y-129192857D01*
X41992857Y-129145238D01*
X42135714Y-129145238D01*
X42230952Y-129192857D01*
X42278571Y-129240476D01*
X42326190Y-129335714D01*
X42326190Y-129716667D01*
X41802381Y-128526191D02*
X41802381Y-128335714D01*
X41850000Y-128240476D01*
X41945238Y-128145238D01*
X42135714Y-128097619D01*
X42469048Y-128097619D01*
X42659524Y-128145238D01*
X42754762Y-128240476D01*
X42802381Y-128335714D01*
X42802381Y-128526191D01*
X42754762Y-128621429D01*
X42659524Y-128716667D01*
X42469048Y-128764286D01*
X42135714Y-128764286D01*
X41945238Y-128716667D01*
X41850000Y-128621429D01*
X41802381Y-128526191D01*
X41802381Y-127811905D02*
X41802381Y-127240476D01*
X42802381Y-127526191D02*
X41802381Y-127526191D01*
X62802381Y-129716667D02*
X61802381Y-129716667D01*
X61802381Y-129335714D01*
X61850000Y-129240476D01*
X61897619Y-129192857D01*
X61992857Y-129145238D01*
X62135714Y-129145238D01*
X62230952Y-129192857D01*
X62278571Y-129240476D01*
X62326190Y-129335714D01*
X62326190Y-129716667D01*
X61802381Y-128526191D02*
X61802381Y-128335714D01*
X61850000Y-128240476D01*
X61945238Y-128145238D01*
X62135714Y-128097619D01*
X62469048Y-128097619D01*
X62659524Y-128145238D01*
X62754762Y-128240476D01*
X62802381Y-128335714D01*
X62802381Y-128526191D01*
X62754762Y-128621429D01*
X62659524Y-128716667D01*
X62469048Y-128764286D01*
X62135714Y-128764286D01*
X61945238Y-128716667D01*
X61850000Y-128621429D01*
X61802381Y-128526191D01*
X61802381Y-127811905D02*
X61802381Y-127240476D01*
X62802381Y-127526191D02*
X61802381Y-127526191D01*
X82802381Y-129716667D02*
X81802381Y-129716667D01*
X81802381Y-129335714D01*
X81850000Y-129240476D01*
X81897619Y-129192857D01*
X81992857Y-129145238D01*
X82135714Y-129145238D01*
X82230952Y-129192857D01*
X82278571Y-129240476D01*
X82326190Y-129335714D01*
X82326190Y-129716667D01*
X81802381Y-128526191D02*
X81802381Y-128335714D01*
X81850000Y-128240476D01*
X81945238Y-128145238D01*
X82135714Y-128097619D01*
X82469048Y-128097619D01*
X82659524Y-128145238D01*
X82754762Y-128240476D01*
X82802381Y-128335714D01*
X82802381Y-128526191D01*
X82754762Y-128621429D01*
X82659524Y-128716667D01*
X82469048Y-128764286D01*
X82135714Y-128764286D01*
X81945238Y-128716667D01*
X81850000Y-128621429D01*
X81802381Y-128526191D01*
X81802381Y-127811905D02*
X81802381Y-127240476D01*
X82802381Y-127526191D02*
X81802381Y-127526191D01*
X102802381Y-129716667D02*
X101802381Y-129716667D01*
X101802381Y-129335714D01*
X101850000Y-129240476D01*
X101897619Y-129192857D01*
X101992857Y-129145238D01*
X102135714Y-129145238D01*
X102230952Y-129192857D01*
X102278571Y-129240476D01*
X102326190Y-129335714D01*
X102326190Y-129716667D01*
X101802381Y-128526191D02*
X101802381Y-128335714D01*
X101850000Y-128240476D01*
X101945238Y-128145238D01*
X102135714Y-128097619D01*
X102469048Y-128097619D01*
X102659524Y-128145238D01*
X102754762Y-128240476D01*
X102802381Y-128335714D01*
X102802381Y-128526191D01*
X102754762Y-128621429D01*
X102659524Y-128716667D01*
X102469048Y-128764286D01*
X102135714Y-128764286D01*
X101945238Y-128716667D01*
X101850000Y-128621429D01*
X101802381Y-128526191D01*
X101802381Y-127811905D02*
X101802381Y-127240476D01*
X102802381Y-127526191D02*
X101802381Y-127526191D01*
X122802381Y-129716667D02*
X121802381Y-129716667D01*
X121802381Y-129335714D01*
X121850000Y-129240476D01*
X121897619Y-129192857D01*
X121992857Y-129145238D01*
X122135714Y-129145238D01*
X122230952Y-129192857D01*
X122278571Y-129240476D01*
X122326190Y-129335714D01*
X122326190Y-129716667D01*
X121802381Y-128526191D02*
X121802381Y-128335714D01*
X121850000Y-128240476D01*
X121945238Y-128145238D01*
X122135714Y-128097619D01*
X122469048Y-128097619D01*
X122659524Y-128145238D01*
X122754762Y-128240476D01*
X122802381Y-128335714D01*
X122802381Y-128526191D01*
X122754762Y-128621429D01*
X122659524Y-128716667D01*
X122469048Y-128764286D01*
X122135714Y-128764286D01*
X121945238Y-128716667D01*
X121850000Y-128621429D01*
X121802381Y-128526191D01*
X121802381Y-127811905D02*
X121802381Y-127240476D01*
X122802381Y-127526191D02*
X121802381Y-127526191D01*
X142802381Y-129716667D02*
X141802381Y-129716667D01*
X141802381Y-129335714D01*
X141850000Y-129240476D01*
X141897619Y-129192857D01*
X141992857Y-129145238D01*
X142135714Y-129145238D01*
X142230952Y-129192857D01*
X142278571Y-129240476D01*
X142326190Y-129335714D01*
X142326190Y-129716667D01*
X141802381Y-128526191D02*
X141802381Y-128335714D01*
X141850000Y-128240476D01*
X141945238Y-128145238D01*
X142135714Y-128097619D01*
X142469048Y-128097619D01*
X142659524Y-128145238D01*
X142754762Y-128240476D01*
X142802381Y-128335714D01*
X142802381Y-128526191D01*
X142754762Y-128621429D01*
X142659524Y-128716667D01*
X142469048Y-128764286D01*
X142135714Y-128764286D01*
X141945238Y-128716667D01*
X141850000Y-128621429D01*
X141802381Y-128526191D01*
X141802381Y-127811905D02*
X141802381Y-127240476D01*
X142802381Y-127526191D02*
X141802381Y-127526191D01*
X162802381Y-129716667D02*
X161802381Y-129716667D01*
X161802381Y-129335714D01*
X161850000Y-129240476D01*
X161897619Y-129192857D01*
X161992857Y-129145238D01*
X162135714Y-129145238D01*
X162230952Y-129192857D01*
X162278571Y-129240476D01*
X162326190Y-129335714D01*
X162326190Y-129716667D01*
X161802381Y-128526191D02*
X161802381Y-128335714D01*
X161850000Y-128240476D01*
X161945238Y-128145238D01*
X162135714Y-128097619D01*
X162469048Y-128097619D01*
X162659524Y-128145238D01*
X162754762Y-128240476D01*
X162802381Y-128335714D01*
X162802381Y-128526191D01*
X162754762Y-128621429D01*
X162659524Y-128716667D01*
X162469048Y-128764286D01*
X162135714Y-128764286D01*
X161945238Y-128716667D01*
X161850000Y-128621429D01*
X161802381Y-128526191D01*
X161802381Y-127811905D02*
X161802381Y-127240476D01*
X162802381Y-127526191D02*
X161802381Y-127526191D01*
X182802381Y-129716667D02*
X181802381Y-129716667D01*
X181802381Y-129335714D01*
X181850000Y-129240476D01*
X181897619Y-129192857D01*
X181992857Y-129145238D01*
X182135714Y-129145238D01*
X182230952Y-129192857D01*
X182278571Y-129240476D01*
X182326190Y-129335714D01*
X182326190Y-129716667D01*
X181802381Y-128526191D02*
X181802381Y-128335714D01*
X181850000Y-128240476D01*
X181945238Y-128145238D01*
X182135714Y-128097619D01*
X182469048Y-128097619D01*
X182659524Y-128145238D01*
X182754762Y-128240476D01*
X182802381Y-128335714D01*
X182802381Y-128526191D01*
X182754762Y-128621429D01*
X182659524Y-128716667D01*
X182469048Y-128764286D01*
X182135714Y-128764286D01*
X181945238Y-128716667D01*
X181850000Y-128621429D01*
X181802381Y-128526191D01*
X181802381Y-127811905D02*
X181802381Y-127240476D01*
X182802381Y-127526191D02*
X181802381Y-127526191D01*
X22252381Y-143166667D02*
X21252381Y-143166667D01*
X21966667Y-142833333D01*
X21252381Y-142500000D01*
X22252381Y-142500000D01*
X22252381Y-141880953D02*
X22204762Y-141976191D01*
X22157143Y-142023810D01*
X22061905Y-142071429D01*
X21776190Y-142071429D01*
X21680952Y-142023810D01*
X21633333Y-141976191D01*
X21585714Y-141880953D01*
X21585714Y-141738095D01*
X21633333Y-141642857D01*
X21680952Y-141595238D01*
X21776190Y-141547619D01*
X22061905Y-141547619D01*
X22157143Y-141595238D01*
X22204762Y-141642857D01*
X22252381Y-141738095D01*
X22252381Y-141880953D01*
X21585714Y-140690476D02*
X22252381Y-140690476D01*
X21585714Y-141119048D02*
X22109524Y-141119048D01*
X22204762Y-141071429D01*
X22252381Y-140976191D01*
X22252381Y-140833333D01*
X22204762Y-140738095D01*
X22157143Y-140690476D01*
X21585714Y-140214286D02*
X22252381Y-140214286D01*
X21680952Y-140214286D02*
X21633333Y-140166667D01*
X21585714Y-140071429D01*
X21585714Y-139928571D01*
X21633333Y-139833333D01*
X21728571Y-139785714D01*
X22252381Y-139785714D01*
X21585714Y-139452381D02*
X21585714Y-139071429D01*
X21252381Y-139309524D02*
X22109524Y-139309524D01*
X22204762Y-139261905D01*
X22252381Y-139166667D01*
X22252381Y-139071429D01*
X22252381Y-138738095D02*
X21585714Y-138738095D01*
X21252381Y-138738095D02*
X21300000Y-138785714D01*
X21347619Y-138738095D01*
X21300000Y-138690476D01*
X21252381Y-138738095D01*
X21347619Y-138738095D01*
X21585714Y-138261905D02*
X22252381Y-138261905D01*
X21680952Y-138261905D02*
X21633333Y-138214286D01*
X21585714Y-138119048D01*
X21585714Y-137976190D01*
X21633333Y-137880952D01*
X21728571Y-137833333D01*
X22252381Y-137833333D01*
X21585714Y-136928571D02*
X22395238Y-136928571D01*
X22490476Y-136976190D01*
X22538095Y-137023809D01*
X22585714Y-137119048D01*
X22585714Y-137261905D01*
X22538095Y-137357143D01*
X22204762Y-136928571D02*
X22252381Y-137023809D01*
X22252381Y-137214286D01*
X22204762Y-137309524D01*
X22157143Y-137357143D01*
X22061905Y-137404762D01*
X21776190Y-137404762D01*
X21680952Y-137357143D01*
X21633333Y-137309524D01*
X21585714Y-137214286D01*
X21585714Y-137023809D01*
X21633333Y-136928571D01*
X22347619Y-136690476D02*
X22347619Y-135928571D01*
X22252381Y-135690476D02*
X21252381Y-135690476D01*
X21728571Y-135690476D02*
X21728571Y-135119047D01*
X22252381Y-135119047D02*
X21252381Y-135119047D01*
X22252381Y-134500000D02*
X22204762Y-134595238D01*
X22157143Y-134642857D01*
X22061905Y-134690476D01*
X21776190Y-134690476D01*
X21680952Y-134642857D01*
X21633333Y-134595238D01*
X21585714Y-134500000D01*
X21585714Y-134357142D01*
X21633333Y-134261904D01*
X21680952Y-134214285D01*
X21776190Y-134166666D01*
X22061905Y-134166666D01*
X22157143Y-134214285D01*
X22204762Y-134261904D01*
X22252381Y-134357142D01*
X22252381Y-134500000D01*
X22252381Y-133595238D02*
X22204762Y-133690476D01*
X22109524Y-133738095D01*
X21252381Y-133738095D01*
X22204762Y-132833332D02*
X22252381Y-132928570D01*
X22252381Y-133119047D01*
X22204762Y-133214285D01*
X22109524Y-133261904D01*
X21728571Y-133261904D01*
X21633333Y-133214285D01*
X21585714Y-133119047D01*
X21585714Y-132928570D01*
X21633333Y-132833332D01*
X21728571Y-132785713D01*
X21823810Y-132785713D01*
X21919048Y-133261904D01*
X26452381Y-139609524D02*
X25452381Y-139609524D01*
X26166667Y-139276190D01*
X25452381Y-138942857D01*
X26452381Y-138942857D01*
X26452381Y-138466667D02*
X25452381Y-138466667D01*
X26452381Y-137895238D02*
X25880952Y-138323810D01*
X25452381Y-137895238D02*
X26023810Y-138466667D01*
X26452381Y-136942857D02*
X26452381Y-137514286D01*
X26452381Y-137228572D02*
X25452381Y-137228572D01*
X25595238Y-137323810D01*
X25690476Y-137419048D01*
X25738095Y-137514286D01*
X198252381Y-106166667D02*
X197252381Y-106166667D01*
X197966667Y-105833333D01*
X197252381Y-105500000D01*
X198252381Y-105500000D01*
X198252381Y-104880953D02*
X198204762Y-104976191D01*
X198157143Y-105023810D01*
X198061905Y-105071429D01*
X197776190Y-105071429D01*
X197680952Y-105023810D01*
X197633333Y-104976191D01*
X197585714Y-104880953D01*
X197585714Y-104738095D01*
X197633333Y-104642857D01*
X197680952Y-104595238D01*
X197776190Y-104547619D01*
X198061905Y-104547619D01*
X198157143Y-104595238D01*
X198204762Y-104642857D01*
X198252381Y-104738095D01*
X198252381Y-104880953D01*
X197585714Y-103690476D02*
X198252381Y-103690476D01*
X197585714Y-104119048D02*
X198109524Y-104119048D01*
X198204762Y-104071429D01*
X198252381Y-103976191D01*
X198252381Y-103833333D01*
X198204762Y-103738095D01*
X198157143Y-103690476D01*
X197585714Y-103214286D02*
X198252381Y-103214286D01*
X197680952Y-103214286D02*
X197633333Y-103166667D01*
X197585714Y-103071429D01*
X197585714Y-102928571D01*
X197633333Y-102833333D01*
X197728571Y-102785714D01*
X198252381Y-102785714D01*
X197585714Y-102452381D02*
X197585714Y-102071429D01*
X197252381Y-102309524D02*
X198109524Y-102309524D01*
X198204762Y-102261905D01*
X198252381Y-102166667D01*
X198252381Y-102071429D01*
X198252381Y-101738095D02*
X197585714Y-101738095D01*
X197252381Y-101738095D02*
X197300000Y-101785714D01*
X197347619Y-101738095D01*
X197300000Y-101690476D01*
X197252381Y-101738095D01*
X197347619Y-101738095D01*
X197585714Y-101261905D02*
X198252381Y-101261905D01*
X197680952Y-101261905D02*
X197633333Y-101214286D01*
X197585714Y-101119048D01*
X197585714Y-100976190D01*
X197633333Y-100880952D01*
X197728571Y-100833333D01*
X198252381Y-100833333D01*
X197585714Y-99928571D02*
X198395238Y-99928571D01*
X198490476Y-99976190D01*
X198538095Y-100023809D01*
X198585714Y-100119048D01*
X198585714Y-100261905D01*
X198538095Y-100357143D01*
X198204762Y-99928571D02*
X198252381Y-100023809D01*
X198252381Y-100214286D01*
X198204762Y-100309524D01*
X198157143Y-100357143D01*
X198061905Y-100404762D01*
X197776190Y-100404762D01*
X197680952Y-100357143D01*
X197633333Y-100309524D01*
X197585714Y-100214286D01*
X197585714Y-100023809D01*
X197633333Y-99928571D01*
X198347619Y-99690476D02*
X198347619Y-98928571D01*
X198252381Y-98690476D02*
X197252381Y-98690476D01*
X197728571Y-98690476D02*
X197728571Y-98119047D01*
X198252381Y-98119047D02*
X197252381Y-98119047D01*
X198252381Y-97500000D02*
X198204762Y-97595238D01*
X198157143Y-97642857D01*
X198061905Y-97690476D01*
X197776190Y-97690476D01*
X197680952Y-97642857D01*
X197633333Y-97595238D01*
X197585714Y-97500000D01*
X197585714Y-97357142D01*
X197633333Y-97261904D01*
X197680952Y-97214285D01*
X197776190Y-97166666D01*
X198061905Y-97166666D01*
X198157143Y-97214285D01*
X198204762Y-97261904D01*
X198252381Y-97357142D01*
X198252381Y-97500000D01*
X198252381Y-96595238D02*
X198204762Y-96690476D01*
X198109524Y-96738095D01*
X197252381Y-96738095D01*
X198204762Y-95833332D02*
X198252381Y-95928570D01*
X198252381Y-96119047D01*
X198204762Y-96214285D01*
X198109524Y-96261904D01*
X197728571Y-96261904D01*
X197633333Y-96214285D01*
X197585714Y-96119047D01*
X197585714Y-95928570D01*
X197633333Y-95833332D01*
X197728571Y-95785713D01*
X197823810Y-95785713D01*
X197919048Y-96261904D01*
X202452381Y-102609524D02*
X201452381Y-102609524D01*
X202166667Y-102276190D01*
X201452381Y-101942857D01*
X202452381Y-101942857D01*
X202452381Y-101466667D02*
X201452381Y-101466667D01*
X202452381Y-100895238D02*
X201880952Y-101323810D01*
X201452381Y-100895238D02*
X202023810Y-101466667D01*
X201547619Y-100514286D02*
X201500000Y-100466667D01*
X201452381Y-100371429D01*
X201452381Y-100133333D01*
X201500000Y-100038095D01*
X201547619Y-99990476D01*
X201642857Y-99942857D01*
X201738095Y-99942857D01*
X201880952Y-99990476D01*
X202452381Y-100561905D01*
X202452381Y-99942857D01*
X22922381Y-106512667D02*
X21922381Y-106512667D01*
X22636667Y-106179333D01*
X21922381Y-105846000D01*
X22922381Y-105846000D01*
X22922381Y-105226953D02*
X22874762Y-105322191D01*
X22827143Y-105369810D01*
X22731905Y-105417429D01*
X22446190Y-105417429D01*
X22350952Y-105369810D01*
X22303333Y-105322191D01*
X22255714Y-105226953D01*
X22255714Y-105084095D01*
X22303333Y-104988857D01*
X22350952Y-104941238D01*
X22446190Y-104893619D01*
X22731905Y-104893619D01*
X22827143Y-104941238D01*
X22874762Y-104988857D01*
X22922381Y-105084095D01*
X22922381Y-105226953D01*
X22255714Y-104036476D02*
X22922381Y-104036476D01*
X22255714Y-104465048D02*
X22779524Y-104465048D01*
X22874762Y-104417429D01*
X22922381Y-104322191D01*
X22922381Y-104179333D01*
X22874762Y-104084095D01*
X22827143Y-104036476D01*
X22255714Y-103560286D02*
X22922381Y-103560286D01*
X22350952Y-103560286D02*
X22303333Y-103512667D01*
X22255714Y-103417429D01*
X22255714Y-103274571D01*
X22303333Y-103179333D01*
X22398571Y-103131714D01*
X22922381Y-103131714D01*
X22255714Y-102798381D02*
X22255714Y-102417429D01*
X21922381Y-102655524D02*
X22779524Y-102655524D01*
X22874762Y-102607905D01*
X22922381Y-102512667D01*
X22922381Y-102417429D01*
X22922381Y-102084095D02*
X22255714Y-102084095D01*
X21922381Y-102084095D02*
X21970000Y-102131714D01*
X22017619Y-102084095D01*
X21970000Y-102036476D01*
X21922381Y-102084095D01*
X22017619Y-102084095D01*
X22255714Y-101607905D02*
X22922381Y-101607905D01*
X22350952Y-101607905D02*
X22303333Y-101560286D01*
X22255714Y-101465048D01*
X22255714Y-101322190D01*
X22303333Y-101226952D01*
X22398571Y-101179333D01*
X22922381Y-101179333D01*
X22255714Y-100274571D02*
X23065238Y-100274571D01*
X23160476Y-100322190D01*
X23208095Y-100369809D01*
X23255714Y-100465048D01*
X23255714Y-100607905D01*
X23208095Y-100703143D01*
X22874762Y-100274571D02*
X22922381Y-100369809D01*
X22922381Y-100560286D01*
X22874762Y-100655524D01*
X22827143Y-100703143D01*
X22731905Y-100750762D01*
X22446190Y-100750762D01*
X22350952Y-100703143D01*
X22303333Y-100655524D01*
X22255714Y-100560286D01*
X22255714Y-100369809D01*
X22303333Y-100274571D01*
X23017619Y-100036476D02*
X23017619Y-99274571D01*
X22922381Y-99036476D02*
X21922381Y-99036476D01*
X22398571Y-99036476D02*
X22398571Y-98465047D01*
X22922381Y-98465047D02*
X21922381Y-98465047D01*
X22922381Y-97846000D02*
X22874762Y-97941238D01*
X22827143Y-97988857D01*
X22731905Y-98036476D01*
X22446190Y-98036476D01*
X22350952Y-97988857D01*
X22303333Y-97941238D01*
X22255714Y-97846000D01*
X22255714Y-97703142D01*
X22303333Y-97607904D01*
X22350952Y-97560285D01*
X22446190Y-97512666D01*
X22731905Y-97512666D01*
X22827143Y-97560285D01*
X22874762Y-97607904D01*
X22922381Y-97703142D01*
X22922381Y-97846000D01*
X22922381Y-96941238D02*
X22874762Y-97036476D01*
X22779524Y-97084095D01*
X21922381Y-97084095D01*
X22874762Y-96179332D02*
X22922381Y-96274570D01*
X22922381Y-96465047D01*
X22874762Y-96560285D01*
X22779524Y-96607904D01*
X22398571Y-96607904D01*
X22303333Y-96560285D01*
X22255714Y-96465047D01*
X22255714Y-96274570D01*
X22303333Y-96179332D01*
X22398571Y-96131713D01*
X22493810Y-96131713D01*
X22589048Y-96607904D01*
X27122381Y-102955524D02*
X26122381Y-102955524D01*
X26836667Y-102622190D01*
X26122381Y-102288857D01*
X27122381Y-102288857D01*
X27122381Y-101812667D02*
X26122381Y-101812667D01*
X27122381Y-101241238D02*
X26550952Y-101669810D01*
X26122381Y-101241238D02*
X26693810Y-101812667D01*
X26122381Y-100907905D02*
X26122381Y-100288857D01*
X26503333Y-100622191D01*
X26503333Y-100479333D01*
X26550952Y-100384095D01*
X26598571Y-100336476D01*
X26693810Y-100288857D01*
X26931905Y-100288857D01*
X27027143Y-100336476D01*
X27074762Y-100384095D01*
X27122381Y-100479333D01*
X27122381Y-100765048D01*
X27074762Y-100860286D01*
X27027143Y-100907905D01*
X198252381Y-143166667D02*
X197252381Y-143166667D01*
X197966667Y-142833333D01*
X197252381Y-142500000D01*
X198252381Y-142500000D01*
X198252381Y-141880953D02*
X198204762Y-141976191D01*
X198157143Y-142023810D01*
X198061905Y-142071429D01*
X197776190Y-142071429D01*
X197680952Y-142023810D01*
X197633333Y-141976191D01*
X197585714Y-141880953D01*
X197585714Y-141738095D01*
X197633333Y-141642857D01*
X197680952Y-141595238D01*
X197776190Y-141547619D01*
X198061905Y-141547619D01*
X198157143Y-141595238D01*
X198204762Y-141642857D01*
X198252381Y-141738095D01*
X198252381Y-141880953D01*
X197585714Y-140690476D02*
X198252381Y-140690476D01*
X197585714Y-141119048D02*
X198109524Y-141119048D01*
X198204762Y-141071429D01*
X198252381Y-140976191D01*
X198252381Y-140833333D01*
X198204762Y-140738095D01*
X198157143Y-140690476D01*
X197585714Y-140214286D02*
X198252381Y-140214286D01*
X197680952Y-140214286D02*
X197633333Y-140166667D01*
X197585714Y-140071429D01*
X197585714Y-139928571D01*
X197633333Y-139833333D01*
X197728571Y-139785714D01*
X198252381Y-139785714D01*
X197585714Y-139452381D02*
X197585714Y-139071429D01*
X197252381Y-139309524D02*
X198109524Y-139309524D01*
X198204762Y-139261905D01*
X198252381Y-139166667D01*
X198252381Y-139071429D01*
X198252381Y-138738095D02*
X197585714Y-138738095D01*
X197252381Y-138738095D02*
X197300000Y-138785714D01*
X197347619Y-138738095D01*
X197300000Y-138690476D01*
X197252381Y-138738095D01*
X197347619Y-138738095D01*
X197585714Y-138261905D02*
X198252381Y-138261905D01*
X197680952Y-138261905D02*
X197633333Y-138214286D01*
X197585714Y-138119048D01*
X197585714Y-137976190D01*
X197633333Y-137880952D01*
X197728571Y-137833333D01*
X198252381Y-137833333D01*
X197585714Y-136928571D02*
X198395238Y-136928571D01*
X198490476Y-136976190D01*
X198538095Y-137023809D01*
X198585714Y-137119048D01*
X198585714Y-137261905D01*
X198538095Y-137357143D01*
X198204762Y-136928571D02*
X198252381Y-137023809D01*
X198252381Y-137214286D01*
X198204762Y-137309524D01*
X198157143Y-137357143D01*
X198061905Y-137404762D01*
X197776190Y-137404762D01*
X197680952Y-137357143D01*
X197633333Y-137309524D01*
X197585714Y-137214286D01*
X197585714Y-137023809D01*
X197633333Y-136928571D01*
X198347619Y-136690476D02*
X198347619Y-135928571D01*
X198252381Y-135690476D02*
X197252381Y-135690476D01*
X197728571Y-135690476D02*
X197728571Y-135119047D01*
X198252381Y-135119047D02*
X197252381Y-135119047D01*
X198252381Y-134500000D02*
X198204762Y-134595238D01*
X198157143Y-134642857D01*
X198061905Y-134690476D01*
X197776190Y-134690476D01*
X197680952Y-134642857D01*
X197633333Y-134595238D01*
X197585714Y-134500000D01*
X197585714Y-134357142D01*
X197633333Y-134261904D01*
X197680952Y-134214285D01*
X197776190Y-134166666D01*
X198061905Y-134166666D01*
X198157143Y-134214285D01*
X198204762Y-134261904D01*
X198252381Y-134357142D01*
X198252381Y-134500000D01*
X198252381Y-133595238D02*
X198204762Y-133690476D01*
X198109524Y-133738095D01*
X197252381Y-133738095D01*
X198204762Y-132833332D02*
X198252381Y-132928570D01*
X198252381Y-133119047D01*
X198204762Y-133214285D01*
X198109524Y-133261904D01*
X197728571Y-133261904D01*
X197633333Y-133214285D01*
X197585714Y-133119047D01*
X197585714Y-132928570D01*
X197633333Y-132833332D01*
X197728571Y-132785713D01*
X197823810Y-132785713D01*
X197919048Y-133261904D01*
X202452381Y-139609524D02*
X201452381Y-139609524D01*
X202166667Y-139276190D01*
X201452381Y-138942857D01*
X202452381Y-138942857D01*
X202452381Y-138466667D02*
X201452381Y-138466667D01*
X202452381Y-137895238D02*
X201880952Y-138323810D01*
X201452381Y-137895238D02*
X202023810Y-138466667D01*
X201785714Y-137038095D02*
X202452381Y-137038095D01*
X201404762Y-137276191D02*
X202119048Y-137514286D01*
X202119048Y-136895238D01*
X114833333Y-105652381D02*
X114833333Y-104652381D01*
X115166667Y-105366667D01*
X115500000Y-104652381D01*
X115500000Y-105652381D01*
X116119047Y-105652381D02*
X116023809Y-105604762D01*
X115976190Y-105557143D01*
X115928571Y-105461905D01*
X115928571Y-105176190D01*
X115976190Y-105080952D01*
X116023809Y-105033333D01*
X116119047Y-104985714D01*
X116261905Y-104985714D01*
X116357143Y-105033333D01*
X116404762Y-105080952D01*
X116452381Y-105176190D01*
X116452381Y-105461905D01*
X116404762Y-105557143D01*
X116357143Y-105604762D01*
X116261905Y-105652381D01*
X116119047Y-105652381D01*
X117309524Y-104985714D02*
X117309524Y-105652381D01*
X116880952Y-104985714D02*
X116880952Y-105509524D01*
X116928571Y-105604762D01*
X117023809Y-105652381D01*
X117166667Y-105652381D01*
X117261905Y-105604762D01*
X117309524Y-105557143D01*
X117785714Y-104985714D02*
X117785714Y-105652381D01*
X117785714Y-105080952D02*
X117833333Y-105033333D01*
X117928571Y-104985714D01*
X118071429Y-104985714D01*
X118166667Y-105033333D01*
X118214286Y-105128571D01*
X118214286Y-105652381D01*
X118547619Y-104985714D02*
X118928571Y-104985714D01*
X118690476Y-104652381D02*
X118690476Y-105509524D01*
X118738095Y-105604762D01*
X118833333Y-105652381D01*
X118928571Y-105652381D01*
X119261905Y-105652381D02*
X119261905Y-104985714D01*
X119261905Y-104652381D02*
X119214286Y-104700000D01*
X119261905Y-104747619D01*
X119309524Y-104700000D01*
X119261905Y-104652381D01*
X119261905Y-104747619D01*
X119738095Y-104985714D02*
X119738095Y-105652381D01*
X119738095Y-105080952D02*
X119785714Y-105033333D01*
X119880952Y-104985714D01*
X120023810Y-104985714D01*
X120119048Y-105033333D01*
X120166667Y-105128571D01*
X120166667Y-105652381D01*
X121071429Y-104985714D02*
X121071429Y-105795238D01*
X121023810Y-105890476D01*
X120976191Y-105938095D01*
X120880952Y-105985714D01*
X120738095Y-105985714D01*
X120642857Y-105938095D01*
X121071429Y-105604762D02*
X120976191Y-105652381D01*
X120785714Y-105652381D01*
X120690476Y-105604762D01*
X120642857Y-105557143D01*
X120595238Y-105461905D01*
X120595238Y-105176190D01*
X120642857Y-105080952D01*
X120690476Y-105033333D01*
X120785714Y-104985714D01*
X120976191Y-104985714D01*
X121071429Y-105033333D01*
X121309524Y-105747619D02*
X122071429Y-105747619D01*
X122309524Y-105652381D02*
X122309524Y-104652381D01*
X122309524Y-105128571D02*
X122880953Y-105128571D01*
X122880953Y-105652381D02*
X122880953Y-104652381D01*
X123500000Y-105652381D02*
X123404762Y-105604762D01*
X123357143Y-105557143D01*
X123309524Y-105461905D01*
X123309524Y-105176190D01*
X123357143Y-105080952D01*
X123404762Y-105033333D01*
X123500000Y-104985714D01*
X123642858Y-104985714D01*
X123738096Y-105033333D01*
X123785715Y-105080952D01*
X123833334Y-105176190D01*
X123833334Y-105461905D01*
X123785715Y-105557143D01*
X123738096Y-105604762D01*
X123642858Y-105652381D01*
X123500000Y-105652381D01*
X124404762Y-105652381D02*
X124309524Y-105604762D01*
X124261905Y-105509524D01*
X124261905Y-104652381D01*
X125166668Y-105604762D02*
X125071430Y-105652381D01*
X124880953Y-105652381D01*
X124785715Y-105604762D01*
X124738096Y-105509524D01*
X124738096Y-105128571D01*
X124785715Y-105033333D01*
X124880953Y-104985714D01*
X125071430Y-104985714D01*
X125166668Y-105033333D01*
X125214287Y-105128571D01*
X125214287Y-105223810D01*
X124738096Y-105319048D01*
X118990476Y-101452381D02*
X118990476Y-100452381D01*
X119323810Y-101166667D01*
X119657143Y-100452381D01*
X119657143Y-101452381D01*
X120133333Y-101452381D02*
X120133333Y-100452381D01*
X120704762Y-101452381D02*
X120276190Y-100880952D01*
X120704762Y-100452381D02*
X120133333Y-101023810D01*
X121609524Y-100452381D02*
X121133333Y-100452381D01*
X121085714Y-100928571D01*
X121133333Y-100880952D01*
X121228571Y-100833333D01*
X121466667Y-100833333D01*
X121561905Y-100880952D01*
X121609524Y-100928571D01*
X121657143Y-101023810D01*
X121657143Y-101261905D01*
X121609524Y-101357143D01*
X121561905Y-101404762D01*
X121466667Y-101452381D01*
X121228571Y-101452381D01*
X121133333Y-101404762D01*
X121085714Y-101357143D01*
X114833333Y-142652381D02*
X114833333Y-141652381D01*
X115166667Y-142366667D01*
X115500000Y-141652381D01*
X115500000Y-142652381D01*
X116119047Y-142652381D02*
X116023809Y-142604762D01*
X115976190Y-142557143D01*
X115928571Y-142461905D01*
X115928571Y-142176190D01*
X115976190Y-142080952D01*
X116023809Y-142033333D01*
X116119047Y-141985714D01*
X116261905Y-141985714D01*
X116357143Y-142033333D01*
X116404762Y-142080952D01*
X116452381Y-142176190D01*
X116452381Y-142461905D01*
X116404762Y-142557143D01*
X116357143Y-142604762D01*
X116261905Y-142652381D01*
X116119047Y-142652381D01*
X117309524Y-141985714D02*
X117309524Y-142652381D01*
X116880952Y-141985714D02*
X116880952Y-142509524D01*
X116928571Y-142604762D01*
X117023809Y-142652381D01*
X117166667Y-142652381D01*
X117261905Y-142604762D01*
X117309524Y-142557143D01*
X117785714Y-141985714D02*
X117785714Y-142652381D01*
X117785714Y-142080952D02*
X117833333Y-142033333D01*
X117928571Y-141985714D01*
X118071429Y-141985714D01*
X118166667Y-142033333D01*
X118214286Y-142128571D01*
X118214286Y-142652381D01*
X118547619Y-141985714D02*
X118928571Y-141985714D01*
X118690476Y-141652381D02*
X118690476Y-142509524D01*
X118738095Y-142604762D01*
X118833333Y-142652381D01*
X118928571Y-142652381D01*
X119261905Y-142652381D02*
X119261905Y-141985714D01*
X119261905Y-141652381D02*
X119214286Y-141700000D01*
X119261905Y-141747619D01*
X119309524Y-141700000D01*
X119261905Y-141652381D01*
X119261905Y-141747619D01*
X119738095Y-141985714D02*
X119738095Y-142652381D01*
X119738095Y-142080952D02*
X119785714Y-142033333D01*
X119880952Y-141985714D01*
X120023810Y-141985714D01*
X120119048Y-142033333D01*
X120166667Y-142128571D01*
X120166667Y-142652381D01*
X121071429Y-141985714D02*
X121071429Y-142795238D01*
X121023810Y-142890476D01*
X120976191Y-142938095D01*
X120880952Y-142985714D01*
X120738095Y-142985714D01*
X120642857Y-142938095D01*
X121071429Y-142604762D02*
X120976191Y-142652381D01*
X120785714Y-142652381D01*
X120690476Y-142604762D01*
X120642857Y-142557143D01*
X120595238Y-142461905D01*
X120595238Y-142176190D01*
X120642857Y-142080952D01*
X120690476Y-142033333D01*
X120785714Y-141985714D01*
X120976191Y-141985714D01*
X121071429Y-142033333D01*
X121309524Y-142747619D02*
X122071429Y-142747619D01*
X122309524Y-142652381D02*
X122309524Y-141652381D01*
X122309524Y-142128571D02*
X122880953Y-142128571D01*
X122880953Y-142652381D02*
X122880953Y-141652381D01*
X123500000Y-142652381D02*
X123404762Y-142604762D01*
X123357143Y-142557143D01*
X123309524Y-142461905D01*
X123309524Y-142176190D01*
X123357143Y-142080952D01*
X123404762Y-142033333D01*
X123500000Y-141985714D01*
X123642858Y-141985714D01*
X123738096Y-142033333D01*
X123785715Y-142080952D01*
X123833334Y-142176190D01*
X123833334Y-142461905D01*
X123785715Y-142557143D01*
X123738096Y-142604762D01*
X123642858Y-142652381D01*
X123500000Y-142652381D01*
X124404762Y-142652381D02*
X124309524Y-142604762D01*
X124261905Y-142509524D01*
X124261905Y-141652381D01*
X125166668Y-142604762D02*
X125071430Y-142652381D01*
X124880953Y-142652381D01*
X124785715Y-142604762D01*
X124738096Y-142509524D01*
X124738096Y-142128571D01*
X124785715Y-142033333D01*
X124880953Y-141985714D01*
X125071430Y-141985714D01*
X125166668Y-142033333D01*
X125214287Y-142128571D01*
X125214287Y-142223810D01*
X124738096Y-142319048D01*
X118990476Y-138452381D02*
X118990476Y-137452381D01*
X119323810Y-138166667D01*
X119657143Y-137452381D01*
X119657143Y-138452381D01*
X120133333Y-138452381D02*
X120133333Y-137452381D01*
X120704762Y-138452381D02*
X120276190Y-137880952D01*
X120704762Y-137452381D02*
X120133333Y-138023810D01*
X121561905Y-137452381D02*
X121371428Y-137452381D01*
X121276190Y-137500000D01*
X121228571Y-137547619D01*
X121133333Y-137690476D01*
X121085714Y-137880952D01*
X121085714Y-138261905D01*
X121133333Y-138357143D01*
X121180952Y-138404762D01*
X121276190Y-138452381D01*
X121466667Y-138452381D01*
X121561905Y-138404762D01*
X121609524Y-138357143D01*
X121657143Y-138261905D01*
X121657143Y-138023810D01*
X121609524Y-137928571D01*
X121561905Y-137880952D01*
X121466667Y-137833333D01*
X121276190Y-137833333D01*
X121180952Y-137880952D01*
X121133333Y-137928571D01*
X121085714Y-138023810D01*
X35583334Y-105297143D02*
X35535715Y-105344762D01*
X35392858Y-105392381D01*
X35297620Y-105392381D01*
X35154762Y-105344762D01*
X35059524Y-105249524D01*
X35011905Y-105154286D01*
X34964286Y-104963810D01*
X34964286Y-104820952D01*
X35011905Y-104630476D01*
X35059524Y-104535238D01*
X35154762Y-104440000D01*
X35297620Y-104392381D01*
X35392858Y-104392381D01*
X35535715Y-104440000D01*
X35583334Y-104487619D01*
X36011905Y-105392381D02*
X36011905Y-104392381D01*
X36392858Y-104392381D01*
X36488096Y-104440000D01*
X36535715Y-104487619D01*
X36583334Y-104582857D01*
X36583334Y-104725714D01*
X36535715Y-104820952D01*
X36488096Y-104868571D01*
X36392858Y-104916190D01*
X36011905Y-104916190D01*
X37535715Y-105392381D02*
X36964286Y-105392381D01*
X37250000Y-105392381D02*
X37250000Y-104392381D01*
X37154762Y-104535238D01*
X37059524Y-104630476D01*
X36964286Y-104678095D01*
X36083334Y-109107143D02*
X36035715Y-109154762D01*
X35892858Y-109202381D01*
X35797620Y-109202381D01*
X35654762Y-109154762D01*
X35559524Y-109059524D01*
X35511905Y-108964286D01*
X35464286Y-108773810D01*
X35464286Y-108630952D01*
X35511905Y-108440476D01*
X35559524Y-108345238D01*
X35654762Y-108250000D01*
X35797620Y-108202381D01*
X35892858Y-108202381D01*
X36035715Y-108250000D01*
X36083334Y-108297619D01*
X37035715Y-109202381D02*
X36464286Y-109202381D01*
X36750000Y-109202381D02*
X36750000Y-108202381D01*
X36654762Y-108345238D01*
X36559524Y-108440476D01*
X36464286Y-108488095D01*
M02*
