G04 #@! TF.FileFunction,Other,Comment*
%FSLAX46Y46*%
G04 Gerber Fmt 4.6, Leading zero omitted, Abs format (unit mm)*
G04 Created by KiCad (PCBNEW 4.0.7) date Monday, 21 May 2018 'PMt' 08:13:31 PM*
%MOMM*%
%LPD*%
G01*
G04 APERTURE LIST*
%ADD10C,0.100000*%
%ADD11C,0.250000*%
%ADD12C,0.150000*%
G04 APERTURE END LIST*
D10*
D11*
X24939524Y-123049381D02*
X24606190Y-122573190D01*
X24368095Y-123049381D02*
X24368095Y-122049381D01*
X24749048Y-122049381D01*
X24844286Y-122097000D01*
X24891905Y-122144619D01*
X24939524Y-122239857D01*
X24939524Y-122382714D01*
X24891905Y-122477952D01*
X24844286Y-122525571D01*
X24749048Y-122573190D01*
X24368095Y-122573190D01*
X25558571Y-122049381D02*
X25749048Y-122049381D01*
X25844286Y-122097000D01*
X25939524Y-122192238D01*
X25987143Y-122382714D01*
X25987143Y-122716048D01*
X25939524Y-122906524D01*
X25844286Y-123001762D01*
X25749048Y-123049381D01*
X25558571Y-123049381D01*
X25463333Y-123001762D01*
X25368095Y-122906524D01*
X25320476Y-122716048D01*
X25320476Y-122382714D01*
X25368095Y-122192238D01*
X25463333Y-122097000D01*
X25558571Y-122049381D01*
X26272857Y-122049381D02*
X26844286Y-122049381D01*
X26558571Y-123049381D02*
X26558571Y-122049381D01*
X27130000Y-122763667D02*
X27606191Y-122763667D01*
X27034762Y-123049381D02*
X27368095Y-122049381D01*
X27701429Y-123049381D01*
X28606191Y-123049381D02*
X28272857Y-122573190D01*
X28034762Y-123049381D02*
X28034762Y-122049381D01*
X28415715Y-122049381D01*
X28510953Y-122097000D01*
X28558572Y-122144619D01*
X28606191Y-122239857D01*
X28606191Y-122382714D01*
X28558572Y-122477952D01*
X28510953Y-122525571D01*
X28415715Y-122573190D01*
X28034762Y-122573190D01*
X29034762Y-123049381D02*
X29034762Y-122382714D01*
X29034762Y-122049381D02*
X28987143Y-122097000D01*
X29034762Y-122144619D01*
X29082381Y-122097000D01*
X29034762Y-122049381D01*
X29034762Y-122144619D01*
X29939524Y-122382714D02*
X29939524Y-123049381D01*
X29510952Y-122382714D02*
X29510952Y-122906524D01*
X29558571Y-123001762D01*
X29653809Y-123049381D01*
X29796667Y-123049381D01*
X29891905Y-123001762D01*
X29939524Y-122954143D01*
X30415714Y-123049381D02*
X30415714Y-122382714D01*
X30415714Y-122477952D02*
X30463333Y-122430333D01*
X30558571Y-122382714D01*
X30701429Y-122382714D01*
X30796667Y-122430333D01*
X30844286Y-122525571D01*
X30844286Y-123049381D01*
X30844286Y-122525571D02*
X30891905Y-122430333D01*
X30987143Y-122382714D01*
X31130000Y-122382714D01*
X31225238Y-122430333D01*
X31272857Y-122525571D01*
X31272857Y-123049381D01*
X24939524Y-124799381D02*
X24606190Y-124323190D01*
X24368095Y-124799381D02*
X24368095Y-123799381D01*
X24749048Y-123799381D01*
X24844286Y-123847000D01*
X24891905Y-123894619D01*
X24939524Y-123989857D01*
X24939524Y-124132714D01*
X24891905Y-124227952D01*
X24844286Y-124275571D01*
X24749048Y-124323190D01*
X24368095Y-124323190D01*
X25749048Y-124751762D02*
X25653810Y-124799381D01*
X25463333Y-124799381D01*
X25368095Y-124751762D01*
X25320476Y-124656524D01*
X25320476Y-124275571D01*
X25368095Y-124180333D01*
X25463333Y-124132714D01*
X25653810Y-124132714D01*
X25749048Y-124180333D01*
X25796667Y-124275571D01*
X25796667Y-124370810D01*
X25320476Y-124466048D01*
X26130000Y-124132714D02*
X26368095Y-124799381D01*
X26606191Y-124132714D01*
X26987143Y-124704143D02*
X27034762Y-124751762D01*
X26987143Y-124799381D01*
X26939524Y-124751762D01*
X26987143Y-124704143D01*
X26987143Y-124799381D01*
X28558572Y-124275571D02*
X28701429Y-124323190D01*
X28749048Y-124370810D01*
X28796667Y-124466048D01*
X28796667Y-124608905D01*
X28749048Y-124704143D01*
X28701429Y-124751762D01*
X28606191Y-124799381D01*
X28225238Y-124799381D01*
X28225238Y-123799381D01*
X28558572Y-123799381D01*
X28653810Y-123847000D01*
X28701429Y-123894619D01*
X28749048Y-123989857D01*
X28749048Y-124085095D01*
X28701429Y-124180333D01*
X28653810Y-124227952D01*
X28558572Y-124275571D01*
X28225238Y-124275571D01*
X24368095Y-126549381D02*
X24368095Y-125549381D01*
X24701429Y-126263667D01*
X25034762Y-125549381D01*
X25034762Y-126549381D01*
X25891905Y-126501762D02*
X25796667Y-126549381D01*
X25606190Y-126549381D01*
X25510952Y-126501762D01*
X25463333Y-126406524D01*
X25463333Y-126025571D01*
X25510952Y-125930333D01*
X25606190Y-125882714D01*
X25796667Y-125882714D01*
X25891905Y-125930333D01*
X25939524Y-126025571D01*
X25939524Y-126120810D01*
X25463333Y-126216048D01*
X26796667Y-126501762D02*
X26701429Y-126549381D01*
X26510952Y-126549381D01*
X26415714Y-126501762D01*
X26368095Y-126454143D01*
X26320476Y-126358905D01*
X26320476Y-126073190D01*
X26368095Y-125977952D01*
X26415714Y-125930333D01*
X26510952Y-125882714D01*
X26701429Y-125882714D01*
X26796667Y-125930333D01*
X27653810Y-126501762D02*
X27558572Y-126549381D01*
X27368095Y-126549381D01*
X27272857Y-126501762D01*
X27225238Y-126454143D01*
X27177619Y-126358905D01*
X27177619Y-126073190D01*
X27225238Y-125977952D01*
X27272857Y-125930333D01*
X27368095Y-125882714D01*
X27558572Y-125882714D01*
X27653810Y-125930333D01*
X28082381Y-126549381D02*
X28082381Y-125549381D01*
X28510953Y-126549381D02*
X28510953Y-126025571D01*
X28463334Y-125930333D01*
X28368096Y-125882714D01*
X28225238Y-125882714D01*
X28130000Y-125930333D01*
X28082381Y-125977952D01*
X28987143Y-126549381D02*
X28987143Y-125882714D01*
X28987143Y-125549381D02*
X28939524Y-125597000D01*
X28987143Y-125644619D01*
X29034762Y-125597000D01*
X28987143Y-125549381D01*
X28987143Y-125644619D01*
X29463333Y-125882714D02*
X29463333Y-126549381D01*
X29463333Y-125977952D02*
X29510952Y-125930333D01*
X29606190Y-125882714D01*
X29749048Y-125882714D01*
X29844286Y-125930333D01*
X29891905Y-126025571D01*
X29891905Y-126549381D01*
X30796667Y-126549381D02*
X30796667Y-126025571D01*
X30749048Y-125930333D01*
X30653810Y-125882714D01*
X30463333Y-125882714D01*
X30368095Y-125930333D01*
X30796667Y-126501762D02*
X30701429Y-126549381D01*
X30463333Y-126549381D01*
X30368095Y-126501762D01*
X30320476Y-126406524D01*
X30320476Y-126311286D01*
X30368095Y-126216048D01*
X30463333Y-126168429D01*
X30701429Y-126168429D01*
X30796667Y-126120810D01*
X31272857Y-126454143D02*
X31320476Y-126501762D01*
X31272857Y-126549381D01*
X31225238Y-126501762D01*
X31272857Y-126454143D01*
X31272857Y-126549381D01*
X31606190Y-125882714D02*
X31987142Y-125882714D01*
X31749047Y-125549381D02*
X31749047Y-126406524D01*
X31796666Y-126501762D01*
X31891904Y-126549381D01*
X31987142Y-126549381D01*
X32701429Y-126501762D02*
X32606191Y-126549381D01*
X32415714Y-126549381D01*
X32320476Y-126501762D01*
X32272857Y-126406524D01*
X32272857Y-126025571D01*
X32320476Y-125930333D01*
X32415714Y-125882714D01*
X32606191Y-125882714D01*
X32701429Y-125930333D01*
X32749048Y-126025571D01*
X32749048Y-126120810D01*
X32272857Y-126216048D01*
X33606191Y-126501762D02*
X33510953Y-126549381D01*
X33320476Y-126549381D01*
X33225238Y-126501762D01*
X33177619Y-126454143D01*
X33130000Y-126358905D01*
X33130000Y-126073190D01*
X33177619Y-125977952D01*
X33225238Y-125930333D01*
X33320476Y-125882714D01*
X33510953Y-125882714D01*
X33606191Y-125930333D01*
X34034762Y-126549381D02*
X34034762Y-125549381D01*
X34463334Y-126549381D02*
X34463334Y-126025571D01*
X34415715Y-125930333D01*
X34320477Y-125882714D01*
X34177619Y-125882714D01*
X34082381Y-125930333D01*
X34034762Y-125977952D01*
X24320476Y-127394619D02*
X24368095Y-127347000D01*
X24463333Y-127299381D01*
X24701429Y-127299381D01*
X24796667Y-127347000D01*
X24844286Y-127394619D01*
X24891905Y-127489857D01*
X24891905Y-127585095D01*
X24844286Y-127727952D01*
X24272857Y-128299381D01*
X24891905Y-128299381D01*
X25844286Y-128299381D02*
X25272857Y-128299381D01*
X25558571Y-128299381D02*
X25558571Y-127299381D01*
X25463333Y-127442238D01*
X25368095Y-127537476D01*
X25272857Y-127585095D01*
X27034762Y-128299381D02*
X27034762Y-127299381D01*
X27368096Y-128013667D01*
X27701429Y-127299381D01*
X27701429Y-128299381D01*
X28606191Y-128299381D02*
X28606191Y-127775571D01*
X28558572Y-127680333D01*
X28463334Y-127632714D01*
X28272857Y-127632714D01*
X28177619Y-127680333D01*
X28606191Y-128251762D02*
X28510953Y-128299381D01*
X28272857Y-128299381D01*
X28177619Y-128251762D01*
X28130000Y-128156524D01*
X28130000Y-128061286D01*
X28177619Y-127966048D01*
X28272857Y-127918429D01*
X28510953Y-127918429D01*
X28606191Y-127870810D01*
X28987143Y-127632714D02*
X29225238Y-128299381D01*
X29463334Y-127632714D02*
X29225238Y-128299381D01*
X29130000Y-128537476D01*
X29082381Y-128585095D01*
X28987143Y-128632714D01*
X30558572Y-127394619D02*
X30606191Y-127347000D01*
X30701429Y-127299381D01*
X30939525Y-127299381D01*
X31034763Y-127347000D01*
X31082382Y-127394619D01*
X31130001Y-127489857D01*
X31130001Y-127585095D01*
X31082382Y-127727952D01*
X30510953Y-128299381D01*
X31130001Y-128299381D01*
X31749048Y-127299381D02*
X31844287Y-127299381D01*
X31939525Y-127347000D01*
X31987144Y-127394619D01*
X32034763Y-127489857D01*
X32082382Y-127680333D01*
X32082382Y-127918429D01*
X32034763Y-128108905D01*
X31987144Y-128204143D01*
X31939525Y-128251762D01*
X31844287Y-128299381D01*
X31749048Y-128299381D01*
X31653810Y-128251762D01*
X31606191Y-128204143D01*
X31558572Y-128108905D01*
X31510953Y-127918429D01*
X31510953Y-127680333D01*
X31558572Y-127489857D01*
X31606191Y-127394619D01*
X31653810Y-127347000D01*
X31749048Y-127299381D01*
X33034763Y-128299381D02*
X32463334Y-128299381D01*
X32749048Y-128299381D02*
X32749048Y-127299381D01*
X32653810Y-127442238D01*
X32558572Y-127537476D01*
X32463334Y-127585095D01*
X33606191Y-127727952D02*
X33510953Y-127680333D01*
X33463334Y-127632714D01*
X33415715Y-127537476D01*
X33415715Y-127489857D01*
X33463334Y-127394619D01*
X33510953Y-127347000D01*
X33606191Y-127299381D01*
X33796668Y-127299381D01*
X33891906Y-127347000D01*
X33939525Y-127394619D01*
X33987144Y-127489857D01*
X33987144Y-127537476D01*
X33939525Y-127632714D01*
X33891906Y-127680333D01*
X33796668Y-127727952D01*
X33606191Y-127727952D01*
X33510953Y-127775571D01*
X33463334Y-127823190D01*
X33415715Y-127918429D01*
X33415715Y-128108905D01*
X33463334Y-128204143D01*
X33510953Y-128251762D01*
X33606191Y-128299381D01*
X33796668Y-128299381D01*
X33891906Y-128251762D01*
X33939525Y-128204143D01*
X33987144Y-128108905D01*
X33987144Y-127918429D01*
X33939525Y-127823190D01*
X33891906Y-127775571D01*
X33796668Y-127727952D01*
D12*
X29200000Y-138000000D02*
G75*
G03X29200000Y-138000000I-3200000J0D01*
G01*
X205200000Y-101000000D02*
G75*
G03X205200000Y-101000000I-3200000J0D01*
G01*
X29870000Y-101346000D02*
G75*
G03X29870000Y-101346000I-3200000J0D01*
G01*
X205200000Y-138000000D02*
G75*
G03X205200000Y-138000000I-3200000J0D01*
G01*
X123200000Y-101000000D02*
G75*
G03X123200000Y-101000000I-3200000J0D01*
G01*
X123200000Y-138000000D02*
G75*
G03X123200000Y-138000000I-3200000J0D01*
G01*
M02*
