M48
METRIC,TZ
T1C0.400
T2C0.800
T3C1.000
T4C1.500
T5C2.000
T6C3.200
%
G90
G05
T1
X47000Y-105000
X53000Y-105000
X67000Y-105000
X73000Y-105000
X87000Y-105000
X93000Y-105000
X107000Y-105000
X113000Y-105000
X127000Y-105000
X133000Y-105000
X147000Y-105000
X153000Y-105000
X167000Y-105000
X173000Y-105000
T2
X35250Y-108750
X37250Y-108750
X46500Y-111000
X46500Y-113000
X46500Y-115000
X53500Y-111000
X53500Y-113000
X53500Y-115000
X66500Y-111000
X66500Y-113000
X66500Y-115000
X73500Y-111000
X73500Y-113000
X73500Y-115000
X86500Y-111000
X86500Y-113000
X86500Y-115000
X93500Y-111000
X93500Y-113000
X93500Y-115000
X106500Y-111000
X106500Y-113000
X106500Y-115000
X113500Y-111000
X113500Y-113000
X113500Y-115000
X126500Y-111000
X126500Y-113000
X126500Y-115000
X133500Y-111000
X133500Y-113000
X133500Y-115000
X146500Y-111000
X146500Y-113000
X146500Y-115000
X153500Y-111000
X153500Y-113000
X153500Y-115000
X166500Y-111000
X166500Y-113000
X166500Y-115000
X173500Y-111000
X173500Y-113000
X173500Y-115000
X186500Y-111000
X186500Y-113000
X186500Y-115000
X193500Y-111000
X193500Y-113000
X193500Y-115000
T3
X34960Y-100000
X37500Y-100000
X47500Y-100000
X47500Y-122500
X50000Y-122500
X50040Y-100000
X52500Y-122500
X52580Y-100000
X67500Y-100000
X67500Y-122500
X70000Y-122500
X70040Y-100000
X72500Y-122500
X72580Y-100000
X87500Y-100000
X87500Y-122500
X90000Y-122500
X90040Y-100000
X92500Y-122500
X92580Y-100000
X107500Y-100000
X107500Y-122500
X110000Y-122500
X110040Y-100000
X112500Y-122500
X112580Y-100000
X127500Y-100000
X127500Y-122500
X130000Y-122500
X130040Y-100000
X132500Y-122500
X132580Y-100000
X147500Y-100000
X147500Y-122500
X150000Y-122500
X150040Y-100000
X152500Y-122500
X152580Y-100000
X167500Y-100000
X167500Y-122500
X170000Y-122500
X170040Y-100000
X172500Y-122500
X172580Y-100000
X187500Y-100000
X187500Y-122500
X190000Y-122500
X190040Y-100000
X192500Y-122500
X192580Y-100000
T4
X46500Y-108900
X46500Y-117100
X53500Y-108900
X53500Y-117100
X66500Y-108900
X66500Y-117100
X73500Y-108900
X73500Y-117100
X86500Y-108900
X86500Y-117100
X93500Y-108900
X93500Y-117100
X106500Y-108900
X106500Y-117100
X113500Y-108900
X113500Y-117100
X126500Y-108900
X126500Y-117100
X133500Y-108900
X133500Y-117100
X146500Y-108900
X146500Y-117100
X153500Y-108900
X153500Y-117100
X166500Y-108900
X166500Y-117100
X173500Y-108900
X173500Y-117100
X186500Y-108900
X186500Y-117100
X193500Y-108900
X193500Y-117100
T5
X45600Y-129500
X54400Y-129500
X65600Y-129500
X74400Y-129500
X85600Y-129500
X94400Y-129500
X105600Y-129500
X114400Y-129500
X125600Y-129500
X134400Y-129500
X145600Y-129500
X154400Y-129500
X165600Y-129500
X174400Y-129500
X185600Y-129500
X194400Y-129500
T6
X26000Y-138000
X26670Y-101346
X120000Y-101000
X120000Y-138000
X202000Y-101000
X202000Y-138000
T0
M30
