G04 #@! TF.FileFunction,Copper,L1,Top,Signal*
%FSLAX46Y46*%
G04 Gerber Fmt 4.6, Leading zero omitted, Abs format (unit mm)*
G04 Created by KiCad (PCBNEW 4.0.7) date Tuesday, 08 May 2018 'AMt' 10:50:03 AM*
%MOMM*%
%LPD*%
G01*
G04 APERTURE LIST*
%ADD10C,0.100000*%
%ADD11R,1.600000X1.600000*%
%ADD12C,1.600000*%
%ADD13R,1.700000X1.700000*%
%ADD14O,1.700000X1.700000*%
%ADD15C,1.800000*%
%ADD16C,4.000000*%
%ADD17R,1.308000X1.308000*%
%ADD18C,1.308000*%
%ADD19C,0.600000*%
%ADD20C,0.250000*%
G04 APERTURE END LIST*
D10*
D11*
X36830000Y-111506000D03*
D12*
X34830000Y-111506000D03*
D13*
X37338000Y-101346000D03*
D14*
X34798000Y-101346000D03*
D13*
X47498000Y-101346000D03*
D14*
X50038000Y-101346000D03*
X52578000Y-101346000D03*
D13*
X67818000Y-101346000D03*
D14*
X70358000Y-101346000D03*
X72898000Y-101346000D03*
D13*
X88138000Y-101346000D03*
D14*
X90678000Y-101346000D03*
X93218000Y-101346000D03*
D13*
X108458000Y-101346000D03*
D14*
X110998000Y-101346000D03*
X113538000Y-101346000D03*
D13*
X128778000Y-101346000D03*
D14*
X131318000Y-101346000D03*
X133858000Y-101346000D03*
D13*
X149098000Y-101346000D03*
D14*
X151638000Y-101346000D03*
X154178000Y-101346000D03*
D13*
X169418000Y-101346000D03*
D14*
X171958000Y-101346000D03*
X174498000Y-101346000D03*
D13*
X189738000Y-101346000D03*
D14*
X192278000Y-101346000D03*
X194818000Y-101346000D03*
D15*
X52498000Y-121666000D03*
X49998000Y-121666000D03*
X47498000Y-121666000D03*
D16*
X54398000Y-128666000D03*
X45598000Y-128666000D03*
D15*
X72818000Y-121666000D03*
X70318000Y-121666000D03*
X67818000Y-121666000D03*
D16*
X74718000Y-128666000D03*
X65918000Y-128666000D03*
D15*
X93138000Y-121666000D03*
X90638000Y-121666000D03*
X88138000Y-121666000D03*
D16*
X95038000Y-128666000D03*
X86238000Y-128666000D03*
D15*
X113458000Y-121666000D03*
X110958000Y-121666000D03*
X108458000Y-121666000D03*
D16*
X115358000Y-128666000D03*
X106558000Y-128666000D03*
D15*
X133778000Y-121666000D03*
X131278000Y-121666000D03*
X128778000Y-121666000D03*
D16*
X135678000Y-128666000D03*
X126878000Y-128666000D03*
D15*
X154098000Y-121666000D03*
X151598000Y-121666000D03*
X149098000Y-121666000D03*
D16*
X155998000Y-128666000D03*
X147198000Y-128666000D03*
D15*
X174418000Y-121666000D03*
X171918000Y-121666000D03*
X169418000Y-121666000D03*
D16*
X176318000Y-128666000D03*
X167518000Y-128666000D03*
D15*
X194738000Y-121666000D03*
X192238000Y-121666000D03*
X189738000Y-121666000D03*
D16*
X196638000Y-128666000D03*
X187838000Y-128666000D03*
D17*
X54102000Y-110268000D03*
D18*
X54102000Y-112268000D03*
X54102000Y-114268000D03*
D17*
X74422000Y-110268000D03*
D18*
X74422000Y-112268000D03*
X74422000Y-114268000D03*
D17*
X45720000Y-110268000D03*
D18*
X45720000Y-112268000D03*
X45720000Y-114268000D03*
D17*
X66040000Y-110268000D03*
D18*
X66040000Y-112268000D03*
X66040000Y-114268000D03*
D17*
X94742000Y-110268000D03*
D18*
X94742000Y-112268000D03*
X94742000Y-114268000D03*
D17*
X115062000Y-110268000D03*
D18*
X115062000Y-112268000D03*
X115062000Y-114268000D03*
D17*
X86360000Y-110268000D03*
D18*
X86360000Y-112268000D03*
X86360000Y-114268000D03*
D17*
X106680000Y-110268000D03*
D18*
X106680000Y-112268000D03*
X106680000Y-114268000D03*
D17*
X135382000Y-110268000D03*
D18*
X135382000Y-112268000D03*
X135382000Y-114268000D03*
D17*
X155702000Y-110268000D03*
D18*
X155702000Y-112268000D03*
X155702000Y-114268000D03*
D17*
X127000000Y-110268000D03*
D18*
X127000000Y-112268000D03*
X127000000Y-114268000D03*
D17*
X147320000Y-110268000D03*
D18*
X147320000Y-112268000D03*
X147320000Y-114268000D03*
D17*
X176022000Y-110268000D03*
D18*
X176022000Y-112268000D03*
X176022000Y-114268000D03*
D17*
X196342000Y-110268000D03*
D18*
X196342000Y-112268000D03*
X196342000Y-114268000D03*
D17*
X167640000Y-110268000D03*
D18*
X167640000Y-112268000D03*
X167640000Y-114268000D03*
D17*
X187960000Y-110268000D03*
D18*
X187960000Y-112268000D03*
X187960000Y-114268000D03*
D19*
X176530000Y-105410000D03*
X167640000Y-105410000D03*
X156210000Y-105410000D03*
X147320000Y-105410000D03*
X135890000Y-105410000D03*
X127000000Y-105410000D03*
X115570000Y-105410000D03*
X106680000Y-105410000D03*
X95250000Y-105410000D03*
X86360000Y-105410000D03*
X74930000Y-105410000D03*
X66040000Y-105410000D03*
X54610000Y-105410000D03*
X45720000Y-105410000D03*
D20*
X39370000Y-105410000D02*
X38100000Y-105410000D01*
X38100000Y-105410000D02*
X37338000Y-104648000D01*
X167640000Y-114268000D02*
X166338000Y-114268000D01*
X163830000Y-107950000D02*
X161290000Y-105410000D01*
X163830000Y-111760000D02*
X163830000Y-107950000D01*
X166338000Y-114268000D02*
X163830000Y-111760000D01*
X147320000Y-114268000D02*
X146018000Y-114268000D01*
X143510000Y-107950000D02*
X140970000Y-105410000D01*
X143510000Y-111760000D02*
X143510000Y-107950000D01*
X146018000Y-114268000D02*
X143510000Y-111760000D01*
X106680000Y-114268000D02*
X105378000Y-114268000D01*
X102870000Y-107950000D02*
X100330000Y-105410000D01*
X102870000Y-111760000D02*
X102870000Y-107950000D01*
X105378000Y-114268000D02*
X102870000Y-111760000D01*
X127000000Y-114268000D02*
X125698000Y-114268000D01*
X123190000Y-107950000D02*
X120650000Y-105410000D01*
X123190000Y-109220000D02*
X123190000Y-107950000D01*
X123190000Y-111760000D02*
X123190000Y-109220000D01*
X125698000Y-114268000D02*
X123190000Y-111760000D01*
X86360000Y-114268000D02*
X85058000Y-114268000D01*
X82550000Y-107950000D02*
X80010000Y-105410000D01*
X82550000Y-111760000D02*
X82550000Y-107950000D01*
X85058000Y-114268000D02*
X82550000Y-111760000D01*
X66040000Y-114268000D02*
X64738000Y-114268000D01*
X62230000Y-107950000D02*
X59690000Y-105410000D01*
X62230000Y-111760000D02*
X62230000Y-107950000D01*
X64738000Y-114268000D02*
X62230000Y-111760000D01*
X45720000Y-114268000D02*
X44418000Y-114268000D01*
X185388000Y-114268000D02*
X184150000Y-113030000D01*
X184150000Y-113030000D02*
X184150000Y-106680000D01*
X184150000Y-106680000D02*
X182880000Y-105410000D01*
X182880000Y-105410000D02*
X176530000Y-105410000D01*
X167640000Y-105410000D02*
X161290000Y-105410000D01*
X161290000Y-105410000D02*
X156210000Y-105410000D01*
X147320000Y-105410000D02*
X140970000Y-105410000D01*
X140970000Y-105410000D02*
X135890000Y-105410000D01*
X127000000Y-105410000D02*
X120650000Y-105410000D01*
X120650000Y-105410000D02*
X115570000Y-105410000D01*
X106680000Y-105410000D02*
X100330000Y-105410000D01*
X100330000Y-105410000D02*
X95250000Y-105410000D01*
X86360000Y-105410000D02*
X80010000Y-105410000D01*
X80010000Y-105410000D02*
X74930000Y-105410000D01*
X66040000Y-105410000D02*
X59690000Y-105410000D01*
X59690000Y-105410000D02*
X54610000Y-105410000D01*
X45720000Y-105410000D02*
X39370000Y-105410000D01*
X185388000Y-114268000D02*
X187960000Y-114268000D01*
X41910000Y-107950000D02*
X39370000Y-105410000D01*
X41910000Y-111760000D02*
X41910000Y-107950000D01*
X44418000Y-114268000D02*
X41910000Y-111760000D01*
X37338000Y-101346000D02*
X37338000Y-104648000D01*
X37338000Y-104648000D02*
X37338000Y-110998000D01*
X37338000Y-110998000D02*
X36830000Y-111506000D01*
X47498000Y-101346000D02*
X47498000Y-108490000D01*
X47498000Y-108490000D02*
X45720000Y-110268000D01*
X50038000Y-101346000D02*
X50038000Y-121626000D01*
X50038000Y-121626000D02*
X49998000Y-121666000D01*
X52578000Y-101346000D02*
X52578000Y-108744000D01*
X52578000Y-108744000D02*
X54102000Y-110268000D01*
X67818000Y-101346000D02*
X67818000Y-108490000D01*
X67818000Y-108490000D02*
X66040000Y-110268000D01*
X70358000Y-101346000D02*
X70358000Y-121626000D01*
X70358000Y-121626000D02*
X70318000Y-121666000D01*
X72898000Y-101346000D02*
X72898000Y-108744000D01*
X72898000Y-108744000D02*
X74422000Y-110268000D01*
X88138000Y-101346000D02*
X88138000Y-108490000D01*
X88138000Y-108490000D02*
X86360000Y-110268000D01*
X90678000Y-101346000D02*
X90678000Y-121626000D01*
X90678000Y-121626000D02*
X90638000Y-121666000D01*
X93218000Y-101346000D02*
X93218000Y-108744000D01*
X93218000Y-108744000D02*
X94742000Y-110268000D01*
X108458000Y-101346000D02*
X108458000Y-108490000D01*
X108458000Y-108490000D02*
X106680000Y-110268000D01*
X110998000Y-101346000D02*
X110998000Y-121626000D01*
X110998000Y-121626000D02*
X110958000Y-121666000D01*
X113538000Y-101346000D02*
X113538000Y-108744000D01*
X113538000Y-108744000D02*
X115062000Y-110268000D01*
X128778000Y-101346000D02*
X128778000Y-108490000D01*
X128778000Y-108490000D02*
X127000000Y-110268000D01*
X131318000Y-101346000D02*
X131318000Y-121626000D01*
X131318000Y-121626000D02*
X131278000Y-121666000D01*
X133858000Y-101346000D02*
X133858000Y-108744000D01*
X133858000Y-108744000D02*
X135382000Y-110268000D01*
X149098000Y-101346000D02*
X149098000Y-108490000D01*
X149098000Y-108490000D02*
X147320000Y-110268000D01*
X151638000Y-101346000D02*
X151638000Y-121626000D01*
X151638000Y-121626000D02*
X151598000Y-121666000D01*
X154178000Y-101346000D02*
X154178000Y-108744000D01*
X154178000Y-108744000D02*
X155702000Y-110268000D01*
X169418000Y-101346000D02*
X169418000Y-108490000D01*
X169418000Y-108490000D02*
X167640000Y-110268000D01*
X171958000Y-101346000D02*
X171958000Y-121626000D01*
X171958000Y-121626000D02*
X171918000Y-121666000D01*
X174498000Y-101346000D02*
X174498000Y-108744000D01*
X174498000Y-108744000D02*
X176022000Y-110268000D01*
X189738000Y-101346000D02*
X189738000Y-108490000D01*
X189738000Y-108490000D02*
X187960000Y-110268000D01*
X192278000Y-101346000D02*
X192278000Y-121626000D01*
X192278000Y-121626000D02*
X192238000Y-121666000D01*
X194818000Y-101346000D02*
X194818000Y-108744000D01*
X194818000Y-108744000D02*
X196342000Y-110268000D01*
X52498000Y-121666000D02*
X52498000Y-113872000D01*
X52498000Y-113872000D02*
X54102000Y-112268000D01*
X47498000Y-121666000D02*
X47498000Y-114046000D01*
X47498000Y-114046000D02*
X45720000Y-112268000D01*
X72818000Y-121666000D02*
X72818000Y-113872000D01*
X72818000Y-113872000D02*
X74422000Y-112268000D01*
X67818000Y-121666000D02*
X67818000Y-114046000D01*
X67818000Y-114046000D02*
X66040000Y-112268000D01*
X93138000Y-121666000D02*
X93138000Y-113872000D01*
X93138000Y-113872000D02*
X94742000Y-112268000D01*
X88138000Y-121666000D02*
X88138000Y-114046000D01*
X88138000Y-114046000D02*
X86360000Y-112268000D01*
X113458000Y-121666000D02*
X113458000Y-113872000D01*
X113458000Y-113872000D02*
X115062000Y-112268000D01*
X108458000Y-121666000D02*
X108458000Y-114046000D01*
X108458000Y-114046000D02*
X106680000Y-112268000D01*
X133778000Y-121666000D02*
X133778000Y-113872000D01*
X133778000Y-113872000D02*
X135382000Y-112268000D01*
X128778000Y-121666000D02*
X128778000Y-114046000D01*
X128778000Y-114046000D02*
X127000000Y-112268000D01*
X154098000Y-121666000D02*
X154098000Y-113872000D01*
X154098000Y-113872000D02*
X155702000Y-112268000D01*
X149098000Y-121666000D02*
X149098000Y-114046000D01*
X149098000Y-114046000D02*
X147320000Y-112268000D01*
X174418000Y-121666000D02*
X174418000Y-113872000D01*
X174418000Y-113872000D02*
X176022000Y-112268000D01*
X169418000Y-121666000D02*
X169418000Y-114046000D01*
X169418000Y-114046000D02*
X167640000Y-112268000D01*
X194738000Y-121666000D02*
X194738000Y-113872000D01*
X194738000Y-113872000D02*
X196342000Y-112268000D01*
X189738000Y-121666000D02*
X189738000Y-114046000D01*
X189738000Y-114046000D02*
X187960000Y-112268000D01*
M02*
