G04 #@! TF.FileFunction,Copper,L2,Bot,Signal*
%FSLAX46Y46*%
G04 Gerber Fmt 4.6, Leading zero omitted, Abs format (unit mm)*
G04 Created by KiCad (PCBNEW 4.0.7) date Tuesday, 08 May 2018 'AMt' 10:50:03 AM*
%MOMM*%
%LPD*%
G01*
G04 APERTURE LIST*
%ADD10C,0.100000*%
%ADD11R,1.600000X1.600000*%
%ADD12C,1.600000*%
%ADD13R,1.700000X1.700000*%
%ADD14O,1.700000X1.700000*%
%ADD15C,1.800000*%
%ADD16C,4.000000*%
%ADD17R,1.308000X1.308000*%
%ADD18C,1.308000*%
%ADD19C,0.600000*%
%ADD20C,0.250000*%
%ADD21C,0.254000*%
G04 APERTURE END LIST*
D10*
D11*
X36830000Y-111506000D03*
D12*
X34830000Y-111506000D03*
D13*
X37338000Y-101346000D03*
D14*
X34798000Y-101346000D03*
D13*
X47498000Y-101346000D03*
D14*
X50038000Y-101346000D03*
X52578000Y-101346000D03*
D13*
X67818000Y-101346000D03*
D14*
X70358000Y-101346000D03*
X72898000Y-101346000D03*
D13*
X88138000Y-101346000D03*
D14*
X90678000Y-101346000D03*
X93218000Y-101346000D03*
D13*
X108458000Y-101346000D03*
D14*
X110998000Y-101346000D03*
X113538000Y-101346000D03*
D13*
X128778000Y-101346000D03*
D14*
X131318000Y-101346000D03*
X133858000Y-101346000D03*
D13*
X149098000Y-101346000D03*
D14*
X151638000Y-101346000D03*
X154178000Y-101346000D03*
D13*
X169418000Y-101346000D03*
D14*
X171958000Y-101346000D03*
X174498000Y-101346000D03*
D13*
X189738000Y-101346000D03*
D14*
X192278000Y-101346000D03*
X194818000Y-101346000D03*
D15*
X52498000Y-121666000D03*
X49998000Y-121666000D03*
X47498000Y-121666000D03*
D16*
X54398000Y-128666000D03*
X45598000Y-128666000D03*
D15*
X72818000Y-121666000D03*
X70318000Y-121666000D03*
X67818000Y-121666000D03*
D16*
X74718000Y-128666000D03*
X65918000Y-128666000D03*
D15*
X93138000Y-121666000D03*
X90638000Y-121666000D03*
X88138000Y-121666000D03*
D16*
X95038000Y-128666000D03*
X86238000Y-128666000D03*
D15*
X113458000Y-121666000D03*
X110958000Y-121666000D03*
X108458000Y-121666000D03*
D16*
X115358000Y-128666000D03*
X106558000Y-128666000D03*
D15*
X133778000Y-121666000D03*
X131278000Y-121666000D03*
X128778000Y-121666000D03*
D16*
X135678000Y-128666000D03*
X126878000Y-128666000D03*
D15*
X154098000Y-121666000D03*
X151598000Y-121666000D03*
X149098000Y-121666000D03*
D16*
X155998000Y-128666000D03*
X147198000Y-128666000D03*
D15*
X174418000Y-121666000D03*
X171918000Y-121666000D03*
X169418000Y-121666000D03*
D16*
X176318000Y-128666000D03*
X167518000Y-128666000D03*
D15*
X194738000Y-121666000D03*
X192238000Y-121666000D03*
X189738000Y-121666000D03*
D16*
X196638000Y-128666000D03*
X187838000Y-128666000D03*
D17*
X54102000Y-110268000D03*
D18*
X54102000Y-112268000D03*
X54102000Y-114268000D03*
D17*
X74422000Y-110268000D03*
D18*
X74422000Y-112268000D03*
X74422000Y-114268000D03*
D17*
X45720000Y-110268000D03*
D18*
X45720000Y-112268000D03*
X45720000Y-114268000D03*
D17*
X66040000Y-110268000D03*
D18*
X66040000Y-112268000D03*
X66040000Y-114268000D03*
D17*
X94742000Y-110268000D03*
D18*
X94742000Y-112268000D03*
X94742000Y-114268000D03*
D17*
X115062000Y-110268000D03*
D18*
X115062000Y-112268000D03*
X115062000Y-114268000D03*
D17*
X86360000Y-110268000D03*
D18*
X86360000Y-112268000D03*
X86360000Y-114268000D03*
D17*
X106680000Y-110268000D03*
D18*
X106680000Y-112268000D03*
X106680000Y-114268000D03*
D17*
X135382000Y-110268000D03*
D18*
X135382000Y-112268000D03*
X135382000Y-114268000D03*
D17*
X155702000Y-110268000D03*
D18*
X155702000Y-112268000D03*
X155702000Y-114268000D03*
D17*
X127000000Y-110268000D03*
D18*
X127000000Y-112268000D03*
X127000000Y-114268000D03*
D17*
X147320000Y-110268000D03*
D18*
X147320000Y-112268000D03*
X147320000Y-114268000D03*
D17*
X176022000Y-110268000D03*
D18*
X176022000Y-112268000D03*
X176022000Y-114268000D03*
D17*
X196342000Y-110268000D03*
D18*
X196342000Y-112268000D03*
X196342000Y-114268000D03*
D17*
X167640000Y-110268000D03*
D18*
X167640000Y-112268000D03*
X167640000Y-114268000D03*
D17*
X187960000Y-110268000D03*
D18*
X187960000Y-112268000D03*
X187960000Y-114268000D03*
D19*
X176530000Y-105410000D03*
X167640000Y-105410000D03*
X156210000Y-105410000D03*
X147320000Y-105410000D03*
X135890000Y-105410000D03*
X127000000Y-105410000D03*
X115570000Y-105410000D03*
X106680000Y-105410000D03*
X95250000Y-105410000D03*
X86360000Y-105410000D03*
X74930000Y-105410000D03*
X66040000Y-105410000D03*
X54610000Y-105410000D03*
X45720000Y-105410000D03*
D20*
X176530000Y-105410000D02*
X167640000Y-105410000D01*
X156210000Y-105410000D02*
X147320000Y-105410000D01*
X135890000Y-105410000D02*
X127000000Y-105410000D01*
X115570000Y-105410000D02*
X106680000Y-105410000D01*
X95250000Y-105410000D02*
X86360000Y-105410000D01*
X74930000Y-105410000D02*
X66040000Y-105410000D01*
X54610000Y-105410000D02*
X45720000Y-105410000D01*
D21*
G36*
X210135000Y-141555000D02*
X21005000Y-141555000D01*
X21005000Y-137094619D01*
X24180613Y-137094619D01*
X24520155Y-137916372D01*
X25148321Y-138545636D01*
X25969481Y-138886611D01*
X26858619Y-138887387D01*
X27680372Y-138547845D01*
X28309636Y-137919679D01*
X28650611Y-137098519D01*
X28650614Y-137094619D01*
X118922613Y-137094619D01*
X119262155Y-137916372D01*
X119890321Y-138545636D01*
X120711481Y-138886611D01*
X121600619Y-138887387D01*
X122422372Y-138547845D01*
X123051636Y-137919679D01*
X123392611Y-137098519D01*
X123392614Y-137094619D01*
X202742613Y-137094619D01*
X203082155Y-137916372D01*
X203710321Y-138545636D01*
X204531481Y-138886611D01*
X205420619Y-138887387D01*
X206242372Y-138547845D01*
X206871636Y-137919679D01*
X207212611Y-137098519D01*
X207213387Y-136209381D01*
X206873845Y-135387628D01*
X206245679Y-134758364D01*
X205424519Y-134417389D01*
X204535381Y-134416613D01*
X203713628Y-134756155D01*
X203084364Y-135384321D01*
X202743389Y-136205481D01*
X202742613Y-137094619D01*
X123392614Y-137094619D01*
X123393387Y-136209381D01*
X123053845Y-135387628D01*
X122425679Y-134758364D01*
X121604519Y-134417389D01*
X120715381Y-134416613D01*
X119893628Y-134756155D01*
X119264364Y-135384321D01*
X118923389Y-136205481D01*
X118922613Y-137094619D01*
X28650614Y-137094619D01*
X28651387Y-136209381D01*
X28311845Y-135387628D01*
X27683679Y-134758364D01*
X26862519Y-134417389D01*
X25973381Y-134416613D01*
X25151628Y-134756155D01*
X24522364Y-135384321D01*
X24181389Y-136205481D01*
X24180613Y-137094619D01*
X21005000Y-137094619D01*
X21005000Y-129187834D01*
X42962543Y-129187834D01*
X43362853Y-130156658D01*
X44103443Y-130898542D01*
X45071567Y-131300542D01*
X46119834Y-131301457D01*
X47088658Y-130901147D01*
X47830542Y-130160557D01*
X48232542Y-129192433D01*
X48232546Y-129187834D01*
X51762543Y-129187834D01*
X52162853Y-130156658D01*
X52903443Y-130898542D01*
X53871567Y-131300542D01*
X54919834Y-131301457D01*
X55888658Y-130901147D01*
X56630542Y-130160557D01*
X57032542Y-129192433D01*
X57032546Y-129187834D01*
X63282543Y-129187834D01*
X63682853Y-130156658D01*
X64423443Y-130898542D01*
X65391567Y-131300542D01*
X66439834Y-131301457D01*
X67408658Y-130901147D01*
X68150542Y-130160557D01*
X68552542Y-129192433D01*
X68552546Y-129187834D01*
X72082543Y-129187834D01*
X72482853Y-130156658D01*
X73223443Y-130898542D01*
X74191567Y-131300542D01*
X75239834Y-131301457D01*
X76208658Y-130901147D01*
X76950542Y-130160557D01*
X77352542Y-129192433D01*
X77352546Y-129187834D01*
X83602543Y-129187834D01*
X84002853Y-130156658D01*
X84743443Y-130898542D01*
X85711567Y-131300542D01*
X86759834Y-131301457D01*
X87728658Y-130901147D01*
X88470542Y-130160557D01*
X88872542Y-129192433D01*
X88872546Y-129187834D01*
X92402543Y-129187834D01*
X92802853Y-130156658D01*
X93543443Y-130898542D01*
X94511567Y-131300542D01*
X95559834Y-131301457D01*
X96528658Y-130901147D01*
X97270542Y-130160557D01*
X97672542Y-129192433D01*
X97672546Y-129187834D01*
X103922543Y-129187834D01*
X104322853Y-130156658D01*
X105063443Y-130898542D01*
X106031567Y-131300542D01*
X107079834Y-131301457D01*
X108048658Y-130901147D01*
X108790542Y-130160557D01*
X109192542Y-129192433D01*
X109192546Y-129187834D01*
X112722543Y-129187834D01*
X113122853Y-130156658D01*
X113863443Y-130898542D01*
X114831567Y-131300542D01*
X115879834Y-131301457D01*
X116848658Y-130901147D01*
X117590542Y-130160557D01*
X117992542Y-129192433D01*
X117992546Y-129187834D01*
X124242543Y-129187834D01*
X124642853Y-130156658D01*
X125383443Y-130898542D01*
X126351567Y-131300542D01*
X127399834Y-131301457D01*
X128368658Y-130901147D01*
X129110542Y-130160557D01*
X129512542Y-129192433D01*
X129512546Y-129187834D01*
X133042543Y-129187834D01*
X133442853Y-130156658D01*
X134183443Y-130898542D01*
X135151567Y-131300542D01*
X136199834Y-131301457D01*
X137168658Y-130901147D01*
X137910542Y-130160557D01*
X138312542Y-129192433D01*
X138312546Y-129187834D01*
X144562543Y-129187834D01*
X144962853Y-130156658D01*
X145703443Y-130898542D01*
X146671567Y-131300542D01*
X147719834Y-131301457D01*
X148688658Y-130901147D01*
X149430542Y-130160557D01*
X149832542Y-129192433D01*
X149832546Y-129187834D01*
X153362543Y-129187834D01*
X153762853Y-130156658D01*
X154503443Y-130898542D01*
X155471567Y-131300542D01*
X156519834Y-131301457D01*
X157488658Y-130901147D01*
X158230542Y-130160557D01*
X158632542Y-129192433D01*
X158632546Y-129187834D01*
X164882543Y-129187834D01*
X165282853Y-130156658D01*
X166023443Y-130898542D01*
X166991567Y-131300542D01*
X168039834Y-131301457D01*
X169008658Y-130901147D01*
X169750542Y-130160557D01*
X170152542Y-129192433D01*
X170152546Y-129187834D01*
X173682543Y-129187834D01*
X174082853Y-130156658D01*
X174823443Y-130898542D01*
X175791567Y-131300542D01*
X176839834Y-131301457D01*
X177808658Y-130901147D01*
X178550542Y-130160557D01*
X178952542Y-129192433D01*
X178952546Y-129187834D01*
X185202543Y-129187834D01*
X185602853Y-130156658D01*
X186343443Y-130898542D01*
X187311567Y-131300542D01*
X188359834Y-131301457D01*
X189328658Y-130901147D01*
X190070542Y-130160557D01*
X190472542Y-129192433D01*
X190472546Y-129187834D01*
X194002543Y-129187834D01*
X194402853Y-130156658D01*
X195143443Y-130898542D01*
X196111567Y-131300542D01*
X197159834Y-131301457D01*
X198128658Y-130901147D01*
X198870542Y-130160557D01*
X199272542Y-129192433D01*
X199273457Y-128144166D01*
X198873147Y-127175342D01*
X198132557Y-126433458D01*
X197164433Y-126031458D01*
X196116166Y-126030543D01*
X195147342Y-126430853D01*
X194405458Y-127171443D01*
X194003458Y-128139567D01*
X194002543Y-129187834D01*
X190472546Y-129187834D01*
X190473457Y-128144166D01*
X190073147Y-127175342D01*
X189332557Y-126433458D01*
X188364433Y-126031458D01*
X187316166Y-126030543D01*
X186347342Y-126430853D01*
X185605458Y-127171443D01*
X185203458Y-128139567D01*
X185202543Y-129187834D01*
X178952546Y-129187834D01*
X178953457Y-128144166D01*
X178553147Y-127175342D01*
X177812557Y-126433458D01*
X176844433Y-126031458D01*
X175796166Y-126030543D01*
X174827342Y-126430853D01*
X174085458Y-127171443D01*
X173683458Y-128139567D01*
X173682543Y-129187834D01*
X170152546Y-129187834D01*
X170153457Y-128144166D01*
X169753147Y-127175342D01*
X169012557Y-126433458D01*
X168044433Y-126031458D01*
X166996166Y-126030543D01*
X166027342Y-126430853D01*
X165285458Y-127171443D01*
X164883458Y-128139567D01*
X164882543Y-129187834D01*
X158632546Y-129187834D01*
X158633457Y-128144166D01*
X158233147Y-127175342D01*
X157492557Y-126433458D01*
X156524433Y-126031458D01*
X155476166Y-126030543D01*
X154507342Y-126430853D01*
X153765458Y-127171443D01*
X153363458Y-128139567D01*
X153362543Y-129187834D01*
X149832546Y-129187834D01*
X149833457Y-128144166D01*
X149433147Y-127175342D01*
X148692557Y-126433458D01*
X147724433Y-126031458D01*
X146676166Y-126030543D01*
X145707342Y-126430853D01*
X144965458Y-127171443D01*
X144563458Y-128139567D01*
X144562543Y-129187834D01*
X138312546Y-129187834D01*
X138313457Y-128144166D01*
X137913147Y-127175342D01*
X137172557Y-126433458D01*
X136204433Y-126031458D01*
X135156166Y-126030543D01*
X134187342Y-126430853D01*
X133445458Y-127171443D01*
X133043458Y-128139567D01*
X133042543Y-129187834D01*
X129512546Y-129187834D01*
X129513457Y-128144166D01*
X129113147Y-127175342D01*
X128372557Y-126433458D01*
X127404433Y-126031458D01*
X126356166Y-126030543D01*
X125387342Y-126430853D01*
X124645458Y-127171443D01*
X124243458Y-128139567D01*
X124242543Y-129187834D01*
X117992546Y-129187834D01*
X117993457Y-128144166D01*
X117593147Y-127175342D01*
X116852557Y-126433458D01*
X115884433Y-126031458D01*
X114836166Y-126030543D01*
X113867342Y-126430853D01*
X113125458Y-127171443D01*
X112723458Y-128139567D01*
X112722543Y-129187834D01*
X109192546Y-129187834D01*
X109193457Y-128144166D01*
X108793147Y-127175342D01*
X108052557Y-126433458D01*
X107084433Y-126031458D01*
X106036166Y-126030543D01*
X105067342Y-126430853D01*
X104325458Y-127171443D01*
X103923458Y-128139567D01*
X103922543Y-129187834D01*
X97672546Y-129187834D01*
X97673457Y-128144166D01*
X97273147Y-127175342D01*
X96532557Y-126433458D01*
X95564433Y-126031458D01*
X94516166Y-126030543D01*
X93547342Y-126430853D01*
X92805458Y-127171443D01*
X92403458Y-128139567D01*
X92402543Y-129187834D01*
X88872546Y-129187834D01*
X88873457Y-128144166D01*
X88473147Y-127175342D01*
X87732557Y-126433458D01*
X86764433Y-126031458D01*
X85716166Y-126030543D01*
X84747342Y-126430853D01*
X84005458Y-127171443D01*
X83603458Y-128139567D01*
X83602543Y-129187834D01*
X77352546Y-129187834D01*
X77353457Y-128144166D01*
X76953147Y-127175342D01*
X76212557Y-126433458D01*
X75244433Y-126031458D01*
X74196166Y-126030543D01*
X73227342Y-126430853D01*
X72485458Y-127171443D01*
X72083458Y-128139567D01*
X72082543Y-129187834D01*
X68552546Y-129187834D01*
X68553457Y-128144166D01*
X68153147Y-127175342D01*
X67412557Y-126433458D01*
X66444433Y-126031458D01*
X65396166Y-126030543D01*
X64427342Y-126430853D01*
X63685458Y-127171443D01*
X63283458Y-128139567D01*
X63282543Y-129187834D01*
X57032546Y-129187834D01*
X57033457Y-128144166D01*
X56633147Y-127175342D01*
X55892557Y-126433458D01*
X54924433Y-126031458D01*
X53876166Y-126030543D01*
X52907342Y-126430853D01*
X52165458Y-127171443D01*
X51763458Y-128139567D01*
X51762543Y-129187834D01*
X48232546Y-129187834D01*
X48233457Y-128144166D01*
X47833147Y-127175342D01*
X47092557Y-126433458D01*
X46124433Y-126031458D01*
X45076166Y-126030543D01*
X44107342Y-126430853D01*
X43365458Y-127171443D01*
X42963458Y-128139567D01*
X42962543Y-129187834D01*
X21005000Y-129187834D01*
X21005000Y-121969991D01*
X45962735Y-121969991D01*
X46195932Y-122534371D01*
X46627357Y-122966551D01*
X47191330Y-123200733D01*
X47801991Y-123201265D01*
X48366371Y-122968068D01*
X48748288Y-122586818D01*
X49127357Y-122966551D01*
X49691330Y-123200733D01*
X50301991Y-123201265D01*
X50866371Y-122968068D01*
X51248288Y-122586818D01*
X51627357Y-122966551D01*
X52191330Y-123200733D01*
X52801991Y-123201265D01*
X53366371Y-122968068D01*
X53798551Y-122536643D01*
X54032733Y-121972670D01*
X54032735Y-121969991D01*
X66282735Y-121969991D01*
X66515932Y-122534371D01*
X66947357Y-122966551D01*
X67511330Y-123200733D01*
X68121991Y-123201265D01*
X68686371Y-122968068D01*
X69068288Y-122586818D01*
X69447357Y-122966551D01*
X70011330Y-123200733D01*
X70621991Y-123201265D01*
X71186371Y-122968068D01*
X71568288Y-122586818D01*
X71947357Y-122966551D01*
X72511330Y-123200733D01*
X73121991Y-123201265D01*
X73686371Y-122968068D01*
X74118551Y-122536643D01*
X74352733Y-121972670D01*
X74352735Y-121969991D01*
X86602735Y-121969991D01*
X86835932Y-122534371D01*
X87267357Y-122966551D01*
X87831330Y-123200733D01*
X88441991Y-123201265D01*
X89006371Y-122968068D01*
X89388288Y-122586818D01*
X89767357Y-122966551D01*
X90331330Y-123200733D01*
X90941991Y-123201265D01*
X91506371Y-122968068D01*
X91888288Y-122586818D01*
X92267357Y-122966551D01*
X92831330Y-123200733D01*
X93441991Y-123201265D01*
X94006371Y-122968068D01*
X94438551Y-122536643D01*
X94672733Y-121972670D01*
X94672735Y-121969991D01*
X106922735Y-121969991D01*
X107155932Y-122534371D01*
X107587357Y-122966551D01*
X108151330Y-123200733D01*
X108761991Y-123201265D01*
X109326371Y-122968068D01*
X109708288Y-122586818D01*
X110087357Y-122966551D01*
X110651330Y-123200733D01*
X111261991Y-123201265D01*
X111826371Y-122968068D01*
X112208288Y-122586818D01*
X112587357Y-122966551D01*
X113151330Y-123200733D01*
X113761991Y-123201265D01*
X114326371Y-122968068D01*
X114758551Y-122536643D01*
X114992733Y-121972670D01*
X114992735Y-121969991D01*
X127242735Y-121969991D01*
X127475932Y-122534371D01*
X127907357Y-122966551D01*
X128471330Y-123200733D01*
X129081991Y-123201265D01*
X129646371Y-122968068D01*
X130028288Y-122586818D01*
X130407357Y-122966551D01*
X130971330Y-123200733D01*
X131581991Y-123201265D01*
X132146371Y-122968068D01*
X132528288Y-122586818D01*
X132907357Y-122966551D01*
X133471330Y-123200733D01*
X134081991Y-123201265D01*
X134646371Y-122968068D01*
X135078551Y-122536643D01*
X135312733Y-121972670D01*
X135312735Y-121969991D01*
X147562735Y-121969991D01*
X147795932Y-122534371D01*
X148227357Y-122966551D01*
X148791330Y-123200733D01*
X149401991Y-123201265D01*
X149966371Y-122968068D01*
X150348288Y-122586818D01*
X150727357Y-122966551D01*
X151291330Y-123200733D01*
X151901991Y-123201265D01*
X152466371Y-122968068D01*
X152848288Y-122586818D01*
X153227357Y-122966551D01*
X153791330Y-123200733D01*
X154401991Y-123201265D01*
X154966371Y-122968068D01*
X155398551Y-122536643D01*
X155632733Y-121972670D01*
X155632735Y-121969991D01*
X167882735Y-121969991D01*
X168115932Y-122534371D01*
X168547357Y-122966551D01*
X169111330Y-123200733D01*
X169721991Y-123201265D01*
X170286371Y-122968068D01*
X170668288Y-122586818D01*
X171047357Y-122966551D01*
X171611330Y-123200733D01*
X172221991Y-123201265D01*
X172786371Y-122968068D01*
X173168288Y-122586818D01*
X173547357Y-122966551D01*
X174111330Y-123200733D01*
X174721991Y-123201265D01*
X175286371Y-122968068D01*
X175718551Y-122536643D01*
X175952733Y-121972670D01*
X175952735Y-121969991D01*
X188202735Y-121969991D01*
X188435932Y-122534371D01*
X188867357Y-122966551D01*
X189431330Y-123200733D01*
X190041991Y-123201265D01*
X190606371Y-122968068D01*
X190988288Y-122586818D01*
X191367357Y-122966551D01*
X191931330Y-123200733D01*
X192541991Y-123201265D01*
X193106371Y-122968068D01*
X193488288Y-122586818D01*
X193867357Y-122966551D01*
X194431330Y-123200733D01*
X195041991Y-123201265D01*
X195606371Y-122968068D01*
X196038551Y-122536643D01*
X196272733Y-121972670D01*
X196273265Y-121362009D01*
X196040068Y-120797629D01*
X195608643Y-120365449D01*
X195044670Y-120131267D01*
X194434009Y-120130735D01*
X193869629Y-120363932D01*
X193487712Y-120745182D01*
X193108643Y-120365449D01*
X192544670Y-120131267D01*
X191934009Y-120130735D01*
X191369629Y-120363932D01*
X190987712Y-120745182D01*
X190608643Y-120365449D01*
X190044670Y-120131267D01*
X189434009Y-120130735D01*
X188869629Y-120363932D01*
X188437449Y-120795357D01*
X188203267Y-121359330D01*
X188202735Y-121969991D01*
X175952735Y-121969991D01*
X175953265Y-121362009D01*
X175720068Y-120797629D01*
X175288643Y-120365449D01*
X174724670Y-120131267D01*
X174114009Y-120130735D01*
X173549629Y-120363932D01*
X173167712Y-120745182D01*
X172788643Y-120365449D01*
X172224670Y-120131267D01*
X171614009Y-120130735D01*
X171049629Y-120363932D01*
X170667712Y-120745182D01*
X170288643Y-120365449D01*
X169724670Y-120131267D01*
X169114009Y-120130735D01*
X168549629Y-120363932D01*
X168117449Y-120795357D01*
X167883267Y-121359330D01*
X167882735Y-121969991D01*
X155632735Y-121969991D01*
X155633265Y-121362009D01*
X155400068Y-120797629D01*
X154968643Y-120365449D01*
X154404670Y-120131267D01*
X153794009Y-120130735D01*
X153229629Y-120363932D01*
X152847712Y-120745182D01*
X152468643Y-120365449D01*
X151904670Y-120131267D01*
X151294009Y-120130735D01*
X150729629Y-120363932D01*
X150347712Y-120745182D01*
X149968643Y-120365449D01*
X149404670Y-120131267D01*
X148794009Y-120130735D01*
X148229629Y-120363932D01*
X147797449Y-120795357D01*
X147563267Y-121359330D01*
X147562735Y-121969991D01*
X135312735Y-121969991D01*
X135313265Y-121362009D01*
X135080068Y-120797629D01*
X134648643Y-120365449D01*
X134084670Y-120131267D01*
X133474009Y-120130735D01*
X132909629Y-120363932D01*
X132527712Y-120745182D01*
X132148643Y-120365449D01*
X131584670Y-120131267D01*
X130974009Y-120130735D01*
X130409629Y-120363932D01*
X130027712Y-120745182D01*
X129648643Y-120365449D01*
X129084670Y-120131267D01*
X128474009Y-120130735D01*
X127909629Y-120363932D01*
X127477449Y-120795357D01*
X127243267Y-121359330D01*
X127242735Y-121969991D01*
X114992735Y-121969991D01*
X114993265Y-121362009D01*
X114760068Y-120797629D01*
X114328643Y-120365449D01*
X113764670Y-120131267D01*
X113154009Y-120130735D01*
X112589629Y-120363932D01*
X112207712Y-120745182D01*
X111828643Y-120365449D01*
X111264670Y-120131267D01*
X110654009Y-120130735D01*
X110089629Y-120363932D01*
X109707712Y-120745182D01*
X109328643Y-120365449D01*
X108764670Y-120131267D01*
X108154009Y-120130735D01*
X107589629Y-120363932D01*
X107157449Y-120795357D01*
X106923267Y-121359330D01*
X106922735Y-121969991D01*
X94672735Y-121969991D01*
X94673265Y-121362009D01*
X94440068Y-120797629D01*
X94008643Y-120365449D01*
X93444670Y-120131267D01*
X92834009Y-120130735D01*
X92269629Y-120363932D01*
X91887712Y-120745182D01*
X91508643Y-120365449D01*
X90944670Y-120131267D01*
X90334009Y-120130735D01*
X89769629Y-120363932D01*
X89387712Y-120745182D01*
X89008643Y-120365449D01*
X88444670Y-120131267D01*
X87834009Y-120130735D01*
X87269629Y-120363932D01*
X86837449Y-120795357D01*
X86603267Y-121359330D01*
X86602735Y-121969991D01*
X74352735Y-121969991D01*
X74353265Y-121362009D01*
X74120068Y-120797629D01*
X73688643Y-120365449D01*
X73124670Y-120131267D01*
X72514009Y-120130735D01*
X71949629Y-120363932D01*
X71567712Y-120745182D01*
X71188643Y-120365449D01*
X70624670Y-120131267D01*
X70014009Y-120130735D01*
X69449629Y-120363932D01*
X69067712Y-120745182D01*
X68688643Y-120365449D01*
X68124670Y-120131267D01*
X67514009Y-120130735D01*
X66949629Y-120363932D01*
X66517449Y-120795357D01*
X66283267Y-121359330D01*
X66282735Y-121969991D01*
X54032735Y-121969991D01*
X54033265Y-121362009D01*
X53800068Y-120797629D01*
X53368643Y-120365449D01*
X52804670Y-120131267D01*
X52194009Y-120130735D01*
X51629629Y-120363932D01*
X51247712Y-120745182D01*
X50868643Y-120365449D01*
X50304670Y-120131267D01*
X49694009Y-120130735D01*
X49129629Y-120363932D01*
X48747712Y-120745182D01*
X48368643Y-120365449D01*
X47804670Y-120131267D01*
X47194009Y-120130735D01*
X46629629Y-120363932D01*
X46197449Y-120795357D01*
X45963267Y-121359330D01*
X45962735Y-121969991D01*
X21005000Y-121969991D01*
X21005000Y-111289223D01*
X33383035Y-111289223D01*
X33410222Y-111859454D01*
X33576136Y-112260005D01*
X33822255Y-112334139D01*
X34650395Y-111506000D01*
X33822255Y-110677861D01*
X33576136Y-110751995D01*
X33383035Y-111289223D01*
X21005000Y-111289223D01*
X21005000Y-110498255D01*
X34001861Y-110498255D01*
X34830000Y-111326395D01*
X34844142Y-111312252D01*
X35023748Y-111491858D01*
X35009605Y-111506000D01*
X35023748Y-111520143D01*
X34844142Y-111699748D01*
X34830000Y-111685605D01*
X34001861Y-112513745D01*
X34075995Y-112759864D01*
X34613223Y-112952965D01*
X35183454Y-112925778D01*
X35574947Y-112763616D01*
X35778110Y-112902431D01*
X36030000Y-112953440D01*
X37630000Y-112953440D01*
X37865317Y-112909162D01*
X38081441Y-112770090D01*
X38226431Y-112557890D01*
X38277440Y-112306000D01*
X38277440Y-110706000D01*
X38233162Y-110470683D01*
X38094090Y-110254559D01*
X37881890Y-110109569D01*
X37630000Y-110058560D01*
X36030000Y-110058560D01*
X35794683Y-110102838D01*
X35578559Y-110241910D01*
X35574023Y-110248548D01*
X35046777Y-110059035D01*
X34476546Y-110086222D01*
X34075995Y-110252136D01*
X34001861Y-110498255D01*
X21005000Y-110498255D01*
X21005000Y-108442285D01*
X44334760Y-108442285D01*
X44545169Y-108951515D01*
X44692897Y-109099501D01*
X44614559Y-109149910D01*
X44469569Y-109362110D01*
X44418560Y-109614000D01*
X44418560Y-110922000D01*
X44462838Y-111157317D01*
X44601910Y-111373441D01*
X44714526Y-111450388D01*
X44627876Y-111536887D01*
X44431224Y-112010477D01*
X44430777Y-112523273D01*
X44626602Y-112997206D01*
X44897078Y-113268155D01*
X44627876Y-113536887D01*
X44431224Y-114010477D01*
X44430777Y-114523273D01*
X44626602Y-114997206D01*
X44879254Y-115250300D01*
X44546539Y-115582436D01*
X44335241Y-116091298D01*
X44334760Y-116642285D01*
X44545169Y-117151515D01*
X44934436Y-117541461D01*
X45443298Y-117752759D01*
X45994285Y-117753240D01*
X46503515Y-117542831D01*
X46893461Y-117153564D01*
X47104759Y-116644702D01*
X47104761Y-116642285D01*
X52716760Y-116642285D01*
X52927169Y-117151515D01*
X53316436Y-117541461D01*
X53825298Y-117752759D01*
X54376285Y-117753240D01*
X54885515Y-117542831D01*
X55275461Y-117153564D01*
X55486759Y-116644702D01*
X55487240Y-116093715D01*
X55276831Y-115584485D01*
X54887564Y-115194539D01*
X54821503Y-115167108D01*
X54102000Y-114447605D01*
X53383158Y-115166447D01*
X53318485Y-115193169D01*
X52928539Y-115582436D01*
X52717241Y-116091298D01*
X52716760Y-116642285D01*
X47104761Y-116642285D01*
X47105240Y-116093715D01*
X46894831Y-115584485D01*
X46560864Y-115249935D01*
X46812124Y-114999113D01*
X47008776Y-114525523D01*
X47009159Y-114086121D01*
X52800393Y-114086121D01*
X52829870Y-114598069D01*
X52969074Y-114934138D01*
X53200083Y-114990312D01*
X53922395Y-114268000D01*
X54281605Y-114268000D01*
X55003917Y-114990312D01*
X55234926Y-114934138D01*
X55403607Y-114449879D01*
X55374130Y-113937931D01*
X55234926Y-113601862D01*
X55003917Y-113545688D01*
X54281605Y-114268000D01*
X53922395Y-114268000D01*
X53200083Y-113545688D01*
X52969074Y-113601862D01*
X52800393Y-114086121D01*
X47009159Y-114086121D01*
X47009223Y-114012727D01*
X46813398Y-113538794D01*
X46542922Y-113267845D01*
X46812124Y-112999113D01*
X47008776Y-112525523D01*
X47009223Y-112012727D01*
X46813398Y-111538794D01*
X46725292Y-111450534D01*
X46825441Y-111386090D01*
X46970431Y-111173890D01*
X47021440Y-110922000D01*
X47021440Y-109614000D01*
X46977162Y-109378683D01*
X46838090Y-109162559D01*
X46746673Y-109100096D01*
X46893461Y-108953564D01*
X47104759Y-108444702D01*
X47104761Y-108442285D01*
X52716760Y-108442285D01*
X52927169Y-108951515D01*
X53074897Y-109099501D01*
X52996559Y-109149910D01*
X52851569Y-109362110D01*
X52800560Y-109614000D01*
X52800560Y-110922000D01*
X52844838Y-111157317D01*
X52983910Y-111373441D01*
X53096526Y-111450388D01*
X53009876Y-111536887D01*
X52813224Y-112010477D01*
X52812777Y-112523273D01*
X53008602Y-112997206D01*
X53370887Y-113360124D01*
X53380197Y-113363990D01*
X53379688Y-113366083D01*
X54102000Y-114088395D01*
X54824312Y-113366083D01*
X54823906Y-113364414D01*
X54831206Y-113361398D01*
X55194124Y-112999113D01*
X55390776Y-112525523D01*
X55391223Y-112012727D01*
X55195398Y-111538794D01*
X55107292Y-111450534D01*
X55207441Y-111386090D01*
X55352431Y-111173890D01*
X55403440Y-110922000D01*
X55403440Y-109614000D01*
X55359162Y-109378683D01*
X55220090Y-109162559D01*
X55128673Y-109100096D01*
X55275461Y-108953564D01*
X55486759Y-108444702D01*
X55486761Y-108442285D01*
X64654760Y-108442285D01*
X64865169Y-108951515D01*
X65012897Y-109099501D01*
X64934559Y-109149910D01*
X64789569Y-109362110D01*
X64738560Y-109614000D01*
X64738560Y-110922000D01*
X64782838Y-111157317D01*
X64921910Y-111373441D01*
X65034526Y-111450388D01*
X64947876Y-111536887D01*
X64751224Y-112010477D01*
X64750777Y-112523273D01*
X64946602Y-112997206D01*
X65217078Y-113268155D01*
X64947876Y-113536887D01*
X64751224Y-114010477D01*
X64750777Y-114523273D01*
X64946602Y-114997206D01*
X65199254Y-115250300D01*
X64866539Y-115582436D01*
X64655241Y-116091298D01*
X64654760Y-116642285D01*
X64865169Y-117151515D01*
X65254436Y-117541461D01*
X65763298Y-117752759D01*
X66314285Y-117753240D01*
X66823515Y-117542831D01*
X67213461Y-117153564D01*
X67424759Y-116644702D01*
X67424761Y-116642285D01*
X73036760Y-116642285D01*
X73247169Y-117151515D01*
X73636436Y-117541461D01*
X74145298Y-117752759D01*
X74696285Y-117753240D01*
X75205515Y-117542831D01*
X75595461Y-117153564D01*
X75806759Y-116644702D01*
X75807240Y-116093715D01*
X75596831Y-115584485D01*
X75207564Y-115194539D01*
X75141503Y-115167108D01*
X74422000Y-114447605D01*
X73703158Y-115166447D01*
X73638485Y-115193169D01*
X73248539Y-115582436D01*
X73037241Y-116091298D01*
X73036760Y-116642285D01*
X67424761Y-116642285D01*
X67425240Y-116093715D01*
X67214831Y-115584485D01*
X66880864Y-115249935D01*
X67132124Y-114999113D01*
X67328776Y-114525523D01*
X67329159Y-114086121D01*
X73120393Y-114086121D01*
X73149870Y-114598069D01*
X73289074Y-114934138D01*
X73520083Y-114990312D01*
X74242395Y-114268000D01*
X74601605Y-114268000D01*
X75323917Y-114990312D01*
X75554926Y-114934138D01*
X75723607Y-114449879D01*
X75694130Y-113937931D01*
X75554926Y-113601862D01*
X75323917Y-113545688D01*
X74601605Y-114268000D01*
X74242395Y-114268000D01*
X73520083Y-113545688D01*
X73289074Y-113601862D01*
X73120393Y-114086121D01*
X67329159Y-114086121D01*
X67329223Y-114012727D01*
X67133398Y-113538794D01*
X66862922Y-113267845D01*
X67132124Y-112999113D01*
X67328776Y-112525523D01*
X67329223Y-112012727D01*
X67133398Y-111538794D01*
X67045292Y-111450534D01*
X67145441Y-111386090D01*
X67290431Y-111173890D01*
X67341440Y-110922000D01*
X67341440Y-109614000D01*
X67297162Y-109378683D01*
X67158090Y-109162559D01*
X67066673Y-109100096D01*
X67213461Y-108953564D01*
X67424759Y-108444702D01*
X67424761Y-108442285D01*
X73036760Y-108442285D01*
X73247169Y-108951515D01*
X73394897Y-109099501D01*
X73316559Y-109149910D01*
X73171569Y-109362110D01*
X73120560Y-109614000D01*
X73120560Y-110922000D01*
X73164838Y-111157317D01*
X73303910Y-111373441D01*
X73416526Y-111450388D01*
X73329876Y-111536887D01*
X73133224Y-112010477D01*
X73132777Y-112523273D01*
X73328602Y-112997206D01*
X73690887Y-113360124D01*
X73700197Y-113363990D01*
X73699688Y-113366083D01*
X74422000Y-114088395D01*
X75144312Y-113366083D01*
X75143906Y-113364414D01*
X75151206Y-113361398D01*
X75514124Y-112999113D01*
X75710776Y-112525523D01*
X75711223Y-112012727D01*
X75515398Y-111538794D01*
X75427292Y-111450534D01*
X75527441Y-111386090D01*
X75672431Y-111173890D01*
X75723440Y-110922000D01*
X75723440Y-109614000D01*
X75679162Y-109378683D01*
X75540090Y-109162559D01*
X75448673Y-109100096D01*
X75595461Y-108953564D01*
X75806759Y-108444702D01*
X75806761Y-108442285D01*
X84974760Y-108442285D01*
X85185169Y-108951515D01*
X85332897Y-109099501D01*
X85254559Y-109149910D01*
X85109569Y-109362110D01*
X85058560Y-109614000D01*
X85058560Y-110922000D01*
X85102838Y-111157317D01*
X85241910Y-111373441D01*
X85354526Y-111450388D01*
X85267876Y-111536887D01*
X85071224Y-112010477D01*
X85070777Y-112523273D01*
X85266602Y-112997206D01*
X85537078Y-113268155D01*
X85267876Y-113536887D01*
X85071224Y-114010477D01*
X85070777Y-114523273D01*
X85266602Y-114997206D01*
X85519254Y-115250300D01*
X85186539Y-115582436D01*
X84975241Y-116091298D01*
X84974760Y-116642285D01*
X85185169Y-117151515D01*
X85574436Y-117541461D01*
X86083298Y-117752759D01*
X86634285Y-117753240D01*
X87143515Y-117542831D01*
X87533461Y-117153564D01*
X87744759Y-116644702D01*
X87744761Y-116642285D01*
X93356760Y-116642285D01*
X93567169Y-117151515D01*
X93956436Y-117541461D01*
X94465298Y-117752759D01*
X95016285Y-117753240D01*
X95525515Y-117542831D01*
X95915461Y-117153564D01*
X96126759Y-116644702D01*
X96127240Y-116093715D01*
X95916831Y-115584485D01*
X95527564Y-115194539D01*
X95461503Y-115167108D01*
X94742000Y-114447605D01*
X94023158Y-115166447D01*
X93958485Y-115193169D01*
X93568539Y-115582436D01*
X93357241Y-116091298D01*
X93356760Y-116642285D01*
X87744761Y-116642285D01*
X87745240Y-116093715D01*
X87534831Y-115584485D01*
X87200864Y-115249935D01*
X87452124Y-114999113D01*
X87648776Y-114525523D01*
X87649159Y-114086121D01*
X93440393Y-114086121D01*
X93469870Y-114598069D01*
X93609074Y-114934138D01*
X93840083Y-114990312D01*
X94562395Y-114268000D01*
X94921605Y-114268000D01*
X95643917Y-114990312D01*
X95874926Y-114934138D01*
X96043607Y-114449879D01*
X96014130Y-113937931D01*
X95874926Y-113601862D01*
X95643917Y-113545688D01*
X94921605Y-114268000D01*
X94562395Y-114268000D01*
X93840083Y-113545688D01*
X93609074Y-113601862D01*
X93440393Y-114086121D01*
X87649159Y-114086121D01*
X87649223Y-114012727D01*
X87453398Y-113538794D01*
X87182922Y-113267845D01*
X87452124Y-112999113D01*
X87648776Y-112525523D01*
X87649223Y-112012727D01*
X87453398Y-111538794D01*
X87365292Y-111450534D01*
X87465441Y-111386090D01*
X87610431Y-111173890D01*
X87661440Y-110922000D01*
X87661440Y-109614000D01*
X87617162Y-109378683D01*
X87478090Y-109162559D01*
X87386673Y-109100096D01*
X87533461Y-108953564D01*
X87744759Y-108444702D01*
X87744761Y-108442285D01*
X93356760Y-108442285D01*
X93567169Y-108951515D01*
X93714897Y-109099501D01*
X93636559Y-109149910D01*
X93491569Y-109362110D01*
X93440560Y-109614000D01*
X93440560Y-110922000D01*
X93484838Y-111157317D01*
X93623910Y-111373441D01*
X93736526Y-111450388D01*
X93649876Y-111536887D01*
X93453224Y-112010477D01*
X93452777Y-112523273D01*
X93648602Y-112997206D01*
X94010887Y-113360124D01*
X94020197Y-113363990D01*
X94019688Y-113366083D01*
X94742000Y-114088395D01*
X95464312Y-113366083D01*
X95463906Y-113364414D01*
X95471206Y-113361398D01*
X95834124Y-112999113D01*
X96030776Y-112525523D01*
X96031223Y-112012727D01*
X95835398Y-111538794D01*
X95747292Y-111450534D01*
X95847441Y-111386090D01*
X95992431Y-111173890D01*
X96043440Y-110922000D01*
X96043440Y-109614000D01*
X95999162Y-109378683D01*
X95860090Y-109162559D01*
X95768673Y-109100096D01*
X95915461Y-108953564D01*
X96126759Y-108444702D01*
X96126761Y-108442285D01*
X105294760Y-108442285D01*
X105505169Y-108951515D01*
X105652897Y-109099501D01*
X105574559Y-109149910D01*
X105429569Y-109362110D01*
X105378560Y-109614000D01*
X105378560Y-110922000D01*
X105422838Y-111157317D01*
X105561910Y-111373441D01*
X105674526Y-111450388D01*
X105587876Y-111536887D01*
X105391224Y-112010477D01*
X105390777Y-112523273D01*
X105586602Y-112997206D01*
X105857078Y-113268155D01*
X105587876Y-113536887D01*
X105391224Y-114010477D01*
X105390777Y-114523273D01*
X105586602Y-114997206D01*
X105839254Y-115250300D01*
X105506539Y-115582436D01*
X105295241Y-116091298D01*
X105294760Y-116642285D01*
X105505169Y-117151515D01*
X105894436Y-117541461D01*
X106403298Y-117752759D01*
X106954285Y-117753240D01*
X107463515Y-117542831D01*
X107853461Y-117153564D01*
X108064759Y-116644702D01*
X108064761Y-116642285D01*
X113676760Y-116642285D01*
X113887169Y-117151515D01*
X114276436Y-117541461D01*
X114785298Y-117752759D01*
X115336285Y-117753240D01*
X115845515Y-117542831D01*
X116235461Y-117153564D01*
X116446759Y-116644702D01*
X116447240Y-116093715D01*
X116236831Y-115584485D01*
X115847564Y-115194539D01*
X115781503Y-115167108D01*
X115062000Y-114447605D01*
X114343158Y-115166447D01*
X114278485Y-115193169D01*
X113888539Y-115582436D01*
X113677241Y-116091298D01*
X113676760Y-116642285D01*
X108064761Y-116642285D01*
X108065240Y-116093715D01*
X107854831Y-115584485D01*
X107520864Y-115249935D01*
X107772124Y-114999113D01*
X107968776Y-114525523D01*
X107969159Y-114086121D01*
X113760393Y-114086121D01*
X113789870Y-114598069D01*
X113929074Y-114934138D01*
X114160083Y-114990312D01*
X114882395Y-114268000D01*
X115241605Y-114268000D01*
X115963917Y-114990312D01*
X116194926Y-114934138D01*
X116363607Y-114449879D01*
X116334130Y-113937931D01*
X116194926Y-113601862D01*
X115963917Y-113545688D01*
X115241605Y-114268000D01*
X114882395Y-114268000D01*
X114160083Y-113545688D01*
X113929074Y-113601862D01*
X113760393Y-114086121D01*
X107969159Y-114086121D01*
X107969223Y-114012727D01*
X107773398Y-113538794D01*
X107502922Y-113267845D01*
X107772124Y-112999113D01*
X107968776Y-112525523D01*
X107969223Y-112012727D01*
X107773398Y-111538794D01*
X107685292Y-111450534D01*
X107785441Y-111386090D01*
X107930431Y-111173890D01*
X107981440Y-110922000D01*
X107981440Y-109614000D01*
X107937162Y-109378683D01*
X107798090Y-109162559D01*
X107706673Y-109100096D01*
X107853461Y-108953564D01*
X108064759Y-108444702D01*
X108064761Y-108442285D01*
X113676760Y-108442285D01*
X113887169Y-108951515D01*
X114034897Y-109099501D01*
X113956559Y-109149910D01*
X113811569Y-109362110D01*
X113760560Y-109614000D01*
X113760560Y-110922000D01*
X113804838Y-111157317D01*
X113943910Y-111373441D01*
X114056526Y-111450388D01*
X113969876Y-111536887D01*
X113773224Y-112010477D01*
X113772777Y-112523273D01*
X113968602Y-112997206D01*
X114330887Y-113360124D01*
X114340197Y-113363990D01*
X114339688Y-113366083D01*
X115062000Y-114088395D01*
X115784312Y-113366083D01*
X115783906Y-113364414D01*
X115791206Y-113361398D01*
X116154124Y-112999113D01*
X116350776Y-112525523D01*
X116351223Y-112012727D01*
X116155398Y-111538794D01*
X116067292Y-111450534D01*
X116167441Y-111386090D01*
X116312431Y-111173890D01*
X116363440Y-110922000D01*
X116363440Y-109614000D01*
X116319162Y-109378683D01*
X116180090Y-109162559D01*
X116088673Y-109100096D01*
X116235461Y-108953564D01*
X116446759Y-108444702D01*
X116446761Y-108442285D01*
X125614760Y-108442285D01*
X125825169Y-108951515D01*
X125972897Y-109099501D01*
X125894559Y-109149910D01*
X125749569Y-109362110D01*
X125698560Y-109614000D01*
X125698560Y-110922000D01*
X125742838Y-111157317D01*
X125881910Y-111373441D01*
X125994526Y-111450388D01*
X125907876Y-111536887D01*
X125711224Y-112010477D01*
X125710777Y-112523273D01*
X125906602Y-112997206D01*
X126177078Y-113268155D01*
X125907876Y-113536887D01*
X125711224Y-114010477D01*
X125710777Y-114523273D01*
X125906602Y-114997206D01*
X126159254Y-115250300D01*
X125826539Y-115582436D01*
X125615241Y-116091298D01*
X125614760Y-116642285D01*
X125825169Y-117151515D01*
X126214436Y-117541461D01*
X126723298Y-117752759D01*
X127274285Y-117753240D01*
X127783515Y-117542831D01*
X128173461Y-117153564D01*
X128384759Y-116644702D01*
X128384761Y-116642285D01*
X133996760Y-116642285D01*
X134207169Y-117151515D01*
X134596436Y-117541461D01*
X135105298Y-117752759D01*
X135656285Y-117753240D01*
X136165515Y-117542831D01*
X136555461Y-117153564D01*
X136766759Y-116644702D01*
X136767240Y-116093715D01*
X136556831Y-115584485D01*
X136167564Y-115194539D01*
X136101503Y-115167108D01*
X135382000Y-114447605D01*
X134663158Y-115166447D01*
X134598485Y-115193169D01*
X134208539Y-115582436D01*
X133997241Y-116091298D01*
X133996760Y-116642285D01*
X128384761Y-116642285D01*
X128385240Y-116093715D01*
X128174831Y-115584485D01*
X127840864Y-115249935D01*
X128092124Y-114999113D01*
X128288776Y-114525523D01*
X128289159Y-114086121D01*
X134080393Y-114086121D01*
X134109870Y-114598069D01*
X134249074Y-114934138D01*
X134480083Y-114990312D01*
X135202395Y-114268000D01*
X135561605Y-114268000D01*
X136283917Y-114990312D01*
X136514926Y-114934138D01*
X136683607Y-114449879D01*
X136654130Y-113937931D01*
X136514926Y-113601862D01*
X136283917Y-113545688D01*
X135561605Y-114268000D01*
X135202395Y-114268000D01*
X134480083Y-113545688D01*
X134249074Y-113601862D01*
X134080393Y-114086121D01*
X128289159Y-114086121D01*
X128289223Y-114012727D01*
X128093398Y-113538794D01*
X127822922Y-113267845D01*
X128092124Y-112999113D01*
X128288776Y-112525523D01*
X128289223Y-112012727D01*
X128093398Y-111538794D01*
X128005292Y-111450534D01*
X128105441Y-111386090D01*
X128250431Y-111173890D01*
X128301440Y-110922000D01*
X128301440Y-109614000D01*
X128257162Y-109378683D01*
X128118090Y-109162559D01*
X128026673Y-109100096D01*
X128173461Y-108953564D01*
X128384759Y-108444702D01*
X128384761Y-108442285D01*
X133996760Y-108442285D01*
X134207169Y-108951515D01*
X134354897Y-109099501D01*
X134276559Y-109149910D01*
X134131569Y-109362110D01*
X134080560Y-109614000D01*
X134080560Y-110922000D01*
X134124838Y-111157317D01*
X134263910Y-111373441D01*
X134376526Y-111450388D01*
X134289876Y-111536887D01*
X134093224Y-112010477D01*
X134092777Y-112523273D01*
X134288602Y-112997206D01*
X134650887Y-113360124D01*
X134660197Y-113363990D01*
X134659688Y-113366083D01*
X135382000Y-114088395D01*
X136104312Y-113366083D01*
X136103906Y-113364414D01*
X136111206Y-113361398D01*
X136474124Y-112999113D01*
X136670776Y-112525523D01*
X136671223Y-112012727D01*
X136475398Y-111538794D01*
X136387292Y-111450534D01*
X136487441Y-111386090D01*
X136632431Y-111173890D01*
X136683440Y-110922000D01*
X136683440Y-109614000D01*
X136639162Y-109378683D01*
X136500090Y-109162559D01*
X136408673Y-109100096D01*
X136555461Y-108953564D01*
X136766759Y-108444702D01*
X136766761Y-108442285D01*
X145934760Y-108442285D01*
X146145169Y-108951515D01*
X146292897Y-109099501D01*
X146214559Y-109149910D01*
X146069569Y-109362110D01*
X146018560Y-109614000D01*
X146018560Y-110922000D01*
X146062838Y-111157317D01*
X146201910Y-111373441D01*
X146314526Y-111450388D01*
X146227876Y-111536887D01*
X146031224Y-112010477D01*
X146030777Y-112523273D01*
X146226602Y-112997206D01*
X146497078Y-113268155D01*
X146227876Y-113536887D01*
X146031224Y-114010477D01*
X146030777Y-114523273D01*
X146226602Y-114997206D01*
X146479254Y-115250300D01*
X146146539Y-115582436D01*
X145935241Y-116091298D01*
X145934760Y-116642285D01*
X146145169Y-117151515D01*
X146534436Y-117541461D01*
X147043298Y-117752759D01*
X147594285Y-117753240D01*
X148103515Y-117542831D01*
X148493461Y-117153564D01*
X148704759Y-116644702D01*
X148704761Y-116642285D01*
X154316760Y-116642285D01*
X154527169Y-117151515D01*
X154916436Y-117541461D01*
X155425298Y-117752759D01*
X155976285Y-117753240D01*
X156485515Y-117542831D01*
X156875461Y-117153564D01*
X157086759Y-116644702D01*
X157087240Y-116093715D01*
X156876831Y-115584485D01*
X156487564Y-115194539D01*
X156421503Y-115167108D01*
X155702000Y-114447605D01*
X154983158Y-115166447D01*
X154918485Y-115193169D01*
X154528539Y-115582436D01*
X154317241Y-116091298D01*
X154316760Y-116642285D01*
X148704761Y-116642285D01*
X148705240Y-116093715D01*
X148494831Y-115584485D01*
X148160864Y-115249935D01*
X148412124Y-114999113D01*
X148608776Y-114525523D01*
X148609159Y-114086121D01*
X154400393Y-114086121D01*
X154429870Y-114598069D01*
X154569074Y-114934138D01*
X154800083Y-114990312D01*
X155522395Y-114268000D01*
X155881605Y-114268000D01*
X156603917Y-114990312D01*
X156834926Y-114934138D01*
X157003607Y-114449879D01*
X156974130Y-113937931D01*
X156834926Y-113601862D01*
X156603917Y-113545688D01*
X155881605Y-114268000D01*
X155522395Y-114268000D01*
X154800083Y-113545688D01*
X154569074Y-113601862D01*
X154400393Y-114086121D01*
X148609159Y-114086121D01*
X148609223Y-114012727D01*
X148413398Y-113538794D01*
X148142922Y-113267845D01*
X148412124Y-112999113D01*
X148608776Y-112525523D01*
X148609223Y-112012727D01*
X148413398Y-111538794D01*
X148325292Y-111450534D01*
X148425441Y-111386090D01*
X148570431Y-111173890D01*
X148621440Y-110922000D01*
X148621440Y-109614000D01*
X148577162Y-109378683D01*
X148438090Y-109162559D01*
X148346673Y-109100096D01*
X148493461Y-108953564D01*
X148704759Y-108444702D01*
X148704761Y-108442285D01*
X154316760Y-108442285D01*
X154527169Y-108951515D01*
X154674897Y-109099501D01*
X154596559Y-109149910D01*
X154451569Y-109362110D01*
X154400560Y-109614000D01*
X154400560Y-110922000D01*
X154444838Y-111157317D01*
X154583910Y-111373441D01*
X154696526Y-111450388D01*
X154609876Y-111536887D01*
X154413224Y-112010477D01*
X154412777Y-112523273D01*
X154608602Y-112997206D01*
X154970887Y-113360124D01*
X154980197Y-113363990D01*
X154979688Y-113366083D01*
X155702000Y-114088395D01*
X156424312Y-113366083D01*
X156423906Y-113364414D01*
X156431206Y-113361398D01*
X156794124Y-112999113D01*
X156990776Y-112525523D01*
X156991223Y-112012727D01*
X156795398Y-111538794D01*
X156707292Y-111450534D01*
X156807441Y-111386090D01*
X156952431Y-111173890D01*
X157003440Y-110922000D01*
X157003440Y-109614000D01*
X156959162Y-109378683D01*
X156820090Y-109162559D01*
X156728673Y-109100096D01*
X156875461Y-108953564D01*
X157086759Y-108444702D01*
X157086761Y-108442285D01*
X166254760Y-108442285D01*
X166465169Y-108951515D01*
X166612897Y-109099501D01*
X166534559Y-109149910D01*
X166389569Y-109362110D01*
X166338560Y-109614000D01*
X166338560Y-110922000D01*
X166382838Y-111157317D01*
X166521910Y-111373441D01*
X166634526Y-111450388D01*
X166547876Y-111536887D01*
X166351224Y-112010477D01*
X166350777Y-112523273D01*
X166546602Y-112997206D01*
X166817078Y-113268155D01*
X166547876Y-113536887D01*
X166351224Y-114010477D01*
X166350777Y-114523273D01*
X166546602Y-114997206D01*
X166799254Y-115250300D01*
X166466539Y-115582436D01*
X166255241Y-116091298D01*
X166254760Y-116642285D01*
X166465169Y-117151515D01*
X166854436Y-117541461D01*
X167363298Y-117752759D01*
X167914285Y-117753240D01*
X168423515Y-117542831D01*
X168813461Y-117153564D01*
X169024759Y-116644702D01*
X169024761Y-116642285D01*
X174636760Y-116642285D01*
X174847169Y-117151515D01*
X175236436Y-117541461D01*
X175745298Y-117752759D01*
X176296285Y-117753240D01*
X176805515Y-117542831D01*
X177195461Y-117153564D01*
X177406759Y-116644702D01*
X177407240Y-116093715D01*
X177196831Y-115584485D01*
X176807564Y-115194539D01*
X176741503Y-115167108D01*
X176022000Y-114447605D01*
X175303158Y-115166447D01*
X175238485Y-115193169D01*
X174848539Y-115582436D01*
X174637241Y-116091298D01*
X174636760Y-116642285D01*
X169024761Y-116642285D01*
X169025240Y-116093715D01*
X168814831Y-115584485D01*
X168480864Y-115249935D01*
X168732124Y-114999113D01*
X168928776Y-114525523D01*
X168929159Y-114086121D01*
X174720393Y-114086121D01*
X174749870Y-114598069D01*
X174889074Y-114934138D01*
X175120083Y-114990312D01*
X175842395Y-114268000D01*
X176201605Y-114268000D01*
X176923917Y-114990312D01*
X177154926Y-114934138D01*
X177323607Y-114449879D01*
X177294130Y-113937931D01*
X177154926Y-113601862D01*
X176923917Y-113545688D01*
X176201605Y-114268000D01*
X175842395Y-114268000D01*
X175120083Y-113545688D01*
X174889074Y-113601862D01*
X174720393Y-114086121D01*
X168929159Y-114086121D01*
X168929223Y-114012727D01*
X168733398Y-113538794D01*
X168462922Y-113267845D01*
X168732124Y-112999113D01*
X168928776Y-112525523D01*
X168929223Y-112012727D01*
X168733398Y-111538794D01*
X168645292Y-111450534D01*
X168745441Y-111386090D01*
X168890431Y-111173890D01*
X168941440Y-110922000D01*
X168941440Y-109614000D01*
X168897162Y-109378683D01*
X168758090Y-109162559D01*
X168666673Y-109100096D01*
X168813461Y-108953564D01*
X169024759Y-108444702D01*
X169024761Y-108442285D01*
X174636760Y-108442285D01*
X174847169Y-108951515D01*
X174994897Y-109099501D01*
X174916559Y-109149910D01*
X174771569Y-109362110D01*
X174720560Y-109614000D01*
X174720560Y-110922000D01*
X174764838Y-111157317D01*
X174903910Y-111373441D01*
X175016526Y-111450388D01*
X174929876Y-111536887D01*
X174733224Y-112010477D01*
X174732777Y-112523273D01*
X174928602Y-112997206D01*
X175290887Y-113360124D01*
X175300197Y-113363990D01*
X175299688Y-113366083D01*
X176022000Y-114088395D01*
X176744312Y-113366083D01*
X176743906Y-113364414D01*
X176751206Y-113361398D01*
X177114124Y-112999113D01*
X177310776Y-112525523D01*
X177311223Y-112012727D01*
X177115398Y-111538794D01*
X177027292Y-111450534D01*
X177127441Y-111386090D01*
X177272431Y-111173890D01*
X177323440Y-110922000D01*
X177323440Y-109614000D01*
X177279162Y-109378683D01*
X177140090Y-109162559D01*
X177048673Y-109100096D01*
X177195461Y-108953564D01*
X177406759Y-108444702D01*
X177406761Y-108442285D01*
X186574760Y-108442285D01*
X186785169Y-108951515D01*
X186932897Y-109099501D01*
X186854559Y-109149910D01*
X186709569Y-109362110D01*
X186658560Y-109614000D01*
X186658560Y-110922000D01*
X186702838Y-111157317D01*
X186841910Y-111373441D01*
X186954526Y-111450388D01*
X186867876Y-111536887D01*
X186671224Y-112010477D01*
X186670777Y-112523273D01*
X186866602Y-112997206D01*
X187137078Y-113268155D01*
X186867876Y-113536887D01*
X186671224Y-114010477D01*
X186670777Y-114523273D01*
X186866602Y-114997206D01*
X187119254Y-115250300D01*
X186786539Y-115582436D01*
X186575241Y-116091298D01*
X186574760Y-116642285D01*
X186785169Y-117151515D01*
X187174436Y-117541461D01*
X187683298Y-117752759D01*
X188234285Y-117753240D01*
X188743515Y-117542831D01*
X189133461Y-117153564D01*
X189344759Y-116644702D01*
X189344761Y-116642285D01*
X194956760Y-116642285D01*
X195167169Y-117151515D01*
X195556436Y-117541461D01*
X196065298Y-117752759D01*
X196616285Y-117753240D01*
X197125515Y-117542831D01*
X197515461Y-117153564D01*
X197726759Y-116644702D01*
X197727240Y-116093715D01*
X197516831Y-115584485D01*
X197127564Y-115194539D01*
X197061503Y-115167108D01*
X196342000Y-114447605D01*
X195623158Y-115166447D01*
X195558485Y-115193169D01*
X195168539Y-115582436D01*
X194957241Y-116091298D01*
X194956760Y-116642285D01*
X189344761Y-116642285D01*
X189345240Y-116093715D01*
X189134831Y-115584485D01*
X188800864Y-115249935D01*
X189052124Y-114999113D01*
X189248776Y-114525523D01*
X189249159Y-114086121D01*
X195040393Y-114086121D01*
X195069870Y-114598069D01*
X195209074Y-114934138D01*
X195440083Y-114990312D01*
X196162395Y-114268000D01*
X196521605Y-114268000D01*
X197243917Y-114990312D01*
X197474926Y-114934138D01*
X197643607Y-114449879D01*
X197614130Y-113937931D01*
X197474926Y-113601862D01*
X197243917Y-113545688D01*
X196521605Y-114268000D01*
X196162395Y-114268000D01*
X195440083Y-113545688D01*
X195209074Y-113601862D01*
X195040393Y-114086121D01*
X189249159Y-114086121D01*
X189249223Y-114012727D01*
X189053398Y-113538794D01*
X188782922Y-113267845D01*
X189052124Y-112999113D01*
X189248776Y-112525523D01*
X189249223Y-112012727D01*
X189053398Y-111538794D01*
X188965292Y-111450534D01*
X189065441Y-111386090D01*
X189210431Y-111173890D01*
X189261440Y-110922000D01*
X189261440Y-109614000D01*
X189217162Y-109378683D01*
X189078090Y-109162559D01*
X188986673Y-109100096D01*
X189133461Y-108953564D01*
X189344759Y-108444702D01*
X189344761Y-108442285D01*
X194956760Y-108442285D01*
X195167169Y-108951515D01*
X195314897Y-109099501D01*
X195236559Y-109149910D01*
X195091569Y-109362110D01*
X195040560Y-109614000D01*
X195040560Y-110922000D01*
X195084838Y-111157317D01*
X195223910Y-111373441D01*
X195336526Y-111450388D01*
X195249876Y-111536887D01*
X195053224Y-112010477D01*
X195052777Y-112523273D01*
X195248602Y-112997206D01*
X195610887Y-113360124D01*
X195620197Y-113363990D01*
X195619688Y-113366083D01*
X196342000Y-114088395D01*
X197064312Y-113366083D01*
X197063906Y-113364414D01*
X197071206Y-113361398D01*
X197434124Y-112999113D01*
X197630776Y-112525523D01*
X197631223Y-112012727D01*
X197435398Y-111538794D01*
X197347292Y-111450534D01*
X197447441Y-111386090D01*
X197592431Y-111173890D01*
X197643440Y-110922000D01*
X197643440Y-109614000D01*
X197599162Y-109378683D01*
X197460090Y-109162559D01*
X197368673Y-109100096D01*
X197515461Y-108953564D01*
X197726759Y-108444702D01*
X197727240Y-107893715D01*
X197516831Y-107384485D01*
X197127564Y-106994539D01*
X196618702Y-106783241D01*
X196067715Y-106782760D01*
X195558485Y-106993169D01*
X195168539Y-107382436D01*
X194957241Y-107891298D01*
X194956760Y-108442285D01*
X189344761Y-108442285D01*
X189345240Y-107893715D01*
X189134831Y-107384485D01*
X188745564Y-106994539D01*
X188236702Y-106783241D01*
X187685715Y-106782760D01*
X187176485Y-106993169D01*
X186786539Y-107382436D01*
X186575241Y-107891298D01*
X186574760Y-108442285D01*
X177406761Y-108442285D01*
X177407240Y-107893715D01*
X177196831Y-107384485D01*
X176807564Y-106994539D01*
X176298702Y-106783241D01*
X175747715Y-106782760D01*
X175238485Y-106993169D01*
X174848539Y-107382436D01*
X174637241Y-107891298D01*
X174636760Y-108442285D01*
X169024761Y-108442285D01*
X169025240Y-107893715D01*
X168814831Y-107384485D01*
X168425564Y-106994539D01*
X167916702Y-106783241D01*
X167365715Y-106782760D01*
X166856485Y-106993169D01*
X166466539Y-107382436D01*
X166255241Y-107891298D01*
X166254760Y-108442285D01*
X157086761Y-108442285D01*
X157087240Y-107893715D01*
X156876831Y-107384485D01*
X156487564Y-106994539D01*
X155978702Y-106783241D01*
X155427715Y-106782760D01*
X154918485Y-106993169D01*
X154528539Y-107382436D01*
X154317241Y-107891298D01*
X154316760Y-108442285D01*
X148704761Y-108442285D01*
X148705240Y-107893715D01*
X148494831Y-107384485D01*
X148105564Y-106994539D01*
X147596702Y-106783241D01*
X147045715Y-106782760D01*
X146536485Y-106993169D01*
X146146539Y-107382436D01*
X145935241Y-107891298D01*
X145934760Y-108442285D01*
X136766761Y-108442285D01*
X136767240Y-107893715D01*
X136556831Y-107384485D01*
X136167564Y-106994539D01*
X135658702Y-106783241D01*
X135107715Y-106782760D01*
X134598485Y-106993169D01*
X134208539Y-107382436D01*
X133997241Y-107891298D01*
X133996760Y-108442285D01*
X128384761Y-108442285D01*
X128385240Y-107893715D01*
X128174831Y-107384485D01*
X127785564Y-106994539D01*
X127276702Y-106783241D01*
X126725715Y-106782760D01*
X126216485Y-106993169D01*
X125826539Y-107382436D01*
X125615241Y-107891298D01*
X125614760Y-108442285D01*
X116446761Y-108442285D01*
X116447240Y-107893715D01*
X116236831Y-107384485D01*
X115847564Y-106994539D01*
X115338702Y-106783241D01*
X114787715Y-106782760D01*
X114278485Y-106993169D01*
X113888539Y-107382436D01*
X113677241Y-107891298D01*
X113676760Y-108442285D01*
X108064761Y-108442285D01*
X108065240Y-107893715D01*
X107854831Y-107384485D01*
X107465564Y-106994539D01*
X106956702Y-106783241D01*
X106405715Y-106782760D01*
X105896485Y-106993169D01*
X105506539Y-107382436D01*
X105295241Y-107891298D01*
X105294760Y-108442285D01*
X96126761Y-108442285D01*
X96127240Y-107893715D01*
X95916831Y-107384485D01*
X95527564Y-106994539D01*
X95018702Y-106783241D01*
X94467715Y-106782760D01*
X93958485Y-106993169D01*
X93568539Y-107382436D01*
X93357241Y-107891298D01*
X93356760Y-108442285D01*
X87744761Y-108442285D01*
X87745240Y-107893715D01*
X87534831Y-107384485D01*
X87145564Y-106994539D01*
X86636702Y-106783241D01*
X86085715Y-106782760D01*
X85576485Y-106993169D01*
X85186539Y-107382436D01*
X84975241Y-107891298D01*
X84974760Y-108442285D01*
X75806761Y-108442285D01*
X75807240Y-107893715D01*
X75596831Y-107384485D01*
X75207564Y-106994539D01*
X74698702Y-106783241D01*
X74147715Y-106782760D01*
X73638485Y-106993169D01*
X73248539Y-107382436D01*
X73037241Y-107891298D01*
X73036760Y-108442285D01*
X67424761Y-108442285D01*
X67425240Y-107893715D01*
X67214831Y-107384485D01*
X66825564Y-106994539D01*
X66316702Y-106783241D01*
X65765715Y-106782760D01*
X65256485Y-106993169D01*
X64866539Y-107382436D01*
X64655241Y-107891298D01*
X64654760Y-108442285D01*
X55486761Y-108442285D01*
X55487240Y-107893715D01*
X55276831Y-107384485D01*
X54887564Y-106994539D01*
X54378702Y-106783241D01*
X53827715Y-106782760D01*
X53318485Y-106993169D01*
X52928539Y-107382436D01*
X52717241Y-107891298D01*
X52716760Y-108442285D01*
X47104761Y-108442285D01*
X47105240Y-107893715D01*
X46894831Y-107384485D01*
X46505564Y-106994539D01*
X45996702Y-106783241D01*
X45445715Y-106782760D01*
X44936485Y-106993169D01*
X44546539Y-107382436D01*
X44335241Y-107891298D01*
X44334760Y-108442285D01*
X21005000Y-108442285D01*
X21005000Y-105595167D01*
X44784838Y-105595167D01*
X44926883Y-105938943D01*
X45189673Y-106202192D01*
X45533201Y-106344838D01*
X45905167Y-106345162D01*
X46248943Y-106203117D01*
X46282118Y-106170000D01*
X54047537Y-106170000D01*
X54079673Y-106202192D01*
X54423201Y-106344838D01*
X54795167Y-106345162D01*
X55138943Y-106203117D01*
X55402192Y-105940327D01*
X55544838Y-105596799D01*
X55544839Y-105595167D01*
X65104838Y-105595167D01*
X65246883Y-105938943D01*
X65509673Y-106202192D01*
X65853201Y-106344838D01*
X66225167Y-106345162D01*
X66568943Y-106203117D01*
X66602118Y-106170000D01*
X74367537Y-106170000D01*
X74399673Y-106202192D01*
X74743201Y-106344838D01*
X75115167Y-106345162D01*
X75458943Y-106203117D01*
X75722192Y-105940327D01*
X75864838Y-105596799D01*
X75864839Y-105595167D01*
X85424838Y-105595167D01*
X85566883Y-105938943D01*
X85829673Y-106202192D01*
X86173201Y-106344838D01*
X86545167Y-106345162D01*
X86888943Y-106203117D01*
X86922118Y-106170000D01*
X94687537Y-106170000D01*
X94719673Y-106202192D01*
X95063201Y-106344838D01*
X95435167Y-106345162D01*
X95778943Y-106203117D01*
X96042192Y-105940327D01*
X96184838Y-105596799D01*
X96184839Y-105595167D01*
X105744838Y-105595167D01*
X105886883Y-105938943D01*
X106149673Y-106202192D01*
X106493201Y-106344838D01*
X106865167Y-106345162D01*
X107208943Y-106203117D01*
X107242118Y-106170000D01*
X115007537Y-106170000D01*
X115039673Y-106202192D01*
X115383201Y-106344838D01*
X115755167Y-106345162D01*
X116098943Y-106203117D01*
X116362192Y-105940327D01*
X116504838Y-105596799D01*
X116504839Y-105595167D01*
X126064838Y-105595167D01*
X126206883Y-105938943D01*
X126469673Y-106202192D01*
X126813201Y-106344838D01*
X127185167Y-106345162D01*
X127528943Y-106203117D01*
X127562118Y-106170000D01*
X135327537Y-106170000D01*
X135359673Y-106202192D01*
X135703201Y-106344838D01*
X136075167Y-106345162D01*
X136418943Y-106203117D01*
X136682192Y-105940327D01*
X136824838Y-105596799D01*
X136824839Y-105595167D01*
X146384838Y-105595167D01*
X146526883Y-105938943D01*
X146789673Y-106202192D01*
X147133201Y-106344838D01*
X147505167Y-106345162D01*
X147848943Y-106203117D01*
X147882118Y-106170000D01*
X155647537Y-106170000D01*
X155679673Y-106202192D01*
X156023201Y-106344838D01*
X156395167Y-106345162D01*
X156738943Y-106203117D01*
X157002192Y-105940327D01*
X157144838Y-105596799D01*
X157144839Y-105595167D01*
X166704838Y-105595167D01*
X166846883Y-105938943D01*
X167109673Y-106202192D01*
X167453201Y-106344838D01*
X167825167Y-106345162D01*
X168168943Y-106203117D01*
X168202118Y-106170000D01*
X175967537Y-106170000D01*
X175999673Y-106202192D01*
X176343201Y-106344838D01*
X176715167Y-106345162D01*
X177058943Y-106203117D01*
X177322192Y-105940327D01*
X177464838Y-105596799D01*
X177465162Y-105224833D01*
X177323117Y-104881057D01*
X177060327Y-104617808D01*
X176716799Y-104475162D01*
X176344833Y-104474838D01*
X176001057Y-104616883D01*
X175967882Y-104650000D01*
X168202463Y-104650000D01*
X168170327Y-104617808D01*
X167826799Y-104475162D01*
X167454833Y-104474838D01*
X167111057Y-104616883D01*
X166847808Y-104879673D01*
X166705162Y-105223201D01*
X166704838Y-105595167D01*
X157144839Y-105595167D01*
X157145162Y-105224833D01*
X157003117Y-104881057D01*
X156740327Y-104617808D01*
X156396799Y-104475162D01*
X156024833Y-104474838D01*
X155681057Y-104616883D01*
X155647882Y-104650000D01*
X147882463Y-104650000D01*
X147850327Y-104617808D01*
X147506799Y-104475162D01*
X147134833Y-104474838D01*
X146791057Y-104616883D01*
X146527808Y-104879673D01*
X146385162Y-105223201D01*
X146384838Y-105595167D01*
X136824839Y-105595167D01*
X136825162Y-105224833D01*
X136683117Y-104881057D01*
X136420327Y-104617808D01*
X136076799Y-104475162D01*
X135704833Y-104474838D01*
X135361057Y-104616883D01*
X135327882Y-104650000D01*
X127562463Y-104650000D01*
X127530327Y-104617808D01*
X127186799Y-104475162D01*
X126814833Y-104474838D01*
X126471057Y-104616883D01*
X126207808Y-104879673D01*
X126065162Y-105223201D01*
X126064838Y-105595167D01*
X116504839Y-105595167D01*
X116505162Y-105224833D01*
X116363117Y-104881057D01*
X116100327Y-104617808D01*
X115756799Y-104475162D01*
X115384833Y-104474838D01*
X115041057Y-104616883D01*
X115007882Y-104650000D01*
X107242463Y-104650000D01*
X107210327Y-104617808D01*
X106866799Y-104475162D01*
X106494833Y-104474838D01*
X106151057Y-104616883D01*
X105887808Y-104879673D01*
X105745162Y-105223201D01*
X105744838Y-105595167D01*
X96184839Y-105595167D01*
X96185162Y-105224833D01*
X96043117Y-104881057D01*
X95780327Y-104617808D01*
X95436799Y-104475162D01*
X95064833Y-104474838D01*
X94721057Y-104616883D01*
X94687882Y-104650000D01*
X86922463Y-104650000D01*
X86890327Y-104617808D01*
X86546799Y-104475162D01*
X86174833Y-104474838D01*
X85831057Y-104616883D01*
X85567808Y-104879673D01*
X85425162Y-105223201D01*
X85424838Y-105595167D01*
X75864839Y-105595167D01*
X75865162Y-105224833D01*
X75723117Y-104881057D01*
X75460327Y-104617808D01*
X75116799Y-104475162D01*
X74744833Y-104474838D01*
X74401057Y-104616883D01*
X74367882Y-104650000D01*
X66602463Y-104650000D01*
X66570327Y-104617808D01*
X66226799Y-104475162D01*
X65854833Y-104474838D01*
X65511057Y-104616883D01*
X65247808Y-104879673D01*
X65105162Y-105223201D01*
X65104838Y-105595167D01*
X55544839Y-105595167D01*
X55545162Y-105224833D01*
X55403117Y-104881057D01*
X55140327Y-104617808D01*
X54796799Y-104475162D01*
X54424833Y-104474838D01*
X54081057Y-104616883D01*
X54047882Y-104650000D01*
X46282463Y-104650000D01*
X46250327Y-104617808D01*
X45906799Y-104475162D01*
X45534833Y-104474838D01*
X45191057Y-104616883D01*
X44927808Y-104879673D01*
X44785162Y-105223201D01*
X44784838Y-105595167D01*
X21005000Y-105595167D01*
X21005000Y-101788619D01*
X24434613Y-101788619D01*
X24774155Y-102610372D01*
X25402321Y-103239636D01*
X26223481Y-103580611D01*
X27112619Y-103581387D01*
X27934372Y-103241845D01*
X28563636Y-102613679D01*
X28904611Y-101792519D01*
X28904689Y-101702892D01*
X33356514Y-101702892D01*
X33602817Y-102227358D01*
X34031076Y-102617645D01*
X34441110Y-102787476D01*
X34671000Y-102666155D01*
X34671000Y-101473000D01*
X33477181Y-101473000D01*
X33356514Y-101702892D01*
X28904689Y-101702892D01*
X28905312Y-100989108D01*
X33356514Y-100989108D01*
X33477181Y-101219000D01*
X34671000Y-101219000D01*
X34671000Y-100025845D01*
X34925000Y-100025845D01*
X34925000Y-101219000D01*
X34945000Y-101219000D01*
X34945000Y-101473000D01*
X34925000Y-101473000D01*
X34925000Y-102666155D01*
X35154890Y-102787476D01*
X35564924Y-102617645D01*
X35867937Y-102341499D01*
X35884838Y-102431317D01*
X36023910Y-102647441D01*
X36236110Y-102792431D01*
X36488000Y-102843440D01*
X38188000Y-102843440D01*
X38423317Y-102799162D01*
X38639441Y-102660090D01*
X38784431Y-102447890D01*
X38835440Y-102196000D01*
X38835440Y-100496000D01*
X46000560Y-100496000D01*
X46000560Y-102196000D01*
X46044838Y-102431317D01*
X46183910Y-102647441D01*
X46396110Y-102792431D01*
X46648000Y-102843440D01*
X48348000Y-102843440D01*
X48583317Y-102799162D01*
X48799441Y-102660090D01*
X48944431Y-102447890D01*
X48958086Y-102380459D01*
X48987946Y-102425147D01*
X49469715Y-102747054D01*
X50038000Y-102860093D01*
X50606285Y-102747054D01*
X51088054Y-102425147D01*
X51308000Y-102095974D01*
X51527946Y-102425147D01*
X52009715Y-102747054D01*
X52578000Y-102860093D01*
X53146285Y-102747054D01*
X53628054Y-102425147D01*
X53949961Y-101943378D01*
X54063000Y-101375093D01*
X54063000Y-101316907D01*
X53949961Y-100748622D01*
X53781165Y-100496000D01*
X66320560Y-100496000D01*
X66320560Y-102196000D01*
X66364838Y-102431317D01*
X66503910Y-102647441D01*
X66716110Y-102792431D01*
X66968000Y-102843440D01*
X68668000Y-102843440D01*
X68903317Y-102799162D01*
X69119441Y-102660090D01*
X69264431Y-102447890D01*
X69278086Y-102380459D01*
X69307946Y-102425147D01*
X69789715Y-102747054D01*
X70358000Y-102860093D01*
X70926285Y-102747054D01*
X71408054Y-102425147D01*
X71628000Y-102095974D01*
X71847946Y-102425147D01*
X72329715Y-102747054D01*
X72898000Y-102860093D01*
X73466285Y-102747054D01*
X73948054Y-102425147D01*
X74269961Y-101943378D01*
X74383000Y-101375093D01*
X74383000Y-101316907D01*
X74269961Y-100748622D01*
X74101165Y-100496000D01*
X86640560Y-100496000D01*
X86640560Y-102196000D01*
X86684838Y-102431317D01*
X86823910Y-102647441D01*
X87036110Y-102792431D01*
X87288000Y-102843440D01*
X88988000Y-102843440D01*
X89223317Y-102799162D01*
X89439441Y-102660090D01*
X89584431Y-102447890D01*
X89598086Y-102380459D01*
X89627946Y-102425147D01*
X90109715Y-102747054D01*
X90678000Y-102860093D01*
X91246285Y-102747054D01*
X91728054Y-102425147D01*
X91948000Y-102095974D01*
X92167946Y-102425147D01*
X92649715Y-102747054D01*
X93218000Y-102860093D01*
X93786285Y-102747054D01*
X94268054Y-102425147D01*
X94589961Y-101943378D01*
X94703000Y-101375093D01*
X94703000Y-101316907D01*
X94589961Y-100748622D01*
X94421165Y-100496000D01*
X106960560Y-100496000D01*
X106960560Y-102196000D01*
X107004838Y-102431317D01*
X107143910Y-102647441D01*
X107356110Y-102792431D01*
X107608000Y-102843440D01*
X109308000Y-102843440D01*
X109543317Y-102799162D01*
X109759441Y-102660090D01*
X109904431Y-102447890D01*
X109918086Y-102380459D01*
X109947946Y-102425147D01*
X110429715Y-102747054D01*
X110998000Y-102860093D01*
X111566285Y-102747054D01*
X112048054Y-102425147D01*
X112268000Y-102095974D01*
X112487946Y-102425147D01*
X112969715Y-102747054D01*
X113538000Y-102860093D01*
X114106285Y-102747054D01*
X114588054Y-102425147D01*
X114909961Y-101943378D01*
X114991268Y-101534619D01*
X118922613Y-101534619D01*
X119262155Y-102356372D01*
X119890321Y-102985636D01*
X120711481Y-103326611D01*
X121600619Y-103327387D01*
X122422372Y-102987845D01*
X123051636Y-102359679D01*
X123392611Y-101538519D01*
X123393387Y-100649381D01*
X123330012Y-100496000D01*
X127280560Y-100496000D01*
X127280560Y-102196000D01*
X127324838Y-102431317D01*
X127463910Y-102647441D01*
X127676110Y-102792431D01*
X127928000Y-102843440D01*
X129628000Y-102843440D01*
X129863317Y-102799162D01*
X130079441Y-102660090D01*
X130224431Y-102447890D01*
X130238086Y-102380459D01*
X130267946Y-102425147D01*
X130749715Y-102747054D01*
X131318000Y-102860093D01*
X131886285Y-102747054D01*
X132368054Y-102425147D01*
X132588000Y-102095974D01*
X132807946Y-102425147D01*
X133289715Y-102747054D01*
X133858000Y-102860093D01*
X134426285Y-102747054D01*
X134908054Y-102425147D01*
X135229961Y-101943378D01*
X135343000Y-101375093D01*
X135343000Y-101316907D01*
X135229961Y-100748622D01*
X135061165Y-100496000D01*
X147600560Y-100496000D01*
X147600560Y-102196000D01*
X147644838Y-102431317D01*
X147783910Y-102647441D01*
X147996110Y-102792431D01*
X148248000Y-102843440D01*
X149948000Y-102843440D01*
X150183317Y-102799162D01*
X150399441Y-102660090D01*
X150544431Y-102447890D01*
X150558086Y-102380459D01*
X150587946Y-102425147D01*
X151069715Y-102747054D01*
X151638000Y-102860093D01*
X152206285Y-102747054D01*
X152688054Y-102425147D01*
X152908000Y-102095974D01*
X153127946Y-102425147D01*
X153609715Y-102747054D01*
X154178000Y-102860093D01*
X154746285Y-102747054D01*
X155228054Y-102425147D01*
X155549961Y-101943378D01*
X155663000Y-101375093D01*
X155663000Y-101316907D01*
X155549961Y-100748622D01*
X155381165Y-100496000D01*
X167920560Y-100496000D01*
X167920560Y-102196000D01*
X167964838Y-102431317D01*
X168103910Y-102647441D01*
X168316110Y-102792431D01*
X168568000Y-102843440D01*
X170268000Y-102843440D01*
X170503317Y-102799162D01*
X170719441Y-102660090D01*
X170864431Y-102447890D01*
X170878086Y-102380459D01*
X170907946Y-102425147D01*
X171389715Y-102747054D01*
X171958000Y-102860093D01*
X172526285Y-102747054D01*
X173008054Y-102425147D01*
X173228000Y-102095974D01*
X173447946Y-102425147D01*
X173929715Y-102747054D01*
X174498000Y-102860093D01*
X175066285Y-102747054D01*
X175548054Y-102425147D01*
X175869961Y-101943378D01*
X175983000Y-101375093D01*
X175983000Y-101316907D01*
X175869961Y-100748622D01*
X175701165Y-100496000D01*
X188240560Y-100496000D01*
X188240560Y-102196000D01*
X188284838Y-102431317D01*
X188423910Y-102647441D01*
X188636110Y-102792431D01*
X188888000Y-102843440D01*
X190588000Y-102843440D01*
X190823317Y-102799162D01*
X191039441Y-102660090D01*
X191184431Y-102447890D01*
X191198086Y-102380459D01*
X191227946Y-102425147D01*
X191709715Y-102747054D01*
X192278000Y-102860093D01*
X192846285Y-102747054D01*
X193328054Y-102425147D01*
X193548000Y-102095974D01*
X193767946Y-102425147D01*
X194249715Y-102747054D01*
X194818000Y-102860093D01*
X195386285Y-102747054D01*
X195868054Y-102425147D01*
X196189961Y-101943378D01*
X196271268Y-101534619D01*
X202742613Y-101534619D01*
X203082155Y-102356372D01*
X203710321Y-102985636D01*
X204531481Y-103326611D01*
X205420619Y-103327387D01*
X206242372Y-102987845D01*
X206871636Y-102359679D01*
X207212611Y-101538519D01*
X207213387Y-100649381D01*
X206873845Y-99827628D01*
X206245679Y-99198364D01*
X205424519Y-98857389D01*
X204535381Y-98856613D01*
X203713628Y-99196155D01*
X203084364Y-99824321D01*
X202743389Y-100645481D01*
X202742613Y-101534619D01*
X196271268Y-101534619D01*
X196303000Y-101375093D01*
X196303000Y-101316907D01*
X196189961Y-100748622D01*
X195868054Y-100266853D01*
X195386285Y-99944946D01*
X194818000Y-99831907D01*
X194249715Y-99944946D01*
X193767946Y-100266853D01*
X193548000Y-100596026D01*
X193328054Y-100266853D01*
X192846285Y-99944946D01*
X192278000Y-99831907D01*
X191709715Y-99944946D01*
X191227946Y-100266853D01*
X191200150Y-100308452D01*
X191191162Y-100260683D01*
X191052090Y-100044559D01*
X190839890Y-99899569D01*
X190588000Y-99848560D01*
X188888000Y-99848560D01*
X188652683Y-99892838D01*
X188436559Y-100031910D01*
X188291569Y-100244110D01*
X188240560Y-100496000D01*
X175701165Y-100496000D01*
X175548054Y-100266853D01*
X175066285Y-99944946D01*
X174498000Y-99831907D01*
X173929715Y-99944946D01*
X173447946Y-100266853D01*
X173228000Y-100596026D01*
X173008054Y-100266853D01*
X172526285Y-99944946D01*
X171958000Y-99831907D01*
X171389715Y-99944946D01*
X170907946Y-100266853D01*
X170880150Y-100308452D01*
X170871162Y-100260683D01*
X170732090Y-100044559D01*
X170519890Y-99899569D01*
X170268000Y-99848560D01*
X168568000Y-99848560D01*
X168332683Y-99892838D01*
X168116559Y-100031910D01*
X167971569Y-100244110D01*
X167920560Y-100496000D01*
X155381165Y-100496000D01*
X155228054Y-100266853D01*
X154746285Y-99944946D01*
X154178000Y-99831907D01*
X153609715Y-99944946D01*
X153127946Y-100266853D01*
X152908000Y-100596026D01*
X152688054Y-100266853D01*
X152206285Y-99944946D01*
X151638000Y-99831907D01*
X151069715Y-99944946D01*
X150587946Y-100266853D01*
X150560150Y-100308452D01*
X150551162Y-100260683D01*
X150412090Y-100044559D01*
X150199890Y-99899569D01*
X149948000Y-99848560D01*
X148248000Y-99848560D01*
X148012683Y-99892838D01*
X147796559Y-100031910D01*
X147651569Y-100244110D01*
X147600560Y-100496000D01*
X135061165Y-100496000D01*
X134908054Y-100266853D01*
X134426285Y-99944946D01*
X133858000Y-99831907D01*
X133289715Y-99944946D01*
X132807946Y-100266853D01*
X132588000Y-100596026D01*
X132368054Y-100266853D01*
X131886285Y-99944946D01*
X131318000Y-99831907D01*
X130749715Y-99944946D01*
X130267946Y-100266853D01*
X130240150Y-100308452D01*
X130231162Y-100260683D01*
X130092090Y-100044559D01*
X129879890Y-99899569D01*
X129628000Y-99848560D01*
X127928000Y-99848560D01*
X127692683Y-99892838D01*
X127476559Y-100031910D01*
X127331569Y-100244110D01*
X127280560Y-100496000D01*
X123330012Y-100496000D01*
X123053845Y-99827628D01*
X122425679Y-99198364D01*
X121604519Y-98857389D01*
X120715381Y-98856613D01*
X119893628Y-99196155D01*
X119264364Y-99824321D01*
X118923389Y-100645481D01*
X118922613Y-101534619D01*
X114991268Y-101534619D01*
X115023000Y-101375093D01*
X115023000Y-101316907D01*
X114909961Y-100748622D01*
X114588054Y-100266853D01*
X114106285Y-99944946D01*
X113538000Y-99831907D01*
X112969715Y-99944946D01*
X112487946Y-100266853D01*
X112268000Y-100596026D01*
X112048054Y-100266853D01*
X111566285Y-99944946D01*
X110998000Y-99831907D01*
X110429715Y-99944946D01*
X109947946Y-100266853D01*
X109920150Y-100308452D01*
X109911162Y-100260683D01*
X109772090Y-100044559D01*
X109559890Y-99899569D01*
X109308000Y-99848560D01*
X107608000Y-99848560D01*
X107372683Y-99892838D01*
X107156559Y-100031910D01*
X107011569Y-100244110D01*
X106960560Y-100496000D01*
X94421165Y-100496000D01*
X94268054Y-100266853D01*
X93786285Y-99944946D01*
X93218000Y-99831907D01*
X92649715Y-99944946D01*
X92167946Y-100266853D01*
X91948000Y-100596026D01*
X91728054Y-100266853D01*
X91246285Y-99944946D01*
X90678000Y-99831907D01*
X90109715Y-99944946D01*
X89627946Y-100266853D01*
X89600150Y-100308452D01*
X89591162Y-100260683D01*
X89452090Y-100044559D01*
X89239890Y-99899569D01*
X88988000Y-99848560D01*
X87288000Y-99848560D01*
X87052683Y-99892838D01*
X86836559Y-100031910D01*
X86691569Y-100244110D01*
X86640560Y-100496000D01*
X74101165Y-100496000D01*
X73948054Y-100266853D01*
X73466285Y-99944946D01*
X72898000Y-99831907D01*
X72329715Y-99944946D01*
X71847946Y-100266853D01*
X71628000Y-100596026D01*
X71408054Y-100266853D01*
X70926285Y-99944946D01*
X70358000Y-99831907D01*
X69789715Y-99944946D01*
X69307946Y-100266853D01*
X69280150Y-100308452D01*
X69271162Y-100260683D01*
X69132090Y-100044559D01*
X68919890Y-99899569D01*
X68668000Y-99848560D01*
X66968000Y-99848560D01*
X66732683Y-99892838D01*
X66516559Y-100031910D01*
X66371569Y-100244110D01*
X66320560Y-100496000D01*
X53781165Y-100496000D01*
X53628054Y-100266853D01*
X53146285Y-99944946D01*
X52578000Y-99831907D01*
X52009715Y-99944946D01*
X51527946Y-100266853D01*
X51308000Y-100596026D01*
X51088054Y-100266853D01*
X50606285Y-99944946D01*
X50038000Y-99831907D01*
X49469715Y-99944946D01*
X48987946Y-100266853D01*
X48960150Y-100308452D01*
X48951162Y-100260683D01*
X48812090Y-100044559D01*
X48599890Y-99899569D01*
X48348000Y-99848560D01*
X46648000Y-99848560D01*
X46412683Y-99892838D01*
X46196559Y-100031910D01*
X46051569Y-100244110D01*
X46000560Y-100496000D01*
X38835440Y-100496000D01*
X38791162Y-100260683D01*
X38652090Y-100044559D01*
X38439890Y-99899569D01*
X38188000Y-99848560D01*
X36488000Y-99848560D01*
X36252683Y-99892838D01*
X36036559Y-100031910D01*
X35891569Y-100244110D01*
X35869699Y-100352107D01*
X35564924Y-100074355D01*
X35154890Y-99904524D01*
X34925000Y-100025845D01*
X34671000Y-100025845D01*
X34441110Y-99904524D01*
X34031076Y-100074355D01*
X33602817Y-100464642D01*
X33356514Y-100989108D01*
X28905312Y-100989108D01*
X28905387Y-100903381D01*
X28565845Y-100081628D01*
X27937679Y-99452364D01*
X27116519Y-99111389D01*
X26227381Y-99110613D01*
X25405628Y-99450155D01*
X24776364Y-100078321D01*
X24435389Y-100899481D01*
X24434613Y-101788619D01*
X21005000Y-101788619D01*
X21005000Y-97205000D01*
X210135000Y-97205000D01*
X210135000Y-141555000D01*
X210135000Y-141555000D01*
G37*
X210135000Y-141555000D02*
X21005000Y-141555000D01*
X21005000Y-137094619D01*
X24180613Y-137094619D01*
X24520155Y-137916372D01*
X25148321Y-138545636D01*
X25969481Y-138886611D01*
X26858619Y-138887387D01*
X27680372Y-138547845D01*
X28309636Y-137919679D01*
X28650611Y-137098519D01*
X28650614Y-137094619D01*
X118922613Y-137094619D01*
X119262155Y-137916372D01*
X119890321Y-138545636D01*
X120711481Y-138886611D01*
X121600619Y-138887387D01*
X122422372Y-138547845D01*
X123051636Y-137919679D01*
X123392611Y-137098519D01*
X123392614Y-137094619D01*
X202742613Y-137094619D01*
X203082155Y-137916372D01*
X203710321Y-138545636D01*
X204531481Y-138886611D01*
X205420619Y-138887387D01*
X206242372Y-138547845D01*
X206871636Y-137919679D01*
X207212611Y-137098519D01*
X207213387Y-136209381D01*
X206873845Y-135387628D01*
X206245679Y-134758364D01*
X205424519Y-134417389D01*
X204535381Y-134416613D01*
X203713628Y-134756155D01*
X203084364Y-135384321D01*
X202743389Y-136205481D01*
X202742613Y-137094619D01*
X123392614Y-137094619D01*
X123393387Y-136209381D01*
X123053845Y-135387628D01*
X122425679Y-134758364D01*
X121604519Y-134417389D01*
X120715381Y-134416613D01*
X119893628Y-134756155D01*
X119264364Y-135384321D01*
X118923389Y-136205481D01*
X118922613Y-137094619D01*
X28650614Y-137094619D01*
X28651387Y-136209381D01*
X28311845Y-135387628D01*
X27683679Y-134758364D01*
X26862519Y-134417389D01*
X25973381Y-134416613D01*
X25151628Y-134756155D01*
X24522364Y-135384321D01*
X24181389Y-136205481D01*
X24180613Y-137094619D01*
X21005000Y-137094619D01*
X21005000Y-129187834D01*
X42962543Y-129187834D01*
X43362853Y-130156658D01*
X44103443Y-130898542D01*
X45071567Y-131300542D01*
X46119834Y-131301457D01*
X47088658Y-130901147D01*
X47830542Y-130160557D01*
X48232542Y-129192433D01*
X48232546Y-129187834D01*
X51762543Y-129187834D01*
X52162853Y-130156658D01*
X52903443Y-130898542D01*
X53871567Y-131300542D01*
X54919834Y-131301457D01*
X55888658Y-130901147D01*
X56630542Y-130160557D01*
X57032542Y-129192433D01*
X57032546Y-129187834D01*
X63282543Y-129187834D01*
X63682853Y-130156658D01*
X64423443Y-130898542D01*
X65391567Y-131300542D01*
X66439834Y-131301457D01*
X67408658Y-130901147D01*
X68150542Y-130160557D01*
X68552542Y-129192433D01*
X68552546Y-129187834D01*
X72082543Y-129187834D01*
X72482853Y-130156658D01*
X73223443Y-130898542D01*
X74191567Y-131300542D01*
X75239834Y-131301457D01*
X76208658Y-130901147D01*
X76950542Y-130160557D01*
X77352542Y-129192433D01*
X77352546Y-129187834D01*
X83602543Y-129187834D01*
X84002853Y-130156658D01*
X84743443Y-130898542D01*
X85711567Y-131300542D01*
X86759834Y-131301457D01*
X87728658Y-130901147D01*
X88470542Y-130160557D01*
X88872542Y-129192433D01*
X88872546Y-129187834D01*
X92402543Y-129187834D01*
X92802853Y-130156658D01*
X93543443Y-130898542D01*
X94511567Y-131300542D01*
X95559834Y-131301457D01*
X96528658Y-130901147D01*
X97270542Y-130160557D01*
X97672542Y-129192433D01*
X97672546Y-129187834D01*
X103922543Y-129187834D01*
X104322853Y-130156658D01*
X105063443Y-130898542D01*
X106031567Y-131300542D01*
X107079834Y-131301457D01*
X108048658Y-130901147D01*
X108790542Y-130160557D01*
X109192542Y-129192433D01*
X109192546Y-129187834D01*
X112722543Y-129187834D01*
X113122853Y-130156658D01*
X113863443Y-130898542D01*
X114831567Y-131300542D01*
X115879834Y-131301457D01*
X116848658Y-130901147D01*
X117590542Y-130160557D01*
X117992542Y-129192433D01*
X117992546Y-129187834D01*
X124242543Y-129187834D01*
X124642853Y-130156658D01*
X125383443Y-130898542D01*
X126351567Y-131300542D01*
X127399834Y-131301457D01*
X128368658Y-130901147D01*
X129110542Y-130160557D01*
X129512542Y-129192433D01*
X129512546Y-129187834D01*
X133042543Y-129187834D01*
X133442853Y-130156658D01*
X134183443Y-130898542D01*
X135151567Y-131300542D01*
X136199834Y-131301457D01*
X137168658Y-130901147D01*
X137910542Y-130160557D01*
X138312542Y-129192433D01*
X138312546Y-129187834D01*
X144562543Y-129187834D01*
X144962853Y-130156658D01*
X145703443Y-130898542D01*
X146671567Y-131300542D01*
X147719834Y-131301457D01*
X148688658Y-130901147D01*
X149430542Y-130160557D01*
X149832542Y-129192433D01*
X149832546Y-129187834D01*
X153362543Y-129187834D01*
X153762853Y-130156658D01*
X154503443Y-130898542D01*
X155471567Y-131300542D01*
X156519834Y-131301457D01*
X157488658Y-130901147D01*
X158230542Y-130160557D01*
X158632542Y-129192433D01*
X158632546Y-129187834D01*
X164882543Y-129187834D01*
X165282853Y-130156658D01*
X166023443Y-130898542D01*
X166991567Y-131300542D01*
X168039834Y-131301457D01*
X169008658Y-130901147D01*
X169750542Y-130160557D01*
X170152542Y-129192433D01*
X170152546Y-129187834D01*
X173682543Y-129187834D01*
X174082853Y-130156658D01*
X174823443Y-130898542D01*
X175791567Y-131300542D01*
X176839834Y-131301457D01*
X177808658Y-130901147D01*
X178550542Y-130160557D01*
X178952542Y-129192433D01*
X178952546Y-129187834D01*
X185202543Y-129187834D01*
X185602853Y-130156658D01*
X186343443Y-130898542D01*
X187311567Y-131300542D01*
X188359834Y-131301457D01*
X189328658Y-130901147D01*
X190070542Y-130160557D01*
X190472542Y-129192433D01*
X190472546Y-129187834D01*
X194002543Y-129187834D01*
X194402853Y-130156658D01*
X195143443Y-130898542D01*
X196111567Y-131300542D01*
X197159834Y-131301457D01*
X198128658Y-130901147D01*
X198870542Y-130160557D01*
X199272542Y-129192433D01*
X199273457Y-128144166D01*
X198873147Y-127175342D01*
X198132557Y-126433458D01*
X197164433Y-126031458D01*
X196116166Y-126030543D01*
X195147342Y-126430853D01*
X194405458Y-127171443D01*
X194003458Y-128139567D01*
X194002543Y-129187834D01*
X190472546Y-129187834D01*
X190473457Y-128144166D01*
X190073147Y-127175342D01*
X189332557Y-126433458D01*
X188364433Y-126031458D01*
X187316166Y-126030543D01*
X186347342Y-126430853D01*
X185605458Y-127171443D01*
X185203458Y-128139567D01*
X185202543Y-129187834D01*
X178952546Y-129187834D01*
X178953457Y-128144166D01*
X178553147Y-127175342D01*
X177812557Y-126433458D01*
X176844433Y-126031458D01*
X175796166Y-126030543D01*
X174827342Y-126430853D01*
X174085458Y-127171443D01*
X173683458Y-128139567D01*
X173682543Y-129187834D01*
X170152546Y-129187834D01*
X170153457Y-128144166D01*
X169753147Y-127175342D01*
X169012557Y-126433458D01*
X168044433Y-126031458D01*
X166996166Y-126030543D01*
X166027342Y-126430853D01*
X165285458Y-127171443D01*
X164883458Y-128139567D01*
X164882543Y-129187834D01*
X158632546Y-129187834D01*
X158633457Y-128144166D01*
X158233147Y-127175342D01*
X157492557Y-126433458D01*
X156524433Y-126031458D01*
X155476166Y-126030543D01*
X154507342Y-126430853D01*
X153765458Y-127171443D01*
X153363458Y-128139567D01*
X153362543Y-129187834D01*
X149832546Y-129187834D01*
X149833457Y-128144166D01*
X149433147Y-127175342D01*
X148692557Y-126433458D01*
X147724433Y-126031458D01*
X146676166Y-126030543D01*
X145707342Y-126430853D01*
X144965458Y-127171443D01*
X144563458Y-128139567D01*
X144562543Y-129187834D01*
X138312546Y-129187834D01*
X138313457Y-128144166D01*
X137913147Y-127175342D01*
X137172557Y-126433458D01*
X136204433Y-126031458D01*
X135156166Y-126030543D01*
X134187342Y-126430853D01*
X133445458Y-127171443D01*
X133043458Y-128139567D01*
X133042543Y-129187834D01*
X129512546Y-129187834D01*
X129513457Y-128144166D01*
X129113147Y-127175342D01*
X128372557Y-126433458D01*
X127404433Y-126031458D01*
X126356166Y-126030543D01*
X125387342Y-126430853D01*
X124645458Y-127171443D01*
X124243458Y-128139567D01*
X124242543Y-129187834D01*
X117992546Y-129187834D01*
X117993457Y-128144166D01*
X117593147Y-127175342D01*
X116852557Y-126433458D01*
X115884433Y-126031458D01*
X114836166Y-126030543D01*
X113867342Y-126430853D01*
X113125458Y-127171443D01*
X112723458Y-128139567D01*
X112722543Y-129187834D01*
X109192546Y-129187834D01*
X109193457Y-128144166D01*
X108793147Y-127175342D01*
X108052557Y-126433458D01*
X107084433Y-126031458D01*
X106036166Y-126030543D01*
X105067342Y-126430853D01*
X104325458Y-127171443D01*
X103923458Y-128139567D01*
X103922543Y-129187834D01*
X97672546Y-129187834D01*
X97673457Y-128144166D01*
X97273147Y-127175342D01*
X96532557Y-126433458D01*
X95564433Y-126031458D01*
X94516166Y-126030543D01*
X93547342Y-126430853D01*
X92805458Y-127171443D01*
X92403458Y-128139567D01*
X92402543Y-129187834D01*
X88872546Y-129187834D01*
X88873457Y-128144166D01*
X88473147Y-127175342D01*
X87732557Y-126433458D01*
X86764433Y-126031458D01*
X85716166Y-126030543D01*
X84747342Y-126430853D01*
X84005458Y-127171443D01*
X83603458Y-128139567D01*
X83602543Y-129187834D01*
X77352546Y-129187834D01*
X77353457Y-128144166D01*
X76953147Y-127175342D01*
X76212557Y-126433458D01*
X75244433Y-126031458D01*
X74196166Y-126030543D01*
X73227342Y-126430853D01*
X72485458Y-127171443D01*
X72083458Y-128139567D01*
X72082543Y-129187834D01*
X68552546Y-129187834D01*
X68553457Y-128144166D01*
X68153147Y-127175342D01*
X67412557Y-126433458D01*
X66444433Y-126031458D01*
X65396166Y-126030543D01*
X64427342Y-126430853D01*
X63685458Y-127171443D01*
X63283458Y-128139567D01*
X63282543Y-129187834D01*
X57032546Y-129187834D01*
X57033457Y-128144166D01*
X56633147Y-127175342D01*
X55892557Y-126433458D01*
X54924433Y-126031458D01*
X53876166Y-126030543D01*
X52907342Y-126430853D01*
X52165458Y-127171443D01*
X51763458Y-128139567D01*
X51762543Y-129187834D01*
X48232546Y-129187834D01*
X48233457Y-128144166D01*
X47833147Y-127175342D01*
X47092557Y-126433458D01*
X46124433Y-126031458D01*
X45076166Y-126030543D01*
X44107342Y-126430853D01*
X43365458Y-127171443D01*
X42963458Y-128139567D01*
X42962543Y-129187834D01*
X21005000Y-129187834D01*
X21005000Y-121969991D01*
X45962735Y-121969991D01*
X46195932Y-122534371D01*
X46627357Y-122966551D01*
X47191330Y-123200733D01*
X47801991Y-123201265D01*
X48366371Y-122968068D01*
X48748288Y-122586818D01*
X49127357Y-122966551D01*
X49691330Y-123200733D01*
X50301991Y-123201265D01*
X50866371Y-122968068D01*
X51248288Y-122586818D01*
X51627357Y-122966551D01*
X52191330Y-123200733D01*
X52801991Y-123201265D01*
X53366371Y-122968068D01*
X53798551Y-122536643D01*
X54032733Y-121972670D01*
X54032735Y-121969991D01*
X66282735Y-121969991D01*
X66515932Y-122534371D01*
X66947357Y-122966551D01*
X67511330Y-123200733D01*
X68121991Y-123201265D01*
X68686371Y-122968068D01*
X69068288Y-122586818D01*
X69447357Y-122966551D01*
X70011330Y-123200733D01*
X70621991Y-123201265D01*
X71186371Y-122968068D01*
X71568288Y-122586818D01*
X71947357Y-122966551D01*
X72511330Y-123200733D01*
X73121991Y-123201265D01*
X73686371Y-122968068D01*
X74118551Y-122536643D01*
X74352733Y-121972670D01*
X74352735Y-121969991D01*
X86602735Y-121969991D01*
X86835932Y-122534371D01*
X87267357Y-122966551D01*
X87831330Y-123200733D01*
X88441991Y-123201265D01*
X89006371Y-122968068D01*
X89388288Y-122586818D01*
X89767357Y-122966551D01*
X90331330Y-123200733D01*
X90941991Y-123201265D01*
X91506371Y-122968068D01*
X91888288Y-122586818D01*
X92267357Y-122966551D01*
X92831330Y-123200733D01*
X93441991Y-123201265D01*
X94006371Y-122968068D01*
X94438551Y-122536643D01*
X94672733Y-121972670D01*
X94672735Y-121969991D01*
X106922735Y-121969991D01*
X107155932Y-122534371D01*
X107587357Y-122966551D01*
X108151330Y-123200733D01*
X108761991Y-123201265D01*
X109326371Y-122968068D01*
X109708288Y-122586818D01*
X110087357Y-122966551D01*
X110651330Y-123200733D01*
X111261991Y-123201265D01*
X111826371Y-122968068D01*
X112208288Y-122586818D01*
X112587357Y-122966551D01*
X113151330Y-123200733D01*
X113761991Y-123201265D01*
X114326371Y-122968068D01*
X114758551Y-122536643D01*
X114992733Y-121972670D01*
X114992735Y-121969991D01*
X127242735Y-121969991D01*
X127475932Y-122534371D01*
X127907357Y-122966551D01*
X128471330Y-123200733D01*
X129081991Y-123201265D01*
X129646371Y-122968068D01*
X130028288Y-122586818D01*
X130407357Y-122966551D01*
X130971330Y-123200733D01*
X131581991Y-123201265D01*
X132146371Y-122968068D01*
X132528288Y-122586818D01*
X132907357Y-122966551D01*
X133471330Y-123200733D01*
X134081991Y-123201265D01*
X134646371Y-122968068D01*
X135078551Y-122536643D01*
X135312733Y-121972670D01*
X135312735Y-121969991D01*
X147562735Y-121969991D01*
X147795932Y-122534371D01*
X148227357Y-122966551D01*
X148791330Y-123200733D01*
X149401991Y-123201265D01*
X149966371Y-122968068D01*
X150348288Y-122586818D01*
X150727357Y-122966551D01*
X151291330Y-123200733D01*
X151901991Y-123201265D01*
X152466371Y-122968068D01*
X152848288Y-122586818D01*
X153227357Y-122966551D01*
X153791330Y-123200733D01*
X154401991Y-123201265D01*
X154966371Y-122968068D01*
X155398551Y-122536643D01*
X155632733Y-121972670D01*
X155632735Y-121969991D01*
X167882735Y-121969991D01*
X168115932Y-122534371D01*
X168547357Y-122966551D01*
X169111330Y-123200733D01*
X169721991Y-123201265D01*
X170286371Y-122968068D01*
X170668288Y-122586818D01*
X171047357Y-122966551D01*
X171611330Y-123200733D01*
X172221991Y-123201265D01*
X172786371Y-122968068D01*
X173168288Y-122586818D01*
X173547357Y-122966551D01*
X174111330Y-123200733D01*
X174721991Y-123201265D01*
X175286371Y-122968068D01*
X175718551Y-122536643D01*
X175952733Y-121972670D01*
X175952735Y-121969991D01*
X188202735Y-121969991D01*
X188435932Y-122534371D01*
X188867357Y-122966551D01*
X189431330Y-123200733D01*
X190041991Y-123201265D01*
X190606371Y-122968068D01*
X190988288Y-122586818D01*
X191367357Y-122966551D01*
X191931330Y-123200733D01*
X192541991Y-123201265D01*
X193106371Y-122968068D01*
X193488288Y-122586818D01*
X193867357Y-122966551D01*
X194431330Y-123200733D01*
X195041991Y-123201265D01*
X195606371Y-122968068D01*
X196038551Y-122536643D01*
X196272733Y-121972670D01*
X196273265Y-121362009D01*
X196040068Y-120797629D01*
X195608643Y-120365449D01*
X195044670Y-120131267D01*
X194434009Y-120130735D01*
X193869629Y-120363932D01*
X193487712Y-120745182D01*
X193108643Y-120365449D01*
X192544670Y-120131267D01*
X191934009Y-120130735D01*
X191369629Y-120363932D01*
X190987712Y-120745182D01*
X190608643Y-120365449D01*
X190044670Y-120131267D01*
X189434009Y-120130735D01*
X188869629Y-120363932D01*
X188437449Y-120795357D01*
X188203267Y-121359330D01*
X188202735Y-121969991D01*
X175952735Y-121969991D01*
X175953265Y-121362009D01*
X175720068Y-120797629D01*
X175288643Y-120365449D01*
X174724670Y-120131267D01*
X174114009Y-120130735D01*
X173549629Y-120363932D01*
X173167712Y-120745182D01*
X172788643Y-120365449D01*
X172224670Y-120131267D01*
X171614009Y-120130735D01*
X171049629Y-120363932D01*
X170667712Y-120745182D01*
X170288643Y-120365449D01*
X169724670Y-120131267D01*
X169114009Y-120130735D01*
X168549629Y-120363932D01*
X168117449Y-120795357D01*
X167883267Y-121359330D01*
X167882735Y-121969991D01*
X155632735Y-121969991D01*
X155633265Y-121362009D01*
X155400068Y-120797629D01*
X154968643Y-120365449D01*
X154404670Y-120131267D01*
X153794009Y-120130735D01*
X153229629Y-120363932D01*
X152847712Y-120745182D01*
X152468643Y-120365449D01*
X151904670Y-120131267D01*
X151294009Y-120130735D01*
X150729629Y-120363932D01*
X150347712Y-120745182D01*
X149968643Y-120365449D01*
X149404670Y-120131267D01*
X148794009Y-120130735D01*
X148229629Y-120363932D01*
X147797449Y-120795357D01*
X147563267Y-121359330D01*
X147562735Y-121969991D01*
X135312735Y-121969991D01*
X135313265Y-121362009D01*
X135080068Y-120797629D01*
X134648643Y-120365449D01*
X134084670Y-120131267D01*
X133474009Y-120130735D01*
X132909629Y-120363932D01*
X132527712Y-120745182D01*
X132148643Y-120365449D01*
X131584670Y-120131267D01*
X130974009Y-120130735D01*
X130409629Y-120363932D01*
X130027712Y-120745182D01*
X129648643Y-120365449D01*
X129084670Y-120131267D01*
X128474009Y-120130735D01*
X127909629Y-120363932D01*
X127477449Y-120795357D01*
X127243267Y-121359330D01*
X127242735Y-121969991D01*
X114992735Y-121969991D01*
X114993265Y-121362009D01*
X114760068Y-120797629D01*
X114328643Y-120365449D01*
X113764670Y-120131267D01*
X113154009Y-120130735D01*
X112589629Y-120363932D01*
X112207712Y-120745182D01*
X111828643Y-120365449D01*
X111264670Y-120131267D01*
X110654009Y-120130735D01*
X110089629Y-120363932D01*
X109707712Y-120745182D01*
X109328643Y-120365449D01*
X108764670Y-120131267D01*
X108154009Y-120130735D01*
X107589629Y-120363932D01*
X107157449Y-120795357D01*
X106923267Y-121359330D01*
X106922735Y-121969991D01*
X94672735Y-121969991D01*
X94673265Y-121362009D01*
X94440068Y-120797629D01*
X94008643Y-120365449D01*
X93444670Y-120131267D01*
X92834009Y-120130735D01*
X92269629Y-120363932D01*
X91887712Y-120745182D01*
X91508643Y-120365449D01*
X90944670Y-120131267D01*
X90334009Y-120130735D01*
X89769629Y-120363932D01*
X89387712Y-120745182D01*
X89008643Y-120365449D01*
X88444670Y-120131267D01*
X87834009Y-120130735D01*
X87269629Y-120363932D01*
X86837449Y-120795357D01*
X86603267Y-121359330D01*
X86602735Y-121969991D01*
X74352735Y-121969991D01*
X74353265Y-121362009D01*
X74120068Y-120797629D01*
X73688643Y-120365449D01*
X73124670Y-120131267D01*
X72514009Y-120130735D01*
X71949629Y-120363932D01*
X71567712Y-120745182D01*
X71188643Y-120365449D01*
X70624670Y-120131267D01*
X70014009Y-120130735D01*
X69449629Y-120363932D01*
X69067712Y-120745182D01*
X68688643Y-120365449D01*
X68124670Y-120131267D01*
X67514009Y-120130735D01*
X66949629Y-120363932D01*
X66517449Y-120795357D01*
X66283267Y-121359330D01*
X66282735Y-121969991D01*
X54032735Y-121969991D01*
X54033265Y-121362009D01*
X53800068Y-120797629D01*
X53368643Y-120365449D01*
X52804670Y-120131267D01*
X52194009Y-120130735D01*
X51629629Y-120363932D01*
X51247712Y-120745182D01*
X50868643Y-120365449D01*
X50304670Y-120131267D01*
X49694009Y-120130735D01*
X49129629Y-120363932D01*
X48747712Y-120745182D01*
X48368643Y-120365449D01*
X47804670Y-120131267D01*
X47194009Y-120130735D01*
X46629629Y-120363932D01*
X46197449Y-120795357D01*
X45963267Y-121359330D01*
X45962735Y-121969991D01*
X21005000Y-121969991D01*
X21005000Y-111289223D01*
X33383035Y-111289223D01*
X33410222Y-111859454D01*
X33576136Y-112260005D01*
X33822255Y-112334139D01*
X34650395Y-111506000D01*
X33822255Y-110677861D01*
X33576136Y-110751995D01*
X33383035Y-111289223D01*
X21005000Y-111289223D01*
X21005000Y-110498255D01*
X34001861Y-110498255D01*
X34830000Y-111326395D01*
X34844142Y-111312252D01*
X35023748Y-111491858D01*
X35009605Y-111506000D01*
X35023748Y-111520143D01*
X34844142Y-111699748D01*
X34830000Y-111685605D01*
X34001861Y-112513745D01*
X34075995Y-112759864D01*
X34613223Y-112952965D01*
X35183454Y-112925778D01*
X35574947Y-112763616D01*
X35778110Y-112902431D01*
X36030000Y-112953440D01*
X37630000Y-112953440D01*
X37865317Y-112909162D01*
X38081441Y-112770090D01*
X38226431Y-112557890D01*
X38277440Y-112306000D01*
X38277440Y-110706000D01*
X38233162Y-110470683D01*
X38094090Y-110254559D01*
X37881890Y-110109569D01*
X37630000Y-110058560D01*
X36030000Y-110058560D01*
X35794683Y-110102838D01*
X35578559Y-110241910D01*
X35574023Y-110248548D01*
X35046777Y-110059035D01*
X34476546Y-110086222D01*
X34075995Y-110252136D01*
X34001861Y-110498255D01*
X21005000Y-110498255D01*
X21005000Y-108442285D01*
X44334760Y-108442285D01*
X44545169Y-108951515D01*
X44692897Y-109099501D01*
X44614559Y-109149910D01*
X44469569Y-109362110D01*
X44418560Y-109614000D01*
X44418560Y-110922000D01*
X44462838Y-111157317D01*
X44601910Y-111373441D01*
X44714526Y-111450388D01*
X44627876Y-111536887D01*
X44431224Y-112010477D01*
X44430777Y-112523273D01*
X44626602Y-112997206D01*
X44897078Y-113268155D01*
X44627876Y-113536887D01*
X44431224Y-114010477D01*
X44430777Y-114523273D01*
X44626602Y-114997206D01*
X44879254Y-115250300D01*
X44546539Y-115582436D01*
X44335241Y-116091298D01*
X44334760Y-116642285D01*
X44545169Y-117151515D01*
X44934436Y-117541461D01*
X45443298Y-117752759D01*
X45994285Y-117753240D01*
X46503515Y-117542831D01*
X46893461Y-117153564D01*
X47104759Y-116644702D01*
X47104761Y-116642285D01*
X52716760Y-116642285D01*
X52927169Y-117151515D01*
X53316436Y-117541461D01*
X53825298Y-117752759D01*
X54376285Y-117753240D01*
X54885515Y-117542831D01*
X55275461Y-117153564D01*
X55486759Y-116644702D01*
X55487240Y-116093715D01*
X55276831Y-115584485D01*
X54887564Y-115194539D01*
X54821503Y-115167108D01*
X54102000Y-114447605D01*
X53383158Y-115166447D01*
X53318485Y-115193169D01*
X52928539Y-115582436D01*
X52717241Y-116091298D01*
X52716760Y-116642285D01*
X47104761Y-116642285D01*
X47105240Y-116093715D01*
X46894831Y-115584485D01*
X46560864Y-115249935D01*
X46812124Y-114999113D01*
X47008776Y-114525523D01*
X47009159Y-114086121D01*
X52800393Y-114086121D01*
X52829870Y-114598069D01*
X52969074Y-114934138D01*
X53200083Y-114990312D01*
X53922395Y-114268000D01*
X54281605Y-114268000D01*
X55003917Y-114990312D01*
X55234926Y-114934138D01*
X55403607Y-114449879D01*
X55374130Y-113937931D01*
X55234926Y-113601862D01*
X55003917Y-113545688D01*
X54281605Y-114268000D01*
X53922395Y-114268000D01*
X53200083Y-113545688D01*
X52969074Y-113601862D01*
X52800393Y-114086121D01*
X47009159Y-114086121D01*
X47009223Y-114012727D01*
X46813398Y-113538794D01*
X46542922Y-113267845D01*
X46812124Y-112999113D01*
X47008776Y-112525523D01*
X47009223Y-112012727D01*
X46813398Y-111538794D01*
X46725292Y-111450534D01*
X46825441Y-111386090D01*
X46970431Y-111173890D01*
X47021440Y-110922000D01*
X47021440Y-109614000D01*
X46977162Y-109378683D01*
X46838090Y-109162559D01*
X46746673Y-109100096D01*
X46893461Y-108953564D01*
X47104759Y-108444702D01*
X47104761Y-108442285D01*
X52716760Y-108442285D01*
X52927169Y-108951515D01*
X53074897Y-109099501D01*
X52996559Y-109149910D01*
X52851569Y-109362110D01*
X52800560Y-109614000D01*
X52800560Y-110922000D01*
X52844838Y-111157317D01*
X52983910Y-111373441D01*
X53096526Y-111450388D01*
X53009876Y-111536887D01*
X52813224Y-112010477D01*
X52812777Y-112523273D01*
X53008602Y-112997206D01*
X53370887Y-113360124D01*
X53380197Y-113363990D01*
X53379688Y-113366083D01*
X54102000Y-114088395D01*
X54824312Y-113366083D01*
X54823906Y-113364414D01*
X54831206Y-113361398D01*
X55194124Y-112999113D01*
X55390776Y-112525523D01*
X55391223Y-112012727D01*
X55195398Y-111538794D01*
X55107292Y-111450534D01*
X55207441Y-111386090D01*
X55352431Y-111173890D01*
X55403440Y-110922000D01*
X55403440Y-109614000D01*
X55359162Y-109378683D01*
X55220090Y-109162559D01*
X55128673Y-109100096D01*
X55275461Y-108953564D01*
X55486759Y-108444702D01*
X55486761Y-108442285D01*
X64654760Y-108442285D01*
X64865169Y-108951515D01*
X65012897Y-109099501D01*
X64934559Y-109149910D01*
X64789569Y-109362110D01*
X64738560Y-109614000D01*
X64738560Y-110922000D01*
X64782838Y-111157317D01*
X64921910Y-111373441D01*
X65034526Y-111450388D01*
X64947876Y-111536887D01*
X64751224Y-112010477D01*
X64750777Y-112523273D01*
X64946602Y-112997206D01*
X65217078Y-113268155D01*
X64947876Y-113536887D01*
X64751224Y-114010477D01*
X64750777Y-114523273D01*
X64946602Y-114997206D01*
X65199254Y-115250300D01*
X64866539Y-115582436D01*
X64655241Y-116091298D01*
X64654760Y-116642285D01*
X64865169Y-117151515D01*
X65254436Y-117541461D01*
X65763298Y-117752759D01*
X66314285Y-117753240D01*
X66823515Y-117542831D01*
X67213461Y-117153564D01*
X67424759Y-116644702D01*
X67424761Y-116642285D01*
X73036760Y-116642285D01*
X73247169Y-117151515D01*
X73636436Y-117541461D01*
X74145298Y-117752759D01*
X74696285Y-117753240D01*
X75205515Y-117542831D01*
X75595461Y-117153564D01*
X75806759Y-116644702D01*
X75807240Y-116093715D01*
X75596831Y-115584485D01*
X75207564Y-115194539D01*
X75141503Y-115167108D01*
X74422000Y-114447605D01*
X73703158Y-115166447D01*
X73638485Y-115193169D01*
X73248539Y-115582436D01*
X73037241Y-116091298D01*
X73036760Y-116642285D01*
X67424761Y-116642285D01*
X67425240Y-116093715D01*
X67214831Y-115584485D01*
X66880864Y-115249935D01*
X67132124Y-114999113D01*
X67328776Y-114525523D01*
X67329159Y-114086121D01*
X73120393Y-114086121D01*
X73149870Y-114598069D01*
X73289074Y-114934138D01*
X73520083Y-114990312D01*
X74242395Y-114268000D01*
X74601605Y-114268000D01*
X75323917Y-114990312D01*
X75554926Y-114934138D01*
X75723607Y-114449879D01*
X75694130Y-113937931D01*
X75554926Y-113601862D01*
X75323917Y-113545688D01*
X74601605Y-114268000D01*
X74242395Y-114268000D01*
X73520083Y-113545688D01*
X73289074Y-113601862D01*
X73120393Y-114086121D01*
X67329159Y-114086121D01*
X67329223Y-114012727D01*
X67133398Y-113538794D01*
X66862922Y-113267845D01*
X67132124Y-112999113D01*
X67328776Y-112525523D01*
X67329223Y-112012727D01*
X67133398Y-111538794D01*
X67045292Y-111450534D01*
X67145441Y-111386090D01*
X67290431Y-111173890D01*
X67341440Y-110922000D01*
X67341440Y-109614000D01*
X67297162Y-109378683D01*
X67158090Y-109162559D01*
X67066673Y-109100096D01*
X67213461Y-108953564D01*
X67424759Y-108444702D01*
X67424761Y-108442285D01*
X73036760Y-108442285D01*
X73247169Y-108951515D01*
X73394897Y-109099501D01*
X73316559Y-109149910D01*
X73171569Y-109362110D01*
X73120560Y-109614000D01*
X73120560Y-110922000D01*
X73164838Y-111157317D01*
X73303910Y-111373441D01*
X73416526Y-111450388D01*
X73329876Y-111536887D01*
X73133224Y-112010477D01*
X73132777Y-112523273D01*
X73328602Y-112997206D01*
X73690887Y-113360124D01*
X73700197Y-113363990D01*
X73699688Y-113366083D01*
X74422000Y-114088395D01*
X75144312Y-113366083D01*
X75143906Y-113364414D01*
X75151206Y-113361398D01*
X75514124Y-112999113D01*
X75710776Y-112525523D01*
X75711223Y-112012727D01*
X75515398Y-111538794D01*
X75427292Y-111450534D01*
X75527441Y-111386090D01*
X75672431Y-111173890D01*
X75723440Y-110922000D01*
X75723440Y-109614000D01*
X75679162Y-109378683D01*
X75540090Y-109162559D01*
X75448673Y-109100096D01*
X75595461Y-108953564D01*
X75806759Y-108444702D01*
X75806761Y-108442285D01*
X84974760Y-108442285D01*
X85185169Y-108951515D01*
X85332897Y-109099501D01*
X85254559Y-109149910D01*
X85109569Y-109362110D01*
X85058560Y-109614000D01*
X85058560Y-110922000D01*
X85102838Y-111157317D01*
X85241910Y-111373441D01*
X85354526Y-111450388D01*
X85267876Y-111536887D01*
X85071224Y-112010477D01*
X85070777Y-112523273D01*
X85266602Y-112997206D01*
X85537078Y-113268155D01*
X85267876Y-113536887D01*
X85071224Y-114010477D01*
X85070777Y-114523273D01*
X85266602Y-114997206D01*
X85519254Y-115250300D01*
X85186539Y-115582436D01*
X84975241Y-116091298D01*
X84974760Y-116642285D01*
X85185169Y-117151515D01*
X85574436Y-117541461D01*
X86083298Y-117752759D01*
X86634285Y-117753240D01*
X87143515Y-117542831D01*
X87533461Y-117153564D01*
X87744759Y-116644702D01*
X87744761Y-116642285D01*
X93356760Y-116642285D01*
X93567169Y-117151515D01*
X93956436Y-117541461D01*
X94465298Y-117752759D01*
X95016285Y-117753240D01*
X95525515Y-117542831D01*
X95915461Y-117153564D01*
X96126759Y-116644702D01*
X96127240Y-116093715D01*
X95916831Y-115584485D01*
X95527564Y-115194539D01*
X95461503Y-115167108D01*
X94742000Y-114447605D01*
X94023158Y-115166447D01*
X93958485Y-115193169D01*
X93568539Y-115582436D01*
X93357241Y-116091298D01*
X93356760Y-116642285D01*
X87744761Y-116642285D01*
X87745240Y-116093715D01*
X87534831Y-115584485D01*
X87200864Y-115249935D01*
X87452124Y-114999113D01*
X87648776Y-114525523D01*
X87649159Y-114086121D01*
X93440393Y-114086121D01*
X93469870Y-114598069D01*
X93609074Y-114934138D01*
X93840083Y-114990312D01*
X94562395Y-114268000D01*
X94921605Y-114268000D01*
X95643917Y-114990312D01*
X95874926Y-114934138D01*
X96043607Y-114449879D01*
X96014130Y-113937931D01*
X95874926Y-113601862D01*
X95643917Y-113545688D01*
X94921605Y-114268000D01*
X94562395Y-114268000D01*
X93840083Y-113545688D01*
X93609074Y-113601862D01*
X93440393Y-114086121D01*
X87649159Y-114086121D01*
X87649223Y-114012727D01*
X87453398Y-113538794D01*
X87182922Y-113267845D01*
X87452124Y-112999113D01*
X87648776Y-112525523D01*
X87649223Y-112012727D01*
X87453398Y-111538794D01*
X87365292Y-111450534D01*
X87465441Y-111386090D01*
X87610431Y-111173890D01*
X87661440Y-110922000D01*
X87661440Y-109614000D01*
X87617162Y-109378683D01*
X87478090Y-109162559D01*
X87386673Y-109100096D01*
X87533461Y-108953564D01*
X87744759Y-108444702D01*
X87744761Y-108442285D01*
X93356760Y-108442285D01*
X93567169Y-108951515D01*
X93714897Y-109099501D01*
X93636559Y-109149910D01*
X93491569Y-109362110D01*
X93440560Y-109614000D01*
X93440560Y-110922000D01*
X93484838Y-111157317D01*
X93623910Y-111373441D01*
X93736526Y-111450388D01*
X93649876Y-111536887D01*
X93453224Y-112010477D01*
X93452777Y-112523273D01*
X93648602Y-112997206D01*
X94010887Y-113360124D01*
X94020197Y-113363990D01*
X94019688Y-113366083D01*
X94742000Y-114088395D01*
X95464312Y-113366083D01*
X95463906Y-113364414D01*
X95471206Y-113361398D01*
X95834124Y-112999113D01*
X96030776Y-112525523D01*
X96031223Y-112012727D01*
X95835398Y-111538794D01*
X95747292Y-111450534D01*
X95847441Y-111386090D01*
X95992431Y-111173890D01*
X96043440Y-110922000D01*
X96043440Y-109614000D01*
X95999162Y-109378683D01*
X95860090Y-109162559D01*
X95768673Y-109100096D01*
X95915461Y-108953564D01*
X96126759Y-108444702D01*
X96126761Y-108442285D01*
X105294760Y-108442285D01*
X105505169Y-108951515D01*
X105652897Y-109099501D01*
X105574559Y-109149910D01*
X105429569Y-109362110D01*
X105378560Y-109614000D01*
X105378560Y-110922000D01*
X105422838Y-111157317D01*
X105561910Y-111373441D01*
X105674526Y-111450388D01*
X105587876Y-111536887D01*
X105391224Y-112010477D01*
X105390777Y-112523273D01*
X105586602Y-112997206D01*
X105857078Y-113268155D01*
X105587876Y-113536887D01*
X105391224Y-114010477D01*
X105390777Y-114523273D01*
X105586602Y-114997206D01*
X105839254Y-115250300D01*
X105506539Y-115582436D01*
X105295241Y-116091298D01*
X105294760Y-116642285D01*
X105505169Y-117151515D01*
X105894436Y-117541461D01*
X106403298Y-117752759D01*
X106954285Y-117753240D01*
X107463515Y-117542831D01*
X107853461Y-117153564D01*
X108064759Y-116644702D01*
X108064761Y-116642285D01*
X113676760Y-116642285D01*
X113887169Y-117151515D01*
X114276436Y-117541461D01*
X114785298Y-117752759D01*
X115336285Y-117753240D01*
X115845515Y-117542831D01*
X116235461Y-117153564D01*
X116446759Y-116644702D01*
X116447240Y-116093715D01*
X116236831Y-115584485D01*
X115847564Y-115194539D01*
X115781503Y-115167108D01*
X115062000Y-114447605D01*
X114343158Y-115166447D01*
X114278485Y-115193169D01*
X113888539Y-115582436D01*
X113677241Y-116091298D01*
X113676760Y-116642285D01*
X108064761Y-116642285D01*
X108065240Y-116093715D01*
X107854831Y-115584485D01*
X107520864Y-115249935D01*
X107772124Y-114999113D01*
X107968776Y-114525523D01*
X107969159Y-114086121D01*
X113760393Y-114086121D01*
X113789870Y-114598069D01*
X113929074Y-114934138D01*
X114160083Y-114990312D01*
X114882395Y-114268000D01*
X115241605Y-114268000D01*
X115963917Y-114990312D01*
X116194926Y-114934138D01*
X116363607Y-114449879D01*
X116334130Y-113937931D01*
X116194926Y-113601862D01*
X115963917Y-113545688D01*
X115241605Y-114268000D01*
X114882395Y-114268000D01*
X114160083Y-113545688D01*
X113929074Y-113601862D01*
X113760393Y-114086121D01*
X107969159Y-114086121D01*
X107969223Y-114012727D01*
X107773398Y-113538794D01*
X107502922Y-113267845D01*
X107772124Y-112999113D01*
X107968776Y-112525523D01*
X107969223Y-112012727D01*
X107773398Y-111538794D01*
X107685292Y-111450534D01*
X107785441Y-111386090D01*
X107930431Y-111173890D01*
X107981440Y-110922000D01*
X107981440Y-109614000D01*
X107937162Y-109378683D01*
X107798090Y-109162559D01*
X107706673Y-109100096D01*
X107853461Y-108953564D01*
X108064759Y-108444702D01*
X108064761Y-108442285D01*
X113676760Y-108442285D01*
X113887169Y-108951515D01*
X114034897Y-109099501D01*
X113956559Y-109149910D01*
X113811569Y-109362110D01*
X113760560Y-109614000D01*
X113760560Y-110922000D01*
X113804838Y-111157317D01*
X113943910Y-111373441D01*
X114056526Y-111450388D01*
X113969876Y-111536887D01*
X113773224Y-112010477D01*
X113772777Y-112523273D01*
X113968602Y-112997206D01*
X114330887Y-113360124D01*
X114340197Y-113363990D01*
X114339688Y-113366083D01*
X115062000Y-114088395D01*
X115784312Y-113366083D01*
X115783906Y-113364414D01*
X115791206Y-113361398D01*
X116154124Y-112999113D01*
X116350776Y-112525523D01*
X116351223Y-112012727D01*
X116155398Y-111538794D01*
X116067292Y-111450534D01*
X116167441Y-111386090D01*
X116312431Y-111173890D01*
X116363440Y-110922000D01*
X116363440Y-109614000D01*
X116319162Y-109378683D01*
X116180090Y-109162559D01*
X116088673Y-109100096D01*
X116235461Y-108953564D01*
X116446759Y-108444702D01*
X116446761Y-108442285D01*
X125614760Y-108442285D01*
X125825169Y-108951515D01*
X125972897Y-109099501D01*
X125894559Y-109149910D01*
X125749569Y-109362110D01*
X125698560Y-109614000D01*
X125698560Y-110922000D01*
X125742838Y-111157317D01*
X125881910Y-111373441D01*
X125994526Y-111450388D01*
X125907876Y-111536887D01*
X125711224Y-112010477D01*
X125710777Y-112523273D01*
X125906602Y-112997206D01*
X126177078Y-113268155D01*
X125907876Y-113536887D01*
X125711224Y-114010477D01*
X125710777Y-114523273D01*
X125906602Y-114997206D01*
X126159254Y-115250300D01*
X125826539Y-115582436D01*
X125615241Y-116091298D01*
X125614760Y-116642285D01*
X125825169Y-117151515D01*
X126214436Y-117541461D01*
X126723298Y-117752759D01*
X127274285Y-117753240D01*
X127783515Y-117542831D01*
X128173461Y-117153564D01*
X128384759Y-116644702D01*
X128384761Y-116642285D01*
X133996760Y-116642285D01*
X134207169Y-117151515D01*
X134596436Y-117541461D01*
X135105298Y-117752759D01*
X135656285Y-117753240D01*
X136165515Y-117542831D01*
X136555461Y-117153564D01*
X136766759Y-116644702D01*
X136767240Y-116093715D01*
X136556831Y-115584485D01*
X136167564Y-115194539D01*
X136101503Y-115167108D01*
X135382000Y-114447605D01*
X134663158Y-115166447D01*
X134598485Y-115193169D01*
X134208539Y-115582436D01*
X133997241Y-116091298D01*
X133996760Y-116642285D01*
X128384761Y-116642285D01*
X128385240Y-116093715D01*
X128174831Y-115584485D01*
X127840864Y-115249935D01*
X128092124Y-114999113D01*
X128288776Y-114525523D01*
X128289159Y-114086121D01*
X134080393Y-114086121D01*
X134109870Y-114598069D01*
X134249074Y-114934138D01*
X134480083Y-114990312D01*
X135202395Y-114268000D01*
X135561605Y-114268000D01*
X136283917Y-114990312D01*
X136514926Y-114934138D01*
X136683607Y-114449879D01*
X136654130Y-113937931D01*
X136514926Y-113601862D01*
X136283917Y-113545688D01*
X135561605Y-114268000D01*
X135202395Y-114268000D01*
X134480083Y-113545688D01*
X134249074Y-113601862D01*
X134080393Y-114086121D01*
X128289159Y-114086121D01*
X128289223Y-114012727D01*
X128093398Y-113538794D01*
X127822922Y-113267845D01*
X128092124Y-112999113D01*
X128288776Y-112525523D01*
X128289223Y-112012727D01*
X128093398Y-111538794D01*
X128005292Y-111450534D01*
X128105441Y-111386090D01*
X128250431Y-111173890D01*
X128301440Y-110922000D01*
X128301440Y-109614000D01*
X128257162Y-109378683D01*
X128118090Y-109162559D01*
X128026673Y-109100096D01*
X128173461Y-108953564D01*
X128384759Y-108444702D01*
X128384761Y-108442285D01*
X133996760Y-108442285D01*
X134207169Y-108951515D01*
X134354897Y-109099501D01*
X134276559Y-109149910D01*
X134131569Y-109362110D01*
X134080560Y-109614000D01*
X134080560Y-110922000D01*
X134124838Y-111157317D01*
X134263910Y-111373441D01*
X134376526Y-111450388D01*
X134289876Y-111536887D01*
X134093224Y-112010477D01*
X134092777Y-112523273D01*
X134288602Y-112997206D01*
X134650887Y-113360124D01*
X134660197Y-113363990D01*
X134659688Y-113366083D01*
X135382000Y-114088395D01*
X136104312Y-113366083D01*
X136103906Y-113364414D01*
X136111206Y-113361398D01*
X136474124Y-112999113D01*
X136670776Y-112525523D01*
X136671223Y-112012727D01*
X136475398Y-111538794D01*
X136387292Y-111450534D01*
X136487441Y-111386090D01*
X136632431Y-111173890D01*
X136683440Y-110922000D01*
X136683440Y-109614000D01*
X136639162Y-109378683D01*
X136500090Y-109162559D01*
X136408673Y-109100096D01*
X136555461Y-108953564D01*
X136766759Y-108444702D01*
X136766761Y-108442285D01*
X145934760Y-108442285D01*
X146145169Y-108951515D01*
X146292897Y-109099501D01*
X146214559Y-109149910D01*
X146069569Y-109362110D01*
X146018560Y-109614000D01*
X146018560Y-110922000D01*
X146062838Y-111157317D01*
X146201910Y-111373441D01*
X146314526Y-111450388D01*
X146227876Y-111536887D01*
X146031224Y-112010477D01*
X146030777Y-112523273D01*
X146226602Y-112997206D01*
X146497078Y-113268155D01*
X146227876Y-113536887D01*
X146031224Y-114010477D01*
X146030777Y-114523273D01*
X146226602Y-114997206D01*
X146479254Y-115250300D01*
X146146539Y-115582436D01*
X145935241Y-116091298D01*
X145934760Y-116642285D01*
X146145169Y-117151515D01*
X146534436Y-117541461D01*
X147043298Y-117752759D01*
X147594285Y-117753240D01*
X148103515Y-117542831D01*
X148493461Y-117153564D01*
X148704759Y-116644702D01*
X148704761Y-116642285D01*
X154316760Y-116642285D01*
X154527169Y-117151515D01*
X154916436Y-117541461D01*
X155425298Y-117752759D01*
X155976285Y-117753240D01*
X156485515Y-117542831D01*
X156875461Y-117153564D01*
X157086759Y-116644702D01*
X157087240Y-116093715D01*
X156876831Y-115584485D01*
X156487564Y-115194539D01*
X156421503Y-115167108D01*
X155702000Y-114447605D01*
X154983158Y-115166447D01*
X154918485Y-115193169D01*
X154528539Y-115582436D01*
X154317241Y-116091298D01*
X154316760Y-116642285D01*
X148704761Y-116642285D01*
X148705240Y-116093715D01*
X148494831Y-115584485D01*
X148160864Y-115249935D01*
X148412124Y-114999113D01*
X148608776Y-114525523D01*
X148609159Y-114086121D01*
X154400393Y-114086121D01*
X154429870Y-114598069D01*
X154569074Y-114934138D01*
X154800083Y-114990312D01*
X155522395Y-114268000D01*
X155881605Y-114268000D01*
X156603917Y-114990312D01*
X156834926Y-114934138D01*
X157003607Y-114449879D01*
X156974130Y-113937931D01*
X156834926Y-113601862D01*
X156603917Y-113545688D01*
X155881605Y-114268000D01*
X155522395Y-114268000D01*
X154800083Y-113545688D01*
X154569074Y-113601862D01*
X154400393Y-114086121D01*
X148609159Y-114086121D01*
X148609223Y-114012727D01*
X148413398Y-113538794D01*
X148142922Y-113267845D01*
X148412124Y-112999113D01*
X148608776Y-112525523D01*
X148609223Y-112012727D01*
X148413398Y-111538794D01*
X148325292Y-111450534D01*
X148425441Y-111386090D01*
X148570431Y-111173890D01*
X148621440Y-110922000D01*
X148621440Y-109614000D01*
X148577162Y-109378683D01*
X148438090Y-109162559D01*
X148346673Y-109100096D01*
X148493461Y-108953564D01*
X148704759Y-108444702D01*
X148704761Y-108442285D01*
X154316760Y-108442285D01*
X154527169Y-108951515D01*
X154674897Y-109099501D01*
X154596559Y-109149910D01*
X154451569Y-109362110D01*
X154400560Y-109614000D01*
X154400560Y-110922000D01*
X154444838Y-111157317D01*
X154583910Y-111373441D01*
X154696526Y-111450388D01*
X154609876Y-111536887D01*
X154413224Y-112010477D01*
X154412777Y-112523273D01*
X154608602Y-112997206D01*
X154970887Y-113360124D01*
X154980197Y-113363990D01*
X154979688Y-113366083D01*
X155702000Y-114088395D01*
X156424312Y-113366083D01*
X156423906Y-113364414D01*
X156431206Y-113361398D01*
X156794124Y-112999113D01*
X156990776Y-112525523D01*
X156991223Y-112012727D01*
X156795398Y-111538794D01*
X156707292Y-111450534D01*
X156807441Y-111386090D01*
X156952431Y-111173890D01*
X157003440Y-110922000D01*
X157003440Y-109614000D01*
X156959162Y-109378683D01*
X156820090Y-109162559D01*
X156728673Y-109100096D01*
X156875461Y-108953564D01*
X157086759Y-108444702D01*
X157086761Y-108442285D01*
X166254760Y-108442285D01*
X166465169Y-108951515D01*
X166612897Y-109099501D01*
X166534559Y-109149910D01*
X166389569Y-109362110D01*
X166338560Y-109614000D01*
X166338560Y-110922000D01*
X166382838Y-111157317D01*
X166521910Y-111373441D01*
X166634526Y-111450388D01*
X166547876Y-111536887D01*
X166351224Y-112010477D01*
X166350777Y-112523273D01*
X166546602Y-112997206D01*
X166817078Y-113268155D01*
X166547876Y-113536887D01*
X166351224Y-114010477D01*
X166350777Y-114523273D01*
X166546602Y-114997206D01*
X166799254Y-115250300D01*
X166466539Y-115582436D01*
X166255241Y-116091298D01*
X166254760Y-116642285D01*
X166465169Y-117151515D01*
X166854436Y-117541461D01*
X167363298Y-117752759D01*
X167914285Y-117753240D01*
X168423515Y-117542831D01*
X168813461Y-117153564D01*
X169024759Y-116644702D01*
X169024761Y-116642285D01*
X174636760Y-116642285D01*
X174847169Y-117151515D01*
X175236436Y-117541461D01*
X175745298Y-117752759D01*
X176296285Y-117753240D01*
X176805515Y-117542831D01*
X177195461Y-117153564D01*
X177406759Y-116644702D01*
X177407240Y-116093715D01*
X177196831Y-115584485D01*
X176807564Y-115194539D01*
X176741503Y-115167108D01*
X176022000Y-114447605D01*
X175303158Y-115166447D01*
X175238485Y-115193169D01*
X174848539Y-115582436D01*
X174637241Y-116091298D01*
X174636760Y-116642285D01*
X169024761Y-116642285D01*
X169025240Y-116093715D01*
X168814831Y-115584485D01*
X168480864Y-115249935D01*
X168732124Y-114999113D01*
X168928776Y-114525523D01*
X168929159Y-114086121D01*
X174720393Y-114086121D01*
X174749870Y-114598069D01*
X174889074Y-114934138D01*
X175120083Y-114990312D01*
X175842395Y-114268000D01*
X176201605Y-114268000D01*
X176923917Y-114990312D01*
X177154926Y-114934138D01*
X177323607Y-114449879D01*
X177294130Y-113937931D01*
X177154926Y-113601862D01*
X176923917Y-113545688D01*
X176201605Y-114268000D01*
X175842395Y-114268000D01*
X175120083Y-113545688D01*
X174889074Y-113601862D01*
X174720393Y-114086121D01*
X168929159Y-114086121D01*
X168929223Y-114012727D01*
X168733398Y-113538794D01*
X168462922Y-113267845D01*
X168732124Y-112999113D01*
X168928776Y-112525523D01*
X168929223Y-112012727D01*
X168733398Y-111538794D01*
X168645292Y-111450534D01*
X168745441Y-111386090D01*
X168890431Y-111173890D01*
X168941440Y-110922000D01*
X168941440Y-109614000D01*
X168897162Y-109378683D01*
X168758090Y-109162559D01*
X168666673Y-109100096D01*
X168813461Y-108953564D01*
X169024759Y-108444702D01*
X169024761Y-108442285D01*
X174636760Y-108442285D01*
X174847169Y-108951515D01*
X174994897Y-109099501D01*
X174916559Y-109149910D01*
X174771569Y-109362110D01*
X174720560Y-109614000D01*
X174720560Y-110922000D01*
X174764838Y-111157317D01*
X174903910Y-111373441D01*
X175016526Y-111450388D01*
X174929876Y-111536887D01*
X174733224Y-112010477D01*
X174732777Y-112523273D01*
X174928602Y-112997206D01*
X175290887Y-113360124D01*
X175300197Y-113363990D01*
X175299688Y-113366083D01*
X176022000Y-114088395D01*
X176744312Y-113366083D01*
X176743906Y-113364414D01*
X176751206Y-113361398D01*
X177114124Y-112999113D01*
X177310776Y-112525523D01*
X177311223Y-112012727D01*
X177115398Y-111538794D01*
X177027292Y-111450534D01*
X177127441Y-111386090D01*
X177272431Y-111173890D01*
X177323440Y-110922000D01*
X177323440Y-109614000D01*
X177279162Y-109378683D01*
X177140090Y-109162559D01*
X177048673Y-109100096D01*
X177195461Y-108953564D01*
X177406759Y-108444702D01*
X177406761Y-108442285D01*
X186574760Y-108442285D01*
X186785169Y-108951515D01*
X186932897Y-109099501D01*
X186854559Y-109149910D01*
X186709569Y-109362110D01*
X186658560Y-109614000D01*
X186658560Y-110922000D01*
X186702838Y-111157317D01*
X186841910Y-111373441D01*
X186954526Y-111450388D01*
X186867876Y-111536887D01*
X186671224Y-112010477D01*
X186670777Y-112523273D01*
X186866602Y-112997206D01*
X187137078Y-113268155D01*
X186867876Y-113536887D01*
X186671224Y-114010477D01*
X186670777Y-114523273D01*
X186866602Y-114997206D01*
X187119254Y-115250300D01*
X186786539Y-115582436D01*
X186575241Y-116091298D01*
X186574760Y-116642285D01*
X186785169Y-117151515D01*
X187174436Y-117541461D01*
X187683298Y-117752759D01*
X188234285Y-117753240D01*
X188743515Y-117542831D01*
X189133461Y-117153564D01*
X189344759Y-116644702D01*
X189344761Y-116642285D01*
X194956760Y-116642285D01*
X195167169Y-117151515D01*
X195556436Y-117541461D01*
X196065298Y-117752759D01*
X196616285Y-117753240D01*
X197125515Y-117542831D01*
X197515461Y-117153564D01*
X197726759Y-116644702D01*
X197727240Y-116093715D01*
X197516831Y-115584485D01*
X197127564Y-115194539D01*
X197061503Y-115167108D01*
X196342000Y-114447605D01*
X195623158Y-115166447D01*
X195558485Y-115193169D01*
X195168539Y-115582436D01*
X194957241Y-116091298D01*
X194956760Y-116642285D01*
X189344761Y-116642285D01*
X189345240Y-116093715D01*
X189134831Y-115584485D01*
X188800864Y-115249935D01*
X189052124Y-114999113D01*
X189248776Y-114525523D01*
X189249159Y-114086121D01*
X195040393Y-114086121D01*
X195069870Y-114598069D01*
X195209074Y-114934138D01*
X195440083Y-114990312D01*
X196162395Y-114268000D01*
X196521605Y-114268000D01*
X197243917Y-114990312D01*
X197474926Y-114934138D01*
X197643607Y-114449879D01*
X197614130Y-113937931D01*
X197474926Y-113601862D01*
X197243917Y-113545688D01*
X196521605Y-114268000D01*
X196162395Y-114268000D01*
X195440083Y-113545688D01*
X195209074Y-113601862D01*
X195040393Y-114086121D01*
X189249159Y-114086121D01*
X189249223Y-114012727D01*
X189053398Y-113538794D01*
X188782922Y-113267845D01*
X189052124Y-112999113D01*
X189248776Y-112525523D01*
X189249223Y-112012727D01*
X189053398Y-111538794D01*
X188965292Y-111450534D01*
X189065441Y-111386090D01*
X189210431Y-111173890D01*
X189261440Y-110922000D01*
X189261440Y-109614000D01*
X189217162Y-109378683D01*
X189078090Y-109162559D01*
X188986673Y-109100096D01*
X189133461Y-108953564D01*
X189344759Y-108444702D01*
X189344761Y-108442285D01*
X194956760Y-108442285D01*
X195167169Y-108951515D01*
X195314897Y-109099501D01*
X195236559Y-109149910D01*
X195091569Y-109362110D01*
X195040560Y-109614000D01*
X195040560Y-110922000D01*
X195084838Y-111157317D01*
X195223910Y-111373441D01*
X195336526Y-111450388D01*
X195249876Y-111536887D01*
X195053224Y-112010477D01*
X195052777Y-112523273D01*
X195248602Y-112997206D01*
X195610887Y-113360124D01*
X195620197Y-113363990D01*
X195619688Y-113366083D01*
X196342000Y-114088395D01*
X197064312Y-113366083D01*
X197063906Y-113364414D01*
X197071206Y-113361398D01*
X197434124Y-112999113D01*
X197630776Y-112525523D01*
X197631223Y-112012727D01*
X197435398Y-111538794D01*
X197347292Y-111450534D01*
X197447441Y-111386090D01*
X197592431Y-111173890D01*
X197643440Y-110922000D01*
X197643440Y-109614000D01*
X197599162Y-109378683D01*
X197460090Y-109162559D01*
X197368673Y-109100096D01*
X197515461Y-108953564D01*
X197726759Y-108444702D01*
X197727240Y-107893715D01*
X197516831Y-107384485D01*
X197127564Y-106994539D01*
X196618702Y-106783241D01*
X196067715Y-106782760D01*
X195558485Y-106993169D01*
X195168539Y-107382436D01*
X194957241Y-107891298D01*
X194956760Y-108442285D01*
X189344761Y-108442285D01*
X189345240Y-107893715D01*
X189134831Y-107384485D01*
X188745564Y-106994539D01*
X188236702Y-106783241D01*
X187685715Y-106782760D01*
X187176485Y-106993169D01*
X186786539Y-107382436D01*
X186575241Y-107891298D01*
X186574760Y-108442285D01*
X177406761Y-108442285D01*
X177407240Y-107893715D01*
X177196831Y-107384485D01*
X176807564Y-106994539D01*
X176298702Y-106783241D01*
X175747715Y-106782760D01*
X175238485Y-106993169D01*
X174848539Y-107382436D01*
X174637241Y-107891298D01*
X174636760Y-108442285D01*
X169024761Y-108442285D01*
X169025240Y-107893715D01*
X168814831Y-107384485D01*
X168425564Y-106994539D01*
X167916702Y-106783241D01*
X167365715Y-106782760D01*
X166856485Y-106993169D01*
X166466539Y-107382436D01*
X166255241Y-107891298D01*
X166254760Y-108442285D01*
X157086761Y-108442285D01*
X157087240Y-107893715D01*
X156876831Y-107384485D01*
X156487564Y-106994539D01*
X155978702Y-106783241D01*
X155427715Y-106782760D01*
X154918485Y-106993169D01*
X154528539Y-107382436D01*
X154317241Y-107891298D01*
X154316760Y-108442285D01*
X148704761Y-108442285D01*
X148705240Y-107893715D01*
X148494831Y-107384485D01*
X148105564Y-106994539D01*
X147596702Y-106783241D01*
X147045715Y-106782760D01*
X146536485Y-106993169D01*
X146146539Y-107382436D01*
X145935241Y-107891298D01*
X145934760Y-108442285D01*
X136766761Y-108442285D01*
X136767240Y-107893715D01*
X136556831Y-107384485D01*
X136167564Y-106994539D01*
X135658702Y-106783241D01*
X135107715Y-106782760D01*
X134598485Y-106993169D01*
X134208539Y-107382436D01*
X133997241Y-107891298D01*
X133996760Y-108442285D01*
X128384761Y-108442285D01*
X128385240Y-107893715D01*
X128174831Y-107384485D01*
X127785564Y-106994539D01*
X127276702Y-106783241D01*
X126725715Y-106782760D01*
X126216485Y-106993169D01*
X125826539Y-107382436D01*
X125615241Y-107891298D01*
X125614760Y-108442285D01*
X116446761Y-108442285D01*
X116447240Y-107893715D01*
X116236831Y-107384485D01*
X115847564Y-106994539D01*
X115338702Y-106783241D01*
X114787715Y-106782760D01*
X114278485Y-106993169D01*
X113888539Y-107382436D01*
X113677241Y-107891298D01*
X113676760Y-108442285D01*
X108064761Y-108442285D01*
X108065240Y-107893715D01*
X107854831Y-107384485D01*
X107465564Y-106994539D01*
X106956702Y-106783241D01*
X106405715Y-106782760D01*
X105896485Y-106993169D01*
X105506539Y-107382436D01*
X105295241Y-107891298D01*
X105294760Y-108442285D01*
X96126761Y-108442285D01*
X96127240Y-107893715D01*
X95916831Y-107384485D01*
X95527564Y-106994539D01*
X95018702Y-106783241D01*
X94467715Y-106782760D01*
X93958485Y-106993169D01*
X93568539Y-107382436D01*
X93357241Y-107891298D01*
X93356760Y-108442285D01*
X87744761Y-108442285D01*
X87745240Y-107893715D01*
X87534831Y-107384485D01*
X87145564Y-106994539D01*
X86636702Y-106783241D01*
X86085715Y-106782760D01*
X85576485Y-106993169D01*
X85186539Y-107382436D01*
X84975241Y-107891298D01*
X84974760Y-108442285D01*
X75806761Y-108442285D01*
X75807240Y-107893715D01*
X75596831Y-107384485D01*
X75207564Y-106994539D01*
X74698702Y-106783241D01*
X74147715Y-106782760D01*
X73638485Y-106993169D01*
X73248539Y-107382436D01*
X73037241Y-107891298D01*
X73036760Y-108442285D01*
X67424761Y-108442285D01*
X67425240Y-107893715D01*
X67214831Y-107384485D01*
X66825564Y-106994539D01*
X66316702Y-106783241D01*
X65765715Y-106782760D01*
X65256485Y-106993169D01*
X64866539Y-107382436D01*
X64655241Y-107891298D01*
X64654760Y-108442285D01*
X55486761Y-108442285D01*
X55487240Y-107893715D01*
X55276831Y-107384485D01*
X54887564Y-106994539D01*
X54378702Y-106783241D01*
X53827715Y-106782760D01*
X53318485Y-106993169D01*
X52928539Y-107382436D01*
X52717241Y-107891298D01*
X52716760Y-108442285D01*
X47104761Y-108442285D01*
X47105240Y-107893715D01*
X46894831Y-107384485D01*
X46505564Y-106994539D01*
X45996702Y-106783241D01*
X45445715Y-106782760D01*
X44936485Y-106993169D01*
X44546539Y-107382436D01*
X44335241Y-107891298D01*
X44334760Y-108442285D01*
X21005000Y-108442285D01*
X21005000Y-105595167D01*
X44784838Y-105595167D01*
X44926883Y-105938943D01*
X45189673Y-106202192D01*
X45533201Y-106344838D01*
X45905167Y-106345162D01*
X46248943Y-106203117D01*
X46282118Y-106170000D01*
X54047537Y-106170000D01*
X54079673Y-106202192D01*
X54423201Y-106344838D01*
X54795167Y-106345162D01*
X55138943Y-106203117D01*
X55402192Y-105940327D01*
X55544838Y-105596799D01*
X55544839Y-105595167D01*
X65104838Y-105595167D01*
X65246883Y-105938943D01*
X65509673Y-106202192D01*
X65853201Y-106344838D01*
X66225167Y-106345162D01*
X66568943Y-106203117D01*
X66602118Y-106170000D01*
X74367537Y-106170000D01*
X74399673Y-106202192D01*
X74743201Y-106344838D01*
X75115167Y-106345162D01*
X75458943Y-106203117D01*
X75722192Y-105940327D01*
X75864838Y-105596799D01*
X75864839Y-105595167D01*
X85424838Y-105595167D01*
X85566883Y-105938943D01*
X85829673Y-106202192D01*
X86173201Y-106344838D01*
X86545167Y-106345162D01*
X86888943Y-106203117D01*
X86922118Y-106170000D01*
X94687537Y-106170000D01*
X94719673Y-106202192D01*
X95063201Y-106344838D01*
X95435167Y-106345162D01*
X95778943Y-106203117D01*
X96042192Y-105940327D01*
X96184838Y-105596799D01*
X96184839Y-105595167D01*
X105744838Y-105595167D01*
X105886883Y-105938943D01*
X106149673Y-106202192D01*
X106493201Y-106344838D01*
X106865167Y-106345162D01*
X107208943Y-106203117D01*
X107242118Y-106170000D01*
X115007537Y-106170000D01*
X115039673Y-106202192D01*
X115383201Y-106344838D01*
X115755167Y-106345162D01*
X116098943Y-106203117D01*
X116362192Y-105940327D01*
X116504838Y-105596799D01*
X116504839Y-105595167D01*
X126064838Y-105595167D01*
X126206883Y-105938943D01*
X126469673Y-106202192D01*
X126813201Y-106344838D01*
X127185167Y-106345162D01*
X127528943Y-106203117D01*
X127562118Y-106170000D01*
X135327537Y-106170000D01*
X135359673Y-106202192D01*
X135703201Y-106344838D01*
X136075167Y-106345162D01*
X136418943Y-106203117D01*
X136682192Y-105940327D01*
X136824838Y-105596799D01*
X136824839Y-105595167D01*
X146384838Y-105595167D01*
X146526883Y-105938943D01*
X146789673Y-106202192D01*
X147133201Y-106344838D01*
X147505167Y-106345162D01*
X147848943Y-106203117D01*
X147882118Y-106170000D01*
X155647537Y-106170000D01*
X155679673Y-106202192D01*
X156023201Y-106344838D01*
X156395167Y-106345162D01*
X156738943Y-106203117D01*
X157002192Y-105940327D01*
X157144838Y-105596799D01*
X157144839Y-105595167D01*
X166704838Y-105595167D01*
X166846883Y-105938943D01*
X167109673Y-106202192D01*
X167453201Y-106344838D01*
X167825167Y-106345162D01*
X168168943Y-106203117D01*
X168202118Y-106170000D01*
X175967537Y-106170000D01*
X175999673Y-106202192D01*
X176343201Y-106344838D01*
X176715167Y-106345162D01*
X177058943Y-106203117D01*
X177322192Y-105940327D01*
X177464838Y-105596799D01*
X177465162Y-105224833D01*
X177323117Y-104881057D01*
X177060327Y-104617808D01*
X176716799Y-104475162D01*
X176344833Y-104474838D01*
X176001057Y-104616883D01*
X175967882Y-104650000D01*
X168202463Y-104650000D01*
X168170327Y-104617808D01*
X167826799Y-104475162D01*
X167454833Y-104474838D01*
X167111057Y-104616883D01*
X166847808Y-104879673D01*
X166705162Y-105223201D01*
X166704838Y-105595167D01*
X157144839Y-105595167D01*
X157145162Y-105224833D01*
X157003117Y-104881057D01*
X156740327Y-104617808D01*
X156396799Y-104475162D01*
X156024833Y-104474838D01*
X155681057Y-104616883D01*
X155647882Y-104650000D01*
X147882463Y-104650000D01*
X147850327Y-104617808D01*
X147506799Y-104475162D01*
X147134833Y-104474838D01*
X146791057Y-104616883D01*
X146527808Y-104879673D01*
X146385162Y-105223201D01*
X146384838Y-105595167D01*
X136824839Y-105595167D01*
X136825162Y-105224833D01*
X136683117Y-104881057D01*
X136420327Y-104617808D01*
X136076799Y-104475162D01*
X135704833Y-104474838D01*
X135361057Y-104616883D01*
X135327882Y-104650000D01*
X127562463Y-104650000D01*
X127530327Y-104617808D01*
X127186799Y-104475162D01*
X126814833Y-104474838D01*
X126471057Y-104616883D01*
X126207808Y-104879673D01*
X126065162Y-105223201D01*
X126064838Y-105595167D01*
X116504839Y-105595167D01*
X116505162Y-105224833D01*
X116363117Y-104881057D01*
X116100327Y-104617808D01*
X115756799Y-104475162D01*
X115384833Y-104474838D01*
X115041057Y-104616883D01*
X115007882Y-104650000D01*
X107242463Y-104650000D01*
X107210327Y-104617808D01*
X106866799Y-104475162D01*
X106494833Y-104474838D01*
X106151057Y-104616883D01*
X105887808Y-104879673D01*
X105745162Y-105223201D01*
X105744838Y-105595167D01*
X96184839Y-105595167D01*
X96185162Y-105224833D01*
X96043117Y-104881057D01*
X95780327Y-104617808D01*
X95436799Y-104475162D01*
X95064833Y-104474838D01*
X94721057Y-104616883D01*
X94687882Y-104650000D01*
X86922463Y-104650000D01*
X86890327Y-104617808D01*
X86546799Y-104475162D01*
X86174833Y-104474838D01*
X85831057Y-104616883D01*
X85567808Y-104879673D01*
X85425162Y-105223201D01*
X85424838Y-105595167D01*
X75864839Y-105595167D01*
X75865162Y-105224833D01*
X75723117Y-104881057D01*
X75460327Y-104617808D01*
X75116799Y-104475162D01*
X74744833Y-104474838D01*
X74401057Y-104616883D01*
X74367882Y-104650000D01*
X66602463Y-104650000D01*
X66570327Y-104617808D01*
X66226799Y-104475162D01*
X65854833Y-104474838D01*
X65511057Y-104616883D01*
X65247808Y-104879673D01*
X65105162Y-105223201D01*
X65104838Y-105595167D01*
X55544839Y-105595167D01*
X55545162Y-105224833D01*
X55403117Y-104881057D01*
X55140327Y-104617808D01*
X54796799Y-104475162D01*
X54424833Y-104474838D01*
X54081057Y-104616883D01*
X54047882Y-104650000D01*
X46282463Y-104650000D01*
X46250327Y-104617808D01*
X45906799Y-104475162D01*
X45534833Y-104474838D01*
X45191057Y-104616883D01*
X44927808Y-104879673D01*
X44785162Y-105223201D01*
X44784838Y-105595167D01*
X21005000Y-105595167D01*
X21005000Y-101788619D01*
X24434613Y-101788619D01*
X24774155Y-102610372D01*
X25402321Y-103239636D01*
X26223481Y-103580611D01*
X27112619Y-103581387D01*
X27934372Y-103241845D01*
X28563636Y-102613679D01*
X28904611Y-101792519D01*
X28904689Y-101702892D01*
X33356514Y-101702892D01*
X33602817Y-102227358D01*
X34031076Y-102617645D01*
X34441110Y-102787476D01*
X34671000Y-102666155D01*
X34671000Y-101473000D01*
X33477181Y-101473000D01*
X33356514Y-101702892D01*
X28904689Y-101702892D01*
X28905312Y-100989108D01*
X33356514Y-100989108D01*
X33477181Y-101219000D01*
X34671000Y-101219000D01*
X34671000Y-100025845D01*
X34925000Y-100025845D01*
X34925000Y-101219000D01*
X34945000Y-101219000D01*
X34945000Y-101473000D01*
X34925000Y-101473000D01*
X34925000Y-102666155D01*
X35154890Y-102787476D01*
X35564924Y-102617645D01*
X35867937Y-102341499D01*
X35884838Y-102431317D01*
X36023910Y-102647441D01*
X36236110Y-102792431D01*
X36488000Y-102843440D01*
X38188000Y-102843440D01*
X38423317Y-102799162D01*
X38639441Y-102660090D01*
X38784431Y-102447890D01*
X38835440Y-102196000D01*
X38835440Y-100496000D01*
X46000560Y-100496000D01*
X46000560Y-102196000D01*
X46044838Y-102431317D01*
X46183910Y-102647441D01*
X46396110Y-102792431D01*
X46648000Y-102843440D01*
X48348000Y-102843440D01*
X48583317Y-102799162D01*
X48799441Y-102660090D01*
X48944431Y-102447890D01*
X48958086Y-102380459D01*
X48987946Y-102425147D01*
X49469715Y-102747054D01*
X50038000Y-102860093D01*
X50606285Y-102747054D01*
X51088054Y-102425147D01*
X51308000Y-102095974D01*
X51527946Y-102425147D01*
X52009715Y-102747054D01*
X52578000Y-102860093D01*
X53146285Y-102747054D01*
X53628054Y-102425147D01*
X53949961Y-101943378D01*
X54063000Y-101375093D01*
X54063000Y-101316907D01*
X53949961Y-100748622D01*
X53781165Y-100496000D01*
X66320560Y-100496000D01*
X66320560Y-102196000D01*
X66364838Y-102431317D01*
X66503910Y-102647441D01*
X66716110Y-102792431D01*
X66968000Y-102843440D01*
X68668000Y-102843440D01*
X68903317Y-102799162D01*
X69119441Y-102660090D01*
X69264431Y-102447890D01*
X69278086Y-102380459D01*
X69307946Y-102425147D01*
X69789715Y-102747054D01*
X70358000Y-102860093D01*
X70926285Y-102747054D01*
X71408054Y-102425147D01*
X71628000Y-102095974D01*
X71847946Y-102425147D01*
X72329715Y-102747054D01*
X72898000Y-102860093D01*
X73466285Y-102747054D01*
X73948054Y-102425147D01*
X74269961Y-101943378D01*
X74383000Y-101375093D01*
X74383000Y-101316907D01*
X74269961Y-100748622D01*
X74101165Y-100496000D01*
X86640560Y-100496000D01*
X86640560Y-102196000D01*
X86684838Y-102431317D01*
X86823910Y-102647441D01*
X87036110Y-102792431D01*
X87288000Y-102843440D01*
X88988000Y-102843440D01*
X89223317Y-102799162D01*
X89439441Y-102660090D01*
X89584431Y-102447890D01*
X89598086Y-102380459D01*
X89627946Y-102425147D01*
X90109715Y-102747054D01*
X90678000Y-102860093D01*
X91246285Y-102747054D01*
X91728054Y-102425147D01*
X91948000Y-102095974D01*
X92167946Y-102425147D01*
X92649715Y-102747054D01*
X93218000Y-102860093D01*
X93786285Y-102747054D01*
X94268054Y-102425147D01*
X94589961Y-101943378D01*
X94703000Y-101375093D01*
X94703000Y-101316907D01*
X94589961Y-100748622D01*
X94421165Y-100496000D01*
X106960560Y-100496000D01*
X106960560Y-102196000D01*
X107004838Y-102431317D01*
X107143910Y-102647441D01*
X107356110Y-102792431D01*
X107608000Y-102843440D01*
X109308000Y-102843440D01*
X109543317Y-102799162D01*
X109759441Y-102660090D01*
X109904431Y-102447890D01*
X109918086Y-102380459D01*
X109947946Y-102425147D01*
X110429715Y-102747054D01*
X110998000Y-102860093D01*
X111566285Y-102747054D01*
X112048054Y-102425147D01*
X112268000Y-102095974D01*
X112487946Y-102425147D01*
X112969715Y-102747054D01*
X113538000Y-102860093D01*
X114106285Y-102747054D01*
X114588054Y-102425147D01*
X114909961Y-101943378D01*
X114991268Y-101534619D01*
X118922613Y-101534619D01*
X119262155Y-102356372D01*
X119890321Y-102985636D01*
X120711481Y-103326611D01*
X121600619Y-103327387D01*
X122422372Y-102987845D01*
X123051636Y-102359679D01*
X123392611Y-101538519D01*
X123393387Y-100649381D01*
X123330012Y-100496000D01*
X127280560Y-100496000D01*
X127280560Y-102196000D01*
X127324838Y-102431317D01*
X127463910Y-102647441D01*
X127676110Y-102792431D01*
X127928000Y-102843440D01*
X129628000Y-102843440D01*
X129863317Y-102799162D01*
X130079441Y-102660090D01*
X130224431Y-102447890D01*
X130238086Y-102380459D01*
X130267946Y-102425147D01*
X130749715Y-102747054D01*
X131318000Y-102860093D01*
X131886285Y-102747054D01*
X132368054Y-102425147D01*
X132588000Y-102095974D01*
X132807946Y-102425147D01*
X133289715Y-102747054D01*
X133858000Y-102860093D01*
X134426285Y-102747054D01*
X134908054Y-102425147D01*
X135229961Y-101943378D01*
X135343000Y-101375093D01*
X135343000Y-101316907D01*
X135229961Y-100748622D01*
X135061165Y-100496000D01*
X147600560Y-100496000D01*
X147600560Y-102196000D01*
X147644838Y-102431317D01*
X147783910Y-102647441D01*
X147996110Y-102792431D01*
X148248000Y-102843440D01*
X149948000Y-102843440D01*
X150183317Y-102799162D01*
X150399441Y-102660090D01*
X150544431Y-102447890D01*
X150558086Y-102380459D01*
X150587946Y-102425147D01*
X151069715Y-102747054D01*
X151638000Y-102860093D01*
X152206285Y-102747054D01*
X152688054Y-102425147D01*
X152908000Y-102095974D01*
X153127946Y-102425147D01*
X153609715Y-102747054D01*
X154178000Y-102860093D01*
X154746285Y-102747054D01*
X155228054Y-102425147D01*
X155549961Y-101943378D01*
X155663000Y-101375093D01*
X155663000Y-101316907D01*
X155549961Y-100748622D01*
X155381165Y-100496000D01*
X167920560Y-100496000D01*
X167920560Y-102196000D01*
X167964838Y-102431317D01*
X168103910Y-102647441D01*
X168316110Y-102792431D01*
X168568000Y-102843440D01*
X170268000Y-102843440D01*
X170503317Y-102799162D01*
X170719441Y-102660090D01*
X170864431Y-102447890D01*
X170878086Y-102380459D01*
X170907946Y-102425147D01*
X171389715Y-102747054D01*
X171958000Y-102860093D01*
X172526285Y-102747054D01*
X173008054Y-102425147D01*
X173228000Y-102095974D01*
X173447946Y-102425147D01*
X173929715Y-102747054D01*
X174498000Y-102860093D01*
X175066285Y-102747054D01*
X175548054Y-102425147D01*
X175869961Y-101943378D01*
X175983000Y-101375093D01*
X175983000Y-101316907D01*
X175869961Y-100748622D01*
X175701165Y-100496000D01*
X188240560Y-100496000D01*
X188240560Y-102196000D01*
X188284838Y-102431317D01*
X188423910Y-102647441D01*
X188636110Y-102792431D01*
X188888000Y-102843440D01*
X190588000Y-102843440D01*
X190823317Y-102799162D01*
X191039441Y-102660090D01*
X191184431Y-102447890D01*
X191198086Y-102380459D01*
X191227946Y-102425147D01*
X191709715Y-102747054D01*
X192278000Y-102860093D01*
X192846285Y-102747054D01*
X193328054Y-102425147D01*
X193548000Y-102095974D01*
X193767946Y-102425147D01*
X194249715Y-102747054D01*
X194818000Y-102860093D01*
X195386285Y-102747054D01*
X195868054Y-102425147D01*
X196189961Y-101943378D01*
X196271268Y-101534619D01*
X202742613Y-101534619D01*
X203082155Y-102356372D01*
X203710321Y-102985636D01*
X204531481Y-103326611D01*
X205420619Y-103327387D01*
X206242372Y-102987845D01*
X206871636Y-102359679D01*
X207212611Y-101538519D01*
X207213387Y-100649381D01*
X206873845Y-99827628D01*
X206245679Y-99198364D01*
X205424519Y-98857389D01*
X204535381Y-98856613D01*
X203713628Y-99196155D01*
X203084364Y-99824321D01*
X202743389Y-100645481D01*
X202742613Y-101534619D01*
X196271268Y-101534619D01*
X196303000Y-101375093D01*
X196303000Y-101316907D01*
X196189961Y-100748622D01*
X195868054Y-100266853D01*
X195386285Y-99944946D01*
X194818000Y-99831907D01*
X194249715Y-99944946D01*
X193767946Y-100266853D01*
X193548000Y-100596026D01*
X193328054Y-100266853D01*
X192846285Y-99944946D01*
X192278000Y-99831907D01*
X191709715Y-99944946D01*
X191227946Y-100266853D01*
X191200150Y-100308452D01*
X191191162Y-100260683D01*
X191052090Y-100044559D01*
X190839890Y-99899569D01*
X190588000Y-99848560D01*
X188888000Y-99848560D01*
X188652683Y-99892838D01*
X188436559Y-100031910D01*
X188291569Y-100244110D01*
X188240560Y-100496000D01*
X175701165Y-100496000D01*
X175548054Y-100266853D01*
X175066285Y-99944946D01*
X174498000Y-99831907D01*
X173929715Y-99944946D01*
X173447946Y-100266853D01*
X173228000Y-100596026D01*
X173008054Y-100266853D01*
X172526285Y-99944946D01*
X171958000Y-99831907D01*
X171389715Y-99944946D01*
X170907946Y-100266853D01*
X170880150Y-100308452D01*
X170871162Y-100260683D01*
X170732090Y-100044559D01*
X170519890Y-99899569D01*
X170268000Y-99848560D01*
X168568000Y-99848560D01*
X168332683Y-99892838D01*
X168116559Y-100031910D01*
X167971569Y-100244110D01*
X167920560Y-100496000D01*
X155381165Y-100496000D01*
X155228054Y-100266853D01*
X154746285Y-99944946D01*
X154178000Y-99831907D01*
X153609715Y-99944946D01*
X153127946Y-100266853D01*
X152908000Y-100596026D01*
X152688054Y-100266853D01*
X152206285Y-99944946D01*
X151638000Y-99831907D01*
X151069715Y-99944946D01*
X150587946Y-100266853D01*
X150560150Y-100308452D01*
X150551162Y-100260683D01*
X150412090Y-100044559D01*
X150199890Y-99899569D01*
X149948000Y-99848560D01*
X148248000Y-99848560D01*
X148012683Y-99892838D01*
X147796559Y-100031910D01*
X147651569Y-100244110D01*
X147600560Y-100496000D01*
X135061165Y-100496000D01*
X134908054Y-100266853D01*
X134426285Y-99944946D01*
X133858000Y-99831907D01*
X133289715Y-99944946D01*
X132807946Y-100266853D01*
X132588000Y-100596026D01*
X132368054Y-100266853D01*
X131886285Y-99944946D01*
X131318000Y-99831907D01*
X130749715Y-99944946D01*
X130267946Y-100266853D01*
X130240150Y-100308452D01*
X130231162Y-100260683D01*
X130092090Y-100044559D01*
X129879890Y-99899569D01*
X129628000Y-99848560D01*
X127928000Y-99848560D01*
X127692683Y-99892838D01*
X127476559Y-100031910D01*
X127331569Y-100244110D01*
X127280560Y-100496000D01*
X123330012Y-100496000D01*
X123053845Y-99827628D01*
X122425679Y-99198364D01*
X121604519Y-98857389D01*
X120715381Y-98856613D01*
X119893628Y-99196155D01*
X119264364Y-99824321D01*
X118923389Y-100645481D01*
X118922613Y-101534619D01*
X114991268Y-101534619D01*
X115023000Y-101375093D01*
X115023000Y-101316907D01*
X114909961Y-100748622D01*
X114588054Y-100266853D01*
X114106285Y-99944946D01*
X113538000Y-99831907D01*
X112969715Y-99944946D01*
X112487946Y-100266853D01*
X112268000Y-100596026D01*
X112048054Y-100266853D01*
X111566285Y-99944946D01*
X110998000Y-99831907D01*
X110429715Y-99944946D01*
X109947946Y-100266853D01*
X109920150Y-100308452D01*
X109911162Y-100260683D01*
X109772090Y-100044559D01*
X109559890Y-99899569D01*
X109308000Y-99848560D01*
X107608000Y-99848560D01*
X107372683Y-99892838D01*
X107156559Y-100031910D01*
X107011569Y-100244110D01*
X106960560Y-100496000D01*
X94421165Y-100496000D01*
X94268054Y-100266853D01*
X93786285Y-99944946D01*
X93218000Y-99831907D01*
X92649715Y-99944946D01*
X92167946Y-100266853D01*
X91948000Y-100596026D01*
X91728054Y-100266853D01*
X91246285Y-99944946D01*
X90678000Y-99831907D01*
X90109715Y-99944946D01*
X89627946Y-100266853D01*
X89600150Y-100308452D01*
X89591162Y-100260683D01*
X89452090Y-100044559D01*
X89239890Y-99899569D01*
X88988000Y-99848560D01*
X87288000Y-99848560D01*
X87052683Y-99892838D01*
X86836559Y-100031910D01*
X86691569Y-100244110D01*
X86640560Y-100496000D01*
X74101165Y-100496000D01*
X73948054Y-100266853D01*
X73466285Y-99944946D01*
X72898000Y-99831907D01*
X72329715Y-99944946D01*
X71847946Y-100266853D01*
X71628000Y-100596026D01*
X71408054Y-100266853D01*
X70926285Y-99944946D01*
X70358000Y-99831907D01*
X69789715Y-99944946D01*
X69307946Y-100266853D01*
X69280150Y-100308452D01*
X69271162Y-100260683D01*
X69132090Y-100044559D01*
X68919890Y-99899569D01*
X68668000Y-99848560D01*
X66968000Y-99848560D01*
X66732683Y-99892838D01*
X66516559Y-100031910D01*
X66371569Y-100244110D01*
X66320560Y-100496000D01*
X53781165Y-100496000D01*
X53628054Y-100266853D01*
X53146285Y-99944946D01*
X52578000Y-99831907D01*
X52009715Y-99944946D01*
X51527946Y-100266853D01*
X51308000Y-100596026D01*
X51088054Y-100266853D01*
X50606285Y-99944946D01*
X50038000Y-99831907D01*
X49469715Y-99944946D01*
X48987946Y-100266853D01*
X48960150Y-100308452D01*
X48951162Y-100260683D01*
X48812090Y-100044559D01*
X48599890Y-99899569D01*
X48348000Y-99848560D01*
X46648000Y-99848560D01*
X46412683Y-99892838D01*
X46196559Y-100031910D01*
X46051569Y-100244110D01*
X46000560Y-100496000D01*
X38835440Y-100496000D01*
X38791162Y-100260683D01*
X38652090Y-100044559D01*
X38439890Y-99899569D01*
X38188000Y-99848560D01*
X36488000Y-99848560D01*
X36252683Y-99892838D01*
X36036559Y-100031910D01*
X35891569Y-100244110D01*
X35869699Y-100352107D01*
X35564924Y-100074355D01*
X35154890Y-99904524D01*
X34925000Y-100025845D01*
X34671000Y-100025845D01*
X34441110Y-99904524D01*
X34031076Y-100074355D01*
X33602817Y-100464642D01*
X33356514Y-100989108D01*
X28905312Y-100989108D01*
X28905387Y-100903381D01*
X28565845Y-100081628D01*
X27937679Y-99452364D01*
X27116519Y-99111389D01*
X26227381Y-99110613D01*
X25405628Y-99450155D01*
X24776364Y-100078321D01*
X24435389Y-100899481D01*
X24434613Y-101788619D01*
X21005000Y-101788619D01*
X21005000Y-97205000D01*
X210135000Y-97205000D01*
X210135000Y-141555000D01*
M02*
