G04 #@! TF.FileFunction,Legend,Top*
%FSLAX46Y46*%
G04 Gerber Fmt 4.6, Leading zero omitted, Abs format (unit mm)*
G04 Created by KiCad (PCBNEW 4.0.7) date Tuesday, 08 May 2018 'AMt' 10:50:03 AM*
%MOMM*%
%LPD*%
G01*
G04 APERTURE LIST*
%ADD10C,0.100000*%
%ADD11C,0.250000*%
%ADD12C,0.300000*%
%ADD13C,0.120000*%
%ADD14C,0.127000*%
%ADD15C,0.200000*%
%ADD16C,0.150000*%
G04 APERTURE END LIST*
D10*
D11*
X24368095Y-123049381D02*
X24368095Y-122049381D01*
X24749048Y-122049381D01*
X24844286Y-122097000D01*
X24891905Y-122144619D01*
X24939524Y-122239857D01*
X24939524Y-122382714D01*
X24891905Y-122477952D01*
X24844286Y-122525571D01*
X24749048Y-122573190D01*
X24368095Y-122573190D01*
X25510952Y-123049381D02*
X25415714Y-123001762D01*
X25368095Y-122954143D01*
X25320476Y-122858905D01*
X25320476Y-122573190D01*
X25368095Y-122477952D01*
X25415714Y-122430333D01*
X25510952Y-122382714D01*
X25653810Y-122382714D01*
X25749048Y-122430333D01*
X25796667Y-122477952D01*
X25844286Y-122573190D01*
X25844286Y-122858905D01*
X25796667Y-122954143D01*
X25749048Y-123001762D01*
X25653810Y-123049381D01*
X25510952Y-123049381D01*
X26130000Y-122382714D02*
X26510952Y-122382714D01*
X26272857Y-122049381D02*
X26272857Y-122906524D01*
X26320476Y-123001762D01*
X26415714Y-123049381D01*
X26510952Y-123049381D01*
X27225239Y-123001762D02*
X27130001Y-123049381D01*
X26939524Y-123049381D01*
X26844286Y-123001762D01*
X26796667Y-122906524D01*
X26796667Y-122525571D01*
X26844286Y-122430333D01*
X26939524Y-122382714D01*
X27130001Y-122382714D01*
X27225239Y-122430333D01*
X27272858Y-122525571D01*
X27272858Y-122620810D01*
X26796667Y-122716048D01*
X27701429Y-122382714D02*
X27701429Y-123049381D01*
X27701429Y-122477952D02*
X27749048Y-122430333D01*
X27844286Y-122382714D01*
X27987144Y-122382714D01*
X28082382Y-122430333D01*
X28130001Y-122525571D01*
X28130001Y-123049381D01*
X28463334Y-122382714D02*
X28844286Y-122382714D01*
X28606191Y-122049381D02*
X28606191Y-122906524D01*
X28653810Y-123001762D01*
X28749048Y-123049381D01*
X28844286Y-123049381D01*
X29177620Y-123049381D02*
X29177620Y-122382714D01*
X29177620Y-122049381D02*
X29130001Y-122097000D01*
X29177620Y-122144619D01*
X29225239Y-122097000D01*
X29177620Y-122049381D01*
X29177620Y-122144619D01*
X29796667Y-123049381D02*
X29701429Y-123001762D01*
X29653810Y-122954143D01*
X29606191Y-122858905D01*
X29606191Y-122573190D01*
X29653810Y-122477952D01*
X29701429Y-122430333D01*
X29796667Y-122382714D01*
X29939525Y-122382714D01*
X30034763Y-122430333D01*
X30082382Y-122477952D01*
X30130001Y-122573190D01*
X30130001Y-122858905D01*
X30082382Y-122954143D01*
X30034763Y-123001762D01*
X29939525Y-123049381D01*
X29796667Y-123049381D01*
X30558572Y-123049381D02*
X30558572Y-122382714D01*
X30558572Y-122477952D02*
X30606191Y-122430333D01*
X30701429Y-122382714D01*
X30844287Y-122382714D01*
X30939525Y-122430333D01*
X30987144Y-122525571D01*
X30987144Y-123049381D01*
X30987144Y-122525571D02*
X31034763Y-122430333D01*
X31130001Y-122382714D01*
X31272858Y-122382714D01*
X31368096Y-122430333D01*
X31415715Y-122525571D01*
X31415715Y-123049381D01*
X32272858Y-123001762D02*
X32177620Y-123049381D01*
X31987143Y-123049381D01*
X31891905Y-123001762D01*
X31844286Y-122906524D01*
X31844286Y-122525571D01*
X31891905Y-122430333D01*
X31987143Y-122382714D01*
X32177620Y-122382714D01*
X32272858Y-122430333D01*
X32320477Y-122525571D01*
X32320477Y-122620810D01*
X31844286Y-122716048D01*
X32606191Y-122382714D02*
X32987143Y-122382714D01*
X32749048Y-122049381D02*
X32749048Y-122906524D01*
X32796667Y-123001762D01*
X32891905Y-123049381D01*
X32987143Y-123049381D01*
X33701430Y-123001762D02*
X33606192Y-123049381D01*
X33415715Y-123049381D01*
X33320477Y-123001762D01*
X33272858Y-122906524D01*
X33272858Y-122525571D01*
X33320477Y-122430333D01*
X33415715Y-122382714D01*
X33606192Y-122382714D01*
X33701430Y-122430333D01*
X33749049Y-122525571D01*
X33749049Y-122620810D01*
X33272858Y-122716048D01*
X34177620Y-123049381D02*
X34177620Y-122382714D01*
X34177620Y-122573190D02*
X34225239Y-122477952D01*
X34272858Y-122430333D01*
X34368096Y-122382714D01*
X34463335Y-122382714D01*
X35891907Y-122525571D02*
X36034764Y-122573190D01*
X36082383Y-122620810D01*
X36130002Y-122716048D01*
X36130002Y-122858905D01*
X36082383Y-122954143D01*
X36034764Y-123001762D01*
X35939526Y-123049381D01*
X35558573Y-123049381D01*
X35558573Y-122049381D01*
X35891907Y-122049381D01*
X35987145Y-122097000D01*
X36034764Y-122144619D01*
X36082383Y-122239857D01*
X36082383Y-122335095D01*
X36034764Y-122430333D01*
X35987145Y-122477952D01*
X35891907Y-122525571D01*
X35558573Y-122525571D01*
X36701430Y-123049381D02*
X36606192Y-123001762D01*
X36558573Y-122954143D01*
X36510954Y-122858905D01*
X36510954Y-122573190D01*
X36558573Y-122477952D01*
X36606192Y-122430333D01*
X36701430Y-122382714D01*
X36844288Y-122382714D01*
X36939526Y-122430333D01*
X36987145Y-122477952D01*
X37034764Y-122573190D01*
X37034764Y-122858905D01*
X36987145Y-122954143D01*
X36939526Y-123001762D01*
X36844288Y-123049381D01*
X36701430Y-123049381D01*
X37891907Y-123049381D02*
X37891907Y-122525571D01*
X37844288Y-122430333D01*
X37749050Y-122382714D01*
X37558573Y-122382714D01*
X37463335Y-122430333D01*
X37891907Y-123001762D02*
X37796669Y-123049381D01*
X37558573Y-123049381D01*
X37463335Y-123001762D01*
X37415716Y-122906524D01*
X37415716Y-122811286D01*
X37463335Y-122716048D01*
X37558573Y-122668429D01*
X37796669Y-122668429D01*
X37891907Y-122620810D01*
X38368097Y-123049381D02*
X38368097Y-122382714D01*
X38368097Y-122573190D02*
X38415716Y-122477952D01*
X38463335Y-122430333D01*
X38558573Y-122382714D01*
X38653812Y-122382714D01*
X39415717Y-123049381D02*
X39415717Y-122049381D01*
X39415717Y-123001762D02*
X39320479Y-123049381D01*
X39130002Y-123049381D01*
X39034764Y-123001762D01*
X38987145Y-122954143D01*
X38939526Y-122858905D01*
X38939526Y-122573190D01*
X38987145Y-122477952D01*
X39034764Y-122430333D01*
X39130002Y-122382714D01*
X39320479Y-122382714D01*
X39415717Y-122430333D01*
X24939524Y-124799381D02*
X24606190Y-124323190D01*
X24368095Y-124799381D02*
X24368095Y-123799381D01*
X24749048Y-123799381D01*
X24844286Y-123847000D01*
X24891905Y-123894619D01*
X24939524Y-123989857D01*
X24939524Y-124132714D01*
X24891905Y-124227952D01*
X24844286Y-124275571D01*
X24749048Y-124323190D01*
X24368095Y-124323190D01*
X25749048Y-124751762D02*
X25653810Y-124799381D01*
X25463333Y-124799381D01*
X25368095Y-124751762D01*
X25320476Y-124656524D01*
X25320476Y-124275571D01*
X25368095Y-124180333D01*
X25463333Y-124132714D01*
X25653810Y-124132714D01*
X25749048Y-124180333D01*
X25796667Y-124275571D01*
X25796667Y-124370810D01*
X25320476Y-124466048D01*
X26130000Y-124132714D02*
X26368095Y-124799381D01*
X26606191Y-124132714D01*
X26987143Y-124704143D02*
X27034762Y-124751762D01*
X26987143Y-124799381D01*
X26939524Y-124751762D01*
X26987143Y-124704143D01*
X26987143Y-124799381D01*
X28177619Y-124513667D02*
X28653810Y-124513667D01*
X28082381Y-124799381D02*
X28415714Y-123799381D01*
X28749048Y-124799381D01*
X24939524Y-126549381D02*
X24606190Y-126073190D01*
X24368095Y-126549381D02*
X24368095Y-125549381D01*
X24749048Y-125549381D01*
X24844286Y-125597000D01*
X24891905Y-125644619D01*
X24939524Y-125739857D01*
X24939524Y-125882714D01*
X24891905Y-125977952D01*
X24844286Y-126025571D01*
X24749048Y-126073190D01*
X24368095Y-126073190D01*
X25510952Y-126549381D02*
X25415714Y-126501762D01*
X25368095Y-126454143D01*
X25320476Y-126358905D01*
X25320476Y-126073190D01*
X25368095Y-125977952D01*
X25415714Y-125930333D01*
X25510952Y-125882714D01*
X25653810Y-125882714D01*
X25749048Y-125930333D01*
X25796667Y-125977952D01*
X25844286Y-126073190D01*
X25844286Y-126358905D01*
X25796667Y-126454143D01*
X25749048Y-126501762D01*
X25653810Y-126549381D01*
X25510952Y-126549381D01*
X26225238Y-126501762D02*
X26320476Y-126549381D01*
X26510952Y-126549381D01*
X26606191Y-126501762D01*
X26653810Y-126406524D01*
X26653810Y-126358905D01*
X26606191Y-126263667D01*
X26510952Y-126216048D01*
X26368095Y-126216048D01*
X26272857Y-126168429D01*
X26225238Y-126073190D01*
X26225238Y-126025571D01*
X26272857Y-125930333D01*
X26368095Y-125882714D01*
X26510952Y-125882714D01*
X26606191Y-125930333D01*
X27034762Y-126501762D02*
X27130000Y-126549381D01*
X27320476Y-126549381D01*
X27415715Y-126501762D01*
X27463334Y-126406524D01*
X27463334Y-126358905D01*
X27415715Y-126263667D01*
X27320476Y-126216048D01*
X27177619Y-126216048D01*
X27082381Y-126168429D01*
X27034762Y-126073190D01*
X27034762Y-126025571D01*
X27082381Y-125930333D01*
X27177619Y-125882714D01*
X27320476Y-125882714D01*
X27415715Y-125930333D01*
X29225239Y-126549381D02*
X28891905Y-126073190D01*
X28653810Y-126549381D02*
X28653810Y-125549381D01*
X29034763Y-125549381D01*
X29130001Y-125597000D01*
X29177620Y-125644619D01*
X29225239Y-125739857D01*
X29225239Y-125882714D01*
X29177620Y-125977952D01*
X29130001Y-126025571D01*
X29034763Y-126073190D01*
X28653810Y-126073190D01*
X30034763Y-126501762D02*
X29939525Y-126549381D01*
X29749048Y-126549381D01*
X29653810Y-126501762D01*
X29606191Y-126406524D01*
X29606191Y-126025571D01*
X29653810Y-125930333D01*
X29749048Y-125882714D01*
X29939525Y-125882714D01*
X30034763Y-125930333D01*
X30082382Y-126025571D01*
X30082382Y-126120810D01*
X29606191Y-126216048D01*
X30939525Y-126549381D02*
X30939525Y-125549381D01*
X30939525Y-126501762D02*
X30844287Y-126549381D01*
X30653810Y-126549381D01*
X30558572Y-126501762D01*
X30510953Y-126454143D01*
X30463334Y-126358905D01*
X30463334Y-126073190D01*
X30510953Y-125977952D01*
X30558572Y-125930333D01*
X30653810Y-125882714D01*
X30844287Y-125882714D01*
X30939525Y-125930333D01*
X31415715Y-126549381D02*
X31415715Y-125882714D01*
X31415715Y-125977952D02*
X31463334Y-125930333D01*
X31558572Y-125882714D01*
X31701430Y-125882714D01*
X31796668Y-125930333D01*
X31844287Y-126025571D01*
X31844287Y-126549381D01*
X31844287Y-126025571D02*
X31891906Y-125930333D01*
X31987144Y-125882714D01*
X32130001Y-125882714D01*
X32225239Y-125930333D01*
X32272858Y-126025571D01*
X32272858Y-126549381D01*
X33177620Y-126549381D02*
X33177620Y-126025571D01*
X33130001Y-125930333D01*
X33034763Y-125882714D01*
X32844286Y-125882714D01*
X32749048Y-125930333D01*
X33177620Y-126501762D02*
X33082382Y-126549381D01*
X32844286Y-126549381D01*
X32749048Y-126501762D01*
X32701429Y-126406524D01*
X32701429Y-126311286D01*
X32749048Y-126216048D01*
X32844286Y-126168429D01*
X33082382Y-126168429D01*
X33177620Y-126120810D01*
X33653810Y-125882714D02*
X33653810Y-126549381D01*
X33653810Y-125977952D02*
X33701429Y-125930333D01*
X33796667Y-125882714D01*
X33939525Y-125882714D01*
X34034763Y-125930333D01*
X34082382Y-126025571D01*
X34082382Y-126549381D01*
X24558571Y-127299381D02*
X24653810Y-127299381D01*
X24749048Y-127347000D01*
X24796667Y-127394619D01*
X24844286Y-127489857D01*
X24891905Y-127680333D01*
X24891905Y-127918429D01*
X24844286Y-128108905D01*
X24796667Y-128204143D01*
X24749048Y-128251762D01*
X24653810Y-128299381D01*
X24558571Y-128299381D01*
X24463333Y-128251762D01*
X24415714Y-128204143D01*
X24368095Y-128108905D01*
X24320476Y-127918429D01*
X24320476Y-127680333D01*
X24368095Y-127489857D01*
X24415714Y-127394619D01*
X24463333Y-127347000D01*
X24558571Y-127299381D01*
X25463333Y-127727952D02*
X25368095Y-127680333D01*
X25320476Y-127632714D01*
X25272857Y-127537476D01*
X25272857Y-127489857D01*
X25320476Y-127394619D01*
X25368095Y-127347000D01*
X25463333Y-127299381D01*
X25653810Y-127299381D01*
X25749048Y-127347000D01*
X25796667Y-127394619D01*
X25844286Y-127489857D01*
X25844286Y-127537476D01*
X25796667Y-127632714D01*
X25749048Y-127680333D01*
X25653810Y-127727952D01*
X25463333Y-127727952D01*
X25368095Y-127775571D01*
X25320476Y-127823190D01*
X25272857Y-127918429D01*
X25272857Y-128108905D01*
X25320476Y-128204143D01*
X25368095Y-128251762D01*
X25463333Y-128299381D01*
X25653810Y-128299381D01*
X25749048Y-128251762D01*
X25796667Y-128204143D01*
X25844286Y-128108905D01*
X25844286Y-127918429D01*
X25796667Y-127823190D01*
X25749048Y-127775571D01*
X25653810Y-127727952D01*
X27034762Y-128299381D02*
X27034762Y-127299381D01*
X27368096Y-128013667D01*
X27701429Y-127299381D01*
X27701429Y-128299381D01*
X28606191Y-128299381D02*
X28606191Y-127775571D01*
X28558572Y-127680333D01*
X28463334Y-127632714D01*
X28272857Y-127632714D01*
X28177619Y-127680333D01*
X28606191Y-128251762D02*
X28510953Y-128299381D01*
X28272857Y-128299381D01*
X28177619Y-128251762D01*
X28130000Y-128156524D01*
X28130000Y-128061286D01*
X28177619Y-127966048D01*
X28272857Y-127918429D01*
X28510953Y-127918429D01*
X28606191Y-127870810D01*
X28987143Y-127632714D02*
X29225238Y-128299381D01*
X29463334Y-127632714D02*
X29225238Y-128299381D01*
X29130000Y-128537476D01*
X29082381Y-128585095D01*
X28987143Y-128632714D01*
X30558572Y-127394619D02*
X30606191Y-127347000D01*
X30701429Y-127299381D01*
X30939525Y-127299381D01*
X31034763Y-127347000D01*
X31082382Y-127394619D01*
X31130001Y-127489857D01*
X31130001Y-127585095D01*
X31082382Y-127727952D01*
X30510953Y-128299381D01*
X31130001Y-128299381D01*
X31749048Y-127299381D02*
X31844287Y-127299381D01*
X31939525Y-127347000D01*
X31987144Y-127394619D01*
X32034763Y-127489857D01*
X32082382Y-127680333D01*
X32082382Y-127918429D01*
X32034763Y-128108905D01*
X31987144Y-128204143D01*
X31939525Y-128251762D01*
X31844287Y-128299381D01*
X31749048Y-128299381D01*
X31653810Y-128251762D01*
X31606191Y-128204143D01*
X31558572Y-128108905D01*
X31510953Y-127918429D01*
X31510953Y-127680333D01*
X31558572Y-127489857D01*
X31606191Y-127394619D01*
X31653810Y-127347000D01*
X31749048Y-127299381D01*
X33034763Y-128299381D02*
X32463334Y-128299381D01*
X32749048Y-128299381D02*
X32749048Y-127299381D01*
X32653810Y-127442238D01*
X32558572Y-127537476D01*
X32463334Y-127585095D01*
X33606191Y-127727952D02*
X33510953Y-127680333D01*
X33463334Y-127632714D01*
X33415715Y-127537476D01*
X33415715Y-127489857D01*
X33463334Y-127394619D01*
X33510953Y-127347000D01*
X33606191Y-127299381D01*
X33796668Y-127299381D01*
X33891906Y-127347000D01*
X33939525Y-127394619D01*
X33987144Y-127489857D01*
X33987144Y-127537476D01*
X33939525Y-127632714D01*
X33891906Y-127680333D01*
X33796668Y-127727952D01*
X33606191Y-127727952D01*
X33510953Y-127775571D01*
X33463334Y-127823190D01*
X33415715Y-127918429D01*
X33415715Y-128108905D01*
X33463334Y-128204143D01*
X33510953Y-128251762D01*
X33606191Y-128299381D01*
X33796668Y-128299381D01*
X33891906Y-128251762D01*
X33939525Y-128204143D01*
X33987144Y-128108905D01*
X33987144Y-127918429D01*
X33939525Y-127823190D01*
X33891906Y-127775571D01*
X33796668Y-127727952D01*
X34298000Y-105544857D02*
X34250381Y-105640095D01*
X34250381Y-105782952D01*
X34298000Y-105925810D01*
X34393238Y-106021048D01*
X34488476Y-106068667D01*
X34678952Y-106116286D01*
X34821810Y-106116286D01*
X35012286Y-106068667D01*
X35107524Y-106021048D01*
X35202762Y-105925810D01*
X35250381Y-105782952D01*
X35250381Y-105687714D01*
X35202762Y-105544857D01*
X35155143Y-105497238D01*
X34821810Y-105497238D01*
X34821810Y-105687714D01*
X34583714Y-105068667D02*
X35250381Y-105068667D01*
X34678952Y-105068667D02*
X34631333Y-105021048D01*
X34583714Y-104925810D01*
X34583714Y-104782952D01*
X34631333Y-104687714D01*
X34726571Y-104640095D01*
X35250381Y-104640095D01*
X35250381Y-103735333D02*
X34250381Y-103735333D01*
X35202762Y-103735333D02*
X35250381Y-103830571D01*
X35250381Y-104021048D01*
X35202762Y-104116286D01*
X35155143Y-104163905D01*
X35059905Y-104211524D01*
X34774190Y-104211524D01*
X34678952Y-104163905D01*
X34631333Y-104116286D01*
X34583714Y-104021048D01*
X34583714Y-103830571D01*
X34631333Y-103735333D01*
X36917381Y-105965476D02*
X37917381Y-105632143D01*
X36917381Y-105298809D01*
X37869762Y-104536904D02*
X37917381Y-104632142D01*
X37917381Y-104822619D01*
X37869762Y-104917857D01*
X37822143Y-104965476D01*
X37726905Y-105013095D01*
X37441190Y-105013095D01*
X37345952Y-104965476D01*
X37298333Y-104917857D01*
X37250714Y-104822619D01*
X37250714Y-104632142D01*
X37298333Y-104536904D01*
X37869762Y-103679761D02*
X37917381Y-103774999D01*
X37917381Y-103965476D01*
X37869762Y-104060714D01*
X37822143Y-104108333D01*
X37726905Y-104155952D01*
X37441190Y-104155952D01*
X37345952Y-104108333D01*
X37298333Y-104060714D01*
X37250714Y-103965476D01*
X37250714Y-103774999D01*
X37298333Y-103679761D01*
X47331666Y-98591667D02*
X47807857Y-98591667D01*
X47236428Y-98877381D02*
X47569761Y-97877381D01*
X47903095Y-98877381D01*
X49665000Y-97877381D02*
X49903095Y-98877381D01*
X50093572Y-98163095D01*
X50284048Y-98877381D01*
X50522143Y-97877381D01*
X52760239Y-98353571D02*
X52903096Y-98401190D01*
X52950715Y-98448810D01*
X52998334Y-98544048D01*
X52998334Y-98686905D01*
X52950715Y-98782143D01*
X52903096Y-98829762D01*
X52807858Y-98877381D01*
X52426905Y-98877381D01*
X52426905Y-97877381D01*
X52760239Y-97877381D01*
X52855477Y-97925000D01*
X52903096Y-97972619D01*
X52950715Y-98067857D01*
X52950715Y-98163095D01*
X52903096Y-98258333D01*
X52855477Y-98305952D01*
X52760239Y-98353571D01*
X52426905Y-98353571D01*
X67651666Y-98591667D02*
X68127857Y-98591667D01*
X67556428Y-98877381D02*
X67889761Y-97877381D01*
X68223095Y-98877381D01*
X69985000Y-97877381D02*
X70223095Y-98877381D01*
X70413572Y-98163095D01*
X70604048Y-98877381D01*
X70842143Y-97877381D01*
X73080239Y-98353571D02*
X73223096Y-98401190D01*
X73270715Y-98448810D01*
X73318334Y-98544048D01*
X73318334Y-98686905D01*
X73270715Y-98782143D01*
X73223096Y-98829762D01*
X73127858Y-98877381D01*
X72746905Y-98877381D01*
X72746905Y-97877381D01*
X73080239Y-97877381D01*
X73175477Y-97925000D01*
X73223096Y-97972619D01*
X73270715Y-98067857D01*
X73270715Y-98163095D01*
X73223096Y-98258333D01*
X73175477Y-98305952D01*
X73080239Y-98353571D01*
X72746905Y-98353571D01*
X87971666Y-98591667D02*
X88447857Y-98591667D01*
X87876428Y-98877381D02*
X88209761Y-97877381D01*
X88543095Y-98877381D01*
X90305000Y-97877381D02*
X90543095Y-98877381D01*
X90733572Y-98163095D01*
X90924048Y-98877381D01*
X91162143Y-97877381D01*
X93400239Y-98353571D02*
X93543096Y-98401190D01*
X93590715Y-98448810D01*
X93638334Y-98544048D01*
X93638334Y-98686905D01*
X93590715Y-98782143D01*
X93543096Y-98829762D01*
X93447858Y-98877381D01*
X93066905Y-98877381D01*
X93066905Y-97877381D01*
X93400239Y-97877381D01*
X93495477Y-97925000D01*
X93543096Y-97972619D01*
X93590715Y-98067857D01*
X93590715Y-98163095D01*
X93543096Y-98258333D01*
X93495477Y-98305952D01*
X93400239Y-98353571D01*
X93066905Y-98353571D01*
X108291666Y-98591667D02*
X108767857Y-98591667D01*
X108196428Y-98877381D02*
X108529761Y-97877381D01*
X108863095Y-98877381D01*
X110625000Y-97877381D02*
X110863095Y-98877381D01*
X111053572Y-98163095D01*
X111244048Y-98877381D01*
X111482143Y-97877381D01*
X113720239Y-98353571D02*
X113863096Y-98401190D01*
X113910715Y-98448810D01*
X113958334Y-98544048D01*
X113958334Y-98686905D01*
X113910715Y-98782143D01*
X113863096Y-98829762D01*
X113767858Y-98877381D01*
X113386905Y-98877381D01*
X113386905Y-97877381D01*
X113720239Y-97877381D01*
X113815477Y-97925000D01*
X113863096Y-97972619D01*
X113910715Y-98067857D01*
X113910715Y-98163095D01*
X113863096Y-98258333D01*
X113815477Y-98305952D01*
X113720239Y-98353571D01*
X113386905Y-98353571D01*
X128611666Y-98591667D02*
X129087857Y-98591667D01*
X128516428Y-98877381D02*
X128849761Y-97877381D01*
X129183095Y-98877381D01*
X130945000Y-97877381D02*
X131183095Y-98877381D01*
X131373572Y-98163095D01*
X131564048Y-98877381D01*
X131802143Y-97877381D01*
X134040239Y-98353571D02*
X134183096Y-98401190D01*
X134230715Y-98448810D01*
X134278334Y-98544048D01*
X134278334Y-98686905D01*
X134230715Y-98782143D01*
X134183096Y-98829762D01*
X134087858Y-98877381D01*
X133706905Y-98877381D01*
X133706905Y-97877381D01*
X134040239Y-97877381D01*
X134135477Y-97925000D01*
X134183096Y-97972619D01*
X134230715Y-98067857D01*
X134230715Y-98163095D01*
X134183096Y-98258333D01*
X134135477Y-98305952D01*
X134040239Y-98353571D01*
X133706905Y-98353571D01*
X148931666Y-98591667D02*
X149407857Y-98591667D01*
X148836428Y-98877381D02*
X149169761Y-97877381D01*
X149503095Y-98877381D01*
X151265000Y-97877381D02*
X151503095Y-98877381D01*
X151693572Y-98163095D01*
X151884048Y-98877381D01*
X152122143Y-97877381D01*
X154360239Y-98353571D02*
X154503096Y-98401190D01*
X154550715Y-98448810D01*
X154598334Y-98544048D01*
X154598334Y-98686905D01*
X154550715Y-98782143D01*
X154503096Y-98829762D01*
X154407858Y-98877381D01*
X154026905Y-98877381D01*
X154026905Y-97877381D01*
X154360239Y-97877381D01*
X154455477Y-97925000D01*
X154503096Y-97972619D01*
X154550715Y-98067857D01*
X154550715Y-98163095D01*
X154503096Y-98258333D01*
X154455477Y-98305952D01*
X154360239Y-98353571D01*
X154026905Y-98353571D01*
X169251666Y-98591667D02*
X169727857Y-98591667D01*
X169156428Y-98877381D02*
X169489761Y-97877381D01*
X169823095Y-98877381D01*
X171585000Y-97877381D02*
X171823095Y-98877381D01*
X172013572Y-98163095D01*
X172204048Y-98877381D01*
X172442143Y-97877381D01*
X174680239Y-98353571D02*
X174823096Y-98401190D01*
X174870715Y-98448810D01*
X174918334Y-98544048D01*
X174918334Y-98686905D01*
X174870715Y-98782143D01*
X174823096Y-98829762D01*
X174727858Y-98877381D01*
X174346905Y-98877381D01*
X174346905Y-97877381D01*
X174680239Y-97877381D01*
X174775477Y-97925000D01*
X174823096Y-97972619D01*
X174870715Y-98067857D01*
X174870715Y-98163095D01*
X174823096Y-98258333D01*
X174775477Y-98305952D01*
X174680239Y-98353571D01*
X174346905Y-98353571D01*
X189571666Y-98591667D02*
X190047857Y-98591667D01*
X189476428Y-98877381D02*
X189809761Y-97877381D01*
X190143095Y-98877381D01*
X191905000Y-97877381D02*
X192143095Y-98877381D01*
X192333572Y-98163095D01*
X192524048Y-98877381D01*
X192762143Y-97877381D01*
X195000239Y-98353571D02*
X195143096Y-98401190D01*
X195190715Y-98448810D01*
X195238334Y-98544048D01*
X195238334Y-98686905D01*
X195190715Y-98782143D01*
X195143096Y-98829762D01*
X195047858Y-98877381D01*
X194666905Y-98877381D01*
X194666905Y-97877381D01*
X195000239Y-97877381D01*
X195095477Y-97925000D01*
X195143096Y-97972619D01*
X195190715Y-98067857D01*
X195190715Y-98163095D01*
X195143096Y-98258333D01*
X195095477Y-98305952D01*
X195000239Y-98353571D01*
X194666905Y-98353571D01*
X183935714Y-118323571D02*
X184221429Y-119085476D01*
X184507143Y-118323571D01*
X184221429Y-117847381D02*
X184221429Y-117085476D01*
X183602381Y-115990238D02*
X184602381Y-115656905D01*
X183602381Y-115323571D01*
X184554762Y-114561666D02*
X184602381Y-114656904D01*
X184602381Y-114847381D01*
X184554762Y-114942619D01*
X184507143Y-114990238D01*
X184411905Y-115037857D01*
X184126190Y-115037857D01*
X184030952Y-114990238D01*
X183983333Y-114942619D01*
X183935714Y-114847381D01*
X183935714Y-114656904D01*
X183983333Y-114561666D01*
X184554762Y-113704523D02*
X184602381Y-113799761D01*
X184602381Y-113990238D01*
X184554762Y-114085476D01*
X184507143Y-114133095D01*
X184411905Y-114180714D01*
X184126190Y-114180714D01*
X184030952Y-114133095D01*
X183983333Y-114085476D01*
X183935714Y-113990238D01*
X183935714Y-113799761D01*
X183983333Y-113704523D01*
X184935714Y-112275952D02*
X183507143Y-112275952D01*
X184554762Y-110847380D02*
X184602381Y-110704523D01*
X184602381Y-110466427D01*
X184554762Y-110371189D01*
X184507143Y-110323570D01*
X184411905Y-110275951D01*
X184316667Y-110275951D01*
X184221429Y-110323570D01*
X184173810Y-110371189D01*
X184126190Y-110466427D01*
X184078571Y-110656904D01*
X184030952Y-110752142D01*
X183983333Y-110799761D01*
X183888095Y-110847380D01*
X183792857Y-110847380D01*
X183697619Y-110799761D01*
X183650000Y-110752142D01*
X183602381Y-110656904D01*
X183602381Y-110418808D01*
X183650000Y-110275951D01*
X184602381Y-109847380D02*
X183935714Y-109847380D01*
X183602381Y-109847380D02*
X183650000Y-109894999D01*
X183697619Y-109847380D01*
X183650000Y-109799761D01*
X183602381Y-109847380D01*
X183697619Y-109847380D01*
X183935714Y-108942618D02*
X184745238Y-108942618D01*
X184840476Y-108990237D01*
X184888095Y-109037856D01*
X184935714Y-109133095D01*
X184935714Y-109275952D01*
X184888095Y-109371190D01*
X184554762Y-108942618D02*
X184602381Y-109037856D01*
X184602381Y-109228333D01*
X184554762Y-109323571D01*
X184507143Y-109371190D01*
X184411905Y-109418809D01*
X184126190Y-109418809D01*
X184030952Y-109371190D01*
X183983333Y-109323571D01*
X183935714Y-109228333D01*
X183935714Y-109037856D01*
X183983333Y-108942618D01*
X184221429Y-107704523D02*
X184221429Y-106942618D01*
X183935714Y-106466428D02*
X184221429Y-105704523D01*
X184507143Y-106466428D01*
X163615714Y-118323571D02*
X163901429Y-119085476D01*
X164187143Y-118323571D01*
X163901429Y-117847381D02*
X163901429Y-117085476D01*
X163282381Y-115990238D02*
X164282381Y-115656905D01*
X163282381Y-115323571D01*
X164234762Y-114561666D02*
X164282381Y-114656904D01*
X164282381Y-114847381D01*
X164234762Y-114942619D01*
X164187143Y-114990238D01*
X164091905Y-115037857D01*
X163806190Y-115037857D01*
X163710952Y-114990238D01*
X163663333Y-114942619D01*
X163615714Y-114847381D01*
X163615714Y-114656904D01*
X163663333Y-114561666D01*
X164234762Y-113704523D02*
X164282381Y-113799761D01*
X164282381Y-113990238D01*
X164234762Y-114085476D01*
X164187143Y-114133095D01*
X164091905Y-114180714D01*
X163806190Y-114180714D01*
X163710952Y-114133095D01*
X163663333Y-114085476D01*
X163615714Y-113990238D01*
X163615714Y-113799761D01*
X163663333Y-113704523D01*
X164615714Y-112275952D02*
X163187143Y-112275952D01*
X164234762Y-110847380D02*
X164282381Y-110704523D01*
X164282381Y-110466427D01*
X164234762Y-110371189D01*
X164187143Y-110323570D01*
X164091905Y-110275951D01*
X163996667Y-110275951D01*
X163901429Y-110323570D01*
X163853810Y-110371189D01*
X163806190Y-110466427D01*
X163758571Y-110656904D01*
X163710952Y-110752142D01*
X163663333Y-110799761D01*
X163568095Y-110847380D01*
X163472857Y-110847380D01*
X163377619Y-110799761D01*
X163330000Y-110752142D01*
X163282381Y-110656904D01*
X163282381Y-110418808D01*
X163330000Y-110275951D01*
X164282381Y-109847380D02*
X163615714Y-109847380D01*
X163282381Y-109847380D02*
X163330000Y-109894999D01*
X163377619Y-109847380D01*
X163330000Y-109799761D01*
X163282381Y-109847380D01*
X163377619Y-109847380D01*
X163615714Y-108942618D02*
X164425238Y-108942618D01*
X164520476Y-108990237D01*
X164568095Y-109037856D01*
X164615714Y-109133095D01*
X164615714Y-109275952D01*
X164568095Y-109371190D01*
X164234762Y-108942618D02*
X164282381Y-109037856D01*
X164282381Y-109228333D01*
X164234762Y-109323571D01*
X164187143Y-109371190D01*
X164091905Y-109418809D01*
X163806190Y-109418809D01*
X163710952Y-109371190D01*
X163663333Y-109323571D01*
X163615714Y-109228333D01*
X163615714Y-109037856D01*
X163663333Y-108942618D01*
X163901429Y-107704523D02*
X163901429Y-106942618D01*
X163615714Y-106466428D02*
X163901429Y-105704523D01*
X164187143Y-106466428D01*
X143295714Y-118323571D02*
X143581429Y-119085476D01*
X143867143Y-118323571D01*
X143581429Y-117847381D02*
X143581429Y-117085476D01*
X142962381Y-115990238D02*
X143962381Y-115656905D01*
X142962381Y-115323571D01*
X143914762Y-114561666D02*
X143962381Y-114656904D01*
X143962381Y-114847381D01*
X143914762Y-114942619D01*
X143867143Y-114990238D01*
X143771905Y-115037857D01*
X143486190Y-115037857D01*
X143390952Y-114990238D01*
X143343333Y-114942619D01*
X143295714Y-114847381D01*
X143295714Y-114656904D01*
X143343333Y-114561666D01*
X143914762Y-113704523D02*
X143962381Y-113799761D01*
X143962381Y-113990238D01*
X143914762Y-114085476D01*
X143867143Y-114133095D01*
X143771905Y-114180714D01*
X143486190Y-114180714D01*
X143390952Y-114133095D01*
X143343333Y-114085476D01*
X143295714Y-113990238D01*
X143295714Y-113799761D01*
X143343333Y-113704523D01*
X144295714Y-112275952D02*
X142867143Y-112275952D01*
X143914762Y-110847380D02*
X143962381Y-110704523D01*
X143962381Y-110466427D01*
X143914762Y-110371189D01*
X143867143Y-110323570D01*
X143771905Y-110275951D01*
X143676667Y-110275951D01*
X143581429Y-110323570D01*
X143533810Y-110371189D01*
X143486190Y-110466427D01*
X143438571Y-110656904D01*
X143390952Y-110752142D01*
X143343333Y-110799761D01*
X143248095Y-110847380D01*
X143152857Y-110847380D01*
X143057619Y-110799761D01*
X143010000Y-110752142D01*
X142962381Y-110656904D01*
X142962381Y-110418808D01*
X143010000Y-110275951D01*
X143962381Y-109847380D02*
X143295714Y-109847380D01*
X142962381Y-109847380D02*
X143010000Y-109894999D01*
X143057619Y-109847380D01*
X143010000Y-109799761D01*
X142962381Y-109847380D01*
X143057619Y-109847380D01*
X143295714Y-108942618D02*
X144105238Y-108942618D01*
X144200476Y-108990237D01*
X144248095Y-109037856D01*
X144295714Y-109133095D01*
X144295714Y-109275952D01*
X144248095Y-109371190D01*
X143914762Y-108942618D02*
X143962381Y-109037856D01*
X143962381Y-109228333D01*
X143914762Y-109323571D01*
X143867143Y-109371190D01*
X143771905Y-109418809D01*
X143486190Y-109418809D01*
X143390952Y-109371190D01*
X143343333Y-109323571D01*
X143295714Y-109228333D01*
X143295714Y-109037856D01*
X143343333Y-108942618D01*
X143581429Y-107704523D02*
X143581429Y-106942618D01*
X143295714Y-106466428D02*
X143581429Y-105704523D01*
X143867143Y-106466428D01*
X199810714Y-118442619D02*
X200096429Y-119204524D01*
X200382143Y-118442619D01*
X200096429Y-117966429D02*
X200096429Y-117204524D01*
X199525000Y-115442619D02*
X199477381Y-115537857D01*
X199477381Y-115680714D01*
X199525000Y-115823572D01*
X199620238Y-115918810D01*
X199715476Y-115966429D01*
X199905952Y-116014048D01*
X200048810Y-116014048D01*
X200239286Y-115966429D01*
X200334524Y-115918810D01*
X200429762Y-115823572D01*
X200477381Y-115680714D01*
X200477381Y-115585476D01*
X200429762Y-115442619D01*
X200382143Y-115395000D01*
X200048810Y-115395000D01*
X200048810Y-115585476D01*
X199810714Y-114966429D02*
X200477381Y-114966429D01*
X199905952Y-114966429D02*
X199858333Y-114918810D01*
X199810714Y-114823572D01*
X199810714Y-114680714D01*
X199858333Y-114585476D01*
X199953571Y-114537857D01*
X200477381Y-114537857D01*
X200477381Y-113633095D02*
X199477381Y-113633095D01*
X200429762Y-113633095D02*
X200477381Y-113728333D01*
X200477381Y-113918810D01*
X200429762Y-114014048D01*
X200382143Y-114061667D01*
X200286905Y-114109286D01*
X200001190Y-114109286D01*
X199905952Y-114061667D01*
X199858333Y-114014048D01*
X199810714Y-113918810D01*
X199810714Y-113728333D01*
X199858333Y-113633095D01*
X200810714Y-112156905D02*
X199382143Y-112156905D01*
X200429762Y-110728333D02*
X200477381Y-110585476D01*
X200477381Y-110347380D01*
X200429762Y-110252142D01*
X200382143Y-110204523D01*
X200286905Y-110156904D01*
X200191667Y-110156904D01*
X200096429Y-110204523D01*
X200048810Y-110252142D01*
X200001190Y-110347380D01*
X199953571Y-110537857D01*
X199905952Y-110633095D01*
X199858333Y-110680714D01*
X199763095Y-110728333D01*
X199667857Y-110728333D01*
X199572619Y-110680714D01*
X199525000Y-110633095D01*
X199477381Y-110537857D01*
X199477381Y-110299761D01*
X199525000Y-110156904D01*
X200477381Y-109728333D02*
X199810714Y-109728333D01*
X199477381Y-109728333D02*
X199525000Y-109775952D01*
X199572619Y-109728333D01*
X199525000Y-109680714D01*
X199477381Y-109728333D01*
X199572619Y-109728333D01*
X199810714Y-108823571D02*
X200620238Y-108823571D01*
X200715476Y-108871190D01*
X200763095Y-108918809D01*
X200810714Y-109014048D01*
X200810714Y-109156905D01*
X200763095Y-109252143D01*
X200429762Y-108823571D02*
X200477381Y-108918809D01*
X200477381Y-109109286D01*
X200429762Y-109204524D01*
X200382143Y-109252143D01*
X200286905Y-109299762D01*
X200001190Y-109299762D01*
X199905952Y-109252143D01*
X199858333Y-109204524D01*
X199810714Y-109109286D01*
X199810714Y-108918809D01*
X199858333Y-108823571D01*
X200096429Y-107585476D02*
X200096429Y-106823571D01*
X199810714Y-106347381D02*
X200096429Y-105585476D01*
X200382143Y-106347381D01*
X179490714Y-118442619D02*
X179776429Y-119204524D01*
X180062143Y-118442619D01*
X179776429Y-117966429D02*
X179776429Y-117204524D01*
X179205000Y-115442619D02*
X179157381Y-115537857D01*
X179157381Y-115680714D01*
X179205000Y-115823572D01*
X179300238Y-115918810D01*
X179395476Y-115966429D01*
X179585952Y-116014048D01*
X179728810Y-116014048D01*
X179919286Y-115966429D01*
X180014524Y-115918810D01*
X180109762Y-115823572D01*
X180157381Y-115680714D01*
X180157381Y-115585476D01*
X180109762Y-115442619D01*
X180062143Y-115395000D01*
X179728810Y-115395000D01*
X179728810Y-115585476D01*
X179490714Y-114966429D02*
X180157381Y-114966429D01*
X179585952Y-114966429D02*
X179538333Y-114918810D01*
X179490714Y-114823572D01*
X179490714Y-114680714D01*
X179538333Y-114585476D01*
X179633571Y-114537857D01*
X180157381Y-114537857D01*
X180157381Y-113633095D02*
X179157381Y-113633095D01*
X180109762Y-113633095D02*
X180157381Y-113728333D01*
X180157381Y-113918810D01*
X180109762Y-114014048D01*
X180062143Y-114061667D01*
X179966905Y-114109286D01*
X179681190Y-114109286D01*
X179585952Y-114061667D01*
X179538333Y-114014048D01*
X179490714Y-113918810D01*
X179490714Y-113728333D01*
X179538333Y-113633095D01*
X180490714Y-112156905D02*
X179062143Y-112156905D01*
X180109762Y-110728333D02*
X180157381Y-110585476D01*
X180157381Y-110347380D01*
X180109762Y-110252142D01*
X180062143Y-110204523D01*
X179966905Y-110156904D01*
X179871667Y-110156904D01*
X179776429Y-110204523D01*
X179728810Y-110252142D01*
X179681190Y-110347380D01*
X179633571Y-110537857D01*
X179585952Y-110633095D01*
X179538333Y-110680714D01*
X179443095Y-110728333D01*
X179347857Y-110728333D01*
X179252619Y-110680714D01*
X179205000Y-110633095D01*
X179157381Y-110537857D01*
X179157381Y-110299761D01*
X179205000Y-110156904D01*
X180157381Y-109728333D02*
X179490714Y-109728333D01*
X179157381Y-109728333D02*
X179205000Y-109775952D01*
X179252619Y-109728333D01*
X179205000Y-109680714D01*
X179157381Y-109728333D01*
X179252619Y-109728333D01*
X179490714Y-108823571D02*
X180300238Y-108823571D01*
X180395476Y-108871190D01*
X180443095Y-108918809D01*
X180490714Y-109014048D01*
X180490714Y-109156905D01*
X180443095Y-109252143D01*
X180109762Y-108823571D02*
X180157381Y-108918809D01*
X180157381Y-109109286D01*
X180109762Y-109204524D01*
X180062143Y-109252143D01*
X179966905Y-109299762D01*
X179681190Y-109299762D01*
X179585952Y-109252143D01*
X179538333Y-109204524D01*
X179490714Y-109109286D01*
X179490714Y-108918809D01*
X179538333Y-108823571D01*
X179776429Y-107585476D02*
X179776429Y-106823571D01*
X179490714Y-106347381D02*
X179776429Y-105585476D01*
X180062143Y-106347381D01*
X159170714Y-118442619D02*
X159456429Y-119204524D01*
X159742143Y-118442619D01*
X159456429Y-117966429D02*
X159456429Y-117204524D01*
X158885000Y-115442619D02*
X158837381Y-115537857D01*
X158837381Y-115680714D01*
X158885000Y-115823572D01*
X158980238Y-115918810D01*
X159075476Y-115966429D01*
X159265952Y-116014048D01*
X159408810Y-116014048D01*
X159599286Y-115966429D01*
X159694524Y-115918810D01*
X159789762Y-115823572D01*
X159837381Y-115680714D01*
X159837381Y-115585476D01*
X159789762Y-115442619D01*
X159742143Y-115395000D01*
X159408810Y-115395000D01*
X159408810Y-115585476D01*
X159170714Y-114966429D02*
X159837381Y-114966429D01*
X159265952Y-114966429D02*
X159218333Y-114918810D01*
X159170714Y-114823572D01*
X159170714Y-114680714D01*
X159218333Y-114585476D01*
X159313571Y-114537857D01*
X159837381Y-114537857D01*
X159837381Y-113633095D02*
X158837381Y-113633095D01*
X159789762Y-113633095D02*
X159837381Y-113728333D01*
X159837381Y-113918810D01*
X159789762Y-114014048D01*
X159742143Y-114061667D01*
X159646905Y-114109286D01*
X159361190Y-114109286D01*
X159265952Y-114061667D01*
X159218333Y-114014048D01*
X159170714Y-113918810D01*
X159170714Y-113728333D01*
X159218333Y-113633095D01*
X160170714Y-112156905D02*
X158742143Y-112156905D01*
X159789762Y-110728333D02*
X159837381Y-110585476D01*
X159837381Y-110347380D01*
X159789762Y-110252142D01*
X159742143Y-110204523D01*
X159646905Y-110156904D01*
X159551667Y-110156904D01*
X159456429Y-110204523D01*
X159408810Y-110252142D01*
X159361190Y-110347380D01*
X159313571Y-110537857D01*
X159265952Y-110633095D01*
X159218333Y-110680714D01*
X159123095Y-110728333D01*
X159027857Y-110728333D01*
X158932619Y-110680714D01*
X158885000Y-110633095D01*
X158837381Y-110537857D01*
X158837381Y-110299761D01*
X158885000Y-110156904D01*
X159837381Y-109728333D02*
X159170714Y-109728333D01*
X158837381Y-109728333D02*
X158885000Y-109775952D01*
X158932619Y-109728333D01*
X158885000Y-109680714D01*
X158837381Y-109728333D01*
X158932619Y-109728333D01*
X159170714Y-108823571D02*
X159980238Y-108823571D01*
X160075476Y-108871190D01*
X160123095Y-108918809D01*
X160170714Y-109014048D01*
X160170714Y-109156905D01*
X160123095Y-109252143D01*
X159789762Y-108823571D02*
X159837381Y-108918809D01*
X159837381Y-109109286D01*
X159789762Y-109204524D01*
X159742143Y-109252143D01*
X159646905Y-109299762D01*
X159361190Y-109299762D01*
X159265952Y-109252143D01*
X159218333Y-109204524D01*
X159170714Y-109109286D01*
X159170714Y-108918809D01*
X159218333Y-108823571D01*
X159456429Y-107585476D02*
X159456429Y-106823571D01*
X159170714Y-106347381D02*
X159456429Y-105585476D01*
X159742143Y-106347381D01*
X122975714Y-118323571D02*
X123261429Y-119085476D01*
X123547143Y-118323571D01*
X123261429Y-117847381D02*
X123261429Y-117085476D01*
X122642381Y-115990238D02*
X123642381Y-115656905D01*
X122642381Y-115323571D01*
X123594762Y-114561666D02*
X123642381Y-114656904D01*
X123642381Y-114847381D01*
X123594762Y-114942619D01*
X123547143Y-114990238D01*
X123451905Y-115037857D01*
X123166190Y-115037857D01*
X123070952Y-114990238D01*
X123023333Y-114942619D01*
X122975714Y-114847381D01*
X122975714Y-114656904D01*
X123023333Y-114561666D01*
X123594762Y-113704523D02*
X123642381Y-113799761D01*
X123642381Y-113990238D01*
X123594762Y-114085476D01*
X123547143Y-114133095D01*
X123451905Y-114180714D01*
X123166190Y-114180714D01*
X123070952Y-114133095D01*
X123023333Y-114085476D01*
X122975714Y-113990238D01*
X122975714Y-113799761D01*
X123023333Y-113704523D01*
X123975714Y-112275952D02*
X122547143Y-112275952D01*
X123594762Y-110847380D02*
X123642381Y-110704523D01*
X123642381Y-110466427D01*
X123594762Y-110371189D01*
X123547143Y-110323570D01*
X123451905Y-110275951D01*
X123356667Y-110275951D01*
X123261429Y-110323570D01*
X123213810Y-110371189D01*
X123166190Y-110466427D01*
X123118571Y-110656904D01*
X123070952Y-110752142D01*
X123023333Y-110799761D01*
X122928095Y-110847380D01*
X122832857Y-110847380D01*
X122737619Y-110799761D01*
X122690000Y-110752142D01*
X122642381Y-110656904D01*
X122642381Y-110418808D01*
X122690000Y-110275951D01*
X123642381Y-109847380D02*
X122975714Y-109847380D01*
X122642381Y-109847380D02*
X122690000Y-109894999D01*
X122737619Y-109847380D01*
X122690000Y-109799761D01*
X122642381Y-109847380D01*
X122737619Y-109847380D01*
X122975714Y-108942618D02*
X123785238Y-108942618D01*
X123880476Y-108990237D01*
X123928095Y-109037856D01*
X123975714Y-109133095D01*
X123975714Y-109275952D01*
X123928095Y-109371190D01*
X123594762Y-108942618D02*
X123642381Y-109037856D01*
X123642381Y-109228333D01*
X123594762Y-109323571D01*
X123547143Y-109371190D01*
X123451905Y-109418809D01*
X123166190Y-109418809D01*
X123070952Y-109371190D01*
X123023333Y-109323571D01*
X122975714Y-109228333D01*
X122975714Y-109037856D01*
X123023333Y-108942618D01*
X123261429Y-107704523D02*
X123261429Y-106942618D01*
X122975714Y-106466428D02*
X123261429Y-105704523D01*
X123547143Y-106466428D01*
X138850714Y-118442619D02*
X139136429Y-119204524D01*
X139422143Y-118442619D01*
X139136429Y-117966429D02*
X139136429Y-117204524D01*
X138565000Y-115442619D02*
X138517381Y-115537857D01*
X138517381Y-115680714D01*
X138565000Y-115823572D01*
X138660238Y-115918810D01*
X138755476Y-115966429D01*
X138945952Y-116014048D01*
X139088810Y-116014048D01*
X139279286Y-115966429D01*
X139374524Y-115918810D01*
X139469762Y-115823572D01*
X139517381Y-115680714D01*
X139517381Y-115585476D01*
X139469762Y-115442619D01*
X139422143Y-115395000D01*
X139088810Y-115395000D01*
X139088810Y-115585476D01*
X138850714Y-114966429D02*
X139517381Y-114966429D01*
X138945952Y-114966429D02*
X138898333Y-114918810D01*
X138850714Y-114823572D01*
X138850714Y-114680714D01*
X138898333Y-114585476D01*
X138993571Y-114537857D01*
X139517381Y-114537857D01*
X139517381Y-113633095D02*
X138517381Y-113633095D01*
X139469762Y-113633095D02*
X139517381Y-113728333D01*
X139517381Y-113918810D01*
X139469762Y-114014048D01*
X139422143Y-114061667D01*
X139326905Y-114109286D01*
X139041190Y-114109286D01*
X138945952Y-114061667D01*
X138898333Y-114014048D01*
X138850714Y-113918810D01*
X138850714Y-113728333D01*
X138898333Y-113633095D01*
X139850714Y-112156905D02*
X138422143Y-112156905D01*
X139469762Y-110728333D02*
X139517381Y-110585476D01*
X139517381Y-110347380D01*
X139469762Y-110252142D01*
X139422143Y-110204523D01*
X139326905Y-110156904D01*
X139231667Y-110156904D01*
X139136429Y-110204523D01*
X139088810Y-110252142D01*
X139041190Y-110347380D01*
X138993571Y-110537857D01*
X138945952Y-110633095D01*
X138898333Y-110680714D01*
X138803095Y-110728333D01*
X138707857Y-110728333D01*
X138612619Y-110680714D01*
X138565000Y-110633095D01*
X138517381Y-110537857D01*
X138517381Y-110299761D01*
X138565000Y-110156904D01*
X139517381Y-109728333D02*
X138850714Y-109728333D01*
X138517381Y-109728333D02*
X138565000Y-109775952D01*
X138612619Y-109728333D01*
X138565000Y-109680714D01*
X138517381Y-109728333D01*
X138612619Y-109728333D01*
X138850714Y-108823571D02*
X139660238Y-108823571D01*
X139755476Y-108871190D01*
X139803095Y-108918809D01*
X139850714Y-109014048D01*
X139850714Y-109156905D01*
X139803095Y-109252143D01*
X139469762Y-108823571D02*
X139517381Y-108918809D01*
X139517381Y-109109286D01*
X139469762Y-109204524D01*
X139422143Y-109252143D01*
X139326905Y-109299762D01*
X139041190Y-109299762D01*
X138945952Y-109252143D01*
X138898333Y-109204524D01*
X138850714Y-109109286D01*
X138850714Y-108918809D01*
X138898333Y-108823571D01*
X139136429Y-107585476D02*
X139136429Y-106823571D01*
X138850714Y-106347381D02*
X139136429Y-105585476D01*
X139422143Y-106347381D01*
X118530714Y-118442619D02*
X118816429Y-119204524D01*
X119102143Y-118442619D01*
X118816429Y-117966429D02*
X118816429Y-117204524D01*
X118245000Y-115442619D02*
X118197381Y-115537857D01*
X118197381Y-115680714D01*
X118245000Y-115823572D01*
X118340238Y-115918810D01*
X118435476Y-115966429D01*
X118625952Y-116014048D01*
X118768810Y-116014048D01*
X118959286Y-115966429D01*
X119054524Y-115918810D01*
X119149762Y-115823572D01*
X119197381Y-115680714D01*
X119197381Y-115585476D01*
X119149762Y-115442619D01*
X119102143Y-115395000D01*
X118768810Y-115395000D01*
X118768810Y-115585476D01*
X118530714Y-114966429D02*
X119197381Y-114966429D01*
X118625952Y-114966429D02*
X118578333Y-114918810D01*
X118530714Y-114823572D01*
X118530714Y-114680714D01*
X118578333Y-114585476D01*
X118673571Y-114537857D01*
X119197381Y-114537857D01*
X119197381Y-113633095D02*
X118197381Y-113633095D01*
X119149762Y-113633095D02*
X119197381Y-113728333D01*
X119197381Y-113918810D01*
X119149762Y-114014048D01*
X119102143Y-114061667D01*
X119006905Y-114109286D01*
X118721190Y-114109286D01*
X118625952Y-114061667D01*
X118578333Y-114014048D01*
X118530714Y-113918810D01*
X118530714Y-113728333D01*
X118578333Y-113633095D01*
X119530714Y-112156905D02*
X118102143Y-112156905D01*
X119149762Y-110728333D02*
X119197381Y-110585476D01*
X119197381Y-110347380D01*
X119149762Y-110252142D01*
X119102143Y-110204523D01*
X119006905Y-110156904D01*
X118911667Y-110156904D01*
X118816429Y-110204523D01*
X118768810Y-110252142D01*
X118721190Y-110347380D01*
X118673571Y-110537857D01*
X118625952Y-110633095D01*
X118578333Y-110680714D01*
X118483095Y-110728333D01*
X118387857Y-110728333D01*
X118292619Y-110680714D01*
X118245000Y-110633095D01*
X118197381Y-110537857D01*
X118197381Y-110299761D01*
X118245000Y-110156904D01*
X119197381Y-109728333D02*
X118530714Y-109728333D01*
X118197381Y-109728333D02*
X118245000Y-109775952D01*
X118292619Y-109728333D01*
X118245000Y-109680714D01*
X118197381Y-109728333D01*
X118292619Y-109728333D01*
X118530714Y-108823571D02*
X119340238Y-108823571D01*
X119435476Y-108871190D01*
X119483095Y-108918809D01*
X119530714Y-109014048D01*
X119530714Y-109156905D01*
X119483095Y-109252143D01*
X119149762Y-108823571D02*
X119197381Y-108918809D01*
X119197381Y-109109286D01*
X119149762Y-109204524D01*
X119102143Y-109252143D01*
X119006905Y-109299762D01*
X118721190Y-109299762D01*
X118625952Y-109252143D01*
X118578333Y-109204524D01*
X118530714Y-109109286D01*
X118530714Y-108918809D01*
X118578333Y-108823571D01*
X118816429Y-107585476D02*
X118816429Y-106823571D01*
X118530714Y-106347381D02*
X118816429Y-105585476D01*
X119102143Y-106347381D01*
X102655714Y-118323571D02*
X102941429Y-119085476D01*
X103227143Y-118323571D01*
X102941429Y-117847381D02*
X102941429Y-117085476D01*
X102322381Y-115990238D02*
X103322381Y-115656905D01*
X102322381Y-115323571D01*
X103274762Y-114561666D02*
X103322381Y-114656904D01*
X103322381Y-114847381D01*
X103274762Y-114942619D01*
X103227143Y-114990238D01*
X103131905Y-115037857D01*
X102846190Y-115037857D01*
X102750952Y-114990238D01*
X102703333Y-114942619D01*
X102655714Y-114847381D01*
X102655714Y-114656904D01*
X102703333Y-114561666D01*
X103274762Y-113704523D02*
X103322381Y-113799761D01*
X103322381Y-113990238D01*
X103274762Y-114085476D01*
X103227143Y-114133095D01*
X103131905Y-114180714D01*
X102846190Y-114180714D01*
X102750952Y-114133095D01*
X102703333Y-114085476D01*
X102655714Y-113990238D01*
X102655714Y-113799761D01*
X102703333Y-113704523D01*
X103655714Y-112275952D02*
X102227143Y-112275952D01*
X103274762Y-110847380D02*
X103322381Y-110704523D01*
X103322381Y-110466427D01*
X103274762Y-110371189D01*
X103227143Y-110323570D01*
X103131905Y-110275951D01*
X103036667Y-110275951D01*
X102941429Y-110323570D01*
X102893810Y-110371189D01*
X102846190Y-110466427D01*
X102798571Y-110656904D01*
X102750952Y-110752142D01*
X102703333Y-110799761D01*
X102608095Y-110847380D01*
X102512857Y-110847380D01*
X102417619Y-110799761D01*
X102370000Y-110752142D01*
X102322381Y-110656904D01*
X102322381Y-110418808D01*
X102370000Y-110275951D01*
X103322381Y-109847380D02*
X102655714Y-109847380D01*
X102322381Y-109847380D02*
X102370000Y-109894999D01*
X102417619Y-109847380D01*
X102370000Y-109799761D01*
X102322381Y-109847380D01*
X102417619Y-109847380D01*
X102655714Y-108942618D02*
X103465238Y-108942618D01*
X103560476Y-108990237D01*
X103608095Y-109037856D01*
X103655714Y-109133095D01*
X103655714Y-109275952D01*
X103608095Y-109371190D01*
X103274762Y-108942618D02*
X103322381Y-109037856D01*
X103322381Y-109228333D01*
X103274762Y-109323571D01*
X103227143Y-109371190D01*
X103131905Y-109418809D01*
X102846190Y-109418809D01*
X102750952Y-109371190D01*
X102703333Y-109323571D01*
X102655714Y-109228333D01*
X102655714Y-109037856D01*
X102703333Y-108942618D01*
X102941429Y-107704523D02*
X102941429Y-106942618D01*
X102655714Y-106466428D02*
X102941429Y-105704523D01*
X103227143Y-106466428D01*
X82335714Y-118323571D02*
X82621429Y-119085476D01*
X82907143Y-118323571D01*
X82621429Y-117847381D02*
X82621429Y-117085476D01*
X82002381Y-115990238D02*
X83002381Y-115656905D01*
X82002381Y-115323571D01*
X82954762Y-114561666D02*
X83002381Y-114656904D01*
X83002381Y-114847381D01*
X82954762Y-114942619D01*
X82907143Y-114990238D01*
X82811905Y-115037857D01*
X82526190Y-115037857D01*
X82430952Y-114990238D01*
X82383333Y-114942619D01*
X82335714Y-114847381D01*
X82335714Y-114656904D01*
X82383333Y-114561666D01*
X82954762Y-113704523D02*
X83002381Y-113799761D01*
X83002381Y-113990238D01*
X82954762Y-114085476D01*
X82907143Y-114133095D01*
X82811905Y-114180714D01*
X82526190Y-114180714D01*
X82430952Y-114133095D01*
X82383333Y-114085476D01*
X82335714Y-113990238D01*
X82335714Y-113799761D01*
X82383333Y-113704523D01*
X83335714Y-112275952D02*
X81907143Y-112275952D01*
X82954762Y-110847380D02*
X83002381Y-110704523D01*
X83002381Y-110466427D01*
X82954762Y-110371189D01*
X82907143Y-110323570D01*
X82811905Y-110275951D01*
X82716667Y-110275951D01*
X82621429Y-110323570D01*
X82573810Y-110371189D01*
X82526190Y-110466427D01*
X82478571Y-110656904D01*
X82430952Y-110752142D01*
X82383333Y-110799761D01*
X82288095Y-110847380D01*
X82192857Y-110847380D01*
X82097619Y-110799761D01*
X82050000Y-110752142D01*
X82002381Y-110656904D01*
X82002381Y-110418808D01*
X82050000Y-110275951D01*
X83002381Y-109847380D02*
X82335714Y-109847380D01*
X82002381Y-109847380D02*
X82050000Y-109894999D01*
X82097619Y-109847380D01*
X82050000Y-109799761D01*
X82002381Y-109847380D01*
X82097619Y-109847380D01*
X82335714Y-108942618D02*
X83145238Y-108942618D01*
X83240476Y-108990237D01*
X83288095Y-109037856D01*
X83335714Y-109133095D01*
X83335714Y-109275952D01*
X83288095Y-109371190D01*
X82954762Y-108942618D02*
X83002381Y-109037856D01*
X83002381Y-109228333D01*
X82954762Y-109323571D01*
X82907143Y-109371190D01*
X82811905Y-109418809D01*
X82526190Y-109418809D01*
X82430952Y-109371190D01*
X82383333Y-109323571D01*
X82335714Y-109228333D01*
X82335714Y-109037856D01*
X82383333Y-108942618D01*
X82621429Y-107704523D02*
X82621429Y-106942618D01*
X82335714Y-106466428D02*
X82621429Y-105704523D01*
X82907143Y-106466428D01*
X98210714Y-118442619D02*
X98496429Y-119204524D01*
X98782143Y-118442619D01*
X98496429Y-117966429D02*
X98496429Y-117204524D01*
X97925000Y-115442619D02*
X97877381Y-115537857D01*
X97877381Y-115680714D01*
X97925000Y-115823572D01*
X98020238Y-115918810D01*
X98115476Y-115966429D01*
X98305952Y-116014048D01*
X98448810Y-116014048D01*
X98639286Y-115966429D01*
X98734524Y-115918810D01*
X98829762Y-115823572D01*
X98877381Y-115680714D01*
X98877381Y-115585476D01*
X98829762Y-115442619D01*
X98782143Y-115395000D01*
X98448810Y-115395000D01*
X98448810Y-115585476D01*
X98210714Y-114966429D02*
X98877381Y-114966429D01*
X98305952Y-114966429D02*
X98258333Y-114918810D01*
X98210714Y-114823572D01*
X98210714Y-114680714D01*
X98258333Y-114585476D01*
X98353571Y-114537857D01*
X98877381Y-114537857D01*
X98877381Y-113633095D02*
X97877381Y-113633095D01*
X98829762Y-113633095D02*
X98877381Y-113728333D01*
X98877381Y-113918810D01*
X98829762Y-114014048D01*
X98782143Y-114061667D01*
X98686905Y-114109286D01*
X98401190Y-114109286D01*
X98305952Y-114061667D01*
X98258333Y-114014048D01*
X98210714Y-113918810D01*
X98210714Y-113728333D01*
X98258333Y-113633095D01*
X99210714Y-112156905D02*
X97782143Y-112156905D01*
X98829762Y-110728333D02*
X98877381Y-110585476D01*
X98877381Y-110347380D01*
X98829762Y-110252142D01*
X98782143Y-110204523D01*
X98686905Y-110156904D01*
X98591667Y-110156904D01*
X98496429Y-110204523D01*
X98448810Y-110252142D01*
X98401190Y-110347380D01*
X98353571Y-110537857D01*
X98305952Y-110633095D01*
X98258333Y-110680714D01*
X98163095Y-110728333D01*
X98067857Y-110728333D01*
X97972619Y-110680714D01*
X97925000Y-110633095D01*
X97877381Y-110537857D01*
X97877381Y-110299761D01*
X97925000Y-110156904D01*
X98877381Y-109728333D02*
X98210714Y-109728333D01*
X97877381Y-109728333D02*
X97925000Y-109775952D01*
X97972619Y-109728333D01*
X97925000Y-109680714D01*
X97877381Y-109728333D01*
X97972619Y-109728333D01*
X98210714Y-108823571D02*
X99020238Y-108823571D01*
X99115476Y-108871190D01*
X99163095Y-108918809D01*
X99210714Y-109014048D01*
X99210714Y-109156905D01*
X99163095Y-109252143D01*
X98829762Y-108823571D02*
X98877381Y-108918809D01*
X98877381Y-109109286D01*
X98829762Y-109204524D01*
X98782143Y-109252143D01*
X98686905Y-109299762D01*
X98401190Y-109299762D01*
X98305952Y-109252143D01*
X98258333Y-109204524D01*
X98210714Y-109109286D01*
X98210714Y-108918809D01*
X98258333Y-108823571D01*
X98496429Y-107585476D02*
X98496429Y-106823571D01*
X98210714Y-106347381D02*
X98496429Y-105585476D01*
X98782143Y-106347381D01*
X62015714Y-118323571D02*
X62301429Y-119085476D01*
X62587143Y-118323571D01*
X62301429Y-117847381D02*
X62301429Y-117085476D01*
X61682381Y-115990238D02*
X62682381Y-115656905D01*
X61682381Y-115323571D01*
X62634762Y-114561666D02*
X62682381Y-114656904D01*
X62682381Y-114847381D01*
X62634762Y-114942619D01*
X62587143Y-114990238D01*
X62491905Y-115037857D01*
X62206190Y-115037857D01*
X62110952Y-114990238D01*
X62063333Y-114942619D01*
X62015714Y-114847381D01*
X62015714Y-114656904D01*
X62063333Y-114561666D01*
X62634762Y-113704523D02*
X62682381Y-113799761D01*
X62682381Y-113990238D01*
X62634762Y-114085476D01*
X62587143Y-114133095D01*
X62491905Y-114180714D01*
X62206190Y-114180714D01*
X62110952Y-114133095D01*
X62063333Y-114085476D01*
X62015714Y-113990238D01*
X62015714Y-113799761D01*
X62063333Y-113704523D01*
X63015714Y-112275952D02*
X61587143Y-112275952D01*
X62634762Y-110847380D02*
X62682381Y-110704523D01*
X62682381Y-110466427D01*
X62634762Y-110371189D01*
X62587143Y-110323570D01*
X62491905Y-110275951D01*
X62396667Y-110275951D01*
X62301429Y-110323570D01*
X62253810Y-110371189D01*
X62206190Y-110466427D01*
X62158571Y-110656904D01*
X62110952Y-110752142D01*
X62063333Y-110799761D01*
X61968095Y-110847380D01*
X61872857Y-110847380D01*
X61777619Y-110799761D01*
X61730000Y-110752142D01*
X61682381Y-110656904D01*
X61682381Y-110418808D01*
X61730000Y-110275951D01*
X62682381Y-109847380D02*
X62015714Y-109847380D01*
X61682381Y-109847380D02*
X61730000Y-109894999D01*
X61777619Y-109847380D01*
X61730000Y-109799761D01*
X61682381Y-109847380D01*
X61777619Y-109847380D01*
X62015714Y-108942618D02*
X62825238Y-108942618D01*
X62920476Y-108990237D01*
X62968095Y-109037856D01*
X63015714Y-109133095D01*
X63015714Y-109275952D01*
X62968095Y-109371190D01*
X62634762Y-108942618D02*
X62682381Y-109037856D01*
X62682381Y-109228333D01*
X62634762Y-109323571D01*
X62587143Y-109371190D01*
X62491905Y-109418809D01*
X62206190Y-109418809D01*
X62110952Y-109371190D01*
X62063333Y-109323571D01*
X62015714Y-109228333D01*
X62015714Y-109037856D01*
X62063333Y-108942618D01*
X62301429Y-107704523D02*
X62301429Y-106942618D01*
X62015714Y-106466428D02*
X62301429Y-105704523D01*
X62587143Y-106466428D01*
X77890714Y-118442619D02*
X78176429Y-119204524D01*
X78462143Y-118442619D01*
X78176429Y-117966429D02*
X78176429Y-117204524D01*
X77605000Y-115442619D02*
X77557381Y-115537857D01*
X77557381Y-115680714D01*
X77605000Y-115823572D01*
X77700238Y-115918810D01*
X77795476Y-115966429D01*
X77985952Y-116014048D01*
X78128810Y-116014048D01*
X78319286Y-115966429D01*
X78414524Y-115918810D01*
X78509762Y-115823572D01*
X78557381Y-115680714D01*
X78557381Y-115585476D01*
X78509762Y-115442619D01*
X78462143Y-115395000D01*
X78128810Y-115395000D01*
X78128810Y-115585476D01*
X77890714Y-114966429D02*
X78557381Y-114966429D01*
X77985952Y-114966429D02*
X77938333Y-114918810D01*
X77890714Y-114823572D01*
X77890714Y-114680714D01*
X77938333Y-114585476D01*
X78033571Y-114537857D01*
X78557381Y-114537857D01*
X78557381Y-113633095D02*
X77557381Y-113633095D01*
X78509762Y-113633095D02*
X78557381Y-113728333D01*
X78557381Y-113918810D01*
X78509762Y-114014048D01*
X78462143Y-114061667D01*
X78366905Y-114109286D01*
X78081190Y-114109286D01*
X77985952Y-114061667D01*
X77938333Y-114014048D01*
X77890714Y-113918810D01*
X77890714Y-113728333D01*
X77938333Y-113633095D01*
X78890714Y-112156905D02*
X77462143Y-112156905D01*
X78509762Y-110728333D02*
X78557381Y-110585476D01*
X78557381Y-110347380D01*
X78509762Y-110252142D01*
X78462143Y-110204523D01*
X78366905Y-110156904D01*
X78271667Y-110156904D01*
X78176429Y-110204523D01*
X78128810Y-110252142D01*
X78081190Y-110347380D01*
X78033571Y-110537857D01*
X77985952Y-110633095D01*
X77938333Y-110680714D01*
X77843095Y-110728333D01*
X77747857Y-110728333D01*
X77652619Y-110680714D01*
X77605000Y-110633095D01*
X77557381Y-110537857D01*
X77557381Y-110299761D01*
X77605000Y-110156904D01*
X78557381Y-109728333D02*
X77890714Y-109728333D01*
X77557381Y-109728333D02*
X77605000Y-109775952D01*
X77652619Y-109728333D01*
X77605000Y-109680714D01*
X77557381Y-109728333D01*
X77652619Y-109728333D01*
X77890714Y-108823571D02*
X78700238Y-108823571D01*
X78795476Y-108871190D01*
X78843095Y-108918809D01*
X78890714Y-109014048D01*
X78890714Y-109156905D01*
X78843095Y-109252143D01*
X78509762Y-108823571D02*
X78557381Y-108918809D01*
X78557381Y-109109286D01*
X78509762Y-109204524D01*
X78462143Y-109252143D01*
X78366905Y-109299762D01*
X78081190Y-109299762D01*
X77985952Y-109252143D01*
X77938333Y-109204524D01*
X77890714Y-109109286D01*
X77890714Y-108918809D01*
X77938333Y-108823571D01*
X78176429Y-107585476D02*
X78176429Y-106823571D01*
X77890714Y-106347381D02*
X78176429Y-105585476D01*
X78462143Y-106347381D01*
X57570714Y-118442619D02*
X57856429Y-119204524D01*
X58142143Y-118442619D01*
X57856429Y-117966429D02*
X57856429Y-117204524D01*
X57285000Y-115442619D02*
X57237381Y-115537857D01*
X57237381Y-115680714D01*
X57285000Y-115823572D01*
X57380238Y-115918810D01*
X57475476Y-115966429D01*
X57665952Y-116014048D01*
X57808810Y-116014048D01*
X57999286Y-115966429D01*
X58094524Y-115918810D01*
X58189762Y-115823572D01*
X58237381Y-115680714D01*
X58237381Y-115585476D01*
X58189762Y-115442619D01*
X58142143Y-115395000D01*
X57808810Y-115395000D01*
X57808810Y-115585476D01*
X57570714Y-114966429D02*
X58237381Y-114966429D01*
X57665952Y-114966429D02*
X57618333Y-114918810D01*
X57570714Y-114823572D01*
X57570714Y-114680714D01*
X57618333Y-114585476D01*
X57713571Y-114537857D01*
X58237381Y-114537857D01*
X58237381Y-113633095D02*
X57237381Y-113633095D01*
X58189762Y-113633095D02*
X58237381Y-113728333D01*
X58237381Y-113918810D01*
X58189762Y-114014048D01*
X58142143Y-114061667D01*
X58046905Y-114109286D01*
X57761190Y-114109286D01*
X57665952Y-114061667D01*
X57618333Y-114014048D01*
X57570714Y-113918810D01*
X57570714Y-113728333D01*
X57618333Y-113633095D01*
X58570714Y-112156905D02*
X57142143Y-112156905D01*
X58189762Y-110728333D02*
X58237381Y-110585476D01*
X58237381Y-110347380D01*
X58189762Y-110252142D01*
X58142143Y-110204523D01*
X58046905Y-110156904D01*
X57951667Y-110156904D01*
X57856429Y-110204523D01*
X57808810Y-110252142D01*
X57761190Y-110347380D01*
X57713571Y-110537857D01*
X57665952Y-110633095D01*
X57618333Y-110680714D01*
X57523095Y-110728333D01*
X57427857Y-110728333D01*
X57332619Y-110680714D01*
X57285000Y-110633095D01*
X57237381Y-110537857D01*
X57237381Y-110299761D01*
X57285000Y-110156904D01*
X58237381Y-109728333D02*
X57570714Y-109728333D01*
X57237381Y-109728333D02*
X57285000Y-109775952D01*
X57332619Y-109728333D01*
X57285000Y-109680714D01*
X57237381Y-109728333D01*
X57332619Y-109728333D01*
X57570714Y-108823571D02*
X58380238Y-108823571D01*
X58475476Y-108871190D01*
X58523095Y-108918809D01*
X58570714Y-109014048D01*
X58570714Y-109156905D01*
X58523095Y-109252143D01*
X58189762Y-108823571D02*
X58237381Y-108918809D01*
X58237381Y-109109286D01*
X58189762Y-109204524D01*
X58142143Y-109252143D01*
X58046905Y-109299762D01*
X57761190Y-109299762D01*
X57665952Y-109252143D01*
X57618333Y-109204524D01*
X57570714Y-109109286D01*
X57570714Y-108918809D01*
X57618333Y-108823571D01*
X57856429Y-107585476D02*
X57856429Y-106823571D01*
X57570714Y-106347381D02*
X57856429Y-105585476D01*
X58142143Y-106347381D01*
X41695714Y-118323571D02*
X41981429Y-119085476D01*
X42267143Y-118323571D01*
X41981429Y-117847381D02*
X41981429Y-117085476D01*
X41362381Y-115990238D02*
X42362381Y-115656905D01*
X41362381Y-115323571D01*
X42314762Y-114561666D02*
X42362381Y-114656904D01*
X42362381Y-114847381D01*
X42314762Y-114942619D01*
X42267143Y-114990238D01*
X42171905Y-115037857D01*
X41886190Y-115037857D01*
X41790952Y-114990238D01*
X41743333Y-114942619D01*
X41695714Y-114847381D01*
X41695714Y-114656904D01*
X41743333Y-114561666D01*
X42314762Y-113704523D02*
X42362381Y-113799761D01*
X42362381Y-113990238D01*
X42314762Y-114085476D01*
X42267143Y-114133095D01*
X42171905Y-114180714D01*
X41886190Y-114180714D01*
X41790952Y-114133095D01*
X41743333Y-114085476D01*
X41695714Y-113990238D01*
X41695714Y-113799761D01*
X41743333Y-113704523D01*
X42695714Y-112275952D02*
X41267143Y-112275952D01*
X42314762Y-110847380D02*
X42362381Y-110704523D01*
X42362381Y-110466427D01*
X42314762Y-110371189D01*
X42267143Y-110323570D01*
X42171905Y-110275951D01*
X42076667Y-110275951D01*
X41981429Y-110323570D01*
X41933810Y-110371189D01*
X41886190Y-110466427D01*
X41838571Y-110656904D01*
X41790952Y-110752142D01*
X41743333Y-110799761D01*
X41648095Y-110847380D01*
X41552857Y-110847380D01*
X41457619Y-110799761D01*
X41410000Y-110752142D01*
X41362381Y-110656904D01*
X41362381Y-110418808D01*
X41410000Y-110275951D01*
X42362381Y-109847380D02*
X41695714Y-109847380D01*
X41362381Y-109847380D02*
X41410000Y-109894999D01*
X41457619Y-109847380D01*
X41410000Y-109799761D01*
X41362381Y-109847380D01*
X41457619Y-109847380D01*
X41695714Y-108942618D02*
X42505238Y-108942618D01*
X42600476Y-108990237D01*
X42648095Y-109037856D01*
X42695714Y-109133095D01*
X42695714Y-109275952D01*
X42648095Y-109371190D01*
X42314762Y-108942618D02*
X42362381Y-109037856D01*
X42362381Y-109228333D01*
X42314762Y-109323571D01*
X42267143Y-109371190D01*
X42171905Y-109418809D01*
X41886190Y-109418809D01*
X41790952Y-109371190D01*
X41743333Y-109323571D01*
X41695714Y-109228333D01*
X41695714Y-109037856D01*
X41743333Y-108942618D01*
X41981429Y-107704523D02*
X41981429Y-106942618D01*
X41695714Y-106466428D02*
X41981429Y-105704523D01*
X42267143Y-106466428D01*
D12*
X190797858Y-138473571D02*
X189940715Y-138473571D01*
X190369287Y-138473571D02*
X190369287Y-136973571D01*
X190226430Y-137187857D01*
X190083572Y-137330714D01*
X189940715Y-137402143D01*
X191726429Y-136973571D02*
X191869286Y-136973571D01*
X192012143Y-137045000D01*
X192083572Y-137116429D01*
X192155001Y-137259286D01*
X192226429Y-137545000D01*
X192226429Y-137902143D01*
X192155001Y-138187857D01*
X192083572Y-138330714D01*
X192012143Y-138402143D01*
X191869286Y-138473571D01*
X191726429Y-138473571D01*
X191583572Y-138402143D01*
X191512143Y-138330714D01*
X191440715Y-138187857D01*
X191369286Y-137902143D01*
X191369286Y-137545000D01*
X191440715Y-137259286D01*
X191512143Y-137116429D01*
X191583572Y-137045000D01*
X191726429Y-136973571D01*
X193155000Y-136973571D02*
X193297857Y-136973571D01*
X193440714Y-137045000D01*
X193512143Y-137116429D01*
X193583572Y-137259286D01*
X193655000Y-137545000D01*
X193655000Y-137902143D01*
X193583572Y-138187857D01*
X193512143Y-138330714D01*
X193440714Y-138402143D01*
X193297857Y-138473571D01*
X193155000Y-138473571D01*
X193012143Y-138402143D01*
X192940714Y-138330714D01*
X192869286Y-138187857D01*
X192797857Y-137902143D01*
X192797857Y-137545000D01*
X192869286Y-137259286D01*
X192940714Y-137116429D01*
X193012143Y-137045000D01*
X193155000Y-136973571D01*
X194297857Y-138473571D02*
X194297857Y-136973571D01*
X194440714Y-137902143D02*
X194869285Y-138473571D01*
X194869285Y-137473571D02*
X194297857Y-138045000D01*
X169842858Y-138473571D02*
X168985715Y-138473571D01*
X169414287Y-138473571D02*
X169414287Y-136973571D01*
X169271430Y-137187857D01*
X169128572Y-137330714D01*
X168985715Y-137402143D01*
X170771429Y-136973571D02*
X170914286Y-136973571D01*
X171057143Y-137045000D01*
X171128572Y-137116429D01*
X171200001Y-137259286D01*
X171271429Y-137545000D01*
X171271429Y-137902143D01*
X171200001Y-138187857D01*
X171128572Y-138330714D01*
X171057143Y-138402143D01*
X170914286Y-138473571D01*
X170771429Y-138473571D01*
X170628572Y-138402143D01*
X170557143Y-138330714D01*
X170485715Y-138187857D01*
X170414286Y-137902143D01*
X170414286Y-137545000D01*
X170485715Y-137259286D01*
X170557143Y-137116429D01*
X170628572Y-137045000D01*
X170771429Y-136973571D01*
X172200000Y-136973571D02*
X172342857Y-136973571D01*
X172485714Y-137045000D01*
X172557143Y-137116429D01*
X172628572Y-137259286D01*
X172700000Y-137545000D01*
X172700000Y-137902143D01*
X172628572Y-138187857D01*
X172557143Y-138330714D01*
X172485714Y-138402143D01*
X172342857Y-138473571D01*
X172200000Y-138473571D01*
X172057143Y-138402143D01*
X171985714Y-138330714D01*
X171914286Y-138187857D01*
X171842857Y-137902143D01*
X171842857Y-137545000D01*
X171914286Y-137259286D01*
X171985714Y-137116429D01*
X172057143Y-137045000D01*
X172200000Y-136973571D01*
X173342857Y-138473571D02*
X173342857Y-136973571D01*
X173485714Y-137902143D02*
X173914285Y-138473571D01*
X173914285Y-137473571D02*
X173342857Y-138045000D01*
X150157858Y-138473571D02*
X149300715Y-138473571D01*
X149729287Y-138473571D02*
X149729287Y-136973571D01*
X149586430Y-137187857D01*
X149443572Y-137330714D01*
X149300715Y-137402143D01*
X151086429Y-136973571D02*
X151229286Y-136973571D01*
X151372143Y-137045000D01*
X151443572Y-137116429D01*
X151515001Y-137259286D01*
X151586429Y-137545000D01*
X151586429Y-137902143D01*
X151515001Y-138187857D01*
X151443572Y-138330714D01*
X151372143Y-138402143D01*
X151229286Y-138473571D01*
X151086429Y-138473571D01*
X150943572Y-138402143D01*
X150872143Y-138330714D01*
X150800715Y-138187857D01*
X150729286Y-137902143D01*
X150729286Y-137545000D01*
X150800715Y-137259286D01*
X150872143Y-137116429D01*
X150943572Y-137045000D01*
X151086429Y-136973571D01*
X152515000Y-136973571D02*
X152657857Y-136973571D01*
X152800714Y-137045000D01*
X152872143Y-137116429D01*
X152943572Y-137259286D01*
X153015000Y-137545000D01*
X153015000Y-137902143D01*
X152943572Y-138187857D01*
X152872143Y-138330714D01*
X152800714Y-138402143D01*
X152657857Y-138473571D01*
X152515000Y-138473571D01*
X152372143Y-138402143D01*
X152300714Y-138330714D01*
X152229286Y-138187857D01*
X152157857Y-137902143D01*
X152157857Y-137545000D01*
X152229286Y-137259286D01*
X152300714Y-137116429D01*
X152372143Y-137045000D01*
X152515000Y-136973571D01*
X153657857Y-138473571D02*
X153657857Y-136973571D01*
X153800714Y-137902143D02*
X154229285Y-138473571D01*
X154229285Y-137473571D02*
X153657857Y-138045000D01*
X129837858Y-138473571D02*
X128980715Y-138473571D01*
X129409287Y-138473571D02*
X129409287Y-136973571D01*
X129266430Y-137187857D01*
X129123572Y-137330714D01*
X128980715Y-137402143D01*
X130766429Y-136973571D02*
X130909286Y-136973571D01*
X131052143Y-137045000D01*
X131123572Y-137116429D01*
X131195001Y-137259286D01*
X131266429Y-137545000D01*
X131266429Y-137902143D01*
X131195001Y-138187857D01*
X131123572Y-138330714D01*
X131052143Y-138402143D01*
X130909286Y-138473571D01*
X130766429Y-138473571D01*
X130623572Y-138402143D01*
X130552143Y-138330714D01*
X130480715Y-138187857D01*
X130409286Y-137902143D01*
X130409286Y-137545000D01*
X130480715Y-137259286D01*
X130552143Y-137116429D01*
X130623572Y-137045000D01*
X130766429Y-136973571D01*
X132195000Y-136973571D02*
X132337857Y-136973571D01*
X132480714Y-137045000D01*
X132552143Y-137116429D01*
X132623572Y-137259286D01*
X132695000Y-137545000D01*
X132695000Y-137902143D01*
X132623572Y-138187857D01*
X132552143Y-138330714D01*
X132480714Y-138402143D01*
X132337857Y-138473571D01*
X132195000Y-138473571D01*
X132052143Y-138402143D01*
X131980714Y-138330714D01*
X131909286Y-138187857D01*
X131837857Y-137902143D01*
X131837857Y-137545000D01*
X131909286Y-137259286D01*
X131980714Y-137116429D01*
X132052143Y-137045000D01*
X132195000Y-136973571D01*
X133337857Y-138473571D02*
X133337857Y-136973571D01*
X133480714Y-137902143D02*
X133909285Y-138473571D01*
X133909285Y-137473571D02*
X133337857Y-138045000D01*
X110232143Y-138473571D02*
X109375000Y-138473571D01*
X109803572Y-138473571D02*
X109803572Y-136973571D01*
X109660715Y-137187857D01*
X109517857Y-137330714D01*
X109375000Y-137402143D01*
X111160714Y-136973571D02*
X111303571Y-136973571D01*
X111446428Y-137045000D01*
X111517857Y-137116429D01*
X111589286Y-137259286D01*
X111660714Y-137545000D01*
X111660714Y-137902143D01*
X111589286Y-138187857D01*
X111517857Y-138330714D01*
X111446428Y-138402143D01*
X111303571Y-138473571D01*
X111160714Y-138473571D01*
X111017857Y-138402143D01*
X110946428Y-138330714D01*
X110875000Y-138187857D01*
X110803571Y-137902143D01*
X110803571Y-137545000D01*
X110875000Y-137259286D01*
X110946428Y-137116429D01*
X111017857Y-137045000D01*
X111160714Y-136973571D01*
X112303571Y-138473571D02*
X112303571Y-136973571D01*
X112446428Y-137902143D02*
X112874999Y-138473571D01*
X112874999Y-137473571D02*
X112303571Y-138045000D01*
X89912143Y-138473571D02*
X89055000Y-138473571D01*
X89483572Y-138473571D02*
X89483572Y-136973571D01*
X89340715Y-137187857D01*
X89197857Y-137330714D01*
X89055000Y-137402143D01*
X90840714Y-136973571D02*
X90983571Y-136973571D01*
X91126428Y-137045000D01*
X91197857Y-137116429D01*
X91269286Y-137259286D01*
X91340714Y-137545000D01*
X91340714Y-137902143D01*
X91269286Y-138187857D01*
X91197857Y-138330714D01*
X91126428Y-138402143D01*
X90983571Y-138473571D01*
X90840714Y-138473571D01*
X90697857Y-138402143D01*
X90626428Y-138330714D01*
X90555000Y-138187857D01*
X90483571Y-137902143D01*
X90483571Y-137545000D01*
X90555000Y-137259286D01*
X90626428Y-137116429D01*
X90697857Y-137045000D01*
X90840714Y-136973571D01*
X91983571Y-138473571D02*
X91983571Y-136973571D01*
X92126428Y-137902143D02*
X92554999Y-138473571D01*
X92554999Y-137473571D02*
X91983571Y-138045000D01*
X69592143Y-138473571D02*
X68735000Y-138473571D01*
X69163572Y-138473571D02*
X69163572Y-136973571D01*
X69020715Y-137187857D01*
X68877857Y-137330714D01*
X68735000Y-137402143D01*
X70520714Y-136973571D02*
X70663571Y-136973571D01*
X70806428Y-137045000D01*
X70877857Y-137116429D01*
X70949286Y-137259286D01*
X71020714Y-137545000D01*
X71020714Y-137902143D01*
X70949286Y-138187857D01*
X70877857Y-138330714D01*
X70806428Y-138402143D01*
X70663571Y-138473571D01*
X70520714Y-138473571D01*
X70377857Y-138402143D01*
X70306428Y-138330714D01*
X70235000Y-138187857D01*
X70163571Y-137902143D01*
X70163571Y-137545000D01*
X70235000Y-137259286D01*
X70306428Y-137116429D01*
X70377857Y-137045000D01*
X70520714Y-136973571D01*
X71663571Y-138473571D02*
X71663571Y-136973571D01*
X71806428Y-137902143D02*
X72234999Y-138473571D01*
X72234999Y-137473571D02*
X71663571Y-138045000D01*
X49272143Y-138473571D02*
X48415000Y-138473571D01*
X48843572Y-138473571D02*
X48843572Y-136973571D01*
X48700715Y-137187857D01*
X48557857Y-137330714D01*
X48415000Y-137402143D01*
X50200714Y-136973571D02*
X50343571Y-136973571D01*
X50486428Y-137045000D01*
X50557857Y-137116429D01*
X50629286Y-137259286D01*
X50700714Y-137545000D01*
X50700714Y-137902143D01*
X50629286Y-138187857D01*
X50557857Y-138330714D01*
X50486428Y-138402143D01*
X50343571Y-138473571D01*
X50200714Y-138473571D01*
X50057857Y-138402143D01*
X49986428Y-138330714D01*
X49915000Y-138187857D01*
X49843571Y-137902143D01*
X49843571Y-137545000D01*
X49915000Y-137259286D01*
X49986428Y-137116429D01*
X50057857Y-137045000D01*
X50200714Y-136973571D01*
X51343571Y-138473571D02*
X51343571Y-136973571D01*
X51486428Y-137902143D02*
X51914999Y-138473571D01*
X51914999Y-137473571D02*
X51343571Y-138045000D01*
D13*
X33524278Y-112685723D02*
G75*
G03X38135580Y-112686000I2305722J1179723D01*
G01*
X33524278Y-110326277D02*
G75*
G02X38135580Y-110326000I2305722J-1179723D01*
G01*
X33524278Y-110326277D02*
G75*
G03X33524420Y-112686000I2305722J-1179723D01*
G01*
X35830000Y-114056000D02*
X35830000Y-108956000D01*
X35790000Y-114056000D02*
X35790000Y-112486000D01*
X35790000Y-110526000D02*
X35790000Y-108956000D01*
X35750000Y-114055000D02*
X35750000Y-112486000D01*
X35750000Y-110526000D02*
X35750000Y-108957000D01*
X35710000Y-114054000D02*
X35710000Y-112486000D01*
X35710000Y-110526000D02*
X35710000Y-108958000D01*
X35670000Y-114052000D02*
X35670000Y-112486000D01*
X35670000Y-110526000D02*
X35670000Y-108960000D01*
X35630000Y-114049000D02*
X35630000Y-112486000D01*
X35630000Y-110526000D02*
X35630000Y-108963000D01*
X35590000Y-114045000D02*
X35590000Y-112486000D01*
X35590000Y-110526000D02*
X35590000Y-108967000D01*
X35550000Y-114041000D02*
X35550000Y-112486000D01*
X35550000Y-110526000D02*
X35550000Y-108971000D01*
X35510000Y-114037000D02*
X35510000Y-112486000D01*
X35510000Y-110526000D02*
X35510000Y-108975000D01*
X35470000Y-114031000D02*
X35470000Y-112486000D01*
X35470000Y-110526000D02*
X35470000Y-108981000D01*
X35430000Y-114025000D02*
X35430000Y-112486000D01*
X35430000Y-110526000D02*
X35430000Y-108987000D01*
X35390000Y-114019000D02*
X35390000Y-112486000D01*
X35390000Y-110526000D02*
X35390000Y-108993000D01*
X35350000Y-114012000D02*
X35350000Y-112486000D01*
X35350000Y-110526000D02*
X35350000Y-109000000D01*
X35310000Y-114004000D02*
X35310000Y-112486000D01*
X35310000Y-110526000D02*
X35310000Y-109008000D01*
X35270000Y-113995000D02*
X35270000Y-112486000D01*
X35270000Y-110526000D02*
X35270000Y-109017000D01*
X35230000Y-113986000D02*
X35230000Y-112486000D01*
X35230000Y-110526000D02*
X35230000Y-109026000D01*
X35190000Y-113976000D02*
X35190000Y-112486000D01*
X35190000Y-110526000D02*
X35190000Y-109036000D01*
X35150000Y-113966000D02*
X35150000Y-112486000D01*
X35150000Y-110526000D02*
X35150000Y-109046000D01*
X35109000Y-113954000D02*
X35109000Y-112486000D01*
X35109000Y-110526000D02*
X35109000Y-109058000D01*
X35069000Y-113942000D02*
X35069000Y-112486000D01*
X35069000Y-110526000D02*
X35069000Y-109070000D01*
X35029000Y-113930000D02*
X35029000Y-112486000D01*
X35029000Y-110526000D02*
X35029000Y-109082000D01*
X34989000Y-113916000D02*
X34989000Y-112486000D01*
X34989000Y-110526000D02*
X34989000Y-109096000D01*
X34949000Y-113902000D02*
X34949000Y-112486000D01*
X34949000Y-110526000D02*
X34949000Y-109110000D01*
X34909000Y-113888000D02*
X34909000Y-112486000D01*
X34909000Y-110526000D02*
X34909000Y-109124000D01*
X34869000Y-113872000D02*
X34869000Y-112486000D01*
X34869000Y-110526000D02*
X34869000Y-109140000D01*
X34829000Y-113856000D02*
X34829000Y-112486000D01*
X34829000Y-110526000D02*
X34829000Y-109156000D01*
X34789000Y-113839000D02*
X34789000Y-112486000D01*
X34789000Y-110526000D02*
X34789000Y-109173000D01*
X34749000Y-113821000D02*
X34749000Y-112486000D01*
X34749000Y-110526000D02*
X34749000Y-109191000D01*
X34709000Y-113802000D02*
X34709000Y-112486000D01*
X34709000Y-110526000D02*
X34709000Y-109210000D01*
X34669000Y-113782000D02*
X34669000Y-112486000D01*
X34669000Y-110526000D02*
X34669000Y-109230000D01*
X34629000Y-113762000D02*
X34629000Y-112486000D01*
X34629000Y-110526000D02*
X34629000Y-109250000D01*
X34589000Y-113740000D02*
X34589000Y-112486000D01*
X34589000Y-110526000D02*
X34589000Y-109272000D01*
X34549000Y-113718000D02*
X34549000Y-112486000D01*
X34549000Y-110526000D02*
X34549000Y-109294000D01*
X34509000Y-113695000D02*
X34509000Y-112486000D01*
X34509000Y-110526000D02*
X34509000Y-109317000D01*
X34469000Y-113671000D02*
X34469000Y-112486000D01*
X34469000Y-110526000D02*
X34469000Y-109341000D01*
X34429000Y-113646000D02*
X34429000Y-112486000D01*
X34429000Y-110526000D02*
X34429000Y-109366000D01*
X34389000Y-113619000D02*
X34389000Y-112486000D01*
X34389000Y-110526000D02*
X34389000Y-109393000D01*
X34349000Y-113592000D02*
X34349000Y-112486000D01*
X34349000Y-110526000D02*
X34349000Y-109420000D01*
X34309000Y-113564000D02*
X34309000Y-112486000D01*
X34309000Y-110526000D02*
X34309000Y-109448000D01*
X34269000Y-113534000D02*
X34269000Y-112486000D01*
X34269000Y-110526000D02*
X34269000Y-109478000D01*
X34229000Y-113503000D02*
X34229000Y-112486000D01*
X34229000Y-110526000D02*
X34229000Y-109509000D01*
X34189000Y-113471000D02*
X34189000Y-112486000D01*
X34189000Y-110526000D02*
X34189000Y-109541000D01*
X34149000Y-113438000D02*
X34149000Y-112486000D01*
X34149000Y-110526000D02*
X34149000Y-109574000D01*
X34109000Y-113403000D02*
X34109000Y-112486000D01*
X34109000Y-110526000D02*
X34109000Y-109609000D01*
X34069000Y-113367000D02*
X34069000Y-112486000D01*
X34069000Y-110526000D02*
X34069000Y-109645000D01*
X34029000Y-113329000D02*
X34029000Y-112486000D01*
X34029000Y-110526000D02*
X34029000Y-109683000D01*
X33989000Y-113289000D02*
X33989000Y-112486000D01*
X33989000Y-110526000D02*
X33989000Y-109723000D01*
X33949000Y-113248000D02*
X33949000Y-112486000D01*
X33949000Y-110526000D02*
X33949000Y-109764000D01*
X33909000Y-113205000D02*
X33909000Y-112486000D01*
X33909000Y-110526000D02*
X33909000Y-109807000D01*
X33869000Y-113160000D02*
X33869000Y-112486000D01*
X33869000Y-110526000D02*
X33869000Y-109852000D01*
X33829000Y-113112000D02*
X33829000Y-109900000D01*
X33789000Y-113062000D02*
X33789000Y-109950000D01*
X33749000Y-113010000D02*
X33749000Y-110002000D01*
X33709000Y-112954000D02*
X33709000Y-110058000D01*
X33669000Y-112896000D02*
X33669000Y-110116000D01*
X33629000Y-112833000D02*
X33629000Y-110179000D01*
X33589000Y-112767000D02*
X33589000Y-110245000D01*
X33549000Y-112695000D02*
X33549000Y-110317000D01*
X33509000Y-112618000D02*
X33509000Y-110394000D01*
X33469000Y-112534000D02*
X33469000Y-110478000D01*
X33429000Y-112440000D02*
X33429000Y-110572000D01*
X33389000Y-112335000D02*
X33389000Y-110677000D01*
X33349000Y-112213000D02*
X33349000Y-110799000D01*
X33309000Y-112065000D02*
X33309000Y-110947000D01*
X33269000Y-111860000D02*
X33269000Y-111152000D01*
X39030000Y-111506000D02*
X37830000Y-111506000D01*
X38430000Y-112156000D02*
X38430000Y-110856000D01*
X36068000Y-100016000D02*
X33468000Y-100016000D01*
X33468000Y-100016000D02*
X33468000Y-102676000D01*
X33468000Y-102676000D02*
X36068000Y-102676000D01*
X36068000Y-102676000D02*
X36068000Y-100016000D01*
X37338000Y-100016000D02*
X38668000Y-100016000D01*
X38668000Y-100016000D02*
X38668000Y-101346000D01*
X48768000Y-102676000D02*
X53908000Y-102676000D01*
X53908000Y-102676000D02*
X53908000Y-100016000D01*
X53908000Y-100016000D02*
X48768000Y-100016000D01*
X48768000Y-100016000D02*
X48768000Y-102676000D01*
X47498000Y-102676000D02*
X46168000Y-102676000D01*
X46168000Y-102676000D02*
X46168000Y-101346000D01*
X69088000Y-102676000D02*
X74228000Y-102676000D01*
X74228000Y-102676000D02*
X74228000Y-100016000D01*
X74228000Y-100016000D02*
X69088000Y-100016000D01*
X69088000Y-100016000D02*
X69088000Y-102676000D01*
X67818000Y-102676000D02*
X66488000Y-102676000D01*
X66488000Y-102676000D02*
X66488000Y-101346000D01*
X89408000Y-102676000D02*
X94548000Y-102676000D01*
X94548000Y-102676000D02*
X94548000Y-100016000D01*
X94548000Y-100016000D02*
X89408000Y-100016000D01*
X89408000Y-100016000D02*
X89408000Y-102676000D01*
X88138000Y-102676000D02*
X86808000Y-102676000D01*
X86808000Y-102676000D02*
X86808000Y-101346000D01*
X109728000Y-102676000D02*
X114868000Y-102676000D01*
X114868000Y-102676000D02*
X114868000Y-100016000D01*
X114868000Y-100016000D02*
X109728000Y-100016000D01*
X109728000Y-100016000D02*
X109728000Y-102676000D01*
X108458000Y-102676000D02*
X107128000Y-102676000D01*
X107128000Y-102676000D02*
X107128000Y-101346000D01*
X130048000Y-102676000D02*
X135188000Y-102676000D01*
X135188000Y-102676000D02*
X135188000Y-100016000D01*
X135188000Y-100016000D02*
X130048000Y-100016000D01*
X130048000Y-100016000D02*
X130048000Y-102676000D01*
X128778000Y-102676000D02*
X127448000Y-102676000D01*
X127448000Y-102676000D02*
X127448000Y-101346000D01*
X150368000Y-102676000D02*
X155508000Y-102676000D01*
X155508000Y-102676000D02*
X155508000Y-100016000D01*
X155508000Y-100016000D02*
X150368000Y-100016000D01*
X150368000Y-100016000D02*
X150368000Y-102676000D01*
X149098000Y-102676000D02*
X147768000Y-102676000D01*
X147768000Y-102676000D02*
X147768000Y-101346000D01*
X170688000Y-102676000D02*
X175828000Y-102676000D01*
X175828000Y-102676000D02*
X175828000Y-100016000D01*
X175828000Y-100016000D02*
X170688000Y-100016000D01*
X170688000Y-100016000D02*
X170688000Y-102676000D01*
X169418000Y-102676000D02*
X168088000Y-102676000D01*
X168088000Y-102676000D02*
X168088000Y-101346000D01*
X191008000Y-102676000D02*
X196148000Y-102676000D01*
X196148000Y-102676000D02*
X196148000Y-100016000D01*
X196148000Y-100016000D02*
X191008000Y-100016000D01*
X191008000Y-100016000D02*
X191008000Y-102676000D01*
X189738000Y-102676000D02*
X188408000Y-102676000D01*
X188408000Y-102676000D02*
X188408000Y-101346000D01*
X52760432Y-130337982D02*
G75*
G02X47236000Y-130339000I-2762432J1171982D01*
G01*
X47700247Y-127237705D02*
G75*
G02X52296000Y-127238000I2297753J-1928295D01*
G01*
X54908000Y-122606000D02*
X54908000Y-126472000D01*
X54908000Y-130861000D02*
X54908000Y-134726000D01*
X45088000Y-122606000D02*
X45088000Y-126472000D01*
X45088000Y-130861000D02*
X45088000Y-134726000D01*
X54908000Y-122606000D02*
X53323000Y-122606000D01*
X51673000Y-122606000D02*
X50823000Y-122606000D01*
X49173000Y-122606000D02*
X48323000Y-122606000D01*
X46673000Y-122606000D02*
X45088000Y-122606000D01*
X54908000Y-134726000D02*
X45088000Y-134726000D01*
X73080432Y-130337982D02*
G75*
G02X67556000Y-130339000I-2762432J1171982D01*
G01*
X68020247Y-127237705D02*
G75*
G02X72616000Y-127238000I2297753J-1928295D01*
G01*
X75228000Y-122606000D02*
X75228000Y-126472000D01*
X75228000Y-130861000D02*
X75228000Y-134726000D01*
X65408000Y-122606000D02*
X65408000Y-126472000D01*
X65408000Y-130861000D02*
X65408000Y-134726000D01*
X75228000Y-122606000D02*
X73643000Y-122606000D01*
X71993000Y-122606000D02*
X71143000Y-122606000D01*
X69493000Y-122606000D02*
X68643000Y-122606000D01*
X66993000Y-122606000D02*
X65408000Y-122606000D01*
X75228000Y-134726000D02*
X65408000Y-134726000D01*
X93400432Y-130337982D02*
G75*
G02X87876000Y-130339000I-2762432J1171982D01*
G01*
X88340247Y-127237705D02*
G75*
G02X92936000Y-127238000I2297753J-1928295D01*
G01*
X95548000Y-122606000D02*
X95548000Y-126472000D01*
X95548000Y-130861000D02*
X95548000Y-134726000D01*
X85728000Y-122606000D02*
X85728000Y-126472000D01*
X85728000Y-130861000D02*
X85728000Y-134726000D01*
X95548000Y-122606000D02*
X93963000Y-122606000D01*
X92313000Y-122606000D02*
X91463000Y-122606000D01*
X89813000Y-122606000D02*
X88963000Y-122606000D01*
X87313000Y-122606000D02*
X85728000Y-122606000D01*
X95548000Y-134726000D02*
X85728000Y-134726000D01*
X113720432Y-130337982D02*
G75*
G02X108196000Y-130339000I-2762432J1171982D01*
G01*
X108660247Y-127237705D02*
G75*
G02X113256000Y-127238000I2297753J-1928295D01*
G01*
X115868000Y-122606000D02*
X115868000Y-126472000D01*
X115868000Y-130861000D02*
X115868000Y-134726000D01*
X106048000Y-122606000D02*
X106048000Y-126472000D01*
X106048000Y-130861000D02*
X106048000Y-134726000D01*
X115868000Y-122606000D02*
X114283000Y-122606000D01*
X112633000Y-122606000D02*
X111783000Y-122606000D01*
X110133000Y-122606000D02*
X109283000Y-122606000D01*
X107633000Y-122606000D02*
X106048000Y-122606000D01*
X115868000Y-134726000D02*
X106048000Y-134726000D01*
X134040432Y-130337982D02*
G75*
G02X128516000Y-130339000I-2762432J1171982D01*
G01*
X128980247Y-127237705D02*
G75*
G02X133576000Y-127238000I2297753J-1928295D01*
G01*
X136188000Y-122606000D02*
X136188000Y-126472000D01*
X136188000Y-130861000D02*
X136188000Y-134726000D01*
X126368000Y-122606000D02*
X126368000Y-126472000D01*
X126368000Y-130861000D02*
X126368000Y-134726000D01*
X136188000Y-122606000D02*
X134603000Y-122606000D01*
X132953000Y-122606000D02*
X132103000Y-122606000D01*
X130453000Y-122606000D02*
X129603000Y-122606000D01*
X127953000Y-122606000D02*
X126368000Y-122606000D01*
X136188000Y-134726000D02*
X126368000Y-134726000D01*
X154360432Y-130337982D02*
G75*
G02X148836000Y-130339000I-2762432J1171982D01*
G01*
X149300247Y-127237705D02*
G75*
G02X153896000Y-127238000I2297753J-1928295D01*
G01*
X156508000Y-122606000D02*
X156508000Y-126472000D01*
X156508000Y-130861000D02*
X156508000Y-134726000D01*
X146688000Y-122606000D02*
X146688000Y-126472000D01*
X146688000Y-130861000D02*
X146688000Y-134726000D01*
X156508000Y-122606000D02*
X154923000Y-122606000D01*
X153273000Y-122606000D02*
X152423000Y-122606000D01*
X150773000Y-122606000D02*
X149923000Y-122606000D01*
X148273000Y-122606000D02*
X146688000Y-122606000D01*
X156508000Y-134726000D02*
X146688000Y-134726000D01*
X174680432Y-130337982D02*
G75*
G02X169156000Y-130339000I-2762432J1171982D01*
G01*
X169620247Y-127237705D02*
G75*
G02X174216000Y-127238000I2297753J-1928295D01*
G01*
X176828000Y-122606000D02*
X176828000Y-126472000D01*
X176828000Y-130861000D02*
X176828000Y-134726000D01*
X167008000Y-122606000D02*
X167008000Y-126472000D01*
X167008000Y-130861000D02*
X167008000Y-134726000D01*
X176828000Y-122606000D02*
X175243000Y-122606000D01*
X173593000Y-122606000D02*
X172743000Y-122606000D01*
X171093000Y-122606000D02*
X170243000Y-122606000D01*
X168593000Y-122606000D02*
X167008000Y-122606000D01*
X176828000Y-134726000D02*
X167008000Y-134726000D01*
X195000432Y-130337982D02*
G75*
G02X189476000Y-130339000I-2762432J1171982D01*
G01*
X189940247Y-127237705D02*
G75*
G02X194536000Y-127238000I2297753J-1928295D01*
G01*
X197148000Y-122606000D02*
X197148000Y-126472000D01*
X197148000Y-130861000D02*
X197148000Y-134726000D01*
X187328000Y-122606000D02*
X187328000Y-126472000D01*
X187328000Y-130861000D02*
X187328000Y-134726000D01*
X197148000Y-122606000D02*
X195563000Y-122606000D01*
X193913000Y-122606000D02*
X193063000Y-122606000D01*
X191413000Y-122606000D02*
X190563000Y-122606000D01*
X188913000Y-122606000D02*
X187328000Y-122606000D01*
X197148000Y-134726000D02*
X187328000Y-134726000D01*
D14*
X52802000Y-107968000D02*
X51952000Y-107968000D01*
X51952000Y-107968000D02*
X51952000Y-116568000D01*
X51952000Y-116568000D02*
X52702000Y-116568000D01*
X55502000Y-116568000D02*
X56252000Y-116568000D01*
X56252000Y-116568000D02*
X56252000Y-107968000D01*
X56252000Y-107968000D02*
X55502000Y-107968000D01*
D15*
X54252000Y-106418000D02*
G75*
G03X54252000Y-106418000I-100000J0D01*
G01*
D14*
X73122000Y-107968000D02*
X72272000Y-107968000D01*
X72272000Y-107968000D02*
X72272000Y-116568000D01*
X72272000Y-116568000D02*
X73022000Y-116568000D01*
X75822000Y-116568000D02*
X76572000Y-116568000D01*
X76572000Y-116568000D02*
X76572000Y-107968000D01*
X76572000Y-107968000D02*
X75822000Y-107968000D01*
D15*
X74572000Y-106418000D02*
G75*
G03X74572000Y-106418000I-100000J0D01*
G01*
D14*
X44420000Y-107968000D02*
X43570000Y-107968000D01*
X43570000Y-107968000D02*
X43570000Y-116568000D01*
X43570000Y-116568000D02*
X44320000Y-116568000D01*
X47120000Y-116568000D02*
X47870000Y-116568000D01*
X47870000Y-116568000D02*
X47870000Y-107968000D01*
X47870000Y-107968000D02*
X47120000Y-107968000D01*
D15*
X45870000Y-106418000D02*
G75*
G03X45870000Y-106418000I-100000J0D01*
G01*
D14*
X64740000Y-107968000D02*
X63890000Y-107968000D01*
X63890000Y-107968000D02*
X63890000Y-116568000D01*
X63890000Y-116568000D02*
X64640000Y-116568000D01*
X67440000Y-116568000D02*
X68190000Y-116568000D01*
X68190000Y-116568000D02*
X68190000Y-107968000D01*
X68190000Y-107968000D02*
X67440000Y-107968000D01*
D15*
X66190000Y-106418000D02*
G75*
G03X66190000Y-106418000I-100000J0D01*
G01*
D14*
X93442000Y-107968000D02*
X92592000Y-107968000D01*
X92592000Y-107968000D02*
X92592000Y-116568000D01*
X92592000Y-116568000D02*
X93342000Y-116568000D01*
X96142000Y-116568000D02*
X96892000Y-116568000D01*
X96892000Y-116568000D02*
X96892000Y-107968000D01*
X96892000Y-107968000D02*
X96142000Y-107968000D01*
D15*
X94892000Y-106418000D02*
G75*
G03X94892000Y-106418000I-100000J0D01*
G01*
D14*
X113762000Y-107968000D02*
X112912000Y-107968000D01*
X112912000Y-107968000D02*
X112912000Y-116568000D01*
X112912000Y-116568000D02*
X113662000Y-116568000D01*
X116462000Y-116568000D02*
X117212000Y-116568000D01*
X117212000Y-116568000D02*
X117212000Y-107968000D01*
X117212000Y-107968000D02*
X116462000Y-107968000D01*
D15*
X115212000Y-106418000D02*
G75*
G03X115212000Y-106418000I-100000J0D01*
G01*
D14*
X85060000Y-107968000D02*
X84210000Y-107968000D01*
X84210000Y-107968000D02*
X84210000Y-116568000D01*
X84210000Y-116568000D02*
X84960000Y-116568000D01*
X87760000Y-116568000D02*
X88510000Y-116568000D01*
X88510000Y-116568000D02*
X88510000Y-107968000D01*
X88510000Y-107968000D02*
X87760000Y-107968000D01*
D15*
X86510000Y-106418000D02*
G75*
G03X86510000Y-106418000I-100000J0D01*
G01*
D14*
X105380000Y-107968000D02*
X104530000Y-107968000D01*
X104530000Y-107968000D02*
X104530000Y-116568000D01*
X104530000Y-116568000D02*
X105280000Y-116568000D01*
X108080000Y-116568000D02*
X108830000Y-116568000D01*
X108830000Y-116568000D02*
X108830000Y-107968000D01*
X108830000Y-107968000D02*
X108080000Y-107968000D01*
D15*
X106830000Y-106418000D02*
G75*
G03X106830000Y-106418000I-100000J0D01*
G01*
D14*
X134082000Y-107968000D02*
X133232000Y-107968000D01*
X133232000Y-107968000D02*
X133232000Y-116568000D01*
X133232000Y-116568000D02*
X133982000Y-116568000D01*
X136782000Y-116568000D02*
X137532000Y-116568000D01*
X137532000Y-116568000D02*
X137532000Y-107968000D01*
X137532000Y-107968000D02*
X136782000Y-107968000D01*
D15*
X135532000Y-106418000D02*
G75*
G03X135532000Y-106418000I-100000J0D01*
G01*
D14*
X154402000Y-107968000D02*
X153552000Y-107968000D01*
X153552000Y-107968000D02*
X153552000Y-116568000D01*
X153552000Y-116568000D02*
X154302000Y-116568000D01*
X157102000Y-116568000D02*
X157852000Y-116568000D01*
X157852000Y-116568000D02*
X157852000Y-107968000D01*
X157852000Y-107968000D02*
X157102000Y-107968000D01*
D15*
X155852000Y-106418000D02*
G75*
G03X155852000Y-106418000I-100000J0D01*
G01*
D14*
X125700000Y-107968000D02*
X124850000Y-107968000D01*
X124850000Y-107968000D02*
X124850000Y-116568000D01*
X124850000Y-116568000D02*
X125600000Y-116568000D01*
X128400000Y-116568000D02*
X129150000Y-116568000D01*
X129150000Y-116568000D02*
X129150000Y-107968000D01*
X129150000Y-107968000D02*
X128400000Y-107968000D01*
D15*
X127150000Y-106418000D02*
G75*
G03X127150000Y-106418000I-100000J0D01*
G01*
D14*
X146020000Y-107968000D02*
X145170000Y-107968000D01*
X145170000Y-107968000D02*
X145170000Y-116568000D01*
X145170000Y-116568000D02*
X145920000Y-116568000D01*
X148720000Y-116568000D02*
X149470000Y-116568000D01*
X149470000Y-116568000D02*
X149470000Y-107968000D01*
X149470000Y-107968000D02*
X148720000Y-107968000D01*
D15*
X147470000Y-106418000D02*
G75*
G03X147470000Y-106418000I-100000J0D01*
G01*
D14*
X174722000Y-107968000D02*
X173872000Y-107968000D01*
X173872000Y-107968000D02*
X173872000Y-116568000D01*
X173872000Y-116568000D02*
X174622000Y-116568000D01*
X177422000Y-116568000D02*
X178172000Y-116568000D01*
X178172000Y-116568000D02*
X178172000Y-107968000D01*
X178172000Y-107968000D02*
X177422000Y-107968000D01*
D15*
X176172000Y-106418000D02*
G75*
G03X176172000Y-106418000I-100000J0D01*
G01*
D14*
X195042000Y-107968000D02*
X194192000Y-107968000D01*
X194192000Y-107968000D02*
X194192000Y-116568000D01*
X194192000Y-116568000D02*
X194942000Y-116568000D01*
X197742000Y-116568000D02*
X198492000Y-116568000D01*
X198492000Y-116568000D02*
X198492000Y-107968000D01*
X198492000Y-107968000D02*
X197742000Y-107968000D01*
D15*
X196492000Y-106418000D02*
G75*
G03X196492000Y-106418000I-100000J0D01*
G01*
D14*
X166340000Y-107968000D02*
X165490000Y-107968000D01*
X165490000Y-107968000D02*
X165490000Y-116568000D01*
X165490000Y-116568000D02*
X166240000Y-116568000D01*
X169040000Y-116568000D02*
X169790000Y-116568000D01*
X169790000Y-116568000D02*
X169790000Y-107968000D01*
X169790000Y-107968000D02*
X169040000Y-107968000D01*
D15*
X167790000Y-106418000D02*
G75*
G03X167790000Y-106418000I-100000J0D01*
G01*
D14*
X186660000Y-107968000D02*
X185810000Y-107968000D01*
X185810000Y-107968000D02*
X185810000Y-116568000D01*
X185810000Y-116568000D02*
X186560000Y-116568000D01*
X189360000Y-116568000D02*
X190110000Y-116568000D01*
X190110000Y-116568000D02*
X190110000Y-107968000D01*
X190110000Y-107968000D02*
X189360000Y-107968000D01*
D15*
X188110000Y-106418000D02*
G75*
G03X188110000Y-106418000I-100000J0D01*
G01*
D16*
X34758572Y-115768381D02*
X34187143Y-115768381D01*
X34472857Y-115768381D02*
X34472857Y-114768381D01*
X34377619Y-114911238D01*
X34282381Y-115006476D01*
X34187143Y-115054095D01*
X35377619Y-114768381D02*
X35472858Y-114768381D01*
X35568096Y-114816000D01*
X35615715Y-114863619D01*
X35663334Y-114958857D01*
X35710953Y-115149333D01*
X35710953Y-115387429D01*
X35663334Y-115577905D01*
X35615715Y-115673143D01*
X35568096Y-115720762D01*
X35472858Y-115768381D01*
X35377619Y-115768381D01*
X35282381Y-115720762D01*
X35234762Y-115673143D01*
X35187143Y-115577905D01*
X35139524Y-115387429D01*
X35139524Y-115149333D01*
X35187143Y-114958857D01*
X35234762Y-114863619D01*
X35282381Y-114816000D01*
X35377619Y-114768381D01*
X36568096Y-115101714D02*
X36568096Y-115768381D01*
X36139524Y-115101714D02*
X36139524Y-115625524D01*
X36187143Y-115720762D01*
X36282381Y-115768381D01*
X36425239Y-115768381D01*
X36520477Y-115720762D01*
X36568096Y-115673143D01*
X37377620Y-115244571D02*
X37044286Y-115244571D01*
X37044286Y-115768381D02*
X37044286Y-114768381D01*
X37520477Y-114768381D01*
X39120381Y-101679333D02*
X39834667Y-101679333D01*
X39977524Y-101726953D01*
X40072762Y-101822191D01*
X40120381Y-101965048D01*
X40120381Y-102060286D01*
X40120381Y-100679333D02*
X40120381Y-101250762D01*
X40120381Y-100965048D02*
X39120381Y-100965048D01*
X39263238Y-101060286D01*
X39358476Y-101155524D01*
X39406095Y-101250762D01*
X44620381Y-101679333D02*
X45334667Y-101679333D01*
X45477524Y-101726953D01*
X45572762Y-101822191D01*
X45620381Y-101965048D01*
X45620381Y-102060286D01*
X44715619Y-101250762D02*
X44668000Y-101203143D01*
X44620381Y-101107905D01*
X44620381Y-100869809D01*
X44668000Y-100774571D01*
X44715619Y-100726952D01*
X44810857Y-100679333D01*
X44906095Y-100679333D01*
X45048952Y-100726952D01*
X45620381Y-101298381D01*
X45620381Y-100679333D01*
X64940381Y-101679333D02*
X65654667Y-101679333D01*
X65797524Y-101726953D01*
X65892762Y-101822191D01*
X65940381Y-101965048D01*
X65940381Y-102060286D01*
X64940381Y-101298381D02*
X64940381Y-100679333D01*
X65321333Y-101012667D01*
X65321333Y-100869809D01*
X65368952Y-100774571D01*
X65416571Y-100726952D01*
X65511810Y-100679333D01*
X65749905Y-100679333D01*
X65845143Y-100726952D01*
X65892762Y-100774571D01*
X65940381Y-100869809D01*
X65940381Y-101155524D01*
X65892762Y-101250762D01*
X65845143Y-101298381D01*
X85260381Y-101679333D02*
X85974667Y-101679333D01*
X86117524Y-101726953D01*
X86212762Y-101822191D01*
X86260381Y-101965048D01*
X86260381Y-102060286D01*
X85593714Y-100774571D02*
X86260381Y-100774571D01*
X85212762Y-101012667D02*
X85927048Y-101250762D01*
X85927048Y-100631714D01*
X105580381Y-101679333D02*
X106294667Y-101679333D01*
X106437524Y-101726953D01*
X106532762Y-101822191D01*
X106580381Y-101965048D01*
X106580381Y-102060286D01*
X105580381Y-100726952D02*
X105580381Y-101203143D01*
X106056571Y-101250762D01*
X106008952Y-101203143D01*
X105961333Y-101107905D01*
X105961333Y-100869809D01*
X106008952Y-100774571D01*
X106056571Y-100726952D01*
X106151810Y-100679333D01*
X106389905Y-100679333D01*
X106485143Y-100726952D01*
X106532762Y-100774571D01*
X106580381Y-100869809D01*
X106580381Y-101107905D01*
X106532762Y-101203143D01*
X106485143Y-101250762D01*
X125900381Y-101679333D02*
X126614667Y-101679333D01*
X126757524Y-101726953D01*
X126852762Y-101822191D01*
X126900381Y-101965048D01*
X126900381Y-102060286D01*
X125900381Y-100774571D02*
X125900381Y-100965048D01*
X125948000Y-101060286D01*
X125995619Y-101107905D01*
X126138476Y-101203143D01*
X126328952Y-101250762D01*
X126709905Y-101250762D01*
X126805143Y-101203143D01*
X126852762Y-101155524D01*
X126900381Y-101060286D01*
X126900381Y-100869809D01*
X126852762Y-100774571D01*
X126805143Y-100726952D01*
X126709905Y-100679333D01*
X126471810Y-100679333D01*
X126376571Y-100726952D01*
X126328952Y-100774571D01*
X126281333Y-100869809D01*
X126281333Y-101060286D01*
X126328952Y-101155524D01*
X126376571Y-101203143D01*
X126471810Y-101250762D01*
X146220381Y-101679333D02*
X146934667Y-101679333D01*
X147077524Y-101726953D01*
X147172762Y-101822191D01*
X147220381Y-101965048D01*
X147220381Y-102060286D01*
X146220381Y-101298381D02*
X146220381Y-100631714D01*
X147220381Y-101060286D01*
X166540381Y-101679333D02*
X167254667Y-101679333D01*
X167397524Y-101726953D01*
X167492762Y-101822191D01*
X167540381Y-101965048D01*
X167540381Y-102060286D01*
X166968952Y-101060286D02*
X166921333Y-101155524D01*
X166873714Y-101203143D01*
X166778476Y-101250762D01*
X166730857Y-101250762D01*
X166635619Y-101203143D01*
X166588000Y-101155524D01*
X166540381Y-101060286D01*
X166540381Y-100869809D01*
X166588000Y-100774571D01*
X166635619Y-100726952D01*
X166730857Y-100679333D01*
X166778476Y-100679333D01*
X166873714Y-100726952D01*
X166921333Y-100774571D01*
X166968952Y-100869809D01*
X166968952Y-101060286D01*
X167016571Y-101155524D01*
X167064190Y-101203143D01*
X167159429Y-101250762D01*
X167349905Y-101250762D01*
X167445143Y-101203143D01*
X167492762Y-101155524D01*
X167540381Y-101060286D01*
X167540381Y-100869809D01*
X167492762Y-100774571D01*
X167445143Y-100726952D01*
X167349905Y-100679333D01*
X167159429Y-100679333D01*
X167064190Y-100726952D01*
X167016571Y-100774571D01*
X166968952Y-100869809D01*
X186860381Y-101679333D02*
X187574667Y-101679333D01*
X187717524Y-101726953D01*
X187812762Y-101822191D01*
X187860381Y-101965048D01*
X187860381Y-102060286D01*
X187860381Y-101155524D02*
X187860381Y-100965048D01*
X187812762Y-100869809D01*
X187765143Y-100822190D01*
X187622286Y-100726952D01*
X187431810Y-100679333D01*
X187050857Y-100679333D01*
X186955619Y-100726952D01*
X186908000Y-100774571D01*
X186860381Y-100869809D01*
X186860381Y-101060286D01*
X186908000Y-101155524D01*
X186955619Y-101203143D01*
X187050857Y-101250762D01*
X187288952Y-101250762D01*
X187384190Y-101203143D01*
X187431810Y-101155524D01*
X187479429Y-101060286D01*
X187479429Y-100869809D01*
X187431810Y-100774571D01*
X187384190Y-100726952D01*
X187288952Y-100679333D01*
X58100381Y-128311238D02*
X57624190Y-128644572D01*
X58100381Y-128882667D02*
X57100381Y-128882667D01*
X57100381Y-128501714D01*
X57148000Y-128406476D01*
X57195619Y-128358857D01*
X57290857Y-128311238D01*
X57433714Y-128311238D01*
X57528952Y-128358857D01*
X57576571Y-128406476D01*
X57624190Y-128501714D01*
X57624190Y-128882667D01*
X57100381Y-128025524D02*
X58100381Y-127692191D01*
X57100381Y-127358857D01*
X58100381Y-126501714D02*
X58100381Y-127073143D01*
X58100381Y-126787429D02*
X57100381Y-126787429D01*
X57243238Y-126882667D01*
X57338476Y-126977905D01*
X57386095Y-127073143D01*
X78420381Y-128311238D02*
X77944190Y-128644572D01*
X78420381Y-128882667D02*
X77420381Y-128882667D01*
X77420381Y-128501714D01*
X77468000Y-128406476D01*
X77515619Y-128358857D01*
X77610857Y-128311238D01*
X77753714Y-128311238D01*
X77848952Y-128358857D01*
X77896571Y-128406476D01*
X77944190Y-128501714D01*
X77944190Y-128882667D01*
X77420381Y-128025524D02*
X78420381Y-127692191D01*
X77420381Y-127358857D01*
X77515619Y-127073143D02*
X77468000Y-127025524D01*
X77420381Y-126930286D01*
X77420381Y-126692190D01*
X77468000Y-126596952D01*
X77515619Y-126549333D01*
X77610857Y-126501714D01*
X77706095Y-126501714D01*
X77848952Y-126549333D01*
X78420381Y-127120762D01*
X78420381Y-126501714D01*
X98740381Y-128311238D02*
X98264190Y-128644572D01*
X98740381Y-128882667D02*
X97740381Y-128882667D01*
X97740381Y-128501714D01*
X97788000Y-128406476D01*
X97835619Y-128358857D01*
X97930857Y-128311238D01*
X98073714Y-128311238D01*
X98168952Y-128358857D01*
X98216571Y-128406476D01*
X98264190Y-128501714D01*
X98264190Y-128882667D01*
X97740381Y-128025524D02*
X98740381Y-127692191D01*
X97740381Y-127358857D01*
X97740381Y-127120762D02*
X97740381Y-126501714D01*
X98121333Y-126835048D01*
X98121333Y-126692190D01*
X98168952Y-126596952D01*
X98216571Y-126549333D01*
X98311810Y-126501714D01*
X98549905Y-126501714D01*
X98645143Y-126549333D01*
X98692762Y-126596952D01*
X98740381Y-126692190D01*
X98740381Y-126977905D01*
X98692762Y-127073143D01*
X98645143Y-127120762D01*
X119060381Y-128311238D02*
X118584190Y-128644572D01*
X119060381Y-128882667D02*
X118060381Y-128882667D01*
X118060381Y-128501714D01*
X118108000Y-128406476D01*
X118155619Y-128358857D01*
X118250857Y-128311238D01*
X118393714Y-128311238D01*
X118488952Y-128358857D01*
X118536571Y-128406476D01*
X118584190Y-128501714D01*
X118584190Y-128882667D01*
X118060381Y-128025524D02*
X119060381Y-127692191D01*
X118060381Y-127358857D01*
X118393714Y-126596952D02*
X119060381Y-126596952D01*
X118012762Y-126835048D02*
X118727048Y-127073143D01*
X118727048Y-126454095D01*
X139380381Y-128311238D02*
X138904190Y-128644572D01*
X139380381Y-128882667D02*
X138380381Y-128882667D01*
X138380381Y-128501714D01*
X138428000Y-128406476D01*
X138475619Y-128358857D01*
X138570857Y-128311238D01*
X138713714Y-128311238D01*
X138808952Y-128358857D01*
X138856571Y-128406476D01*
X138904190Y-128501714D01*
X138904190Y-128882667D01*
X138380381Y-128025524D02*
X139380381Y-127692191D01*
X138380381Y-127358857D01*
X138380381Y-126549333D02*
X138380381Y-127025524D01*
X138856571Y-127073143D01*
X138808952Y-127025524D01*
X138761333Y-126930286D01*
X138761333Y-126692190D01*
X138808952Y-126596952D01*
X138856571Y-126549333D01*
X138951810Y-126501714D01*
X139189905Y-126501714D01*
X139285143Y-126549333D01*
X139332762Y-126596952D01*
X139380381Y-126692190D01*
X139380381Y-126930286D01*
X139332762Y-127025524D01*
X139285143Y-127073143D01*
X159700381Y-128311238D02*
X159224190Y-128644572D01*
X159700381Y-128882667D02*
X158700381Y-128882667D01*
X158700381Y-128501714D01*
X158748000Y-128406476D01*
X158795619Y-128358857D01*
X158890857Y-128311238D01*
X159033714Y-128311238D01*
X159128952Y-128358857D01*
X159176571Y-128406476D01*
X159224190Y-128501714D01*
X159224190Y-128882667D01*
X158700381Y-128025524D02*
X159700381Y-127692191D01*
X158700381Y-127358857D01*
X158700381Y-126596952D02*
X158700381Y-126787429D01*
X158748000Y-126882667D01*
X158795619Y-126930286D01*
X158938476Y-127025524D01*
X159128952Y-127073143D01*
X159509905Y-127073143D01*
X159605143Y-127025524D01*
X159652762Y-126977905D01*
X159700381Y-126882667D01*
X159700381Y-126692190D01*
X159652762Y-126596952D01*
X159605143Y-126549333D01*
X159509905Y-126501714D01*
X159271810Y-126501714D01*
X159176571Y-126549333D01*
X159128952Y-126596952D01*
X159081333Y-126692190D01*
X159081333Y-126882667D01*
X159128952Y-126977905D01*
X159176571Y-127025524D01*
X159271810Y-127073143D01*
X180020381Y-128311238D02*
X179544190Y-128644572D01*
X180020381Y-128882667D02*
X179020381Y-128882667D01*
X179020381Y-128501714D01*
X179068000Y-128406476D01*
X179115619Y-128358857D01*
X179210857Y-128311238D01*
X179353714Y-128311238D01*
X179448952Y-128358857D01*
X179496571Y-128406476D01*
X179544190Y-128501714D01*
X179544190Y-128882667D01*
X179020381Y-128025524D02*
X180020381Y-127692191D01*
X179020381Y-127358857D01*
X179020381Y-127120762D02*
X179020381Y-126454095D01*
X180020381Y-126882667D01*
X200340381Y-128311238D02*
X199864190Y-128644572D01*
X200340381Y-128882667D02*
X199340381Y-128882667D01*
X199340381Y-128501714D01*
X199388000Y-128406476D01*
X199435619Y-128358857D01*
X199530857Y-128311238D01*
X199673714Y-128311238D01*
X199768952Y-128358857D01*
X199816571Y-128406476D01*
X199864190Y-128501714D01*
X199864190Y-128882667D01*
X199340381Y-128025524D02*
X200340381Y-127692191D01*
X199340381Y-127358857D01*
X199768952Y-126882667D02*
X199721333Y-126977905D01*
X199673714Y-127025524D01*
X199578476Y-127073143D01*
X199530857Y-127073143D01*
X199435619Y-127025524D01*
X199388000Y-126977905D01*
X199340381Y-126882667D01*
X199340381Y-126692190D01*
X199388000Y-126596952D01*
X199435619Y-126549333D01*
X199530857Y-126501714D01*
X199578476Y-126501714D01*
X199673714Y-126549333D01*
X199721333Y-126596952D01*
X199768952Y-126692190D01*
X199768952Y-126882667D01*
X199816571Y-126977905D01*
X199864190Y-127025524D01*
X199959429Y-127073143D01*
X200149905Y-127073143D01*
X200245143Y-127025524D01*
X200292762Y-126977905D01*
X200340381Y-126882667D01*
X200340381Y-126692190D01*
X200292762Y-126596952D01*
X200245143Y-126549333D01*
X200149905Y-126501714D01*
X199959429Y-126501714D01*
X199864190Y-126549333D01*
X199816571Y-126596952D01*
X199768952Y-126692190D01*
M02*
