G04 #@! TF.FileFunction,Soldermask,Top*
%FSLAX46Y46*%
G04 Gerber Fmt 4.6, Leading zero omitted, Abs format (unit mm)*
G04 Created by KiCad (PCBNEW 4.0.7) date Tuesday, 08 May 2018 'AMt' 10:50:03 AM*
%MOMM*%
%LPD*%
G01*
G04 APERTURE LIST*
%ADD10C,0.100000*%
%ADD11R,1.600000X1.600000*%
%ADD12C,1.600000*%
%ADD13R,1.700000X1.700000*%
%ADD14O,1.700000X1.700000*%
%ADD15C,1.800000*%
%ADD16C,4.000000*%
%ADD17R,1.308000X1.308000*%
%ADD18C,1.308000*%
%ADD19C,3.200000*%
G04 APERTURE END LIST*
D10*
D11*
X36830000Y-111506000D03*
D12*
X34830000Y-111506000D03*
D13*
X37338000Y-101346000D03*
D14*
X34798000Y-101346000D03*
D13*
X47498000Y-101346000D03*
D14*
X50038000Y-101346000D03*
X52578000Y-101346000D03*
D13*
X67818000Y-101346000D03*
D14*
X70358000Y-101346000D03*
X72898000Y-101346000D03*
D13*
X88138000Y-101346000D03*
D14*
X90678000Y-101346000D03*
X93218000Y-101346000D03*
D13*
X108458000Y-101346000D03*
D14*
X110998000Y-101346000D03*
X113538000Y-101346000D03*
D13*
X128778000Y-101346000D03*
D14*
X131318000Y-101346000D03*
X133858000Y-101346000D03*
D13*
X149098000Y-101346000D03*
D14*
X151638000Y-101346000D03*
X154178000Y-101346000D03*
D13*
X169418000Y-101346000D03*
D14*
X171958000Y-101346000D03*
X174498000Y-101346000D03*
D13*
X189738000Y-101346000D03*
D14*
X192278000Y-101346000D03*
X194818000Y-101346000D03*
D15*
X52498000Y-121666000D03*
X49998000Y-121666000D03*
X47498000Y-121666000D03*
D16*
X54398000Y-128666000D03*
X45598000Y-128666000D03*
D15*
X72818000Y-121666000D03*
X70318000Y-121666000D03*
X67818000Y-121666000D03*
D16*
X74718000Y-128666000D03*
X65918000Y-128666000D03*
D15*
X93138000Y-121666000D03*
X90638000Y-121666000D03*
X88138000Y-121666000D03*
D16*
X95038000Y-128666000D03*
X86238000Y-128666000D03*
D15*
X113458000Y-121666000D03*
X110958000Y-121666000D03*
X108458000Y-121666000D03*
D16*
X115358000Y-128666000D03*
X106558000Y-128666000D03*
D15*
X133778000Y-121666000D03*
X131278000Y-121666000D03*
X128778000Y-121666000D03*
D16*
X135678000Y-128666000D03*
X126878000Y-128666000D03*
D15*
X154098000Y-121666000D03*
X151598000Y-121666000D03*
X149098000Y-121666000D03*
D16*
X155998000Y-128666000D03*
X147198000Y-128666000D03*
D15*
X174418000Y-121666000D03*
X171918000Y-121666000D03*
X169418000Y-121666000D03*
D16*
X176318000Y-128666000D03*
X167518000Y-128666000D03*
D15*
X194738000Y-121666000D03*
X192238000Y-121666000D03*
X189738000Y-121666000D03*
D16*
X196638000Y-128666000D03*
X187838000Y-128666000D03*
D17*
X54102000Y-110268000D03*
D18*
X54102000Y-112268000D03*
X54102000Y-114268000D03*
D17*
X74422000Y-110268000D03*
D18*
X74422000Y-112268000D03*
X74422000Y-114268000D03*
D17*
X45720000Y-110268000D03*
D18*
X45720000Y-112268000D03*
X45720000Y-114268000D03*
D17*
X66040000Y-110268000D03*
D18*
X66040000Y-112268000D03*
X66040000Y-114268000D03*
D17*
X94742000Y-110268000D03*
D18*
X94742000Y-112268000D03*
X94742000Y-114268000D03*
D17*
X115062000Y-110268000D03*
D18*
X115062000Y-112268000D03*
X115062000Y-114268000D03*
D17*
X86360000Y-110268000D03*
D18*
X86360000Y-112268000D03*
X86360000Y-114268000D03*
D17*
X106680000Y-110268000D03*
D18*
X106680000Y-112268000D03*
X106680000Y-114268000D03*
D17*
X135382000Y-110268000D03*
D18*
X135382000Y-112268000D03*
X135382000Y-114268000D03*
D17*
X155702000Y-110268000D03*
D18*
X155702000Y-112268000D03*
X155702000Y-114268000D03*
D17*
X127000000Y-110268000D03*
D18*
X127000000Y-112268000D03*
X127000000Y-114268000D03*
D17*
X147320000Y-110268000D03*
D18*
X147320000Y-112268000D03*
X147320000Y-114268000D03*
D17*
X176022000Y-110268000D03*
D18*
X176022000Y-112268000D03*
X176022000Y-114268000D03*
D17*
X196342000Y-110268000D03*
D18*
X196342000Y-112268000D03*
X196342000Y-114268000D03*
D17*
X167640000Y-110268000D03*
D18*
X167640000Y-112268000D03*
X167640000Y-114268000D03*
D17*
X187960000Y-110268000D03*
D18*
X187960000Y-112268000D03*
X187960000Y-114268000D03*
D19*
X26416000Y-136652000D03*
X204978000Y-101092000D03*
X26670000Y-101346000D03*
X204978000Y-136652000D03*
X121158000Y-101092000D03*
X121158000Y-136652000D03*
M02*
