M48
METRIC,TZ
T1C1.500
T2C2.000
T3C3.200
%
G90
G05
T1
X45720Y-108168
X45720Y-116368
X54102Y-108168
X54102Y-116368
X66040Y-108168
X66040Y-116368
X74422Y-108168
X74422Y-116368
X86360Y-108168
X86360Y-116368
X94742Y-108168
X94742Y-116368
X106680Y-108168
X106680Y-116368
X115062Y-108168
X115062Y-116368
X127000Y-108168
X127000Y-116368
X135382Y-108168
X135382Y-116368
X147320Y-108168
X147320Y-116368
X155702Y-108168
X155702Y-116368
X167640Y-108168
X167640Y-116368
X176022Y-108168
X176022Y-116368
X187960Y-108168
X187960Y-116368
X196342Y-108168
X196342Y-116368
T2
X45598Y-128666
X54398Y-128666
X65918Y-128666
X74718Y-128666
X86238Y-128666
X95038Y-128666
X106558Y-128666
X115358Y-128666
X126878Y-128666
X135678Y-128666
X147198Y-128666
X155998Y-128666
X167518Y-128666
X176318Y-128666
X187838Y-128666
X196638Y-128666
T3
X26416Y-136652
X26670Y-101346
X121158Y-101092
X121158Y-136652
X204978Y-101092
X204978Y-136652
T0
M30
