M48
METRIC,TZ
T1C0.400
T2C0.800
T3C1.000
%
G90
G05
T1
X45720Y-105410
X54610Y-105410
X66040Y-105410
X74930Y-105410
X86360Y-105410
X95250Y-105410
X106680Y-105410
X115570Y-105410
X127000Y-105410
X135890Y-105410
X147320Y-105410
X156210Y-105410
X167640Y-105410
X176530Y-105410
T2
X34830Y-111506
X36830Y-111506
X45720Y-110268
X45720Y-112268
X45720Y-114268
X54102Y-110268
X54102Y-112268
X54102Y-114268
X66040Y-110268
X66040Y-112268
X66040Y-114268
X74422Y-110268
X74422Y-112268
X74422Y-114268
X86360Y-110268
X86360Y-112268
X86360Y-114268
X94742Y-110268
X94742Y-112268
X94742Y-114268
X106680Y-110268
X106680Y-112268
X106680Y-114268
X115062Y-110268
X115062Y-112268
X115062Y-114268
X127000Y-110268
X127000Y-112268
X127000Y-114268
X135382Y-110268
X135382Y-112268
X135382Y-114268
X147320Y-110268
X147320Y-112268
X147320Y-114268
X155702Y-110268
X155702Y-112268
X155702Y-114268
X167640Y-110268
X167640Y-112268
X167640Y-114268
X176022Y-110268
X176022Y-112268
X176022Y-114268
X187960Y-110268
X187960Y-112268
X187960Y-114268
X196342Y-110268
X196342Y-112268
X196342Y-114268
T3
X34798Y-101346
X37338Y-101346
X47498Y-101346
X47498Y-121666
X49998Y-121666
X50038Y-101346
X52498Y-121666
X52578Y-101346
X67818Y-101346
X67818Y-121666
X70318Y-121666
X70358Y-101346
X72818Y-121666
X72898Y-101346
X88138Y-101346
X88138Y-121666
X90638Y-121666
X90678Y-101346
X93138Y-121666
X93218Y-101346
X108458Y-101346
X108458Y-121666
X110958Y-121666
X110998Y-101346
X113458Y-121666
X113538Y-101346
X128778Y-101346
X128778Y-121666
X131278Y-121666
X131318Y-101346
X133778Y-121666
X133858Y-101346
X149098Y-101346
X149098Y-121666
X151598Y-121666
X151638Y-101346
X154098Y-121666
X154178Y-101346
X169418Y-101346
X169418Y-121666
X171918Y-121666
X171958Y-101346
X174418Y-121666
X174498Y-101346
X189738Y-101346
X189738Y-121666
X192238Y-121666
X192278Y-101346
X194738Y-121666
X194818Y-101346
T0
M30
